G04*
G04 #@! TF.GenerationSoftware,Altium Limited,Altium Designer,26.4.1 (12)*
G04*
G04 Layer_Physical_Order=3*
G04 Layer_Color=6736896*
%FSLAX44Y44*%
%MOMM*%
G71*
G04*
G04 #@! TF.SameCoordinates,9FD657B5-025E-4A20-9142-96FDC4A489F6*
G04*
G04*
G04 #@! TF.FilePolarity,Positive*
G04*
G01*
G75*
%ADD13C,0.1500*%
%ADD101C,0.4000*%
%ADD104C,0.3200*%
%ADD105C,0.3500*%
%ADD106C,0.2200*%
%ADD108C,0.4000*%
%ADD109C,4.4000*%
%ADD110C,0.1600*%
%ADD111C,0.1600*%
G36*
X797009Y794024D02*
X801631Y792109D01*
X805792Y789330D01*
X809330Y785792D01*
X812109Y781631D01*
X814024Y777009D01*
X815000Y772102D01*
X815000Y769600D01*
X815000Y150000D01*
D01*
Y30400D01*
X815000Y30400D01*
Y27898D01*
X814024Y22991D01*
X812109Y18369D01*
X809329Y14208D01*
X805791Y10670D01*
X801631Y7891D01*
X797009Y5976D01*
X792102Y5000D01*
X789600Y5000D01*
X30000Y5000D01*
X30400D01*
X27924Y5000D01*
X23064Y5957D01*
X18480Y7834D01*
X14346Y10561D01*
X10816Y14036D01*
X8024Y18127D01*
X6075Y22680D01*
X5042Y27524D01*
X5003Y30000D01*
X5001Y120400D01*
X5000D01*
Y769600D01*
Y772102D01*
X5976Y777009D01*
X7891Y781631D01*
X10670Y785791D01*
X14208Y789329D01*
X18369Y792109D01*
X22991Y794024D01*
X27898Y795000D01*
X30400Y795000D01*
X789600Y795000D01*
X789600Y795000D01*
X792102Y795000D01*
X797009Y794024D01*
D02*
G37*
%LPC*%
G36*
X30000Y785000D02*
X30000Y785000D01*
X28602Y784743D01*
X25890Y783896D01*
X23349Y782625D01*
X21045Y780964D01*
X19036Y778955D01*
X17375Y776651D01*
X16104Y774110D01*
X15257Y771398D01*
X15000Y770000D01*
X15000Y140000D01*
D01*
Y30000D01*
X15000Y30000D01*
X15257Y28602D01*
X16104Y25890D01*
X17375Y23349D01*
X19036Y21045D01*
X21045Y19036D01*
X23349Y17375D01*
X25890Y16104D01*
X28602Y15257D01*
X30000Y15000D01*
X790000D01*
X791398Y15257D01*
X794110Y16104D01*
X796651Y17375D01*
X798956Y19036D01*
X800964Y21044D01*
X802625Y23349D01*
X803896Y25890D01*
X804743Y28602D01*
X805000Y30000D01*
X805000Y133628D01*
X805000Y133628D01*
X805000Y770000D01*
X805000Y770000D01*
X804743Y771398D01*
X803895Y774110D01*
X802625Y776651D01*
X800964Y778955D01*
X798955Y780964D01*
X796651Y782625D01*
X794110Y783895D01*
X791398Y784743D01*
X790000Y785000D01*
X30000Y785000D01*
D02*
G37*
%LPD*%
D13*
X700700Y497200D02*
X705700Y502200D01*
X692200Y491190D02*
Y494710D01*
X694690Y497200D01*
X701450Y481550D02*
Y481940D01*
X694690Y497200D02*
X700700D01*
X692200Y491190D02*
X701450Y481940D01*
Y481550D02*
X709000Y474000D01*
X726120Y638120D02*
X733000Y645000D01*
X725621Y632263D02*
X726120Y632761D01*
Y638120D01*
X725621Y596379D02*
Y632263D01*
X733000Y645000D02*
Y662324D01*
X646180Y733250D02*
X649915Y729515D01*
X643293Y733250D02*
X646180D01*
X634793Y741750D02*
X643293Y733250D01*
X649915Y726628D02*
Y729515D01*
X589240Y741750D02*
X634793D01*
X649915Y726628D02*
X657266Y719277D01*
X709000Y438657D02*
Y474000D01*
X529250Y363750D02*
Y415029D01*
X533000Y418779D01*
X529250Y363750D02*
X550800Y342200D01*
X543000Y562000D02*
Y602579D01*
X533118Y503057D02*
Y552118D01*
X543000Y562000D01*
Y602579D02*
X547318Y606897D01*
X533118Y503057D02*
X533250Y502925D01*
X533000Y418779D02*
Y452615D01*
X533250Y452865D02*
Y502925D01*
X533000Y452615D02*
X533250Y452865D01*
X523000Y753000D02*
X546000Y776000D01*
X523000Y727000D02*
Y753000D01*
X512000Y716000D02*
X523000Y727000D01*
X696044Y776000D02*
X705044Y767000D01*
X546000Y776000D02*
X696044D01*
X657266Y717256D02*
Y719277D01*
Y717256D02*
X676422Y698100D01*
Y697240D02*
Y698100D01*
Y697240D02*
X679211Y694450D01*
X691460D01*
X731000Y664324D02*
Y665000D01*
Y664324D02*
X733000Y662324D01*
X725621Y596379D02*
X729000Y593000D01*
Y557000D02*
Y593000D01*
X719000Y547000D02*
X729000Y557000D01*
X719000Y502688D02*
Y547000D01*
X520361Y433000D02*
X524000D01*
X512000Y441361D02*
X520361Y433000D01*
X512000Y441361D02*
Y716000D01*
X547318Y606897D02*
Y683940D01*
X549997Y750250D02*
X552897Y753150D01*
X543750Y724975D02*
Y747760D01*
Y724975D02*
X552018Y716707D01*
X546240Y750250D02*
X549997D01*
X547318Y683940D02*
X552018Y688640D01*
Y716707D01*
X552897Y753150D02*
X557490D01*
X543750Y747760D02*
X546240Y750250D01*
X557490Y753150D02*
X563490Y759150D01*
X571840D01*
X589240Y741750D01*
X705000Y668000D02*
Y680910D01*
X691460Y694450D02*
X705000Y680910D01*
X550800Y342200D02*
X558700D01*
X717700Y370200D02*
X725261Y377761D01*
Y422397D01*
X709000Y438657D02*
X725261Y422397D01*
D101*
X704150Y485250D02*
X713000D01*
X696450Y492950D02*
X704150Y485250D01*
X693700Y397200D02*
Y425200D01*
X653016Y387516D02*
X684016D01*
X693700Y397200D01*
X676327Y416827D02*
X684700Y425200D01*
X648134Y416827D02*
X676327D01*
X582984Y307484D02*
X602984D01*
X562984Y317484D02*
X572984Y307484D01*
X602984Y317484D02*
X608484Y311984D01*
X653016Y387516D02*
X662700Y377832D01*
Y371200D02*
Y377832D01*
X593016Y371884D02*
Y377484D01*
X573016D02*
X593016D01*
X562984Y387516D02*
X573016Y377484D01*
X588446Y500675D02*
X588700Y500930D01*
Y523200D01*
X588700Y523200D01*
X572984Y537516D02*
X587300Y523200D01*
X588700D01*
X602984Y537484D01*
X572984Y476484D02*
X588446Y491945D01*
Y500675D01*
X572984Y427516D02*
Y476484D01*
X589732Y594200D02*
X593016Y597484D01*
X606141Y298200D02*
X608484Y300543D01*
Y311984D01*
X567700Y594200D02*
X589732D01*
X567648Y594252D02*
Y595027D01*
Y594252D02*
X567700Y594200D01*
X630970Y362581D02*
X635156D01*
X630290Y361901D02*
X630970Y362581D01*
X593016Y371884D02*
X602999Y361901D01*
X635156Y362581D02*
X635914Y361824D01*
X602999Y361901D02*
X630290D01*
X653324Y361824D02*
X662700Y371200D01*
X635914Y361824D02*
X653324D01*
X583978Y298200D02*
X606141D01*
X572984Y307484D02*
X574694D01*
X583978Y298200D01*
X566475Y604975D02*
X567700Y606200D01*
X566475Y596200D02*
X567648Y595027D01*
X566475Y596200D02*
Y604975D01*
D104*
X765900Y626888D02*
Y646900D01*
X764900Y534900D02*
X769100Y539100D01*
Y623688D01*
X765900Y626888D02*
X769100Y623688D01*
X765900Y646900D02*
X770000Y651000D01*
X539900Y749355D02*
X553545Y763000D01*
X604787D01*
X609888Y757900D02*
X670312D01*
X718213Y710000D01*
X604787Y763000D02*
X609888Y757900D01*
X532144Y565225D02*
X532297D01*
X551000Y771000D02*
X663859D01*
X552900Y471400D02*
X570700Y489200D01*
X587483Y336200D02*
X598200D01*
X583494Y340190D02*
X587483Y336200D01*
X552900Y433000D02*
Y471400D01*
Y433000D02*
X559700Y426200D01*
X579810Y340190D02*
X583494D01*
X552000Y368000D02*
X579810Y340190D01*
X68000Y423780D02*
Y563787D01*
X69100Y412455D02*
Y422680D01*
X63900Y407255D02*
X69100Y412455D01*
X68000Y423780D02*
X69100Y422680D01*
X63900Y364778D02*
Y407255D01*
X303900Y208888D02*
Y213112D01*
X304722Y213935D01*
Y171750D02*
Y208065D01*
Y213935D02*
Y241506D01*
X303900Y208888D02*
X304722Y208065D01*
X83100Y314100D02*
X87000Y318000D01*
X83100Y143900D02*
Y314100D01*
Y143900D02*
X87000Y140000D01*
X73100Y619888D02*
Y673683D01*
X69000Y569983D02*
X73800Y565183D01*
X68000Y130000D02*
Y360678D01*
X63900Y567887D02*
X68000Y563787D01*
X63900Y617683D02*
X68000Y621783D01*
X78000Y151000D02*
Y379000D01*
X69000Y615788D02*
X73100Y619888D01*
X69000Y388017D02*
X73800Y392817D01*
X68000Y621783D02*
Y622000D01*
X69000Y677784D02*
Y678000D01*
Y677784D02*
X73100Y673683D01*
X69000Y569983D02*
Y615788D01*
X73800Y392817D02*
Y565183D01*
X69000Y388000D02*
X78000Y379000D01*
X63900Y567887D02*
Y617683D01*
Y364778D02*
X68000Y360678D01*
X86900Y406888D02*
Y453209D01*
X87000Y453309D01*
Y500000D01*
X86900Y406888D02*
X87000Y406787D01*
Y374000D02*
Y406787D01*
Y556000D02*
Y608000D01*
X710800Y313941D02*
Y315588D01*
X693112Y297900D02*
X703412Y308200D01*
X703112Y312900D02*
X706100Y315888D01*
X710800Y315588D02*
X772500Y377287D01*
X703412Y308200D02*
X705059D01*
X706100Y318100D02*
X767800Y379800D01*
X700900Y312900D02*
X703112D01*
X691000Y303000D02*
X700900Y312900D01*
X706100Y315888D02*
Y318100D01*
X705059Y308200D02*
X710800Y313941D01*
X606000Y344000D02*
X660500D01*
X598200Y336200D02*
X606000Y344000D01*
X660500D02*
X720700Y404200D01*
X771000Y642213D02*
X776100Y647312D01*
X771000Y629000D02*
Y642213D01*
X776100Y647312D02*
Y724112D01*
X770000Y651000D02*
Y675000D01*
X782000Y646000D02*
Y730245D01*
X777000Y641000D02*
X782000Y646000D01*
X764900Y680100D02*
X770000Y675000D01*
X764900Y680100D02*
Y720100D01*
X738989Y428011D02*
Y664223D01*
Y428011D02*
X758000Y409000D01*
X717133Y686080D02*
X738989Y664223D01*
X719080Y690780D02*
X751600Y658259D01*
X756300Y436813D02*
X761800Y431312D01*
X698000Y723000D02*
X756300Y664700D01*
X751600Y427088D02*
Y658259D01*
X756300Y436813D02*
Y664700D01*
X751600Y427088D02*
X763100Y415588D01*
X761800Y431057D02*
X767800Y425056D01*
X761800Y431057D02*
Y431312D01*
X766500Y433003D02*
X772500Y427003D01*
X766500Y433003D02*
Y433259D01*
X764900Y434859D02*
X766500Y433259D01*
X764900Y434859D02*
Y534900D01*
X55000Y133000D02*
X60532Y138532D01*
Y207468D01*
X305000Y241784D02*
Y242000D01*
X304722Y241506D02*
X305000Y241784D01*
X60532Y208748D02*
Y244999D01*
X60000Y208000D02*
X60532Y207468D01*
X531968Y671283D02*
Y751968D01*
X551000Y771000D01*
X663859D02*
X717859Y717000D01*
X772399Y739846D02*
X782000Y730245D01*
X772016Y728196D02*
X776100Y724112D01*
X772016Y728196D02*
Y730650D01*
X771863Y730803D02*
X772016Y730650D01*
X738900Y746100D02*
X764900Y720100D01*
X719887Y746100D02*
X738900D01*
X532532Y594388D02*
Y670719D01*
X531968Y671283D02*
X532532Y670719D01*
X539900Y723380D02*
X548168Y715112D01*
X538000Y680067D02*
X548168Y690235D01*
X539900Y723380D02*
Y749355D01*
X554700Y542988D02*
Y569200D01*
Y542988D02*
X558587Y539100D01*
X562835D01*
X565800Y504100D02*
Y536135D01*
X562835Y539100D02*
X565800Y536135D01*
X554700Y569200D02*
Y569417D01*
X548168Y690235D02*
Y715112D01*
X718213Y710000D02*
X726000D01*
X537631Y566100D02*
X538000Y566469D01*
Y680067D01*
X532000Y593856D02*
X532532Y594388D01*
X532000Y565369D02*
Y593856D01*
Y565369D02*
X532144Y565225D01*
X758000Y403000D02*
X758153Y403153D01*
X691000Y717000D02*
X691212D01*
X717859D02*
X726000D01*
X557866Y612000D02*
X558000D01*
X563700Y617700D02*
Y696488D01*
X550000Y604134D02*
X557866Y612000D01*
X558000D02*
X563700Y617700D01*
X550000Y574117D02*
Y604134D01*
Y574117D02*
X554700Y569417D01*
X714920Y686080D02*
X717133D01*
X691000Y710000D02*
X714920Y686080D01*
X691212Y717000D02*
X717433Y690780D01*
X763100Y406888D02*
Y415588D01*
X548000Y746000D02*
X564826Y729174D01*
X552000Y368000D02*
Y418500D01*
X559700Y426200D01*
X759365Y403153D02*
X763100Y406888D01*
X717433Y690780D02*
X719080D01*
X758153Y403153D02*
X759365D01*
X767800Y379800D02*
Y425056D01*
X689000Y295000D02*
X689217D01*
X692116Y297900D01*
X693112D01*
X772500Y377287D02*
Y427003D01*
X704000Y742000D02*
X715788D01*
X719887Y746100D01*
X60000Y208000D02*
Y208216D01*
X60532Y208748D01*
X69000Y388000D02*
Y388017D01*
X565800Y504100D02*
X570700Y499200D01*
Y489200D02*
Y499200D01*
X563700Y696488D02*
X564300Y697087D01*
Y701312D01*
X564826Y701839D01*
Y729174D01*
D105*
X99000Y245000D02*
X116000D01*
D106*
X697700Y593200D02*
Y682200D01*
X689700Y690200D02*
X697700Y682200D01*
D108*
X539000Y473000D02*
D03*
X260000Y61000D02*
D03*
X714750Y475500D02*
D03*
X774500Y556750D02*
D03*
X774250Y543500D02*
D03*
Y570000D02*
D03*
X763750Y585500D02*
D03*
X764000Y591500D02*
D03*
X733250Y470500D02*
D03*
X716500Y440250D02*
D03*
X733750Y450500D02*
D03*
X589668Y566232D02*
D03*
X653668Y577232D02*
D03*
X710668Y553232D02*
D03*
Y568232D02*
D03*
X684668Y643232D02*
D03*
X554668Y680232D02*
D03*
Y629232D02*
D03*
Y651232D02*
D03*
Y666232D02*
D03*
X601668Y514232D02*
D03*
X631668Y511232D02*
D03*
X559700Y370200D02*
D03*
X588668Y361232D02*
D03*
X589700Y445200D02*
D03*
X699700Y391200D02*
D03*
X555700Y305200D02*
D03*
X277568Y37568D02*
D03*
X283568Y31568D02*
D03*
X277568D02*
D03*
X283568Y37568D02*
D03*
X40432Y153999D02*
D03*
Y159999D02*
D03*
X203000Y180568D02*
D03*
X209000D02*
D03*
X291000Y135000D02*
D03*
X291000Y139568D02*
D03*
X312000Y92000D02*
D03*
Y97000D02*
D03*
X354000Y84000D02*
D03*
X360000D02*
D03*
X354000Y89000D02*
D03*
X360000D02*
D03*
X355432Y143000D02*
D03*
X360000Y143000D02*
D03*
X354432Y168000D02*
D03*
Y174000D02*
D03*
X360432D02*
D03*
Y168000D02*
D03*
X436432Y159897D02*
D03*
X442432Y153897D02*
D03*
X436432D02*
D03*
X442432Y159897D02*
D03*
X382382Y170377D02*
D03*
Y176377D02*
D03*
X388382D02*
D03*
Y170377D02*
D03*
X27000Y232568D02*
D03*
Y226568D02*
D03*
X92000Y204000D02*
D03*
X203000Y186568D02*
D03*
X209000D02*
D03*
X38432Y316000D02*
D03*
Y322000D02*
D03*
X44432Y316000D02*
D03*
Y322000D02*
D03*
X87000Y347000D02*
D03*
X219000Y209432D02*
D03*
X285000Y198000D02*
D03*
X213000Y209432D02*
D03*
Y215432D02*
D03*
X219000D02*
D03*
Y225432D02*
D03*
X213000D02*
D03*
X293500Y223432D02*
D03*
X299500Y229432D02*
D03*
X219000Y231432D02*
D03*
X213000D02*
D03*
X293500Y229432D02*
D03*
X299500Y223432D02*
D03*
X341000Y223432D02*
D03*
X347000D02*
D03*
X341000Y229432D02*
D03*
X347000D02*
D03*
X509000Y92000D02*
D03*
X503000D02*
D03*
X523432Y124432D02*
D03*
X451000Y132000D02*
D03*
X457000Y126000D02*
D03*
X451000D02*
D03*
X457000Y132000D02*
D03*
X494432Y157648D02*
D03*
X500432Y151648D02*
D03*
X494432D02*
D03*
X523432Y130432D02*
D03*
Y154000D02*
D03*
X500432Y157648D02*
D03*
X523432Y160000D02*
D03*
X529000Y92700D02*
D03*
X535000D02*
D03*
X529432Y124432D02*
D03*
Y130432D02*
D03*
X557432Y129000D02*
D03*
X586000Y96000D02*
D03*
Y90000D02*
D03*
X557432Y123000D02*
D03*
X563432Y129000D02*
D03*
Y123000D02*
D03*
X529432Y154000D02*
D03*
Y160000D02*
D03*
X539000Y215568D02*
D03*
X545000D02*
D03*
X539000Y221568D02*
D03*
X545000D02*
D03*
X558700Y297200D02*
D03*
X577700Y296700D02*
D03*
X526000Y306000D02*
D03*
X535000Y380932D02*
D03*
Y386932D02*
D03*
X542000Y375000D02*
D03*
X521232Y487200D02*
D03*
Y481200D02*
D03*
X558700Y460200D02*
D03*
X545068Y473000D02*
D03*
X560700Y470200D02*
D03*
X562984Y397516D02*
D03*
X549000Y524000D02*
D03*
X560700Y506200D02*
D03*
X520368Y549200D02*
D03*
Y543200D02*
D03*
X521432Y602500D02*
D03*
Y596500D02*
D03*
X560700Y605200D02*
D03*
Y544200D02*
D03*
X542000Y707000D02*
D03*
Y713000D02*
D03*
X559726Y709492D02*
D03*
X577075Y520950D02*
D03*
X594700Y516200D02*
D03*
X598950Y476700D02*
D03*
X583700Y567200D02*
D03*
X586700Y586200D02*
D03*
X584700Y664200D02*
D03*
X596668Y622232D02*
D03*
X601700Y696200D02*
D03*
X622700Y316200D02*
D03*
X618072Y331670D02*
D03*
X627882Y336825D02*
D03*
X637700Y306200D02*
D03*
X649000Y86000D02*
D03*
Y97000D02*
D03*
Y76000D02*
D03*
X652700Y317200D02*
D03*
X632940Y357081D02*
D03*
X652984Y327484D02*
D03*
X648684Y331908D02*
D03*
X608118Y368175D02*
D03*
X615611Y449889D02*
D03*
X618118Y368175D02*
D03*
X622984Y427484D02*
D03*
X623016Y457516D02*
D03*
X628012Y367401D02*
D03*
X638192Y367323D02*
D03*
X632984Y457516D02*
D03*
X665000Y76000D02*
D03*
Y97000D02*
D03*
Y86000D02*
D03*
X716432Y22000D02*
D03*
Y28000D02*
D03*
X722432Y22000D02*
D03*
Y28000D02*
D03*
X719000Y160000D02*
D03*
X743298Y23285D02*
D03*
Y29285D02*
D03*
X749297Y23285D02*
D03*
Y29285D02*
D03*
X693000Y242000D02*
D03*
X701000Y318000D02*
D03*
X761000Y202000D02*
D03*
X766000Y197000D02*
D03*
X761000D02*
D03*
X766000Y202000D02*
D03*
X704000Y286000D02*
D03*
X662984Y427516D02*
D03*
X653016Y437516D02*
D03*
X675700Y443200D02*
D03*
X706700Y406200D02*
D03*
X730700Y392200D02*
D03*
X686000Y454000D02*
D03*
X693868Y454069D02*
D03*
X686000Y461000D02*
D03*
X694000D02*
D03*
X700238Y441436D02*
D03*
X622984Y467484D02*
D03*
X608700Y516200D02*
D03*
X612970Y547498D02*
D03*
X633016Y467484D02*
D03*
X640700Y552200D02*
D03*
X615611Y669889D02*
D03*
X623016Y677516D02*
D03*
Y687484D02*
D03*
X628825Y588700D02*
D03*
X632984Y677516D02*
D03*
Y687484D02*
D03*
X653700Y588200D02*
D03*
X673700Y492200D02*
D03*
X698700Y503200D02*
D03*
X673700Y528200D02*
D03*
X710700Y585200D02*
D03*
X762000Y654500D02*
D03*
Y660500D02*
D03*
X680672Y699000D02*
D03*
X87000Y529000D02*
D03*
Y637000D02*
D03*
X64000Y414568D02*
D03*
Y420568D02*
D03*
X31000Y510568D02*
D03*
Y516568D02*
D03*
Y618568D02*
D03*
Y624568D02*
D03*
X38000Y594568D02*
D03*
Y600568D02*
D03*
X66000Y706568D02*
D03*
Y712568D02*
D03*
X267000Y116000D02*
D03*
X20000Y72000D02*
D03*
Y132000D02*
D03*
X35000Y162000D02*
D03*
X20000Y252000D02*
D03*
X35000Y282000D02*
D03*
X20000Y312000D02*
D03*
X35000Y402000D02*
D03*
X20000Y492000D02*
D03*
X35000Y522000D02*
D03*
Y582000D02*
D03*
X20000Y612000D02*
D03*
Y672000D02*
D03*
X35000Y702000D02*
D03*
X20000Y732000D02*
D03*
X65000Y42000D02*
D03*
X50000Y72000D02*
D03*
Y312000D02*
D03*
Y492000D02*
D03*
X65000Y642000D02*
D03*
X50000Y732000D02*
D03*
X65000Y762000D02*
D03*
X95000Y42000D02*
D03*
X80000Y72000D02*
D03*
X95000Y222000D02*
D03*
Y282000D02*
D03*
Y462000D02*
D03*
X80000Y492000D02*
D03*
Y552000D02*
D03*
X95000Y642000D02*
D03*
Y762000D02*
D03*
X125000Y42000D02*
D03*
X110000Y72000D02*
D03*
X125000Y282000D02*
D03*
Y462000D02*
D03*
X110000Y732000D02*
D03*
X125000Y762000D02*
D03*
X155000Y42000D02*
D03*
X140000Y72000D02*
D03*
X155000Y282000D02*
D03*
X140000Y732000D02*
D03*
X155000Y762000D02*
D03*
X185000Y42000D02*
D03*
X170000Y72000D02*
D03*
X185000Y102000D02*
D03*
Y282000D02*
D03*
X170000Y732000D02*
D03*
X185000Y762000D02*
D03*
X215000Y42000D02*
D03*
X200000Y72000D02*
D03*
Y192000D02*
D03*
X215000Y282000D02*
D03*
Y342000D02*
D03*
X200000Y492000D02*
D03*
Y732000D02*
D03*
X215000Y762000D02*
D03*
X230000Y72000D02*
D03*
X245000Y102000D02*
D03*
Y222000D02*
D03*
Y282000D02*
D03*
Y342000D02*
D03*
Y402000D02*
D03*
Y462000D02*
D03*
X230000Y492000D02*
D03*
X245000Y522000D02*
D03*
X230000Y552000D02*
D03*
Y612000D02*
D03*
Y672000D02*
D03*
Y732000D02*
D03*
X245000Y762000D02*
D03*
X260000Y72000D02*
D03*
X275000Y102000D02*
D03*
Y222000D02*
D03*
Y282000D02*
D03*
X260000Y492000D02*
D03*
Y732000D02*
D03*
X275000Y762000D02*
D03*
X305000Y282000D02*
D03*
Y342000D02*
D03*
X290000Y432000D02*
D03*
X305000Y702000D02*
D03*
X290000Y732000D02*
D03*
X305000Y762000D02*
D03*
X335000Y282000D02*
D03*
Y342000D02*
D03*
Y402000D02*
D03*
X320000Y432000D02*
D03*
X335000Y462000D02*
D03*
X320000Y492000D02*
D03*
X335000Y522000D02*
D03*
X320000Y552000D02*
D03*
Y612000D02*
D03*
Y672000D02*
D03*
X335000Y702000D02*
D03*
X320000Y732000D02*
D03*
X335000Y762000D02*
D03*
X365000Y42000D02*
D03*
Y162000D02*
D03*
X350000Y192000D02*
D03*
X365000Y222000D02*
D03*
Y282000D02*
D03*
X350000Y432000D02*
D03*
Y492000D02*
D03*
X365000Y702000D02*
D03*
X350000Y732000D02*
D03*
X365000Y762000D02*
D03*
X395000Y42000D02*
D03*
Y162000D02*
D03*
X380000Y252000D02*
D03*
X395000Y282000D02*
D03*
Y342000D02*
D03*
X380000Y372000D02*
D03*
X395000Y702000D02*
D03*
X380000Y732000D02*
D03*
X395000Y762000D02*
D03*
X410000Y72000D02*
D03*
X425000Y102000D02*
D03*
X410000Y192000D02*
D03*
Y252000D02*
D03*
X425000Y282000D02*
D03*
Y342000D02*
D03*
X410000Y372000D02*
D03*
X425000Y402000D02*
D03*
X410000Y432000D02*
D03*
X425000Y462000D02*
D03*
X410000Y492000D02*
D03*
X425000Y522000D02*
D03*
X410000Y552000D02*
D03*
Y612000D02*
D03*
Y672000D02*
D03*
X425000Y702000D02*
D03*
X410000Y732000D02*
D03*
X425000Y762000D02*
D03*
X440000Y72000D02*
D03*
X455000Y102000D02*
D03*
X440000Y192000D02*
D03*
Y252000D02*
D03*
X455000Y282000D02*
D03*
X440000Y372000D02*
D03*
Y432000D02*
D03*
Y492000D02*
D03*
Y552000D02*
D03*
X455000Y702000D02*
D03*
X440000Y732000D02*
D03*
X485000Y42000D02*
D03*
X470000Y192000D02*
D03*
Y252000D02*
D03*
X485000Y282000D02*
D03*
Y582000D02*
D03*
Y642000D02*
D03*
Y702000D02*
D03*
X470000Y732000D02*
D03*
X485000Y762000D02*
D03*
X515000Y42000D02*
D03*
Y102000D02*
D03*
Y162000D02*
D03*
X500000Y192000D02*
D03*
Y252000D02*
D03*
X515000Y282000D02*
D03*
Y342000D02*
D03*
X500000Y732000D02*
D03*
X545000Y42000D02*
D03*
X530000Y72000D02*
D03*
X545000Y162000D02*
D03*
X530000Y252000D02*
D03*
X545000Y282000D02*
D03*
X575000Y42000D02*
D03*
X560000Y72000D02*
D03*
X575000Y162000D02*
D03*
X560000Y252000D02*
D03*
X575000Y282000D02*
D03*
X605000Y42000D02*
D03*
Y162000D02*
D03*
Y282000D02*
D03*
X635000Y42000D02*
D03*
Y282000D02*
D03*
X620000Y732000D02*
D03*
X665000Y42000D02*
D03*
Y282000D02*
D03*
X695000Y42000D02*
D03*
X710000Y72000D02*
D03*
Y132000D02*
D03*
X755000Y42000D02*
D03*
X740000Y312000D02*
D03*
X755000Y342000D02*
D03*
Y702000D02*
D03*
Y762000D02*
D03*
X770000Y72000D02*
D03*
X785000Y102000D02*
D03*
X770000Y132000D02*
D03*
Y192000D02*
D03*
X785000Y222000D02*
D03*
X770000Y252000D02*
D03*
X785000Y282000D02*
D03*
Y342000D02*
D03*
Y402000D02*
D03*
Y582000D02*
D03*
X800000Y72000D02*
D03*
Y132000D02*
D03*
Y192000D02*
D03*
Y252000D02*
D03*
Y312000D02*
D03*
Y372000D02*
D03*
Y492000D02*
D03*
Y612000D02*
D03*
Y672000D02*
D03*
Y732000D02*
D03*
X170000Y342001D02*
D03*
Y602001D02*
D03*
X200000Y362001D02*
D03*
X205000Y492001D02*
D03*
X200000Y622001D02*
D03*
X210000Y342001D02*
D03*
Y362001D02*
D03*
X215000Y472001D02*
D03*
Y492001D02*
D03*
X210000Y602001D02*
D03*
Y622001D02*
D03*
X225000Y332001D02*
D03*
X220000Y342001D02*
D03*
X225000Y352001D02*
D03*
X220000Y362001D02*
D03*
X225000Y392001D02*
D03*
X220000Y402001D02*
D03*
X225000Y412001D02*
D03*
X220000Y422001D02*
D03*
X225000Y472001D02*
D03*
Y492001D02*
D03*
Y532001D02*
D03*
Y552001D02*
D03*
Y592001D02*
D03*
X220000Y602001D02*
D03*
X225000Y612001D02*
D03*
X220000Y622001D02*
D03*
X225000Y652001D02*
D03*
X220000Y662001D02*
D03*
X225000Y672001D02*
D03*
X220000Y682001D02*
D03*
X235000Y332001D02*
D03*
X230000Y342001D02*
D03*
X235000Y352001D02*
D03*
X230000Y362001D02*
D03*
X235000Y392001D02*
D03*
X230000Y402001D02*
D03*
X235000Y412001D02*
D03*
X230000Y422001D02*
D03*
Y462001D02*
D03*
X235000Y472001D02*
D03*
X230000Y482001D02*
D03*
X235000Y492001D02*
D03*
X230000Y522001D02*
D03*
X235000Y532001D02*
D03*
X230000Y542001D02*
D03*
X235000Y552001D02*
D03*
Y592001D02*
D03*
X230000Y602001D02*
D03*
X235000Y612001D02*
D03*
X230000Y622001D02*
D03*
X235000Y652001D02*
D03*
X230000Y662001D02*
D03*
X235000Y672001D02*
D03*
X230000Y682001D02*
D03*
X245000Y332001D02*
D03*
X240000Y342001D02*
D03*
X245000Y352001D02*
D03*
X240000Y362001D02*
D03*
X245000Y392001D02*
D03*
X240000Y402001D02*
D03*
X245000Y412001D02*
D03*
X240000Y422001D02*
D03*
Y462001D02*
D03*
X245000Y472001D02*
D03*
X240000Y482001D02*
D03*
X245000Y492001D02*
D03*
X240000Y522001D02*
D03*
X245000Y532001D02*
D03*
X240000Y542001D02*
D03*
X245000Y552001D02*
D03*
Y592001D02*
D03*
X240000Y602001D02*
D03*
X245000Y612001D02*
D03*
X240000Y622001D02*
D03*
X245000Y652001D02*
D03*
X240000Y662001D02*
D03*
X245000Y672001D02*
D03*
X240000Y682001D02*
D03*
X250000Y342001D02*
D03*
Y362001D02*
D03*
Y402001D02*
D03*
Y422001D02*
D03*
Y462001D02*
D03*
X255000Y472001D02*
D03*
X250000Y482001D02*
D03*
X255000Y492001D02*
D03*
X250000Y522001D02*
D03*
Y542001D02*
D03*
Y602001D02*
D03*
Y622001D02*
D03*
Y662001D02*
D03*
Y682001D02*
D03*
X260000Y342001D02*
D03*
Y362001D02*
D03*
X265000Y472001D02*
D03*
Y492001D02*
D03*
X260000Y602001D02*
D03*
Y622001D02*
D03*
X270000Y362001D02*
D03*
X275000Y492001D02*
D03*
X270000Y622001D02*
D03*
X295000Y432001D02*
D03*
Y492001D02*
D03*
X290000Y562001D02*
D03*
X300000Y342001D02*
D03*
Y362001D02*
D03*
X305000Y432001D02*
D03*
Y472001D02*
D03*
Y492001D02*
D03*
X300000Y562001D02*
D03*
Y602001D02*
D03*
Y622001D02*
D03*
X310000Y342001D02*
D03*
Y362001D02*
D03*
X315000Y392001D02*
D03*
Y412001D02*
D03*
Y432001D02*
D03*
Y472001D02*
D03*
Y492001D02*
D03*
Y532001D02*
D03*
Y552001D02*
D03*
X310000Y562001D02*
D03*
Y602001D02*
D03*
Y622001D02*
D03*
X315000Y652001D02*
D03*
Y672001D02*
D03*
X325000Y332001D02*
D03*
X320000Y342001D02*
D03*
X325000Y352001D02*
D03*
X320000Y362001D02*
D03*
X325000Y392001D02*
D03*
X320000Y402001D02*
D03*
X325000Y412001D02*
D03*
X320000Y422001D02*
D03*
X325000Y432001D02*
D03*
X320000Y462001D02*
D03*
X325000Y472001D02*
D03*
X320000Y482001D02*
D03*
X325000Y492001D02*
D03*
X320000Y522001D02*
D03*
X325000Y532001D02*
D03*
X320000Y542001D02*
D03*
X325000Y552001D02*
D03*
X320000Y562001D02*
D03*
X325000Y592001D02*
D03*
X320000Y602001D02*
D03*
X325000Y612001D02*
D03*
X320000Y622001D02*
D03*
X325000Y652001D02*
D03*
X320000Y662001D02*
D03*
X325000Y672001D02*
D03*
X320000Y682001D02*
D03*
X335000Y332001D02*
D03*
X330000Y342001D02*
D03*
X335000Y352001D02*
D03*
X330000Y362001D02*
D03*
X335000Y392001D02*
D03*
X330000Y402001D02*
D03*
X335000Y412001D02*
D03*
X330000Y422001D02*
D03*
X335000Y432001D02*
D03*
X330000Y462001D02*
D03*
X335000Y472001D02*
D03*
X330000Y482001D02*
D03*
X335000Y492001D02*
D03*
X330000Y522001D02*
D03*
X335000Y532001D02*
D03*
X330000Y542001D02*
D03*
X335000Y552001D02*
D03*
X330000Y562001D02*
D03*
X335000Y592001D02*
D03*
X330000Y602001D02*
D03*
X335000Y612001D02*
D03*
X330000Y622001D02*
D03*
X335000Y652001D02*
D03*
X330000Y662001D02*
D03*
X335000Y672001D02*
D03*
X330000Y682001D02*
D03*
X345000Y332001D02*
D03*
X340000Y342001D02*
D03*
X345000Y352001D02*
D03*
X340000Y362001D02*
D03*
X345000Y392001D02*
D03*
X340000Y402001D02*
D03*
X345000Y412001D02*
D03*
X340000Y422001D02*
D03*
X345000Y432001D02*
D03*
X340000Y462001D02*
D03*
X345000Y472001D02*
D03*
X340000Y482001D02*
D03*
X345000Y492001D02*
D03*
X340000Y522001D02*
D03*
X345000Y532001D02*
D03*
X340000Y542001D02*
D03*
X345000Y552001D02*
D03*
X340000Y562001D02*
D03*
X345000Y592001D02*
D03*
X340000Y602001D02*
D03*
X345000Y612001D02*
D03*
X340000Y622001D02*
D03*
X345000Y652001D02*
D03*
X340000Y662001D02*
D03*
X345000Y672001D02*
D03*
X340000Y682001D02*
D03*
X350000Y342001D02*
D03*
Y362001D02*
D03*
X355000Y432001D02*
D03*
Y472001D02*
D03*
Y492001D02*
D03*
X350000Y562001D02*
D03*
Y602001D02*
D03*
Y622001D02*
D03*
X360000Y342001D02*
D03*
Y362001D02*
D03*
X365000Y432001D02*
D03*
Y492001D02*
D03*
X360000Y562001D02*
D03*
Y602001D02*
D03*
Y622001D02*
D03*
X370000Y362001D02*
D03*
X375000Y572001D02*
D03*
X370000Y622001D02*
D03*
X385000Y372001D02*
D03*
Y432001D02*
D03*
X380000Y442001D02*
D03*
Y502001D02*
D03*
X385000Y572001D02*
D03*
Y632001D02*
D03*
X390000Y362001D02*
D03*
X395000Y372001D02*
D03*
Y432001D02*
D03*
X390000Y442001D02*
D03*
X395000Y472001D02*
D03*
Y492001D02*
D03*
X390000Y502001D02*
D03*
Y562001D02*
D03*
X395000Y572001D02*
D03*
X390000Y622001D02*
D03*
X395000Y632001D02*
D03*
X400000Y342001D02*
D03*
Y362001D02*
D03*
X405000Y372001D02*
D03*
Y432001D02*
D03*
X400000Y442001D02*
D03*
X405000Y472001D02*
D03*
Y492001D02*
D03*
X400000Y502001D02*
D03*
Y562001D02*
D03*
X405000Y572001D02*
D03*
X400000Y602001D02*
D03*
Y622001D02*
D03*
X405000Y632001D02*
D03*
X415000Y332001D02*
D03*
X410001Y342001D02*
D03*
X415000Y352001D02*
D03*
X410001Y362001D02*
D03*
X415000Y372001D02*
D03*
Y392001D02*
D03*
X410001Y402001D02*
D03*
X415000Y412001D02*
D03*
X410001Y422001D02*
D03*
X415000Y432001D02*
D03*
X410001Y442001D02*
D03*
Y462001D02*
D03*
X415000Y472001D02*
D03*
X410001Y482001D02*
D03*
X415000Y492001D02*
D03*
X410001Y502001D02*
D03*
Y522001D02*
D03*
X415000Y532001D02*
D03*
X410001Y542001D02*
D03*
X415000Y552001D02*
D03*
X410001Y562001D02*
D03*
X415000Y572001D02*
D03*
Y592001D02*
D03*
X410001Y602001D02*
D03*
X415000Y612001D02*
D03*
X410001Y622001D02*
D03*
X415000Y632001D02*
D03*
Y652001D02*
D03*
X410001Y662001D02*
D03*
X415000Y672001D02*
D03*
X410001Y682001D02*
D03*
X425000Y332001D02*
D03*
X420001Y342001D02*
D03*
X425000Y352001D02*
D03*
X420001Y362001D02*
D03*
X425000Y372001D02*
D03*
Y392001D02*
D03*
X420001Y402001D02*
D03*
X425000Y412001D02*
D03*
X420001Y422001D02*
D03*
X425000Y432001D02*
D03*
X420001Y442001D02*
D03*
Y462001D02*
D03*
X425000Y472001D02*
D03*
X420001Y482001D02*
D03*
X425000Y492001D02*
D03*
X420001Y502001D02*
D03*
Y522001D02*
D03*
X425000Y532001D02*
D03*
X420001Y542001D02*
D03*
X425000Y552001D02*
D03*
X420001Y562001D02*
D03*
X425000Y572001D02*
D03*
Y592001D02*
D03*
X420001Y602001D02*
D03*
X425000Y612001D02*
D03*
X420001Y622001D02*
D03*
X425000Y632001D02*
D03*
Y652001D02*
D03*
X420001Y662001D02*
D03*
X425000Y672001D02*
D03*
X420001Y682001D02*
D03*
X435001Y332001D02*
D03*
X430001Y342001D02*
D03*
X435001Y352001D02*
D03*
X430001Y362001D02*
D03*
X435001Y372001D02*
D03*
Y392001D02*
D03*
X430001Y402001D02*
D03*
X435001Y412001D02*
D03*
X430001Y422001D02*
D03*
X435001Y432001D02*
D03*
X430001Y442001D02*
D03*
Y462001D02*
D03*
X435001Y472001D02*
D03*
X430001Y482001D02*
D03*
X435001Y492001D02*
D03*
X430001Y502001D02*
D03*
Y522001D02*
D03*
X435001Y532001D02*
D03*
X430001Y542001D02*
D03*
X435001Y552001D02*
D03*
X430001Y562001D02*
D03*
X435001Y572001D02*
D03*
Y592001D02*
D03*
X430001Y602001D02*
D03*
X435001Y612001D02*
D03*
X430001Y622001D02*
D03*
X435001Y632001D02*
D03*
Y652001D02*
D03*
X430001Y662001D02*
D03*
X435001Y672001D02*
D03*
X430001Y682001D02*
D03*
X440001Y342001D02*
D03*
Y362001D02*
D03*
X445001Y372001D02*
D03*
X440001Y402001D02*
D03*
Y422001D02*
D03*
X445001Y432001D02*
D03*
X440001Y442001D02*
D03*
X445001Y472001D02*
D03*
Y492001D02*
D03*
X440001Y502001D02*
D03*
Y562001D02*
D03*
X445001Y572001D02*
D03*
X440001Y602001D02*
D03*
Y622001D02*
D03*
X445001Y632001D02*
D03*
X440001Y662001D02*
D03*
Y682001D02*
D03*
X450001Y342001D02*
D03*
Y362001D02*
D03*
X455001Y372001D02*
D03*
Y432001D02*
D03*
X450001Y442001D02*
D03*
X455001Y492001D02*
D03*
X450001Y502001D02*
D03*
Y562001D02*
D03*
Y602001D02*
D03*
Y622001D02*
D03*
X455001Y632001D02*
D03*
X460001Y362001D02*
D03*
X465001Y492001D02*
D03*
Y512001D02*
D03*
X460001Y562001D02*
D03*
Y622001D02*
D03*
X475001Y372001D02*
D03*
X470001Y382001D02*
D03*
Y442001D02*
D03*
X475001Y512001D02*
D03*
Y572001D02*
D03*
Y632001D02*
D03*
X470001Y642001D02*
D03*
X480001Y362001D02*
D03*
X485001Y372001D02*
D03*
X480001Y382001D02*
D03*
X485001Y432001D02*
D03*
X480001Y442001D02*
D03*
X485001Y452001D02*
D03*
Y492001D02*
D03*
X480001Y502001D02*
D03*
X485001Y512001D02*
D03*
X480001Y562001D02*
D03*
X485001Y572001D02*
D03*
X480001Y622001D02*
D03*
X485001Y632001D02*
D03*
X480001Y642001D02*
D03*
X490001Y342001D02*
D03*
Y362001D02*
D03*
X495001Y372001D02*
D03*
X490001Y382001D02*
D03*
X495001Y432001D02*
D03*
X490001Y442001D02*
D03*
X495001Y452001D02*
D03*
Y472001D02*
D03*
Y492001D02*
D03*
X490001Y502001D02*
D03*
X495001Y512001D02*
D03*
X490001Y562001D02*
D03*
X495001Y572001D02*
D03*
X490001Y582001D02*
D03*
Y602001D02*
D03*
Y622001D02*
D03*
X495001Y632001D02*
D03*
X490001Y642001D02*
D03*
X162000Y471000D02*
D03*
X172000D02*
D03*
X162000Y536000D02*
D03*
X172000D02*
D03*
X162000Y602000D02*
D03*
X163000Y665000D02*
D03*
X172000D02*
D03*
X163000Y405000D02*
D03*
X171987Y405103D02*
D03*
X163000Y342000D02*
D03*
X731000Y634000D02*
D03*
X763000Y618000D02*
D03*
X762788Y622788D02*
D03*
X60000Y10000D02*
D03*
X80000D02*
D03*
X120000D02*
D03*
X100000D02*
D03*
X160000D02*
D03*
X140000D02*
D03*
X260000D02*
D03*
X280000D02*
D03*
X220000D02*
D03*
X240000D02*
D03*
X200000D02*
D03*
X180000D02*
D03*
X40000D02*
D03*
X10000Y30000D02*
D03*
Y290000D02*
D03*
Y310000D02*
D03*
Y330000D02*
D03*
Y160000D02*
D03*
Y180000D02*
D03*
Y220000D02*
D03*
Y200000D02*
D03*
Y260000D02*
D03*
Y240000D02*
D03*
Y120000D02*
D03*
Y140000D02*
D03*
Y80000D02*
D03*
Y100000D02*
D03*
Y60000D02*
D03*
Y40000D02*
D03*
Y470000D02*
D03*
Y490000D02*
D03*
Y530000D02*
D03*
Y510000D02*
D03*
Y570000D02*
D03*
Y550000D02*
D03*
Y430000D02*
D03*
Y450000D02*
D03*
Y390000D02*
D03*
Y410000D02*
D03*
Y370000D02*
D03*
Y350000D02*
D03*
Y590000D02*
D03*
Y630000D02*
D03*
Y610000D02*
D03*
X320000Y10000D02*
D03*
X580000D02*
D03*
X300000D02*
D03*
X740000D02*
D03*
X380000D02*
D03*
X340000D02*
D03*
X440000D02*
D03*
X680000D02*
D03*
X540000D02*
D03*
X640000D02*
D03*
X700000D02*
D03*
X620000D02*
D03*
X460000D02*
D03*
X600000D02*
D03*
X560000D02*
D03*
X660000D02*
D03*
X400000D02*
D03*
X420000D02*
D03*
X480000D02*
D03*
X760000D02*
D03*
X500000D02*
D03*
X520000D02*
D03*
X720000D02*
D03*
X360000D02*
D03*
X780000D02*
D03*
X10000Y690000D02*
D03*
Y710000D02*
D03*
Y670000D02*
D03*
Y650000D02*
D03*
Y770000D02*
D03*
Y750000D02*
D03*
Y730000D02*
D03*
X770000Y790000D02*
D03*
X780000D02*
D03*
X790000D02*
D03*
X360000D02*
D03*
X720000D02*
D03*
X520000D02*
D03*
X500000D02*
D03*
X760000D02*
D03*
X480000D02*
D03*
X420000D02*
D03*
X400000D02*
D03*
X660000D02*
D03*
X560000D02*
D03*
X600000D02*
D03*
X460000D02*
D03*
X620000D02*
D03*
X700000D02*
D03*
X640000D02*
D03*
X540000D02*
D03*
X680000D02*
D03*
X440000D02*
D03*
X340000D02*
D03*
X380000D02*
D03*
X740000D02*
D03*
X300000D02*
D03*
X580000D02*
D03*
X320000D02*
D03*
X30000D02*
D03*
X180000D02*
D03*
X200000D02*
D03*
X240000D02*
D03*
X220000D02*
D03*
X280000D02*
D03*
X260000D02*
D03*
X140000D02*
D03*
X160000D02*
D03*
X100000D02*
D03*
X120000D02*
D03*
X80000D02*
D03*
X60000D02*
D03*
X810000Y730000D02*
D03*
Y750000D02*
D03*
Y770000D02*
D03*
Y650000D02*
D03*
Y670000D02*
D03*
Y710000D02*
D03*
Y690000D02*
D03*
Y610000D02*
D03*
Y630000D02*
D03*
Y590000D02*
D03*
Y350000D02*
D03*
Y370000D02*
D03*
Y410000D02*
D03*
Y390000D02*
D03*
Y450000D02*
D03*
Y430000D02*
D03*
Y550000D02*
D03*
Y570000D02*
D03*
Y510000D02*
D03*
Y530000D02*
D03*
Y490000D02*
D03*
Y470000D02*
D03*
Y40000D02*
D03*
Y60000D02*
D03*
Y100000D02*
D03*
Y80000D02*
D03*
Y140000D02*
D03*
Y120000D02*
D03*
Y240000D02*
D03*
Y260000D02*
D03*
Y200000D02*
D03*
Y220000D02*
D03*
Y180000D02*
D03*
Y160000D02*
D03*
Y330000D02*
D03*
Y310000D02*
D03*
Y290000D02*
D03*
Y30000D02*
D03*
Y760000D02*
D03*
X40000Y790000D02*
D03*
X10000Y760000D02*
D03*
X50000Y790000D02*
D03*
X30000Y10000D02*
D03*
X50000D02*
D03*
X350000D02*
D03*
X510000D02*
D03*
X490000D02*
D03*
X470000D02*
D03*
X410000D02*
D03*
X390000D02*
D03*
X550000D02*
D03*
X450000D02*
D03*
X530000D02*
D03*
X430000D02*
D03*
X330000D02*
D03*
X370000D02*
D03*
X290000D02*
D03*
X310000D02*
D03*
X170000D02*
D03*
X190000D02*
D03*
X230000D02*
D03*
X210000D02*
D03*
X270000D02*
D03*
X250000D02*
D03*
X130000D02*
D03*
X150000D02*
D03*
X90000D02*
D03*
X110000D02*
D03*
X70000D02*
D03*
X710000D02*
D03*
X750000D02*
D03*
X650000D02*
D03*
X590000D02*
D03*
X610000D02*
D03*
X690000D02*
D03*
X630000D02*
D03*
X670000D02*
D03*
X730000D02*
D03*
X570000D02*
D03*
X710000Y790000D02*
D03*
X750000D02*
D03*
X650000D02*
D03*
X590000D02*
D03*
X610000D02*
D03*
X690000D02*
D03*
X630000D02*
D03*
X670000D02*
D03*
X730000D02*
D03*
X570000D02*
D03*
X510000D02*
D03*
X550000D02*
D03*
X450000D02*
D03*
X390000D02*
D03*
X410000D02*
D03*
X490000D02*
D03*
X430000D02*
D03*
X470000D02*
D03*
X530000D02*
D03*
X370000D02*
D03*
X310000D02*
D03*
X350000D02*
D03*
X250000D02*
D03*
X190000D02*
D03*
X210000D02*
D03*
X290000D02*
D03*
X230000D02*
D03*
X270000D02*
D03*
X330000D02*
D03*
X170000D02*
D03*
X150000D02*
D03*
X130000D02*
D03*
X110000D02*
D03*
X90000D02*
D03*
X70000D02*
D03*
X10000Y740000D02*
D03*
Y660000D02*
D03*
Y680000D02*
D03*
Y720000D02*
D03*
Y700000D02*
D03*
Y620000D02*
D03*
Y640000D02*
D03*
Y600000D02*
D03*
Y360000D02*
D03*
Y380000D02*
D03*
Y420000D02*
D03*
Y400000D02*
D03*
Y460000D02*
D03*
Y440000D02*
D03*
Y560000D02*
D03*
Y580000D02*
D03*
Y520000D02*
D03*
Y540000D02*
D03*
Y500000D02*
D03*
Y480000D02*
D03*
Y70000D02*
D03*
Y110000D02*
D03*
Y90000D02*
D03*
Y150000D02*
D03*
Y130000D02*
D03*
Y250000D02*
D03*
Y270000D02*
D03*
Y210000D02*
D03*
Y230000D02*
D03*
Y190000D02*
D03*
Y170000D02*
D03*
Y340000D02*
D03*
Y320000D02*
D03*
Y300000D02*
D03*
X810000Y740000D02*
D03*
Y660000D02*
D03*
Y680000D02*
D03*
Y720000D02*
D03*
Y700000D02*
D03*
Y620000D02*
D03*
Y640000D02*
D03*
Y600000D02*
D03*
Y360000D02*
D03*
Y380000D02*
D03*
Y420000D02*
D03*
Y400000D02*
D03*
Y460000D02*
D03*
Y440000D02*
D03*
Y560000D02*
D03*
Y580000D02*
D03*
Y520000D02*
D03*
Y540000D02*
D03*
Y500000D02*
D03*
Y480000D02*
D03*
Y70000D02*
D03*
Y110000D02*
D03*
Y90000D02*
D03*
Y150000D02*
D03*
Y130000D02*
D03*
Y250000D02*
D03*
Y270000D02*
D03*
Y210000D02*
D03*
Y230000D02*
D03*
Y190000D02*
D03*
Y170000D02*
D03*
Y340000D02*
D03*
Y320000D02*
D03*
Y300000D02*
D03*
X713000Y485250D02*
D03*
X764000Y553500D02*
D03*
X733889Y458111D02*
D03*
X754000Y748000D02*
D03*
X125939Y713817D02*
D03*
X112983Y710565D02*
D03*
X139000Y722000D02*
D03*
X99968Y705664D02*
D03*
X612000Y763000D02*
D03*
X646000Y748000D02*
D03*
X644000Y729000D02*
D03*
X558000Y450000D02*
D03*
X561000Y454000D02*
D03*
X525000Y411000D02*
D03*
X520000Y408000D02*
D03*
X518000Y305500D02*
D03*
X292000Y91000D02*
D03*
X294000Y77000D02*
D03*
X156000Y220000D02*
D03*
X237000Y219000D02*
D03*
X309000Y211000D02*
D03*
X343000Y194000D02*
D03*
X337000D02*
D03*
X343000Y199000D02*
D03*
X337000D02*
D03*
X25001Y662569D02*
D03*
X31001D02*
D03*
X25001Y656569D02*
D03*
X31001D02*
D03*
X25001Y554569D02*
D03*
X31001D02*
D03*
X25001Y548569D02*
D03*
X31001D02*
D03*
Y372569D02*
D03*
X25001D02*
D03*
Y366569D02*
D03*
X31001D02*
D03*
X29000Y300000D02*
D03*
X36000D02*
D03*
Y306000D02*
D03*
X29000D02*
D03*
X22000Y300000D02*
D03*
Y306000D02*
D03*
X89000Y295000D02*
D03*
Y301000D02*
D03*
Y308000D02*
D03*
X95000Y295000D02*
D03*
Y301000D02*
D03*
Y308000D02*
D03*
X54000Y611000D02*
D03*
Y502000D02*
D03*
Y320000D02*
D03*
X94000Y409000D02*
D03*
X92000Y701000D02*
D03*
X93000Y590000D02*
D03*
X487000Y111000D02*
D03*
Y117000D02*
D03*
X493000Y111000D02*
D03*
Y117000D02*
D03*
X579000Y51000D02*
D03*
X586000D02*
D03*
Y58000D02*
D03*
X579000D02*
D03*
Y65000D02*
D03*
X586000D02*
D03*
X605000Y407000D02*
D03*
X604000Y633000D02*
D03*
X777000Y641000D02*
D03*
X771000Y629000D02*
D03*
X762000Y673000D02*
D03*
Y667000D02*
D03*
X745000Y438000D02*
D03*
X183000Y168000D02*
D03*
X55000Y133000D02*
D03*
X267000Y144000D02*
D03*
Y135000D02*
D03*
X260000Y128000D02*
D03*
X253000Y110000D02*
D03*
X243000Y117000D02*
D03*
X281000Y171000D02*
D03*
X360000Y244000D02*
D03*
Y250000D02*
D03*
X354000Y244000D02*
D03*
Y250000D02*
D03*
X735000Y225000D02*
D03*
X527968Y356700D02*
D03*
X528000Y351000D02*
D03*
X522000Y707000D02*
D03*
Y713000D02*
D03*
X470432Y90568D02*
D03*
Y96568D02*
D03*
X464432D02*
D03*
Y90568D02*
D03*
X488568Y225000D02*
D03*
X494568D02*
D03*
X608000Y51000D02*
D03*
Y63000D02*
D03*
Y57000D02*
D03*
X611000Y216432D02*
D03*
Y222432D02*
D03*
X615000Y51000D02*
D03*
Y57000D02*
D03*
X617000Y222432D02*
D03*
Y216432D02*
D03*
X488568Y231000D02*
D03*
X494568D02*
D03*
X68000Y130000D02*
D03*
X78000Y151000D02*
D03*
X87000Y140000D02*
D03*
X300000Y153000D02*
D03*
X305000Y165250D02*
D03*
X333000Y121000D02*
D03*
X343000Y123000D02*
D03*
X28000Y186000D02*
D03*
X60000Y244999D02*
D03*
X99000Y245000D02*
D03*
X116000D02*
D03*
X304722Y171750D02*
D03*
X305000Y242000D02*
D03*
X708000Y97000D02*
D03*
Y103000D02*
D03*
X715000D02*
D03*
Y97000D02*
D03*
X722000D02*
D03*
Y103000D02*
D03*
X729000D02*
D03*
Y97000D02*
D03*
X724030Y762021D02*
D03*
X526143Y638959D02*
D03*
X520884Y638951D02*
D03*
X523000Y454625D02*
D03*
X529000D02*
D03*
X771863Y730803D02*
D03*
X772399Y739846D02*
D03*
X771000Y722000D02*
D03*
X764000Y548000D02*
D03*
Y573500D02*
D03*
Y579000D02*
D03*
Y598500D02*
D03*
Y604000D02*
D03*
X731000Y665000D02*
D03*
X705044Y767000D02*
D03*
X524000Y433000D02*
D03*
X538000Y566100D02*
D03*
X532000Y565000D02*
D03*
X730000Y462000D02*
D03*
X746000Y509028D02*
D03*
X572581Y727931D02*
D03*
X583000Y733000D02*
D03*
X548000Y746000D02*
D03*
X622700Y417200D02*
D03*
X691000Y710000D02*
D03*
X758000Y409000D02*
D03*
X621700Y408200D02*
D03*
X691000Y717000D02*
D03*
X758000Y403000D02*
D03*
X612984Y537516D02*
D03*
X726000Y717000D02*
D03*
X614700Y554200D02*
D03*
X726000Y710000D02*
D03*
X620700Y649200D02*
D03*
X723000Y731000D02*
D03*
X620664Y638736D02*
D03*
X722000Y741000D02*
D03*
X621700Y307200D02*
D03*
X691000Y303000D02*
D03*
X698000Y723000D02*
D03*
X615671Y303054D02*
D03*
X689000Y295000D02*
D03*
X704000Y742000D02*
D03*
X641700Y656200D02*
D03*
X614000Y697075D02*
D03*
X582984Y657516D02*
D03*
X672136Y648923D02*
D03*
X572984Y707484D02*
D03*
X663016Y717516D02*
D03*
X583016Y607516D02*
D03*
X632984Y327516D02*
D03*
X652984Y377484D02*
D03*
X696450Y492950D02*
D03*
X613858Y476642D02*
D03*
X677700Y471700D02*
D03*
X643016Y437516D02*
D03*
X675700Y426200D02*
D03*
X602054Y436619D02*
D03*
X572984Y387516D02*
D03*
X582984Y317484D02*
D03*
X662984Y327516D02*
D03*
X582984Y547516D02*
D03*
X632984D02*
D03*
X652984Y597484D02*
D03*
X688200Y531200D02*
D03*
X730700Y611200D02*
D03*
X563700Y497200D02*
D03*
X554700Y337700D02*
D03*
X553700Y727200D02*
D03*
X617700Y296200D02*
D03*
X704450Y429200D02*
D03*
X562148Y592749D02*
D03*
X735000Y250000D02*
D03*
X734875Y207125D02*
D03*
X735000Y237500D02*
D03*
Y262500D02*
D03*
X733000Y278500D02*
D03*
X705000Y668000D02*
D03*
X717700Y370200D02*
D03*
X591000Y746000D02*
D03*
X730000Y513000D02*
D03*
X728000Y503000D02*
D03*
X719000Y502000D02*
D03*
X558700Y444200D02*
D03*
X537368Y543200D02*
D03*
Y549200D02*
D03*
X543368D02*
D03*
Y543200D02*
D03*
X69000Y388000D02*
D03*
X68000Y332000D02*
D03*
X87000Y318000D02*
D03*
Y374000D02*
D03*
X69000Y570000D02*
D03*
X68000Y514000D02*
D03*
X87000Y500000D02*
D03*
Y556000D02*
D03*
Y608000D02*
D03*
X68000Y622000D02*
D03*
X69000Y678000D02*
D03*
X727889Y446889D02*
D03*
X724000Y443000D02*
D03*
X722000Y474000D02*
D03*
X725889Y470111D02*
D03*
X558700Y342200D02*
D03*
X711000Y546000D02*
D03*
X686325Y379450D02*
D03*
X704700Y635200D02*
D03*
X705700Y495200D02*
D03*
X636700Y482200D02*
D03*
Y706200D02*
D03*
X572984Y397516D02*
D03*
X705700Y502200D02*
D03*
X572984Y507516D02*
D03*
X573700Y608200D02*
D03*
X700700Y584200D02*
D03*
X697700Y593200D02*
D03*
X689700Y690200D02*
D03*
X558700Y581200D02*
D03*
X721870Y634522D02*
D03*
X715700Y634200D02*
D03*
X746200Y372700D02*
D03*
X732700Y404200D02*
D03*
X613897Y726554D02*
D03*
X602103Y708446D02*
D03*
X602700Y332200D02*
D03*
X684700Y425200D02*
D03*
X693700Y531200D02*
D03*
X652984Y637484D02*
D03*
X582984Y647516D02*
D03*
X673016Y657484D02*
D03*
X653016Y537516D02*
D03*
X602984Y527484D02*
D03*
X582984Y537516D02*
D03*
X648134Y416827D02*
D03*
X673016Y327484D02*
D03*
X652984Y307484D02*
D03*
X582984D02*
D03*
X602984D02*
D03*
X603946Y718397D02*
D03*
X622054Y716603D02*
D03*
X593946Y718397D02*
D03*
X612054Y716603D02*
D03*
X139000Y369000D02*
D03*
X126000Y362000D02*
D03*
X113000Y356000D02*
D03*
X100000Y349000D02*
D03*
X126190Y440947D02*
D03*
X100045Y431664D02*
D03*
X113061Y436565D02*
D03*
X139078Y448000D02*
D03*
X100285Y527342D02*
D03*
X113300Y532243D02*
D03*
X126256Y535495D02*
D03*
X139317Y543678D02*
D03*
X100285Y583730D02*
D03*
X113300Y588631D02*
D03*
X126256Y591883D02*
D03*
X139317Y600066D02*
D03*
X100285Y635342D02*
D03*
X113300Y640243D02*
D03*
X126256Y643495D02*
D03*
X139317Y651678D02*
D03*
X650700Y687200D02*
D03*
Y679200D02*
D03*
X646700Y667200D02*
D03*
X641700Y663200D02*
D03*
X646700Y699200D02*
D03*
X641700Y703200D02*
D03*
X602103Y488446D02*
D03*
X603946Y498397D02*
D03*
X612054Y496603D02*
D03*
X613897Y506554D02*
D03*
X622054Y496603D02*
D03*
X593946Y498397D02*
D03*
X663506Y456758D02*
D03*
X663955Y467172D02*
D03*
X694700Y479200D02*
D03*
X685700Y477200D02*
D03*
X689700Y436950D02*
D03*
X679700Y439200D02*
D03*
X572984Y307484D02*
D03*
X562984Y317484D02*
D03*
X602984Y427484D02*
D03*
X572984Y427516D02*
D03*
X562984Y387516D02*
D03*
X653016D02*
D03*
X602984Y317484D02*
D03*
X673016Y337484D02*
D03*
X582984Y387484D02*
D03*
X593016Y377484D02*
D03*
X582984Y507516D02*
D03*
X572984Y537516D02*
D03*
X602984Y537484D02*
D03*
X593016Y597484D02*
D03*
X652984Y607484D02*
D03*
X673016Y677516D02*
D03*
X653016Y717516D02*
D03*
X573016D02*
D03*
Y647484D02*
D03*
X602984D02*
D03*
X665700Y508200D02*
D03*
X556700Y619200D02*
D03*
X693700Y425200D02*
D03*
X702700Y531200D02*
D03*
X720700Y404200D02*
D03*
X587700Y336200D02*
D03*
X554700Y569200D02*
D03*
X559700Y426200D02*
D03*
X556700Y497200D02*
D03*
X603016Y377484D02*
D03*
X613016D02*
D03*
X623016D02*
D03*
X602700Y467200D02*
D03*
X626700Y484200D02*
D03*
X616700Y482200D02*
D03*
X602700Y457200D02*
D03*
X603016Y387484D02*
D03*
X613016D02*
D03*
X633700Y442200D02*
D03*
X623016Y387484D02*
D03*
X622700Y443200D02*
D03*
X559200Y699200D02*
D03*
X567700Y606200D02*
D03*
X622700Y663200D02*
D03*
X623016Y597484D02*
D03*
Y607484D02*
D03*
X633700Y662200D02*
D03*
X603016Y597484D02*
D03*
X602700Y687200D02*
D03*
X613016Y597484D02*
D03*
X626700Y704200D02*
D03*
X613016Y607484D02*
D03*
X616700Y702200D02*
D03*
X603016Y607484D02*
D03*
X602700Y677200D02*
D03*
D109*
X30000Y30000D02*
D03*
X430000D02*
D03*
X30000Y445000D02*
D03*
Y770000D02*
D03*
X455360D02*
D03*
X790000Y30000D02*
D03*
Y445000D02*
D03*
Y770000D02*
D03*
D110*
X687914Y480190D02*
G03*
X687919Y480166I3520J757D01*
G01*
X691433Y480947D02*
G03*
X692595Y479745I1562J347D01*
G01*
X691401Y481161D02*
G03*
X691432Y480954I1594J132D01*
G01*
X687813Y480864D02*
G03*
X687914Y480190I5182J430D01*
G01*
X687376Y478585D02*
G03*
X687919Y480166I-1019J1233D01*
G01*
X691433Y480947D02*
G03*
X691432Y480954I-3514J-781D01*
G01*
X680832Y495068D02*
G03*
X680837Y495063I2550J2541D01*
G01*
X683382Y497609D02*
G03*
X683370Y497621I-2546J-2546D01*
G01*
X661945Y701670D02*
G03*
X659694Y701664I-1122J-1140D01*
G01*
X652700Y705600D02*
G03*
X651100Y707200I-1600J0D01*
G01*
X658824Y710367D02*
G03*
X657695Y710833I-1129J-1133D01*
G01*
X658880Y710310D02*
G03*
X658837Y710354I-1177J-1084D01*
G01*
X664499Y704207D02*
G03*
X664495Y704212I-2554J-2537D01*
G01*
X664451Y704258D02*
G03*
X664494Y704212I1177J1084D01*
G01*
X649148Y707200D02*
G03*
X648018Y706733I0J-1600D01*
G01*
X654327Y698573D02*
G03*
X656585Y698573I1129J1133D01*
G01*
X647626Y706341D02*
G03*
X647159Y705212I1133J-1129D01*
G01*
X596686Y434660D02*
G03*
X591416Y439930I-5270J0D01*
G01*
Y426050D02*
G03*
X596686Y431320I0J5270D01*
G01*
X591416Y429650D02*
G03*
X593086Y431320I0J1670D01*
G01*
X581100Y441600D02*
G03*
X586370Y436330I5270J0D01*
G01*
Y426050D02*
G03*
X584700Y424380I0J-1670D01*
G01*
X586370Y429650D02*
G03*
X581100Y424380I0J-5270D01*
G01*
X584700Y441600D02*
G03*
X586370Y439930I1670J0D01*
G01*
X593086Y434660D02*
G03*
X591416Y436330I-1670J0D01*
G01*
X634700Y417800D02*
G03*
X631900Y420600I-2800J0D01*
G01*
Y426200D02*
G03*
X634700Y429000I0J2800D01*
G01*
X630084Y426200D02*
G03*
X630084Y420600I0J-2800D01*
G01*
X641100Y401570D02*
G03*
X634700Y395170I0J-6400D01*
G01*
X641100Y397970D02*
G03*
X638300Y395170I0J-2800D01*
G01*
X676026Y401570D02*
G03*
X676026Y407170I0J2800D01*
G01*
X634700Y413570D02*
G03*
X641100Y407170I6400J0D01*
G01*
X638300Y413570D02*
G03*
X641100Y410770I2800J0D01*
G01*
X676026Y397970D02*
G03*
X676026Y410770I0J6400D01*
G01*
X666800Y607870D02*
G03*
X660400Y601470I0J-6400D01*
G01*
Y638270D02*
G03*
X666800Y631870I6400J0D01*
G01*
X658184Y622670D02*
G03*
X658184Y617070I0J-2800D01*
G01*
X666800Y604270D02*
G03*
X664000Y601470I0J-2800D01*
G01*
Y638270D02*
G03*
X666800Y635470I2800J0D01*
G01*
X658184Y626270D02*
G03*
X658184Y613470I0J-6400D01*
G01*
X671677Y607870D02*
G03*
X671677Y613470I0J2800D01*
G01*
Y604270D02*
G03*
X671677Y617070I0J6400D01*
G01*
X680600Y622670D02*
G03*
X680600Y635470I0J6400D01*
G01*
Y626270D02*
G03*
X680600Y631870I0J2800D01*
G01*
X634700Y637800D02*
G03*
X631900Y640600I-2800J0D01*
G01*
X627668Y646200D02*
G03*
X627668Y640600I0J-2800D01*
G01*
X631900Y646200D02*
G03*
X634700Y649000I0J2800D01*
G01*
X696440Y563051D02*
G03*
X696440Y575851I0J6400D01*
G01*
X681600Y578651D02*
G03*
X684400Y575851I2800J0D01*
G01*
X678000Y578651D02*
G03*
X684400Y572251I6400J0D01*
G01*
X696440Y566651D02*
G03*
X696440Y572251I0J2800D01*
G01*
X646996Y710833D02*
G03*
X645867Y710367I0J-1600D01*
G01*
X642182Y706683D02*
G03*
X641711Y705549I1129J-1134D01*
G01*
X641700Y703200D02*
G03*
X641711Y703387I-1589J189D01*
G01*
X646700Y699200D02*
G03*
X647159Y700322I-1141J1122D01*
G01*
X681188Y598248D02*
G03*
X680716Y597114I1128J-1134D01*
G01*
X690156Y614254D02*
G03*
X690171Y614477I-1584J223D01*
G01*
X693721Y613753D02*
G03*
X693771Y614477I-5149J724D01*
G01*
X677116Y590882D02*
G03*
X677227Y589813I5200J0D01*
G01*
X678000Y585965D02*
G03*
X677966Y586293I-1600J0D01*
G01*
X680716Y590882D02*
G03*
X680750Y590553I1600J0D01*
G01*
X678648Y600799D02*
G03*
X677116Y597114I3668J-3686D01*
G01*
X692020Y609081D02*
G03*
X693477Y612018I-3693J3661D01*
G01*
X689466Y611618D02*
G03*
X689912Y612519I-1138J1124D01*
G01*
X652700Y700863D02*
G03*
X653167Y699733I1600J0D01*
G01*
X690171Y672781D02*
G03*
X689703Y673913I-1600J0D01*
G01*
X693771Y672781D02*
G03*
X692248Y676458I-5200J0D01*
G01*
X660400Y670837D02*
G03*
X659951Y671949I-1600J0D01*
G01*
X657700Y674926D02*
G03*
X658149Y673814I1600J0D01*
G01*
X664000Y670854D02*
G03*
X663989Y671182I-5200J-17D01*
G01*
X653333Y681400D02*
G03*
X652122Y680846I0J-1600D01*
G01*
X658167Y677667D02*
G03*
X657700Y676537I1133J-1129D01*
G01*
X652122Y685554D02*
G03*
X653477Y685006I1211J1046D01*
G01*
X658167Y677667D02*
G03*
X658279Y677792I-1131J1131D01*
G01*
X653333Y681400D02*
G03*
X653802Y681421I0J5200D01*
G01*
X645317Y639390D02*
G03*
X645084Y637484I7667J-1906D01*
G01*
X648811Y638521D02*
G03*
X648684Y637484I4173J-1037D01*
G01*
X644476Y661973D02*
G03*
X643754Y662484I-1249J-1000D01*
G01*
X646947Y665039D02*
G03*
X647555Y663958I1590J182D01*
G01*
X644476Y661973D02*
G03*
X645345Y661116I4060J3248D01*
G01*
X645953Y641946D02*
G03*
X646000Y642332I-1553J386D01*
G01*
X649600Y659824D02*
G03*
X647591Y663930I-5200J0D01*
G01*
X646000Y659824D02*
G03*
X645375Y661093I-1600J0D01*
G01*
X649446Y641078D02*
G03*
X649600Y642332I-5046J1254D01*
G01*
X601373Y379547D02*
G03*
X600426Y380121I-1252J-997D01*
G01*
X600420Y380123D02*
G03*
X600426Y380121I996J5104D01*
G01*
X600228Y384155D02*
G03*
X601107Y383656I1188J1071D01*
G01*
X601110Y383656D02*
G03*
X601107Y383656I-684J-3534D01*
G01*
X595524Y384977D02*
G03*
X595139Y385600I-1517J-508D01*
G01*
X613328Y379686D02*
G03*
X613565Y379993I-1138J1125D01*
G01*
X616712Y385286D02*
G03*
X617197Y386477I-3696J2198D01*
G01*
X621394Y382208D02*
G03*
X621808Y382927I-1133J1129D01*
G01*
X619183Y379996D02*
G03*
X618716Y378867I1133J-1129D01*
G01*
X621951Y372670D02*
G03*
X623083Y372202I1131J1131D01*
G01*
X618716Y376568D02*
G03*
X619046Y375595I1600J0D01*
G01*
X638421Y383340D02*
G03*
X638885Y382265I1599J53D01*
G01*
X638300Y387024D02*
G03*
X638301Y386971I1600J0D01*
G01*
X636322Y379737D02*
G03*
X635204Y380194I-1120J-1142D01*
G01*
X633100Y386405D02*
G03*
X633825Y386579I0J1600D01*
G01*
X600501Y460400D02*
G03*
X600514Y460400I24J3600D01*
G01*
X600517D02*
G03*
X600525Y460400I8J5200D01*
G01*
X600517D02*
G03*
X600514Y460400I8J-1600D01*
G01*
X599248Y464636D02*
G03*
X600518Y464000I1277J964D01*
G01*
X596346Y462505D02*
G03*
X595069Y463141I-1276J-965D01*
G01*
X600525Y464000D02*
G03*
X600518Y464000I0J-3600D01*
G01*
X584700Y407854D02*
G03*
X585164Y406736I1600J9D01*
G01*
X614447Y390568D02*
G03*
X614421Y391967I-1451J673D01*
G01*
X613119Y394428D02*
G03*
X613122Y394424I3184J1679D01*
G01*
X612100Y439411D02*
G03*
X611631Y440542I-1600J0D01*
G01*
X607818Y451183D02*
G03*
X607817Y451180I1775J-300D01*
G01*
X607821Y451203D02*
G03*
X607818Y451183I3547J-618D01*
G01*
X611569Y470102D02*
G03*
X611259Y471048I-1600J0D01*
G01*
X611364Y458394D02*
G03*
X611569Y459176I-1395J783D01*
G01*
X605829Y483329D02*
G03*
X605363Y482200I1133J-1129D01*
G01*
Y479612D02*
G03*
X605671Y478668I1600J0D01*
G01*
X609363Y486200D02*
G03*
X608233Y485733I0J-1600D01*
G01*
X613167Y485733D02*
G03*
X612037Y486200I-1129J-1133D01*
G01*
X610831Y447384D02*
G03*
X611277Y445988I1578J-265D01*
G01*
X611875Y452018D02*
G03*
X611368Y450585I3736J-2129D01*
G01*
X614015Y455774D02*
G03*
X614016Y455777I-3128J1782D01*
G01*
D02*
G03*
X614018Y455779I-3130J1779D01*
G01*
X615700Y397645D02*
G03*
X615885Y396899I1600J0D01*
G01*
X615538Y471124D02*
G03*
X615169Y470102I1231J-1022D01*
G01*
X621066Y477769D02*
G03*
X620972Y477666I1137J-1126D01*
G01*
X626230Y482934D02*
G03*
X626700Y484066I-1130J1133D01*
G01*
X683716Y566651D02*
G03*
X683716Y553851I0J-6400D01*
G01*
X684400Y548251D02*
G03*
X678000Y541851I0J-6400D01*
G01*
X692534Y544651D02*
G03*
X692534Y557451I0J6400D01*
G01*
X683716Y563051D02*
G03*
X683716Y557451I0J-2800D01*
G01*
X684400Y544651D02*
G03*
X681600Y541851I0J-2800D01*
G01*
X692534Y548251D02*
G03*
X692534Y553851I0J2800D01*
G01*
X678259Y499795D02*
G03*
X679772Y496128I5200J0D01*
G01*
X681859Y520635D02*
G03*
X681600Y522256I-5200J0D01*
G01*
X678259Y520635D02*
G03*
X678178Y521139I-1600J0D01*
G01*
X678000Y522256D02*
G03*
X678178Y521139I3600J0D01*
G01*
X681859Y499795D02*
G03*
X682325Y498666I1600J0D01*
G01*
X655116Y467034D02*
G03*
X656610Y463387I5200J0D01*
G01*
X661623Y460254D02*
G03*
X661643Y460253I186J3595D01*
G01*
X658716Y467034D02*
G03*
X659176Y465912I1600J0D01*
G01*
X661650Y460253D02*
G03*
X661654Y460253I228J5195D01*
G01*
X658171Y461800D02*
G03*
X661623Y460254I3706J3647D01*
G01*
X663165Y458905D02*
G03*
X661654Y460253I-1580J-251D01*
G01*
X661650Y460253D02*
G03*
X661643Y460253I-65J-1599D01*
G01*
X660737Y464325D02*
G03*
X663430Y465061I1140J1122D01*
G01*
X656629Y526374D02*
G03*
X655116Y522707I3687J-3666D01*
G01*
X662487Y527141D02*
G03*
X664000Y530808I-3687J3666D01*
G01*
X659177Y523831D02*
G03*
X658716Y522707I1139J-1124D01*
G01*
X659939Y529683D02*
G03*
X660400Y530808I-1138J1124D01*
G01*
X645084Y458004D02*
G03*
X646591Y454343I5200J0D01*
G01*
X648684Y458004D02*
G03*
X649148Y456877I1600J0D01*
G01*
X656816Y449209D02*
G03*
X657942Y448746I1126J1136D01*
G01*
X666783Y451200D02*
G03*
X666010Y451001I0J-1600D01*
G01*
X661512Y448746D02*
G03*
X662285Y448945I0J1600D01*
G01*
X670222Y450733D02*
G03*
X669092Y451200I-1129J-1133D01*
G01*
X671098Y447598D02*
G03*
X671098Y449857I-1133J1129D01*
G01*
X680086Y431310D02*
G03*
X683270Y432153I-386J7890D01*
G01*
X687526Y436902D02*
G03*
X686000Y435653I35J-1600D01*
G01*
X683270Y432153D02*
G03*
X686000Y435653I-2343J4642D01*
G01*
X681647Y435366D02*
G03*
X681644Y438225I-720J1429D01*
G01*
X679910Y434905D02*
G03*
X681647Y435366I-210J4295D01*
G01*
X677770Y431202D02*
G03*
X678016Y431208I-5J5200D01*
G01*
X676634Y435270D02*
G03*
X677839Y434804I1131J1132D01*
G01*
X668829Y445329D02*
G03*
X668831Y443069I1133J-1129D01*
G01*
X654276Y446658D02*
G03*
X657942Y445146I3666J3687D01*
G01*
X674397Y431670D02*
G03*
X675524Y431200I1133J1129D01*
G01*
X661388Y444679D02*
G03*
X660259Y445146I-1129J-1134D01*
G01*
X633700Y437954D02*
G03*
X634167Y436824I1600J0D01*
G01*
X638300Y431432D02*
G03*
X638261Y431775I-1600J-9D01*
G01*
X587284Y398862D02*
G03*
X586815Y399994I-1600J0D01*
G01*
X659422Y679205D02*
G03*
X658042Y681805I-1244J1006D01*
G01*
X663366Y680556D02*
G03*
X657714Y685390I-5189J-344D01*
G01*
X681600Y585965D02*
G03*
X681486Y587046I-5200J0D01*
G01*
X598928Y386148D02*
G03*
X597671Y388158I-4921J-1680D01*
G01*
X601111Y383656D02*
G03*
X603016Y385226I305J1571D01*
G01*
X595540Y384932D02*
G03*
X597141Y382202I7476J2552D01*
G01*
X598947Y386095D02*
G03*
X599818Y384609I4069J1389D01*
G01*
X597554Y381745D02*
G03*
X600416Y380123I3862J3482D01*
G01*
X619603Y374868D02*
G03*
X620706Y373857I3413J2616D01*
G01*
X620985Y373636D02*
G03*
X620706Y373857I-1126J-1137D01*
G01*
X629697Y386405D02*
G03*
X628097Y384805I0J-1600D01*
G01*
Y381799D02*
G03*
X629687Y380199I1600J0D01*
G01*
X586300Y466741D02*
G03*
X581100Y461553I0J-5200D01*
G01*
X596375Y462467D02*
G03*
X600501Y460400I4150J3133D01*
G01*
X599220Y464673D02*
G03*
X595069Y466741I-4151J-3132D01*
G01*
X602053Y459276D02*
G03*
X600525Y460400I-1528J-476D01*
G01*
Y464000D02*
G03*
X602053Y465124I0J1600D01*
G01*
X586300Y463141D02*
G03*
X584700Y461547I0J-1600D01*
G01*
X581100Y407843D02*
G03*
X582613Y404196I5200J20D01*
G01*
X612100Y397645D02*
G03*
X612700Y395220I5200J0D01*
G01*
X607280Y447980D02*
G03*
X608731Y443442I5128J-860D01*
G01*
X608747Y453800D02*
G03*
X607821Y451203I6864J-3911D01*
G01*
X614496Y456618D02*
G03*
X615169Y459176I-4527J2559D01*
G01*
X615700Y439411D02*
G03*
X614177Y443088I-5200J0D01*
G01*
X618051Y390023D02*
G03*
X617603Y393652I-5055J1218D01*
G01*
X638212Y431992D02*
G03*
X637241Y433750I-3512J-793D01*
G01*
X590884Y398862D02*
G03*
X589348Y402552I-5200J0D01*
G01*
X587284Y395588D02*
G03*
X588797Y391942I5200J20D01*
G01*
X590884Y395599D02*
G03*
X591348Y394482I1600J9D01*
G01*
X636395Y372202D02*
G03*
X640082Y381068I0J5200D01*
G01*
X636395Y375802D02*
G03*
X637532Y378527I0J1600D01*
G01*
X625400Y663188D02*
G03*
X625113Y663200I-288J-3640D01*
G01*
X627252Y659097D02*
G03*
X627697Y658203I1583J232D01*
G01*
X626852Y661825D02*
G03*
X625400Y663188I-1583J-232D01*
G01*
X634231Y572427D02*
G03*
X634700Y573558I-1131J1131D01*
G01*
X629942Y568800D02*
G03*
X631073Y569269I0J1600D01*
G01*
X600995Y569264D02*
G03*
X602122Y568800I1126J1136D01*
G01*
X596700Y574222D02*
G03*
X597164Y573095I1600J0D01*
G01*
X617257Y586178D02*
G03*
X622456Y591316I-0J5200D01*
G01*
X598300Y586178D02*
G03*
X596700Y584578I0J-1600D01*
G01*
X622456Y591321D02*
G03*
X622457Y591378I-3600J57D01*
G01*
X622456Y591316D02*
G03*
X622456Y591321I-1800J38D01*
G01*
X623007Y597476D02*
G03*
X622614Y596954I1055J-1203D01*
G01*
X622609Y596943D02*
G03*
X622457Y596262I1448J-681D01*
G01*
X618858Y596388D02*
G03*
X618857Y596262I5198J-126D01*
G01*
X633700Y658456D02*
G03*
X634090Y657410I1600J0D01*
G01*
X639013Y651053D02*
G03*
X638647Y652071I-1600J0D01*
G01*
X637478Y653490D02*
G03*
X637415Y653565I-2778J-2290D01*
G01*
X636777Y569881D02*
G03*
X639013Y575279I-5398J5398D01*
G01*
X629942Y565200D02*
G03*
X633630Y566735I0J5200D01*
G01*
X598455Y566713D02*
G03*
X602122Y565200I3666J3687D01*
G01*
X593100Y574222D02*
G03*
X594607Y570561I5200J0D01*
G01*
X598300Y589778D02*
G03*
X593100Y584578I0J-5200D01*
G01*
X618857Y591378D02*
G03*
X618856Y591361I1800J-24D01*
G01*
X617257Y589778D02*
G03*
X618856Y591361I-0J1600D01*
G01*
X619858Y600402D02*
G03*
X618858Y596388I3158J-2918D01*
G01*
X621423Y602097D02*
G03*
X621731Y602583I-1175J1086D01*
G01*
D02*
G03*
X622119Y603627I-1213J1044D01*
G01*
X622354Y608193D02*
G03*
X622119Y607358I1365J-835D01*
G01*
X602305Y599539D02*
G03*
X600802Y600616I-1512J-523D01*
G01*
X586171Y613201D02*
G03*
X586269Y613051I3165J1985D01*
G01*
X596454Y602195D02*
G03*
X600629Y600608I3809J3737D01*
G01*
X587135Y611802D02*
G03*
X587713Y611103I4387J3038D01*
G01*
X600788Y600616D02*
G03*
X600683Y600612I4J-1600D01*
G01*
X578157Y633824D02*
G03*
X577393Y627101I3852J-3842D01*
G01*
X600525Y684000D02*
G03*
X602053Y685124I0J1600D01*
G01*
X600525Y684000D02*
G03*
X600518Y684000I0J-3600D01*
G01*
X593553Y649225D02*
G03*
X593543Y649216I2536J-2555D01*
G01*
X594567Y650239D02*
G03*
X596970Y655904I-5803J5804D01*
G01*
X596978Y656449D02*
G03*
X594622Y662114I-8016J-11D01*
G01*
X596978Y656449D02*
G03*
X596978Y656448I1800J-21D01*
G01*
X596978Y656424D02*
G03*
X596978Y656448I-1600J32D01*
G01*
X594567Y650239D02*
G03*
X594561Y650233I2539J-2552D01*
G01*
X584408Y640080D02*
G03*
X584399Y640071I2546J-2546D01*
G01*
X580188Y635860D02*
G03*
X580180Y635853I2546J-2546D01*
G01*
X599217Y684677D02*
G03*
X595069Y686741I-4148J-3137D01*
G01*
X599249Y684635D02*
G03*
X599443Y684422I1276J965D01*
G01*
D02*
G03*
X600518Y684000I1082J1178D01*
G01*
X582550Y686741D02*
G03*
X578878Y677865I5J-5200D01*
G01*
X616347Y615979D02*
G03*
X615334Y617550I-4805J-1987D01*
G01*
X614507Y619033D02*
G03*
X614972Y617929I1600J24D01*
G01*
X615249Y617649D02*
G03*
X615334Y617550I1253J995D01*
G01*
X617762Y610781D02*
G03*
X617410Y613408I-5160J645D01*
G01*
X616712Y605286D02*
G03*
X617283Y606950I-3696J2198D01*
G01*
X613328Y599686D02*
G03*
X613565Y599993I-1138J1125D01*
G01*
X614421Y627800D02*
G03*
X614421Y627784I1600J0D01*
G01*
X614421Y661520D02*
G03*
X613854Y663891I-5236J0D01*
G01*
X611912Y672082D02*
G03*
X611971Y667600I3699J-2193D01*
G01*
X611912Y672082D02*
G03*
X611965Y672224I-1679J698D01*
G01*
X613759Y675925D02*
G03*
X614280Y678194I-4679J2269D01*
G01*
X625723Y704200D02*
G03*
X624594Y703733I0J-1600D01*
G01*
X622420Y701560D02*
G03*
X622243Y701348I1133J-1129D01*
G01*
X615364Y692997D02*
G03*
X617525Y694613I-1364J4078D01*
G01*
X615364Y692997D02*
G03*
X614280Y691492I516J-1515D01*
G01*
X609153Y618644D02*
G03*
X608023Y619110I-1129J-1133D01*
G01*
X602700Y620704D02*
G03*
X604300Y619110I1600J7D01*
G01*
X612701Y615095D02*
G03*
X612693Y615103I-1159J-1103D01*
G01*
X613024Y614595D02*
G03*
X612709Y615087I-1482J-603D01*
G01*
X614126Y610937D02*
G03*
X614086Y612026I-1523J489D01*
G01*
X604295Y626350D02*
G03*
X602700Y624750I5J-1600D01*
G01*
X610785Y661520D02*
G03*
X610612Y662245I-1600J0D01*
G01*
X609194Y626358D02*
G03*
X610785Y627957I-8J1600D01*
G01*
X608486Y673344D02*
G03*
X608551Y666305I7125J-3455D01*
G01*
X608888Y674131D02*
G03*
X608885Y674125I3239J-1571D01*
G01*
X610520Y677496D02*
G03*
X610680Y678194I-1440J698D01*
G01*
Y690321D02*
G03*
X610511Y691036I-1600J0D01*
G01*
X607759Y696543D02*
G03*
X607458Y696961I-1431J-715D01*
G01*
X605363Y699719D02*
G03*
X605829Y698590I1600J0D01*
G01*
X605829Y702687D02*
G03*
X605363Y701558I1133J-1129D01*
G01*
X609442Y705638D02*
G03*
X608313Y705171I0J-1600D01*
G01*
X616700Y702532D02*
G03*
X616237Y703657I-1600J0D01*
G01*
X614722Y705173D02*
G03*
X613595Y705638I-1127J-1136D01*
G01*
X600793Y604352D02*
G03*
X602305Y605429I0J1600D01*
G01*
X600793Y604352D02*
G03*
X600783Y604352I0J-1868D01*
G01*
X600778Y604352D02*
G03*
X600426Y604339I14J-5336D01*
G01*
X599120Y604811D02*
G03*
X600373Y604336I1142J1121D01*
G01*
X590206Y613929D02*
G03*
X590380Y613719I1315J911D01*
G01*
X600517Y680400D02*
G03*
X600525Y680400I8J5200D01*
G01*
X600517D02*
G03*
X600514Y680400I8J-1600D01*
G01*
X602053Y679276D02*
G03*
X600525Y680400I-1528J-476D01*
G01*
X600501Y680400D02*
G03*
X600514Y680400I25J3600D01*
G01*
X597154Y664673D02*
G03*
X597153Y664675I-1275J-1271D01*
G01*
X600578Y656422D02*
G03*
X597168Y664659I-11616J16D01*
G01*
X597107Y647688D02*
G03*
X597113Y647694I-2546J2546D01*
G01*
X600578Y656389D02*
G03*
X600578Y656422I-1800J39D01*
G01*
X600578Y656381D02*
G03*
X600578Y656389I-5199J75D01*
G01*
X597113Y647694D02*
G03*
X600570Y655847I-8350J8349D01*
G01*
X586949Y637530D02*
G03*
X586954Y637535I-2541J2550D01*
G01*
X582728Y633309D02*
G03*
X582733Y633315I-2540J2551D01*
G01*
X580706Y631282D02*
G03*
X580481Y629305I1133J-1130D01*
G01*
X597007Y681770D02*
G03*
X600501Y680400I3518J3830D01*
G01*
X596378Y682463D02*
G03*
X596993Y681784I4148J3137D01*
G01*
D02*
G03*
X597007Y681770I2450J2638D01*
G01*
X596345Y682506D02*
G03*
X595069Y683141I-1276J-965D01*
G01*
X582550D02*
G03*
X581424Y680410I5J-1600D01*
G01*
X596205Y665623D02*
G03*
X596195Y665633I-2546J-2545D01*
G01*
X688370Y490707D02*
X690811Y488265D01*
X690969Y486366D01*
X691401Y481161D01*
X688370Y490707D02*
Y492621D01*
X680837Y495063D02*
Y495063D01*
X683382Y492518D02*
X683382D01*
X684770Y489215D02*
Y491130D01*
X683382Y492518D02*
X684770Y491130D01*
Y489215D02*
X687333Y486652D01*
X680837Y495063D02*
X683382Y492518D01*
X687333Y486652D02*
X687813Y480864D01*
X683382Y497609D02*
X683382D01*
X688370Y492621D01*
X685700Y477200D02*
X687376Y478585D01*
X692595Y479745D02*
X694700Y479200D01*
X661945Y701670D02*
X661951Y701664D01*
X646996Y710833D02*
X657695D01*
X658824Y710367D02*
X658837Y710354D01*
X664494Y704212D02*
X664495Y704212D01*
X658880Y710310D02*
X664451Y704258D01*
X656585Y698573D02*
X659694Y701664D01*
X649148Y707200D02*
X651100D01*
X664499Y704207D02*
X692248Y676458D01*
X661951Y701664D02*
X689703Y673913D01*
X652700Y700863D02*
Y705600D01*
X647626Y706341D02*
X648018Y706733D01*
X581100Y441600D02*
Y444200D01*
X586370Y436330D02*
X591416D01*
X586370Y429650D02*
X591416D01*
X584700Y417950D02*
Y424380D01*
X596686Y431320D02*
Y434660D01*
X581100Y417950D02*
Y424380D01*
X593086Y431320D02*
Y434660D01*
X586370Y426050D02*
X591416D01*
X586370Y439930D02*
X591416D01*
X584700Y441600D02*
Y444200D01*
X634700Y417000D02*
Y417800D01*
X628236Y437707D02*
X628654Y437290D01*
X630084Y426200D02*
X631900D01*
X628654Y437246D02*
X634700Y431200D01*
X628654Y437246D02*
Y437290D01*
X630084Y420600D02*
X631900D01*
X634700Y429000D02*
Y431200D01*
X641100Y397970D02*
X676026D01*
X638300Y413570D02*
Y416170D01*
X634700Y387024D02*
Y395170D01*
X641100Y401570D02*
X676026D01*
X634700Y413570D02*
Y416170D01*
X638300Y387024D02*
Y395170D01*
X641100Y407170D02*
X676026D01*
X641100Y410770D02*
X676026D01*
X664000Y588973D02*
Y601470D01*
X658184Y622670D02*
X680600D01*
X666800Y604270D02*
X671677D01*
X658184Y613470D02*
X671677D01*
X660400Y588973D02*
Y601470D01*
X666800Y631870D02*
X680600D01*
X658184Y617070D02*
X671677D01*
X666800Y607870D02*
X671677D01*
X658184Y626270D02*
X680600D01*
X664000Y638270D02*
Y659270D01*
X660400Y638270D02*
Y659270D01*
X666800Y635470D02*
X680600D01*
X627668Y646200D02*
X631900D01*
X634700Y649000D02*
Y651200D01*
X627700Y658200D02*
X634700Y651200D01*
X627668Y640600D02*
X631900D01*
X634700Y637000D02*
Y637800D01*
X683716Y566651D02*
X696440D01*
X684400Y572251D02*
X696440D01*
X678000Y578651D02*
Y581251D01*
X683716Y563051D02*
X696440D01*
X684400Y575851D02*
X696440D01*
X681600Y578651D02*
Y581251D01*
X645345Y661116D02*
X645375Y661093D01*
X647555Y663958D02*
X647591Y663930D01*
X649600Y642332D02*
Y659824D01*
X641700Y663200D02*
X643754Y662484D01*
X648811Y638521D02*
X649446Y641078D01*
X645317Y639390D02*
X645953Y641946D01*
X646700Y667200D02*
X646947Y665039D01*
X646000Y642332D02*
Y659824D01*
X657700Y674926D02*
Y676537D01*
X658279Y677792D02*
X659422Y679205D01*
X650700Y679200D02*
X652122Y680846D01*
X650700Y687200D02*
X652122Y685554D01*
X664000Y670854D02*
X664000Y659270D01*
X660400D02*
Y670837D01*
X658149Y673814D02*
X659951Y671949D01*
X690171Y614477D02*
Y672781D01*
X693771Y614477D02*
Y672781D01*
X653167Y699733D02*
X654327Y698573D01*
X681188Y598248D02*
X692020Y609081D01*
X693477Y612018D02*
X693720Y613753D01*
X677227Y589813D02*
X677966Y586293D01*
X678648Y600799D02*
X689466Y611618D01*
X677116Y590882D02*
Y597114D01*
X689912Y612519D02*
X690156Y614254D01*
X680716Y590882D02*
Y597114D01*
X647159Y700322D02*
Y705212D01*
X641711Y703387D02*
X641711Y705549D01*
X644712Y709212D02*
X645867Y710367D01*
X642182Y706683D02*
X644712Y709212D01*
X612087Y378446D02*
X613319Y379678D01*
Y379678D01*
X597141Y382202D02*
X597554Y381745D01*
X601110Y383656D02*
X601111Y383656D01*
X595524Y384977D02*
X595540Y384932D01*
X598928Y386148D02*
X598947Y386095D01*
X600416Y380123D02*
X600420Y380122D01*
X613319Y379678D02*
X613328Y379686D01*
X636322Y379737D02*
X636328Y379731D01*
X599220Y464673D02*
X599248Y464636D01*
X596374Y462468D02*
X596375Y462467D01*
X596346Y462505D02*
X596374Y462468D01*
X614416Y391978D02*
X614421Y391967D01*
X612700Y395220D02*
X613119Y394428D01*
X614016Y455777D02*
X614018Y455779D01*
X614496Y456618D01*
X617598Y393661D02*
X617603Y393652D01*
X626700Y484066D02*
Y484200D01*
X620866Y477538D02*
X620972Y477666D01*
X678000Y522256D02*
Y541851D01*
X684400Y548251D02*
X692534D01*
X683716Y553851D02*
X692534D01*
X681600Y522256D02*
Y541851D01*
X684400Y544651D02*
X692534D01*
X683716Y557451D02*
X692534D01*
X661388Y444679D02*
X674397Y431670D01*
X675524Y431200D02*
X677025Y431201D01*
X677770Y431202D01*
X657942Y445146D02*
X660259D01*
X668829Y445329D02*
X671098Y447598D01*
X677839Y434804D02*
X679910Y434905D01*
X668831Y443069D02*
X676634Y435270D01*
X678016Y431208D02*
X680086Y431309D01*
X687526Y436902D02*
X689700Y436950D01*
X679700Y439200D02*
X681644Y438225D01*
X666783Y451200D02*
X669092D01*
X670222Y450733D02*
X671098Y449857D01*
X662285Y448945D02*
X666010Y451001D01*
X657942Y448746D02*
X661512D01*
X648684Y458004D02*
Y637484D01*
X646591Y454343D02*
X654276Y446658D01*
X649148Y456877D02*
X656816Y449209D01*
X645084Y458004D02*
Y637484D01*
X658716Y467034D02*
Y522707D01*
X655116Y467034D02*
Y522707D01*
X660400Y530808D02*
Y588973D01*
X659177Y523831D02*
X662487Y527141D01*
X664000Y530808D02*
Y588973D01*
X656629Y526374D02*
X659939Y529683D01*
X663430Y465061D02*
X663955Y467172D01*
X656610Y463387D02*
X658171Y461800D01*
X659176Y465912D02*
X660737Y464325D01*
X663165Y458905D02*
X663506Y456758D01*
X681859Y499795D02*
Y520635D01*
X678259Y499795D02*
Y520635D01*
X682325Y498666D02*
X683370Y497621D01*
X679772Y496128D02*
X680832Y495068D01*
X638212Y431992D02*
X638261Y431775D01*
X658039Y681805D02*
X658042Y681805D01*
X653802Y681421D02*
X658039Y681805D01*
X653477Y685006D02*
X657714Y685390D01*
X663366Y680556D02*
X663989Y671182D01*
X680750Y590553D02*
X681486Y587046D01*
X681600Y581251D02*
Y585965D01*
X678000Y581251D02*
Y585965D01*
X603016Y385226D02*
Y387484D01*
X599818Y384609D02*
X600228Y384155D01*
X613565Y379993D02*
X616712Y385286D01*
X619183Y379996D02*
X621394Y382208D01*
X621808Y382927D02*
X623016Y387484D01*
X620985Y373636D02*
X621951Y372670D01*
X618716Y376568D02*
Y378867D01*
X619046Y375595D02*
X619603Y374868D01*
X638885Y382265D02*
X640082Y381068D01*
X636328Y379731D02*
X637532Y378527D01*
X638301Y386971D02*
X638421Y383340D01*
X633825Y386579D02*
X634700Y387024D01*
X629697Y386405D02*
X633100D01*
X633292Y380196D02*
X635204Y380194D01*
X629687Y380199D02*
X633292Y380196D01*
X628097Y381799D02*
Y384805D01*
X586300Y466741D02*
X595069D01*
X586300Y463141D02*
X595069D01*
X602053Y465124D02*
X602700Y467200D01*
X602053Y459276D02*
X602700Y457200D01*
X585164Y406736D02*
X589348Y402552D01*
X582613Y404196D02*
X586815Y399994D01*
X613016Y387484D02*
X614447Y390568D01*
X617197Y386477D02*
X618051Y390023D01*
X613122Y394424D02*
X614416Y391978D01*
X616304Y396107D02*
X617598Y393661D01*
X608731Y443442D02*
X611631Y440542D01*
X612100Y397645D02*
Y439411D01*
X607280Y447980D02*
X607817Y451180D01*
X610887Y457556D02*
X611364Y458394D01*
X611569Y459176D02*
Y470102D01*
X608747Y453800D02*
X610887Y457556D01*
X613167Y485733D02*
X616700Y482200D01*
X606404Y477668D02*
X611259Y471048D01*
X605363Y479612D02*
Y482200D01*
X609363Y486200D02*
X612037D01*
X605829Y483329D02*
X608233Y485733D01*
X605671Y478668D02*
X606404Y477668D01*
X610830Y447384D02*
X611368Y450585D01*
X611368Y450585D01*
X611277Y445988D02*
X614177Y443088D01*
X611875Y452018D02*
X614015Y455774D01*
X615885Y396899D02*
X616304Y396107D01*
X615700Y397645D02*
Y439411D01*
X615169Y459176D02*
Y470102D01*
X615538Y471124D02*
X620866Y477538D01*
X621066Y477769D02*
X626230Y482934D01*
X622743Y443200D02*
X628236Y437707D01*
X634700Y416170D02*
Y417000D01*
X638300Y416170D02*
Y431432D01*
X634167Y436824D02*
X637241Y433750D01*
X633700Y437954D02*
Y442200D01*
X584700Y444200D02*
Y461547D01*
X601373Y379547D02*
X602199Y378510D01*
X603016Y377484D01*
X584700Y407854D02*
Y417950D01*
X581100Y444200D02*
Y461553D01*
Y407843D02*
Y417950D01*
X590884Y395599D02*
Y398862D01*
X591348Y394482D02*
X597671Y388158D01*
X587284Y395588D02*
Y398862D01*
X602119Y378446D02*
X603016Y377484D01*
X588797Y391942D02*
X595139Y385600D01*
X625153Y375802D02*
X636395D01*
X623012Y377943D02*
X625153Y375802D01*
X623083Y372202D02*
X630721D01*
X630721D02*
X636395D01*
X622584Y377943D02*
X623012D01*
X598300Y586178D02*
X617257D01*
X623007Y597476D02*
X623016Y597484D01*
X622609Y596943D02*
X622614Y596954D01*
X622457Y591378D02*
Y596262D01*
X596700Y574222D02*
Y584578D01*
X597164Y573095D02*
X600995Y569264D01*
X631073Y569269D02*
X634231Y572427D01*
X634700Y573558D02*
Y637000D01*
X602122Y568800D02*
X629942D01*
X627697Y658203D02*
X627700Y658200D01*
X626852Y661825D02*
X627252Y659097D01*
X622700Y663200D02*
X625113Y663200D01*
X628236Y657707D02*
X628654Y657290D01*
Y657246D02*
Y657290D01*
Y657246D02*
X634700Y651200D01*
X598300Y589778D02*
X617257D01*
X622119Y608446D02*
X622354Y608193D01*
X622119Y603627D02*
Y607358D01*
X619858Y600402D02*
X621423Y602097D01*
X618857Y591378D02*
Y596262D01*
X618857Y591378D02*
X618857D01*
X593100Y574222D02*
Y584578D01*
X594607Y570561D02*
X598455Y566713D01*
X602122Y565200D02*
X629942D01*
X633630Y566735D02*
X636777Y569881D01*
X633700Y658456D02*
Y662200D01*
X639013Y575279D02*
Y651053D01*
X634090Y657410D02*
X637415Y653565D01*
X637478Y653490D02*
X638647Y652071D01*
X600793Y600616D02*
X600802Y600616D01*
X600793Y600616D02*
Y600616D01*
X600788Y600616D02*
X600793D01*
X587713Y611102D02*
X596454Y602195D01*
X602305Y599539D02*
X603016Y597484D01*
X586269Y613051D02*
X587135Y611802D01*
X600629Y600608D02*
X600683Y600612D01*
X586010Y613362D02*
X586171Y613201D01*
X585697Y613860D02*
X586010Y613362D01*
X577393Y627101D02*
X585697Y613860D01*
X602053Y685124D02*
X602700Y687200D01*
X593553Y649225D02*
X594561Y650233D01*
X596970Y655904D02*
X596978Y656424D01*
X594607Y662130D02*
X594622Y662114D01*
X584408Y640080D02*
X593543Y649216D01*
X580188Y635860D02*
X584399Y640071D01*
X578157Y633824D02*
X580180Y635853D01*
X578878Y677865D02*
X593659Y663078D01*
X582550Y686741D02*
X595069D01*
X599217Y684677D02*
X599249Y684635D01*
X593659Y663078D02*
X594607Y662130D01*
X613319Y599678D02*
Y599678D01*
X612087Y598446D02*
X613319Y599678D01*
X617525Y694613D02*
X622243Y701348D01*
X625723Y704200D02*
X626700D01*
X622420Y701560D02*
X624594Y703733D01*
X614280Y678194D02*
Y691492D01*
X612127Y672560D02*
X613759Y675925D01*
X611965Y672224D02*
X612127Y672560D01*
X614421Y627800D02*
Y661520D01*
X611971Y667600D02*
X613854Y663891D01*
X613565Y599993D02*
X616712Y605286D01*
X613319Y599678D02*
X613328Y599686D01*
X614421Y627784D02*
X614493Y620498D01*
X617283Y606950D02*
X617762Y610781D01*
X616347Y615979D02*
X617410Y613408D01*
X614972Y617929D02*
X615239Y617661D01*
X615249Y617649D01*
X614493Y620498D02*
X614507Y619033D01*
X614722Y705173D02*
X616237Y703657D01*
X616700Y702200D02*
Y702532D01*
X609442Y705638D02*
X613595D01*
X605829Y698590D02*
X607458Y696961D01*
X605829Y702687D02*
X608313Y705171D01*
X605363Y699719D02*
Y701558D01*
X607759Y696543D02*
X610511Y691036D01*
X610680Y678194D02*
Y690321D01*
X608888Y674131D02*
X610520Y677496D01*
X608503Y673336D02*
X608885Y674125D01*
X608486Y673344D02*
X608503Y673336D01*
X604295Y626350D02*
X608447Y626356D01*
X608551Y666305D02*
X610612Y662245D01*
X608447Y626356D02*
X609194Y626357D01*
X610785Y627957D02*
Y661520D01*
X613024Y614595D02*
X614083Y612032D01*
X612701Y615095D02*
X612709Y615087D01*
X612680Y615117D02*
X612693Y615103D01*
X614083Y612032D02*
X614086Y612026D01*
X613016Y607484D02*
X614126Y610937D01*
X604300Y619110D02*
X608023D01*
X609153Y618644D02*
X610209Y617587D01*
X612680Y615117D01*
X602700Y624310D02*
X602700Y624750D01*
X602700Y620704D02*
X602700Y624310D01*
X590380Y613719D02*
X599120Y604811D01*
X602305Y605429D02*
X603016Y607484D01*
X600778Y604352D02*
X600783Y604352D01*
X580481Y629305D02*
X589336Y615186D01*
X589336Y615186D02*
X590206Y613929D01*
X600373Y604336D02*
X600426Y604339D01*
X602053Y679276D02*
X602700Y677200D01*
X597154Y664673D02*
X597168Y664659D01*
X600570Y655847D02*
X600578Y656381D01*
X586954Y637535D02*
X597107Y647688D01*
X582733Y633315D02*
X586949Y637530D01*
X580706Y631282D02*
X582728Y633309D01*
X596205Y665623D02*
X597153Y664675D01*
X582550Y683141D02*
X595069D01*
X581424Y680410D02*
X596195Y665633D01*
X596345Y682506D02*
X596378Y682463D01*
D111*
X601111Y383656D02*
D03*
M02*
