G04*
G04 #@! TF.GenerationSoftware,Altium Limited,Altium Designer,26.4.1 (12)*
G04*
G04 Layer_Physical_Order=5*
G04 Layer_Color=16440176*
%FSLAX44Y44*%
%MOMM*%
G71*
G04*
G04 #@! TF.SameCoordinates,C1CB827C-30EA-48D1-8105-98592C5B5D01*
G04*
G04*
G04 #@! TF.FilePolarity,Positive*
G04*
G01*
G75*
%ADD16C,0.6000*%
%ADD108C,0.4000*%
%ADD109C,4.4000*%
G36*
X783144Y793657D02*
X782842Y793597D01*
X778376Y791747D01*
X774357Y789062D01*
X770938Y785643D01*
X768253Y781624D01*
X766403Y777158D01*
X765460Y772417D01*
Y771500D01*
X790000D01*
Y770000D01*
X791500D01*
Y745460D01*
X792417D01*
X797158Y746403D01*
X801624Y748253D01*
X805643Y750939D01*
X809062Y754357D01*
X811747Y758376D01*
X813597Y762842D01*
X813657Y763144D01*
X815157Y762996D01*
X815157Y452004D01*
X813657Y451857D01*
X813597Y452158D01*
X811747Y456624D01*
X809062Y460643D01*
X805643Y464062D01*
X801624Y466747D01*
X797158Y468597D01*
X792417Y469540D01*
X791500D01*
Y445000D01*
Y420460D01*
X792417D01*
X797158Y421403D01*
X801624Y423253D01*
X805643Y425938D01*
X809062Y429357D01*
X811747Y433376D01*
X813597Y437842D01*
X813657Y438143D01*
X815157Y437996D01*
X815157Y37005D01*
X813657Y36857D01*
X813597Y37158D01*
X811747Y41624D01*
X809062Y45643D01*
X805643Y49061D01*
X801624Y51747D01*
X797158Y53597D01*
X792417Y54540D01*
X791500D01*
Y30000D01*
X790000D01*
Y28500D01*
X765460D01*
Y27583D01*
X766403Y22842D01*
X768253Y18376D01*
X770938Y14357D01*
X774357Y10939D01*
X778376Y8253D01*
X782842Y6403D01*
X783144Y6343D01*
X782996Y4843D01*
X437004D01*
X436856Y6343D01*
X437158Y6403D01*
X441624Y8253D01*
X445643Y10939D01*
X449062Y14357D01*
X451747Y18376D01*
X453597Y22842D01*
X454540Y27583D01*
Y28500D01*
X405460D01*
Y27583D01*
X406403Y22842D01*
X408253Y18376D01*
X410938Y14357D01*
X414357Y10939D01*
X418376Y8253D01*
X422842Y6403D01*
X423144Y6343D01*
X422996Y4843D01*
X37004D01*
X36856Y6343D01*
X37158Y6403D01*
X41624Y8253D01*
X45643Y10939D01*
X49061Y14357D01*
X51747Y18376D01*
X53597Y22842D01*
X54540Y27583D01*
Y28500D01*
X30000D01*
Y30000D01*
X28500D01*
Y54540D01*
X27583D01*
X22842Y53597D01*
X18376Y51747D01*
X14357Y49061D01*
X10939Y45643D01*
X8253Y41624D01*
X6403Y37158D01*
X6343Y36856D01*
X4843Y37003D01*
X4843Y437996D01*
X6343Y438144D01*
X6403Y437842D01*
X8253Y433376D01*
X10939Y429357D01*
X14357Y425938D01*
X18376Y423253D01*
X22842Y421403D01*
X27583Y420460D01*
X28500D01*
Y445000D01*
Y469540D01*
X27583D01*
X22842Y468597D01*
X18376Y466747D01*
X14357Y464062D01*
X10939Y460643D01*
X8253Y456624D01*
X6403Y452158D01*
X6343Y451856D01*
X4843Y452004D01*
X4843Y762996D01*
X6343Y763144D01*
X6403Y762842D01*
X8253Y758376D01*
X10939Y754357D01*
X14357Y750939D01*
X18376Y748253D01*
X22842Y746403D01*
X27583Y745460D01*
X28500D01*
Y770000D01*
X30000D01*
Y771500D01*
X54540D01*
Y772417D01*
X53597Y777158D01*
X51747Y781624D01*
X49061Y785643D01*
X45643Y789062D01*
X41624Y791747D01*
X37158Y793597D01*
X36856Y793657D01*
X37004Y795157D01*
X448356D01*
X448504Y793657D01*
X448202Y793597D01*
X443736Y791747D01*
X439717Y789062D01*
X436298Y785643D01*
X433613Y781624D01*
X431763Y777158D01*
X430820Y772417D01*
Y771500D01*
X479900D01*
Y772417D01*
X478957Y777158D01*
X477107Y781624D01*
X474422Y785643D01*
X471003Y789062D01*
X466984Y791747D01*
X462518Y793597D01*
X462216Y793657D01*
X462364Y795157D01*
X782996D01*
X783144Y793657D01*
D02*
G37*
%LPC*%
G36*
X705741Y770500D02*
X704348D01*
X703062Y769967D01*
X702077Y768983D01*
X701544Y767696D01*
Y766304D01*
X702077Y765017D01*
X703062Y764033D01*
X704348Y763500D01*
X705741D01*
X707027Y764033D01*
X708012Y765017D01*
X708544Y766304D01*
Y767696D01*
X708012Y768983D01*
X707027Y769967D01*
X705741Y770500D01*
D02*
G37*
G36*
X612696Y766500D02*
X611304D01*
X610017Y765967D01*
X609033Y764983D01*
X608500Y763696D01*
Y762304D01*
X609033Y761017D01*
X610017Y760033D01*
X611304Y759500D01*
X612696D01*
X613983Y760033D01*
X614967Y761017D01*
X615500Y762304D01*
Y763696D01*
X614967Y764983D01*
X613983Y765967D01*
X612696Y766500D01*
D02*
G37*
G36*
X724726Y765521D02*
X723334D01*
X722047Y764988D01*
X721063Y764004D01*
X720530Y762717D01*
Y761325D01*
X721063Y760039D01*
X722047Y759054D01*
X723334Y758521D01*
X724726D01*
X726013Y759054D01*
X726997Y760039D01*
X727530Y761325D01*
Y762717D01*
X726997Y764004D01*
X726013Y764988D01*
X724726Y765521D01*
D02*
G37*
G36*
X788500Y768500D02*
X765460D01*
Y767583D01*
X766403Y762842D01*
X768253Y758376D01*
X770938Y754357D01*
X774357Y750939D01*
X778376Y748253D01*
X782842Y746403D01*
X787583Y745460D01*
X788500D01*
Y768500D01*
D02*
G37*
G36*
X479900D02*
X456860D01*
Y745460D01*
X457777D01*
X462518Y746403D01*
X466984Y748253D01*
X471003Y750939D01*
X474422Y754357D01*
X477107Y758376D01*
X478957Y762842D01*
X479900Y767583D01*
Y768500D01*
D02*
G37*
G36*
X453860D02*
X430820D01*
Y767583D01*
X431763Y762842D01*
X433613Y758376D01*
X436298Y754357D01*
X439717Y750939D01*
X443736Y748253D01*
X448202Y746403D01*
X452943Y745460D01*
X453860D01*
Y768500D01*
D02*
G37*
G36*
X54540D02*
X31500D01*
Y745460D01*
X32417D01*
X37158Y746403D01*
X41624Y748253D01*
X45643Y750939D01*
X49061Y754357D01*
X51747Y758376D01*
X53597Y762842D01*
X54540Y767583D01*
Y768500D01*
D02*
G37*
G36*
X754696Y751500D02*
X753304D01*
X752017Y750967D01*
X751033Y749983D01*
X750500Y748696D01*
Y747304D01*
X751033Y746017D01*
X752017Y745033D01*
X753304Y744500D01*
X754696D01*
X755983Y745033D01*
X756967Y746017D01*
X757500Y747304D01*
Y748696D01*
X756967Y749983D01*
X755983Y750967D01*
X754696Y751500D01*
D02*
G37*
G36*
X646696D02*
X645304D01*
X644017Y750967D01*
X643033Y749983D01*
X642500Y748696D01*
Y747304D01*
X643033Y746017D01*
X644017Y745033D01*
X645304Y744500D01*
X646696D01*
X647983Y745033D01*
X648967Y746017D01*
X649500Y747304D01*
Y748696D01*
X648967Y749983D01*
X647983Y750967D01*
X646696Y751500D01*
D02*
G37*
G36*
X591696Y749500D02*
X590304D01*
X589017Y748967D01*
X588033Y747983D01*
X587500Y746696D01*
Y745304D01*
X588033Y744017D01*
X589017Y743033D01*
X590304Y742500D01*
X591696D01*
X592983Y743033D01*
X593967Y744017D01*
X594500Y745304D01*
Y746696D01*
X593967Y747983D01*
X592983Y748967D01*
X591696Y749500D01*
D02*
G37*
G36*
X548696D02*
X547304D01*
X546017Y748967D01*
X545033Y747983D01*
X544500Y746696D01*
Y745304D01*
X545033Y744017D01*
X546017Y743033D01*
X547304Y742500D01*
X548696D01*
X549983Y743033D01*
X550967Y744017D01*
X551500Y745304D01*
Y746696D01*
X550967Y747983D01*
X549983Y748967D01*
X548696Y749500D01*
D02*
G37*
G36*
X704696Y745500D02*
X703304D01*
X702017Y744967D01*
X701033Y743983D01*
X700500Y742696D01*
Y741304D01*
X701033Y740017D01*
X702017Y739033D01*
X703304Y738500D01*
X704696D01*
X705983Y739033D01*
X706967Y740017D01*
X707500Y741304D01*
Y742696D01*
X706967Y743983D01*
X705983Y744967D01*
X704696Y745500D01*
D02*
G37*
G36*
X722696Y744500D02*
X721304D01*
X720017Y743967D01*
X719033Y742983D01*
X718500Y741696D01*
Y740304D01*
X719033Y739017D01*
X720017Y738033D01*
X721304Y737500D01*
X722696D01*
X723983Y738033D01*
X724967Y739017D01*
X725500Y740304D01*
Y741696D01*
X724967Y742983D01*
X723983Y743967D01*
X722696Y744500D01*
D02*
G37*
G36*
X773095Y743346D02*
X771703D01*
X770416Y742813D01*
X769432Y741829D01*
X768899Y740542D01*
Y739150D01*
X769432Y737863D01*
X770416Y736879D01*
X771703Y736346D01*
X773095D01*
X774381Y736879D01*
X775366Y737863D01*
X775899Y739150D01*
Y740542D01*
X775366Y741829D01*
X774381Y742813D01*
X773095Y743346D01*
D02*
G37*
G36*
X583696Y736500D02*
X582304D01*
X581017Y735967D01*
X580033Y734983D01*
X579500Y733696D01*
Y732304D01*
X580033Y731017D01*
X581017Y730033D01*
X582304Y729500D01*
X583696D01*
X584983Y730033D01*
X585967Y731017D01*
X586500Y732304D01*
Y733696D01*
X585967Y734983D01*
X584983Y735967D01*
X583696Y736500D01*
D02*
G37*
G36*
X723696Y734500D02*
X722304D01*
X721017Y733967D01*
X720033Y732983D01*
X719500Y731696D01*
Y730304D01*
X720033Y729017D01*
X721017Y728033D01*
X722304Y727500D01*
X723696D01*
X724983Y728033D01*
X725967Y729017D01*
X726500Y730304D01*
Y731696D01*
X725967Y732983D01*
X724983Y733967D01*
X723696Y734500D01*
D02*
G37*
G36*
X772560Y734303D02*
X771167D01*
X769881Y733770D01*
X768896Y732786D01*
X768363Y731499D01*
Y730107D01*
X768896Y728820D01*
X769881Y727836D01*
X771167Y727303D01*
X772560D01*
X773846Y727836D01*
X774830Y728820D01*
X775363Y730107D01*
Y731499D01*
X774830Y732786D01*
X773846Y733770D01*
X772560Y734303D01*
D02*
G37*
G36*
X644696Y732500D02*
X643304D01*
X642017Y731967D01*
X641033Y730983D01*
X640500Y729696D01*
Y728304D01*
X641033Y727017D01*
X642017Y726033D01*
X643304Y725500D01*
X644696D01*
X645983Y726033D01*
X646967Y727017D01*
X647500Y728304D01*
Y729696D01*
X646967Y730983D01*
X645983Y731967D01*
X644696Y732500D01*
D02*
G37*
G36*
X573278Y731431D02*
X571885D01*
X570599Y730898D01*
X569614Y729913D01*
X569081Y728627D01*
Y727234D01*
X569614Y725948D01*
X570599Y724964D01*
X571885Y724431D01*
X573278D01*
X574564Y724964D01*
X575549Y725948D01*
X576081Y727234D01*
Y728627D01*
X575549Y729913D01*
X574564Y730898D01*
X573278Y731431D01*
D02*
G37*
G36*
X554396Y730700D02*
X553004D01*
X551717Y730167D01*
X550733Y729183D01*
X550200Y727896D01*
Y726504D01*
X550733Y725217D01*
X551717Y724233D01*
X553004Y723700D01*
X554396D01*
X555683Y724233D01*
X556667Y725217D01*
X557200Y726504D01*
Y727896D01*
X556667Y729183D01*
X555683Y730167D01*
X554396Y730700D01*
D02*
G37*
G36*
X614593Y730054D02*
X613201D01*
X611915Y729522D01*
X610930Y728537D01*
X610397Y727251D01*
Y725858D01*
X610930Y724572D01*
X611915Y723587D01*
X613201Y723055D01*
X614593D01*
X615880Y723587D01*
X616864Y724572D01*
X617397Y725858D01*
Y727251D01*
X616864Y728537D01*
X615880Y729522D01*
X614593Y730054D01*
D02*
G37*
G36*
X698696Y726500D02*
X697304D01*
X696017Y725967D01*
X695033Y724983D01*
X694500Y723696D01*
Y722304D01*
X695033Y721017D01*
X696017Y720033D01*
X697304Y719500D01*
X698696D01*
X699983Y720033D01*
X700967Y721017D01*
X701500Y722304D01*
Y723696D01*
X700967Y724983D01*
X699983Y725967D01*
X698696Y726500D01*
D02*
G37*
G36*
X139696Y725500D02*
X138304D01*
X137017Y724967D01*
X136033Y723983D01*
X135500Y722696D01*
Y721304D01*
X136033Y720017D01*
X137017Y719033D01*
X138304Y718500D01*
X139696D01*
X140983Y719033D01*
X141967Y720017D01*
X142500Y721304D01*
Y722696D01*
X141967Y723983D01*
X140983Y724967D01*
X139696Y725500D01*
D02*
G37*
G36*
X771696Y725500D02*
X770304D01*
X769017Y724967D01*
X768033Y723982D01*
X767500Y722696D01*
Y721304D01*
X768033Y720017D01*
X769017Y719033D01*
X770304Y718500D01*
X771696D01*
X772983Y719033D01*
X773967Y720017D01*
X774500Y721304D01*
Y722696D01*
X773967Y723982D01*
X772983Y724967D01*
X771696Y725500D01*
D02*
G37*
G36*
X594642Y721897D02*
X593249D01*
X591963Y721364D01*
X590978Y720380D01*
X590446Y719093D01*
Y717701D01*
X590978Y716415D01*
X591963Y715430D01*
X593249Y714897D01*
X594642D01*
X595928Y715430D01*
X596913Y716415D01*
X597445Y717701D01*
Y719093D01*
X596913Y720380D01*
X595928Y721364D01*
X594642Y721897D01*
D02*
G37*
G36*
X663712Y721016D02*
X662320D01*
X661033Y720483D01*
X660049Y719499D01*
X659516Y718212D01*
Y716820D01*
X660049Y715534D01*
X661033Y714549D01*
X662320Y714016D01*
X663712D01*
X664999Y714549D01*
X665983Y715534D01*
X666516Y716820D01*
Y718212D01*
X665983Y719499D01*
X664999Y720483D01*
X663712Y721016D01*
D02*
G37*
G36*
X653712D02*
X652320D01*
X651033Y720483D01*
X650049Y719499D01*
X649516Y718212D01*
Y716820D01*
X650049Y715534D01*
X651033Y714549D01*
X652320Y714016D01*
X653712D01*
X654999Y714549D01*
X655983Y715534D01*
X656516Y716820D01*
Y718212D01*
X655983Y719499D01*
X654999Y720483D01*
X653712Y721016D01*
D02*
G37*
G36*
X573712D02*
X572320D01*
X571034Y720483D01*
X570049Y719499D01*
X569516Y718212D01*
Y716820D01*
X570049Y715534D01*
X571034Y714549D01*
X572320Y714016D01*
X573712D01*
X574999Y714549D01*
X575983Y715534D01*
X576516Y716820D01*
Y718212D01*
X575983Y719499D01*
X574999Y720483D01*
X573712Y721016D01*
D02*
G37*
G36*
X622751Y720103D02*
X621358D01*
X620072Y719570D01*
X619087Y718585D01*
X618554Y717299D01*
Y715907D01*
X619087Y714620D01*
X620072Y713636D01*
X621358Y713103D01*
X622751D01*
X624037Y713636D01*
X625022Y714620D01*
X625555Y715907D01*
Y717299D01*
X625022Y718585D01*
X624037Y719570D01*
X622751Y720103D01*
D02*
G37*
G36*
X604642Y721897D02*
X603249D01*
X601963Y721364D01*
X600978Y720380D01*
X600446Y719093D01*
Y717701D01*
X600978Y716415D01*
X601963Y715430D01*
X603249Y714897D01*
X604642D01*
X605928Y715430D01*
X606913Y716415D01*
X607054Y716757D01*
X608554Y716459D01*
Y715907D01*
X609087Y714620D01*
X610072Y713636D01*
X611358Y713103D01*
X612751D01*
X614037Y713636D01*
X615022Y714620D01*
X615555Y715907D01*
Y717299D01*
X615022Y718585D01*
X614037Y719570D01*
X612751Y720103D01*
X611358D01*
X610072Y719570D01*
X609087Y718585D01*
X608946Y718243D01*
X607445Y718541D01*
Y719093D01*
X606913Y720380D01*
X605928Y721364D01*
X604642Y721897D01*
D02*
G37*
G36*
X126635Y717317D02*
X125243D01*
X123956Y716784D01*
X122972Y715799D01*
X122439Y714513D01*
Y713121D01*
X122972Y711834D01*
X123956Y710850D01*
X125243Y710317D01*
X126635D01*
X127922Y710850D01*
X128906Y711834D01*
X129439Y713121D01*
Y714513D01*
X128906Y715799D01*
X127922Y716784D01*
X126635Y717317D01*
D02*
G37*
G36*
X113679Y714065D02*
X112287D01*
X111000Y713532D01*
X110016Y712547D01*
X109483Y711261D01*
Y709869D01*
X110016Y708582D01*
X111000Y707598D01*
X112287Y707065D01*
X113679D01*
X114966Y707598D01*
X115950Y708582D01*
X116483Y709869D01*
Y711261D01*
X115950Y712547D01*
X114966Y713532D01*
X113679Y714065D01*
D02*
G37*
G36*
X726696Y720500D02*
X725304D01*
X724017Y719967D01*
X723033Y718983D01*
X722500Y717696D01*
Y716304D01*
X723033Y715017D01*
X723623Y714427D01*
X723873Y713500D01*
X723623Y712573D01*
X723033Y711983D01*
X722500Y710696D01*
Y709304D01*
X723033Y708017D01*
X724017Y707033D01*
X725304Y706500D01*
X726696D01*
X727983Y707033D01*
X728967Y708017D01*
X729500Y709304D01*
Y710696D01*
X728967Y711983D01*
X728377Y712573D01*
X728127Y713500D01*
X728377Y714427D01*
X728967Y715017D01*
X729500Y716304D01*
Y717696D01*
X728967Y718983D01*
X727983Y719967D01*
X726696Y720500D01*
D02*
G37*
G36*
X691696D02*
X690304D01*
X689017Y719967D01*
X688033Y718983D01*
X687500Y717696D01*
Y716304D01*
X688033Y715017D01*
X688623Y714427D01*
X688873Y713500D01*
X688623Y712573D01*
X688033Y711983D01*
X687500Y710696D01*
Y709304D01*
X688033Y708017D01*
X689017Y707033D01*
X690304Y706500D01*
X691696D01*
X692983Y707033D01*
X693967Y708017D01*
X694500Y709304D01*
Y710696D01*
X693967Y711983D01*
X693377Y712573D01*
X693127Y713500D01*
X693377Y714427D01*
X693967Y715017D01*
X694500Y716304D01*
Y717696D01*
X693967Y718983D01*
X692983Y719967D01*
X691696Y720500D01*
D02*
G37*
G36*
X602799Y711945D02*
X601407D01*
X600120Y711413D01*
X599136Y710428D01*
X598603Y709142D01*
Y707749D01*
X599136Y706463D01*
X600120Y705478D01*
X601407Y704946D01*
X602799D01*
X604085Y705478D01*
X605070Y706463D01*
X605603Y707749D01*
Y709142D01*
X605070Y710428D01*
X604085Y711413D01*
X602799Y711945D01*
D02*
G37*
G36*
X573680Y710984D02*
X572288D01*
X571001Y710451D01*
X570017Y709466D01*
X569484Y708180D01*
Y706788D01*
X570017Y705501D01*
X571001Y704517D01*
X572288Y703984D01*
X573680D01*
X574967Y704517D01*
X575951Y705501D01*
X576484Y706788D01*
Y708180D01*
X575951Y709466D01*
X574967Y710451D01*
X573680Y710984D01*
D02*
G37*
G36*
X522696Y716500D02*
X521304D01*
X520017Y715967D01*
X519033Y714983D01*
X518500Y713696D01*
Y712304D01*
X519033Y711017D01*
X519070Y710980D01*
X519987Y710000D01*
X519070Y709020D01*
X519033Y708983D01*
X518500Y707696D01*
Y706304D01*
X519033Y705017D01*
X520017Y704033D01*
X521304Y703500D01*
X522696D01*
X523983Y704033D01*
X524967Y705017D01*
X525500Y706304D01*
Y707696D01*
X524967Y708983D01*
X524930Y709020D01*
X524013Y710000D01*
X524930Y710980D01*
X524967Y711017D01*
X525500Y712304D01*
Y713696D01*
X524967Y714983D01*
X523983Y715967D01*
X522696Y716500D01*
D02*
G37*
G36*
X100664Y709164D02*
X99272D01*
X97985Y708631D01*
X97001Y707646D01*
X96468Y706360D01*
Y704968D01*
X97001Y703681D01*
X97985Y702697D01*
X99272Y702164D01*
X100664D01*
X101950Y702697D01*
X102935Y703681D01*
X103468Y704968D01*
Y706360D01*
X102935Y707646D01*
X101950Y708631D01*
X100664Y709164D01*
D02*
G37*
G36*
X627396Y707700D02*
X626004D01*
X624717Y707167D01*
X623733Y706183D01*
X623200Y704896D01*
Y703504D01*
X623733Y702217D01*
X624717Y701233D01*
X626004Y700700D01*
X627396D01*
X628683Y701233D01*
X629667Y702217D01*
X630200Y703504D01*
Y704896D01*
X629667Y706183D01*
X628683Y707167D01*
X627396Y707700D01*
D02*
G37*
G36*
X92696Y704500D02*
X91304D01*
X90017Y703967D01*
X89033Y702983D01*
X88500Y701696D01*
Y700304D01*
X89033Y699017D01*
X90017Y698033D01*
X91304Y697500D01*
X92696D01*
X93983Y698033D01*
X94967Y699017D01*
X95500Y700304D01*
Y701696D01*
X94967Y702983D01*
X93983Y703967D01*
X92696Y704500D01*
D02*
G37*
G36*
X637396Y709700D02*
X636004D01*
X634717Y709167D01*
X633733Y708183D01*
X633200Y706896D01*
Y705504D01*
X633733Y704217D01*
X634717Y703233D01*
X636004Y702700D01*
X637396D01*
X638535Y701695D01*
X638733Y701217D01*
X639717Y700233D01*
X641004Y699700D01*
X642396D01*
X643200Y698504D01*
X643733Y697217D01*
X644717Y696233D01*
X646004Y695700D01*
X647396D01*
X648683Y696233D01*
X649667Y697217D01*
X650200Y698504D01*
Y699896D01*
X649667Y701183D01*
X648683Y702167D01*
X647396Y702700D01*
X646004D01*
X645200Y703896D01*
X644667Y705183D01*
X643683Y706167D01*
X642396Y706700D01*
X641004D01*
X639865Y707705D01*
X639667Y708183D01*
X638683Y709167D01*
X637396Y709700D01*
D02*
G37*
G36*
X559896Y702700D02*
X558504D01*
X557217Y702167D01*
X556233Y701183D01*
X555700Y699896D01*
Y698504D01*
X556233Y697217D01*
X557217Y696233D01*
X558504Y695700D01*
X559896D01*
X561183Y696233D01*
X562167Y697217D01*
X562700Y698504D01*
Y699896D01*
X562167Y701183D01*
X561183Y702167D01*
X559896Y702700D01*
D02*
G37*
G36*
X617396Y705700D02*
X616004D01*
X614717Y705167D01*
X613733Y704183D01*
X613200Y702896D01*
Y701504D01*
X613477Y700835D01*
X613304Y700575D01*
X612017Y700042D01*
X611033Y699058D01*
X610500Y697772D01*
Y696379D01*
X611033Y695093D01*
X612017Y694108D01*
X613304Y693575D01*
X614696D01*
X615983Y694108D01*
X616967Y695093D01*
X617500Y696379D01*
Y697772D01*
X617223Y698441D01*
X617396Y698700D01*
X618683Y699233D01*
X619667Y700217D01*
X620200Y701504D01*
Y702896D01*
X619667Y704183D01*
X618683Y705167D01*
X617396Y705700D01*
D02*
G37*
G36*
X690396Y693700D02*
X689004D01*
X687717Y693167D01*
X686733Y692183D01*
X686200Y690896D01*
Y689504D01*
X686733Y688217D01*
X687717Y687233D01*
X689004Y686700D01*
X690396D01*
X691683Y687233D01*
X692667Y688217D01*
X693200Y689504D01*
Y690896D01*
X692667Y692183D01*
X691683Y693167D01*
X690396Y693700D01*
D02*
G37*
G36*
X603396Y690700D02*
X602004D01*
X600717Y690167D01*
X599733Y689183D01*
X599200Y687896D01*
Y686504D01*
X599733Y685217D01*
X600717Y684233D01*
X602004Y683700D01*
X603396D01*
X604683Y684233D01*
X605667Y685217D01*
X606200Y686504D01*
Y687896D01*
X605667Y689183D01*
X604683Y690167D01*
X603396Y690700D01*
D02*
G37*
G36*
X651396Y690700D02*
X650004D01*
X648717Y690167D01*
X647733Y689183D01*
X647200Y687896D01*
Y686504D01*
X647733Y685217D01*
X648717Y684233D01*
X649251Y684012D01*
Y682388D01*
X648717Y682167D01*
X647733Y681183D01*
X647200Y679896D01*
Y678504D01*
X647733Y677217D01*
X648717Y676233D01*
X650004Y675700D01*
X651396D01*
X652683Y676233D01*
X653667Y677217D01*
X654200Y678504D01*
Y679896D01*
X653667Y681183D01*
X652683Y682167D01*
X652149Y682388D01*
Y684012D01*
X652683Y684233D01*
X653667Y685217D01*
X654200Y686504D01*
Y687896D01*
X653667Y689183D01*
X652683Y690167D01*
X651396Y690700D01*
D02*
G37*
G36*
X69696Y681500D02*
X68304D01*
X67017Y680967D01*
X66033Y679983D01*
X65500Y678696D01*
Y677304D01*
X66033Y676017D01*
X67017Y675033D01*
X68304Y674500D01*
X69696D01*
X70983Y675033D01*
X71967Y676017D01*
X72500Y677304D01*
Y678696D01*
X71967Y679983D01*
X70983Y680967D01*
X69696Y681500D01*
D02*
G37*
G36*
X673712Y681016D02*
X672320D01*
X671033Y680483D01*
X670049Y679499D01*
X669516Y678212D01*
Y676820D01*
X670049Y675534D01*
X671033Y674549D01*
X672320Y674016D01*
X673712D01*
X674999Y674549D01*
X675983Y675534D01*
X676516Y676820D01*
Y678212D01*
X675983Y679499D01*
X674999Y680483D01*
X673712Y681016D01*
D02*
G37*
G36*
X603396Y680700D02*
X602004D01*
X600717Y680167D01*
X599733Y679183D01*
X599200Y677896D01*
Y676504D01*
X599733Y675217D01*
X600717Y674233D01*
X602004Y673700D01*
X603396D01*
X604683Y674233D01*
X605667Y675217D01*
X606200Y676504D01*
Y677896D01*
X605667Y679183D01*
X604683Y680167D01*
X603396Y680700D01*
D02*
G37*
G36*
X31697Y666069D02*
X30305D01*
X29019Y665536D01*
X28981Y665498D01*
X28001Y664582D01*
X27021Y665498D01*
X26984Y665536D01*
X25697Y666069D01*
X24305D01*
X23019Y665536D01*
X22034Y664551D01*
X21501Y663265D01*
Y661872D01*
X22034Y660586D01*
X22071Y660549D01*
X22988Y659569D01*
X22071Y658589D01*
X22034Y658551D01*
X21501Y657265D01*
Y655872D01*
X22034Y654586D01*
X23019Y653602D01*
X24305Y653069D01*
X25697D01*
X26984Y653602D01*
X27021Y653639D01*
X28001Y654555D01*
X28981Y653639D01*
X29019Y653602D01*
X30305Y653069D01*
X31697D01*
X32984Y653602D01*
X33968Y654586D01*
X34501Y655872D01*
Y657265D01*
X33968Y658551D01*
X33931Y658589D01*
X33015Y659569D01*
X33931Y660549D01*
X33968Y660586D01*
X34501Y661872D01*
Y663265D01*
X33968Y664551D01*
X32984Y665536D01*
X31697Y666069D01*
D02*
G37*
G36*
X705696Y671500D02*
X704304D01*
X703017Y670967D01*
X702033Y669983D01*
X701500Y668696D01*
Y667304D01*
X702033Y666017D01*
X703017Y665033D01*
X704304Y664500D01*
X705696D01*
X706983Y665033D01*
X707967Y666017D01*
X708500Y667304D01*
Y668696D01*
X707967Y669983D01*
X706983Y670967D01*
X705696Y671500D01*
D02*
G37*
G36*
X647396Y670700D02*
X646004D01*
X644717Y670167D01*
X643733Y669183D01*
X643200Y667896D01*
X642396Y666700D01*
X641004D01*
X639717Y666167D01*
X638733Y665183D01*
X638305Y664149D01*
X637397Y663953D01*
X636743Y664000D01*
X636667Y664183D01*
X635683Y665167D01*
X634396Y665700D01*
X633004D01*
X631717Y665167D01*
X630733Y664183D01*
X630200Y662896D01*
Y661504D01*
X630733Y660217D01*
X631717Y659233D01*
X633004Y658700D01*
X634396D01*
X635683Y659233D01*
X636667Y660217D01*
X637095Y661251D01*
X638003Y661447D01*
X638657Y661400D01*
X638733Y661217D01*
X639323Y660627D01*
X639573Y659700D01*
X639323Y658773D01*
X638733Y658183D01*
X638200Y656896D01*
Y655504D01*
X638733Y654217D01*
X639717Y653233D01*
X641004Y652700D01*
X642396D01*
X643683Y653233D01*
X644667Y654217D01*
X645200Y655504D01*
Y656896D01*
X644667Y658183D01*
X644077Y658773D01*
X643827Y659700D01*
X644077Y660627D01*
X644667Y661217D01*
X645200Y662504D01*
X646004Y663700D01*
X647396D01*
X648683Y664233D01*
X649667Y665217D01*
X650200Y666504D01*
Y667896D01*
X649667Y669183D01*
X648683Y670167D01*
X647396Y670700D01*
D02*
G37*
G36*
X762696Y676500D02*
X761304D01*
X760017Y675967D01*
X759033Y674983D01*
X758500Y673696D01*
Y672304D01*
X759033Y671017D01*
X759070Y670980D01*
X759987Y670000D01*
X759070Y669020D01*
X759033Y668983D01*
X758500Y667696D01*
Y666304D01*
X759033Y665017D01*
X760017Y664033D01*
X761304Y663500D01*
X762696D01*
X763983Y664033D01*
X764967Y665017D01*
X765500Y666304D01*
Y667696D01*
X764967Y668983D01*
X764930Y669020D01*
X764013Y670000D01*
X764930Y670980D01*
X764967Y671017D01*
X765500Y672304D01*
Y673696D01*
X764967Y674983D01*
X763983Y675967D01*
X762696Y676500D01*
D02*
G37*
G36*
X731696Y668500D02*
X730304D01*
X729017Y667967D01*
X728033Y666983D01*
X727500Y665696D01*
Y664304D01*
X728033Y663017D01*
X729017Y662033D01*
X730304Y661500D01*
X731696D01*
X732983Y662033D01*
X733967Y663017D01*
X734500Y664304D01*
Y665696D01*
X733967Y666983D01*
X732983Y667967D01*
X731696Y668500D01*
D02*
G37*
G36*
X623396Y666700D02*
X622004D01*
X620717Y666167D01*
X619733Y665183D01*
X619200Y663896D01*
Y662504D01*
X619733Y661217D01*
X620717Y660233D01*
X622004Y659700D01*
X623396D01*
X624683Y660233D01*
X625667Y661217D01*
X626200Y662504D01*
Y663896D01*
X625667Y665183D01*
X624683Y666167D01*
X623396Y666700D01*
D02*
G37*
G36*
X583680Y661016D02*
X582288D01*
X581001Y660483D01*
X580017Y659499D01*
X579484Y658212D01*
Y656820D01*
X580017Y655534D01*
X581001Y654549D01*
X582288Y654016D01*
X583680D01*
X584967Y654549D01*
X585951Y655534D01*
X586484Y656820D01*
Y658212D01*
X585951Y659499D01*
X584967Y660483D01*
X583680Y661016D01*
D02*
G37*
G36*
X673712Y660984D02*
X672320D01*
X671033Y660451D01*
X670049Y659466D01*
X669516Y658180D01*
Y656788D01*
X670049Y655501D01*
X671033Y654517D01*
X672320Y653984D01*
X673712D01*
X674999Y654517D01*
X675983Y655501D01*
X676516Y656788D01*
Y658180D01*
X675983Y659466D01*
X674999Y660451D01*
X673712Y660984D01*
D02*
G37*
G36*
X140013Y655178D02*
X138621D01*
X137334Y654645D01*
X136350Y653661D01*
X135817Y652374D01*
Y650982D01*
X136350Y649696D01*
X137334Y648711D01*
X138621Y648178D01*
X140013D01*
X141300Y648711D01*
X142284Y649696D01*
X142817Y650982D01*
Y652374D01*
X142284Y653661D01*
X141300Y654645D01*
X140013Y655178D01*
D02*
G37*
G36*
X621396Y652700D02*
X620004D01*
X618717Y652167D01*
X617733Y651183D01*
X617200Y649896D01*
Y648504D01*
X617733Y647217D01*
X618717Y646233D01*
X620004Y645700D01*
X621396D01*
X622683Y646233D01*
X623667Y647217D01*
X624200Y648504D01*
Y649896D01*
X623667Y651183D01*
X622683Y652167D01*
X621396Y652700D01*
D02*
G37*
G36*
X672832Y652423D02*
X671440D01*
X670153Y651890D01*
X669169Y650906D01*
X668636Y649619D01*
Y648227D01*
X669169Y646941D01*
X670153Y645956D01*
X671440Y645423D01*
X672832D01*
X674118Y645956D01*
X675103Y646941D01*
X675636Y648227D01*
Y649619D01*
X675103Y650906D01*
X674118Y651890D01*
X672832Y652423D01*
D02*
G37*
G36*
X583680Y651016D02*
X582288D01*
X581001Y650483D01*
X580017Y649499D01*
X579484Y648212D01*
Y646820D01*
X580017Y645534D01*
X581001Y644549D01*
X582288Y644016D01*
X583680D01*
X584967Y644549D01*
X585951Y645534D01*
X586484Y646820D01*
Y648212D01*
X585951Y649499D01*
X584967Y650483D01*
X583680Y651016D01*
D02*
G37*
G36*
X603680Y650984D02*
X602288D01*
X601001Y650451D01*
X600017Y649466D01*
X599484Y648180D01*
Y646788D01*
X600017Y645501D01*
X601001Y644517D01*
X602288Y643984D01*
X603680D01*
X604967Y644517D01*
X605951Y645501D01*
X606484Y646788D01*
Y648180D01*
X605951Y649466D01*
X604967Y650451D01*
X603680Y650984D01*
D02*
G37*
G36*
X573712D02*
X572320D01*
X571034Y650451D01*
X570049Y649466D01*
X569516Y648180D01*
Y646788D01*
X570049Y645501D01*
X571034Y644517D01*
X572320Y643984D01*
X573712D01*
X574999Y644517D01*
X575983Y645501D01*
X576516Y646788D01*
Y648180D01*
X575983Y649466D01*
X574999Y650451D01*
X573712Y650984D01*
D02*
G37*
G36*
X526839Y642459D02*
X525447D01*
X524160Y641926D01*
X523509Y641275D01*
X522866Y641918D01*
X521580Y642451D01*
X520188D01*
X518901Y641918D01*
X517917Y640934D01*
X517384Y639647D01*
Y638255D01*
X517917Y636968D01*
X518901Y635984D01*
X520188Y635451D01*
X521580D01*
X522866Y635984D01*
X523517Y636635D01*
X524160Y635992D01*
X525447Y635459D01*
X526839D01*
X528126Y635992D01*
X529110Y636977D01*
X529643Y638263D01*
Y639655D01*
X529110Y640942D01*
X528126Y641926D01*
X526839Y642459D01*
D02*
G37*
G36*
X126952Y646995D02*
X125560D01*
X124274Y646462D01*
X123289Y645478D01*
X122756Y644191D01*
Y642799D01*
X123289Y641513D01*
X124274Y640528D01*
X125560Y639995D01*
X126952D01*
X128239Y640528D01*
X129223Y641513D01*
X129756Y642799D01*
Y644191D01*
X129223Y645478D01*
X128239Y646462D01*
X126952Y646995D01*
D02*
G37*
G36*
X777696Y644500D02*
X776304D01*
X775017Y643967D01*
X774033Y642983D01*
X773500Y641696D01*
Y640304D01*
X774033Y639017D01*
X775017Y638033D01*
X776304Y637500D01*
X777696D01*
X778983Y638033D01*
X779967Y639017D01*
X780500Y640304D01*
Y641696D01*
X779967Y642983D01*
X778983Y643967D01*
X777696Y644500D01*
D02*
G37*
G36*
X113996Y643743D02*
X112604D01*
X111317Y643210D01*
X110333Y642226D01*
X109800Y640939D01*
Y639547D01*
X110333Y638260D01*
X111317Y637276D01*
X112604Y636743D01*
X113996D01*
X115283Y637276D01*
X116267Y638260D01*
X116800Y639547D01*
Y640939D01*
X116267Y642226D01*
X115283Y643210D01*
X113996Y643743D01*
D02*
G37*
G36*
X722566Y638022D02*
X721174D01*
X719887Y637489D01*
X718903Y636504D01*
X717683Y637167D01*
X716396Y637700D01*
X715004D01*
X713717Y637167D01*
X712733Y636183D01*
X712200Y634896D01*
Y633504D01*
X712733Y632217D01*
X713717Y631233D01*
X715004Y630700D01*
X716396D01*
X717683Y631233D01*
X718667Y632217D01*
X719887Y631555D01*
X721174Y631022D01*
X722566D01*
X723852Y631555D01*
X724837Y632539D01*
X725370Y633825D01*
Y635218D01*
X724837Y636504D01*
X723852Y637489D01*
X722566Y638022D01*
D02*
G37*
G36*
X621361Y642235D02*
X619968D01*
X618682Y641703D01*
X617697Y640718D01*
X617164Y639432D01*
Y638039D01*
X617697Y636753D01*
X618682Y635768D01*
X619968Y635235D01*
X621361D01*
X622647Y635768D01*
X623632Y636753D01*
X624164Y638039D01*
Y639432D01*
X623632Y640718D01*
X622647Y641703D01*
X621361Y642235D01*
D02*
G37*
G36*
X653680Y640984D02*
X652288D01*
X651001Y640451D01*
X650017Y639467D01*
X649484Y638180D01*
Y636788D01*
X650017Y635501D01*
X651001Y634517D01*
X652288Y633984D01*
X653680D01*
X654967Y634517D01*
X655951Y635501D01*
X656484Y636788D01*
Y638180D01*
X655951Y639467D01*
X654967Y640451D01*
X653680Y640984D01*
D02*
G37*
G36*
X100981Y638842D02*
X99589D01*
X98302Y638309D01*
X97318Y637324D01*
X96785Y636038D01*
Y634646D01*
X97318Y633359D01*
X98302Y632375D01*
X99589Y631842D01*
X100981D01*
X102267Y632375D01*
X103252Y633359D01*
X103785Y634646D01*
Y636038D01*
X103252Y637324D01*
X102267Y638309D01*
X100981Y638842D01*
D02*
G37*
G36*
X705396Y638700D02*
X704004D01*
X702717Y638167D01*
X701733Y637183D01*
X701200Y635896D01*
Y634504D01*
X701733Y633217D01*
X702717Y632233D01*
X704004Y631700D01*
X705396D01*
X706683Y632233D01*
X707667Y633217D01*
X708200Y634504D01*
Y635896D01*
X707667Y637183D01*
X706683Y638167D01*
X705396Y638700D01*
D02*
G37*
G36*
X604696Y636500D02*
X603304D01*
X602017Y635967D01*
X601033Y634983D01*
X600500Y633696D01*
Y632304D01*
X601033Y631017D01*
X602017Y630033D01*
X603304Y629500D01*
X604696D01*
X605983Y630033D01*
X606967Y631017D01*
X607500Y632304D01*
Y633696D01*
X606967Y634983D01*
X605983Y635967D01*
X604696Y636500D01*
D02*
G37*
G36*
X771696Y632500D02*
X770304D01*
X769017Y631967D01*
X768033Y630983D01*
X767500Y629696D01*
Y628304D01*
X768033Y627017D01*
X769017Y626033D01*
X770304Y625500D01*
X771696D01*
X772983Y626033D01*
X773967Y627017D01*
X774500Y628304D01*
Y629696D01*
X773967Y630983D01*
X772983Y631967D01*
X771696Y632500D01*
D02*
G37*
G36*
X68696Y625500D02*
X67304D01*
X66017Y624967D01*
X65033Y623983D01*
X64500Y622696D01*
Y621304D01*
X65033Y620017D01*
X66017Y619033D01*
X67304Y618500D01*
X68696D01*
X69983Y619033D01*
X70967Y620017D01*
X71500Y621304D01*
Y622696D01*
X70967Y623983D01*
X69983Y624967D01*
X68696Y625500D01*
D02*
G37*
G36*
X557396Y622700D02*
X556004D01*
X554717Y622167D01*
X553733Y621183D01*
X553200Y619896D01*
Y618504D01*
X553733Y617217D01*
X554717Y616233D01*
X556004Y615700D01*
X557396D01*
X558683Y616233D01*
X559667Y617217D01*
X560200Y618504D01*
Y619896D01*
X559667Y621183D01*
X558683Y622167D01*
X557396Y622700D01*
D02*
G37*
G36*
X574396Y611700D02*
X573004D01*
X571717Y611167D01*
X570733Y610183D01*
X569683Y609167D01*
X568396Y609700D01*
X567004D01*
X565717Y609167D01*
X564733Y608183D01*
X564200Y606896D01*
Y605504D01*
X564733Y604217D01*
X565717Y603233D01*
X567004Y602700D01*
X568396D01*
X569683Y603233D01*
X570667Y604217D01*
X571717Y605233D01*
X573004Y604700D01*
X574396D01*
X575683Y605233D01*
X576667Y606217D01*
X577200Y607504D01*
Y608896D01*
X576667Y610183D01*
X575683Y611167D01*
X574396Y611700D01*
D02*
G37*
G36*
X731396Y614700D02*
X730004D01*
X728717Y614167D01*
X727733Y613183D01*
X727200Y611896D01*
Y610504D01*
X727733Y609217D01*
X728717Y608233D01*
X730004Y607700D01*
X731396D01*
X732682Y608233D01*
X733667Y609217D01*
X734200Y610504D01*
Y611896D01*
X733667Y613183D01*
X732682Y614167D01*
X731396Y614700D01*
D02*
G37*
G36*
X54696Y614500D02*
X53304D01*
X52017Y613967D01*
X51033Y612983D01*
X50500Y611696D01*
Y610304D01*
X51033Y609017D01*
X52017Y608033D01*
X53304Y607500D01*
X54696D01*
X55983Y608033D01*
X56967Y609017D01*
X57500Y610304D01*
Y611696D01*
X56967Y612983D01*
X55983Y613967D01*
X54696Y614500D01*
D02*
G37*
G36*
X87696Y611500D02*
X86304D01*
X85017Y610967D01*
X84033Y609983D01*
X83500Y608696D01*
Y607304D01*
X84033Y606017D01*
X85017Y605033D01*
X86304Y604500D01*
X87696D01*
X88983Y605033D01*
X89967Y606017D01*
X90500Y607304D01*
Y608696D01*
X89967Y609983D01*
X88983Y610967D01*
X87696Y611500D01*
D02*
G37*
G36*
X583712Y611016D02*
X582320D01*
X581034Y610483D01*
X580049Y609499D01*
X579516Y608212D01*
Y606820D01*
X580049Y605533D01*
X581034Y604549D01*
X582320Y604016D01*
X583712D01*
X584999Y604549D01*
X585983Y605533D01*
X586516Y606820D01*
Y608212D01*
X585983Y609499D01*
X584999Y610483D01*
X583712Y611016D01*
D02*
G37*
G36*
X623712Y610984D02*
X622320D01*
X621034Y610451D01*
X620049Y609467D01*
X619516Y608180D01*
Y606788D01*
X620049Y605501D01*
X621034Y604517D01*
X622320Y603984D01*
X623712D01*
X624999Y604517D01*
X625983Y605501D01*
X626516Y606788D01*
Y608180D01*
X625983Y609467D01*
X624999Y610451D01*
X623712Y610984D01*
D02*
G37*
G36*
X613712D02*
X612320D01*
X611034Y610451D01*
X610049Y609467D01*
X609516Y608180D01*
Y606788D01*
X610049Y605501D01*
X611034Y604517D01*
X612320Y603984D01*
X613712D01*
X614999Y604517D01*
X615983Y605501D01*
X616516Y606788D01*
Y608180D01*
X615983Y609467D01*
X614999Y610451D01*
X613712Y610984D01*
D02*
G37*
G36*
X603712D02*
X602320D01*
X601034Y610451D01*
X600049Y609467D01*
X599516Y608180D01*
Y606788D01*
X600049Y605501D01*
X601034Y604517D01*
X602320Y603984D01*
X603712D01*
X604999Y604517D01*
X605983Y605501D01*
X606516Y606788D01*
Y608180D01*
X605983Y609467D01*
X604999Y610451D01*
X603712Y610984D01*
D02*
G37*
G36*
X653680Y610984D02*
X652288D01*
X651001Y610451D01*
X650017Y609467D01*
X649484Y608180D01*
Y606788D01*
X650017Y605501D01*
X651001Y604517D01*
X652288Y603984D01*
X653680D01*
X654967Y604517D01*
X655951Y605501D01*
X656484Y606788D01*
Y608180D01*
X655951Y609467D01*
X654967Y610451D01*
X653680Y610984D01*
D02*
G37*
G36*
X140013Y603566D02*
X138621D01*
X137334Y603033D01*
X136350Y602049D01*
X135817Y600762D01*
Y599370D01*
X136350Y598084D01*
X137334Y597099D01*
X138621Y596566D01*
X140013D01*
X141300Y597099D01*
X142284Y598084D01*
X142817Y599370D01*
Y600762D01*
X142284Y602049D01*
X141300Y603033D01*
X140013Y603566D01*
D02*
G37*
G36*
X764696Y607500D02*
X763304D01*
X762017Y606967D01*
X761033Y605983D01*
X760500Y604696D01*
Y603304D01*
X761033Y602017D01*
X761800Y601250D01*
X761033Y600483D01*
X760500Y599196D01*
Y597804D01*
X761033Y596517D01*
X762017Y595533D01*
X763304Y595000D01*
X764696D01*
X765983Y595533D01*
X766967Y596517D01*
X767500Y597804D01*
Y599196D01*
X766967Y600483D01*
X766200Y601250D01*
X766967Y602017D01*
X767500Y603304D01*
Y604696D01*
X766967Y605983D01*
X765983Y606967D01*
X764696Y607500D01*
D02*
G37*
G36*
X623712Y600984D02*
X622320D01*
X621034Y600451D01*
X620049Y599467D01*
X619516Y598180D01*
Y596788D01*
X620049Y595501D01*
X621034Y594517D01*
X622320Y593984D01*
X623712D01*
X624999Y594517D01*
X625983Y595501D01*
X626516Y596788D01*
Y598180D01*
X625983Y599467D01*
X624999Y600451D01*
X623712Y600984D01*
D02*
G37*
G36*
X613712D02*
X612320D01*
X611034Y600451D01*
X610049Y599467D01*
X609516Y598180D01*
Y596788D01*
X610049Y595501D01*
X611034Y594517D01*
X612320Y593984D01*
X613712D01*
X614999Y594517D01*
X615983Y595501D01*
X616516Y596788D01*
Y598180D01*
X615983Y599467D01*
X614999Y600451D01*
X613712Y600984D01*
D02*
G37*
G36*
X603712D02*
X602320D01*
X601034Y600451D01*
X600049Y599467D01*
X599516Y598180D01*
Y596788D01*
X600049Y595501D01*
X601034Y594517D01*
X602320Y593984D01*
X603712D01*
X604999Y594517D01*
X605983Y595501D01*
X606516Y596788D01*
Y598180D01*
X605983Y599467D01*
X604999Y600451D01*
X603712Y600984D01*
D02*
G37*
G36*
X653680Y600984D02*
X652288D01*
X651001Y600451D01*
X650017Y599467D01*
X649484Y598180D01*
Y596788D01*
X650017Y595501D01*
X651001Y594517D01*
X652288Y593984D01*
X653680D01*
X654967Y594517D01*
X655951Y595501D01*
X656484Y596788D01*
Y598180D01*
X655951Y599467D01*
X654967Y600451D01*
X653680Y600984D01*
D02*
G37*
G36*
X593712D02*
X592320D01*
X591034Y600451D01*
X590049Y599467D01*
X589516Y598180D01*
Y596788D01*
X590049Y595501D01*
X591034Y594517D01*
X592320Y593984D01*
X593712D01*
X594999Y594517D01*
X595983Y595501D01*
X596516Y596788D01*
Y598180D01*
X595983Y599467D01*
X594999Y600451D01*
X593712Y600984D01*
D02*
G37*
G36*
X698396Y596700D02*
X697004D01*
X695717Y596167D01*
X694733Y595183D01*
X694200Y593896D01*
Y592504D01*
X694733Y591217D01*
X695717Y590233D01*
X697004Y589700D01*
X698396D01*
X699683Y590233D01*
X700667Y591217D01*
X701200Y592504D01*
Y593896D01*
X700667Y595183D01*
X699683Y596167D01*
X698396Y596700D01*
D02*
G37*
G36*
X562844Y596249D02*
X561452D01*
X560165Y595716D01*
X559181Y594732D01*
X558648Y593445D01*
Y592053D01*
X559181Y590766D01*
X560165Y589782D01*
X561452Y589249D01*
X562844D01*
X564131Y589782D01*
X565115Y590766D01*
X565648Y592053D01*
Y593445D01*
X565115Y594732D01*
X564131Y595716D01*
X562844Y596249D01*
D02*
G37*
G36*
X126952Y595383D02*
X125560D01*
X124274Y594850D01*
X123289Y593866D01*
X122756Y592579D01*
Y591187D01*
X123289Y589901D01*
X124274Y588916D01*
X125560Y588383D01*
X126952D01*
X128239Y588916D01*
X129223Y589901D01*
X129756Y591187D01*
Y592579D01*
X129223Y593866D01*
X128239Y594850D01*
X126952Y595383D01*
D02*
G37*
G36*
X93696Y593500D02*
X92304D01*
X91017Y592967D01*
X90033Y591983D01*
X89500Y590696D01*
Y589304D01*
X90033Y588017D01*
X91017Y587033D01*
X92304Y586500D01*
X93696D01*
X94983Y587033D01*
X95967Y588017D01*
X96500Y589304D01*
Y590696D01*
X95967Y591983D01*
X94983Y592967D01*
X93696Y593500D01*
D02*
G37*
G36*
X113996Y592131D02*
X112604D01*
X111318Y591598D01*
X110333Y590614D01*
X109800Y589327D01*
Y587935D01*
X110333Y586648D01*
X111318Y585664D01*
X112604Y585131D01*
X113996D01*
X115283Y585664D01*
X116267Y586648D01*
X116800Y587935D01*
Y589327D01*
X116267Y590614D01*
X115283Y591598D01*
X113996Y592131D01*
D02*
G37*
G36*
X701396Y587700D02*
X700004D01*
X698717Y587167D01*
X697733Y586183D01*
X697200Y584896D01*
Y583504D01*
X697733Y582217D01*
X698717Y581233D01*
X700004Y580700D01*
X701396D01*
X702683Y581233D01*
X703667Y582217D01*
X704200Y583504D01*
Y584896D01*
X703667Y586183D01*
X702683Y587167D01*
X701396Y587700D01*
D02*
G37*
G36*
X100981Y587230D02*
X99589D01*
X98302Y586697D01*
X97318Y585713D01*
X96785Y584426D01*
Y583034D01*
X97318Y581747D01*
X98302Y580763D01*
X99589Y580230D01*
X100981D01*
X102267Y580763D01*
X103252Y581747D01*
X103785Y583034D01*
Y584426D01*
X103252Y585713D01*
X102267Y586697D01*
X100981Y587230D01*
D02*
G37*
G36*
X559396Y584700D02*
X558004D01*
X556717Y584167D01*
X555733Y583183D01*
X555200Y581896D01*
Y580504D01*
X555733Y579217D01*
X556717Y578233D01*
X558004Y577700D01*
X559396D01*
X560683Y578233D01*
X561667Y579217D01*
X562200Y580504D01*
Y581896D01*
X561667Y583183D01*
X560683Y584167D01*
X559396Y584700D01*
D02*
G37*
G36*
X764696Y582500D02*
X763304D01*
X762017Y581967D01*
X761033Y580983D01*
X760500Y579696D01*
Y578304D01*
X761033Y577017D01*
X761800Y576250D01*
X761033Y575483D01*
X760500Y574196D01*
Y572804D01*
X761033Y571517D01*
X762017Y570533D01*
X763304Y570000D01*
X764696D01*
X765983Y570533D01*
X766967Y571517D01*
X767500Y572804D01*
Y574196D01*
X766967Y575483D01*
X766200Y576250D01*
X766967Y577017D01*
X767500Y578304D01*
Y579696D01*
X766967Y580983D01*
X765983Y581967D01*
X764696Y582500D01*
D02*
G37*
G36*
X538696Y569600D02*
X537304D01*
X536017Y569067D01*
X535033Y568083D01*
X533452Y568187D01*
X532696Y568500D01*
X531304D01*
X530017Y567967D01*
X529033Y566983D01*
X528500Y565696D01*
Y564304D01*
X529033Y563017D01*
X530017Y562033D01*
X531304Y561500D01*
X532696D01*
X533983Y562033D01*
X534967Y563017D01*
X536548Y562913D01*
X537304Y562600D01*
X538696D01*
X539983Y563133D01*
X540967Y564117D01*
X541500Y565404D01*
Y566796D01*
X540967Y568083D01*
X539983Y569067D01*
X538696Y569600D01*
D02*
G37*
G36*
X69696Y573500D02*
X68304D01*
X67017Y572967D01*
X66033Y571982D01*
X65500Y570696D01*
Y569304D01*
X66033Y568017D01*
X67017Y567033D01*
X68304Y566500D01*
X69696D01*
X70983Y567033D01*
X71967Y568017D01*
X72500Y569304D01*
Y570696D01*
X71967Y571982D01*
X70983Y572967D01*
X69696Y573500D01*
D02*
G37*
G36*
X555396Y572700D02*
X554004D01*
X552717Y572167D01*
X551733Y571183D01*
X551200Y569896D01*
Y568504D01*
X551733Y567217D01*
X552717Y566233D01*
X554004Y565700D01*
X555396D01*
X556683Y566233D01*
X557667Y567217D01*
X558200Y568504D01*
Y569896D01*
X557667Y571183D01*
X556683Y572167D01*
X555396Y572700D01*
D02*
G37*
G36*
X31697Y558069D02*
X30305D01*
X29019Y557536D01*
X28981Y557498D01*
X28001Y556582D01*
X27021Y557498D01*
X26984Y557536D01*
X25697Y558069D01*
X24305D01*
X23019Y557536D01*
X22034Y556551D01*
X21501Y555265D01*
Y553872D01*
X22034Y552586D01*
X22071Y552549D01*
X22988Y551569D01*
X22071Y550589D01*
X22034Y550551D01*
X21501Y549265D01*
Y547873D01*
X22034Y546586D01*
X23019Y545602D01*
X24305Y545069D01*
X25697D01*
X26984Y545602D01*
X27021Y545639D01*
X28001Y546555D01*
X28981Y545639D01*
X29019Y545602D01*
X30305Y545069D01*
X31697D01*
X32984Y545602D01*
X33968Y546586D01*
X34501Y547873D01*
Y549265D01*
X33968Y550551D01*
X33931Y550589D01*
X33015Y551569D01*
X33931Y552549D01*
X33968Y552586D01*
X34501Y553872D01*
Y555265D01*
X33968Y556551D01*
X32984Y557536D01*
X31697Y558069D01*
D02*
G37*
G36*
X87696Y559500D02*
X86304D01*
X85017Y558967D01*
X84033Y557983D01*
X83500Y556696D01*
Y555304D01*
X84033Y554017D01*
X85017Y553033D01*
X86304Y552500D01*
X87696D01*
X88983Y553033D01*
X89967Y554017D01*
X90500Y555304D01*
Y556696D01*
X89967Y557983D01*
X88983Y558967D01*
X87696Y559500D01*
D02*
G37*
G36*
X544064Y552700D02*
X542672D01*
X541385Y552167D01*
X541348Y552130D01*
X540368Y551213D01*
X539388Y552130D01*
X539351Y552167D01*
X538064Y552700D01*
X536672D01*
X535385Y552167D01*
X534401Y551183D01*
X533868Y549896D01*
Y548504D01*
X534401Y547217D01*
X534438Y547180D01*
X535354Y546200D01*
X534438Y545220D01*
X534401Y545182D01*
X533868Y543896D01*
Y542504D01*
X534401Y541217D01*
X535385Y540233D01*
X536672Y539700D01*
X538064D01*
X539351Y540233D01*
X539388Y540270D01*
X540368Y541186D01*
X541348Y540270D01*
X541385Y540233D01*
X542672Y539700D01*
X544064D01*
X545350Y540233D01*
X546335Y541217D01*
X546868Y542504D01*
Y543896D01*
X546335Y545182D01*
X546297Y545220D01*
X545381Y546200D01*
X546297Y547180D01*
X546335Y547217D01*
X546868Y548504D01*
Y549896D01*
X546335Y551183D01*
X545350Y552167D01*
X544064Y552700D01*
D02*
G37*
G36*
X615396Y557700D02*
X614004D01*
X612717Y557167D01*
X611733Y556183D01*
X611200Y554896D01*
Y553504D01*
X611733Y552217D01*
X612717Y551233D01*
X614004Y550700D01*
X615396D01*
X616683Y551233D01*
X617667Y552217D01*
X618200Y553504D01*
Y554896D01*
X617667Y556183D01*
X616683Y557167D01*
X615396Y557700D01*
D02*
G37*
G36*
X764696Y557000D02*
X763304D01*
X762017Y556467D01*
X761033Y555483D01*
X760500Y554196D01*
Y552804D01*
X761033Y551517D01*
X761800Y550750D01*
X761033Y549983D01*
X760500Y548696D01*
Y547304D01*
X761033Y546017D01*
X762017Y545033D01*
X763304Y544500D01*
X764696D01*
X765983Y545033D01*
X766967Y546017D01*
X767500Y547304D01*
Y548696D01*
X766967Y549983D01*
X766200Y550750D01*
X766967Y551517D01*
X767500Y552804D01*
Y554196D01*
X766967Y555483D01*
X765983Y556467D01*
X764696Y557000D01*
D02*
G37*
G36*
X633680Y551016D02*
X632288D01*
X631001Y550483D01*
X630017Y549499D01*
X629484Y548212D01*
Y546820D01*
X630017Y545533D01*
X631001Y544549D01*
X632288Y544016D01*
X633680D01*
X634967Y544549D01*
X635951Y545533D01*
X636484Y546820D01*
Y548212D01*
X635951Y549499D01*
X634967Y550483D01*
X633680Y551016D01*
D02*
G37*
G36*
X583680D02*
X582288D01*
X581001Y550483D01*
X580017Y549499D01*
X579484Y548212D01*
Y546820D01*
X580017Y545533D01*
X581001Y544549D01*
X582288Y544016D01*
X583680D01*
X584967Y544549D01*
X585951Y545533D01*
X586484Y546820D01*
Y548212D01*
X585951Y549499D01*
X584967Y550483D01*
X583680Y551016D01*
D02*
G37*
G36*
X711696Y549500D02*
X710304D01*
X709017Y548967D01*
X708033Y547983D01*
X707500Y546696D01*
Y545304D01*
X708033Y544017D01*
X709017Y543033D01*
X710304Y542500D01*
X711696D01*
X712983Y543033D01*
X713967Y544017D01*
X714500Y545304D01*
Y546696D01*
X713967Y547983D01*
X712983Y548967D01*
X711696Y549500D01*
D02*
G37*
G36*
X140013Y547178D02*
X138621D01*
X137334Y546645D01*
X136350Y545661D01*
X135817Y544374D01*
Y542982D01*
X136350Y541696D01*
X137334Y540711D01*
X138621Y540178D01*
X140013D01*
X141300Y540711D01*
X142284Y541696D01*
X142817Y542982D01*
Y544374D01*
X142284Y545661D01*
X141300Y546645D01*
X140013Y547178D01*
D02*
G37*
G36*
X653712Y541016D02*
X652320D01*
X651033Y540483D01*
X650049Y539499D01*
X649516Y538212D01*
Y536820D01*
X650049Y535533D01*
X651033Y534549D01*
X652320Y534016D01*
X653712D01*
X654999Y534549D01*
X655983Y535533D01*
X656516Y536820D01*
Y538212D01*
X655983Y539499D01*
X654999Y540483D01*
X653712Y541016D01*
D02*
G37*
G36*
X613680D02*
X612288D01*
X611001Y540483D01*
X610017Y539499D01*
X609484Y538212D01*
Y536820D01*
X610017Y535533D01*
X611001Y534549D01*
X612288Y534016D01*
X613680D01*
X614967Y534549D01*
X615951Y535533D01*
X616484Y536820D01*
Y538212D01*
X615951Y539499D01*
X614967Y540483D01*
X613680Y541016D01*
D02*
G37*
G36*
X583680D02*
X582288D01*
X581001Y540483D01*
X580017Y539499D01*
X579484Y538212D01*
Y536820D01*
X580017Y535533D01*
X581001Y534549D01*
X582288Y534016D01*
X583680D01*
X584967Y534549D01*
X585951Y535533D01*
X586484Y536820D01*
Y538212D01*
X585951Y539499D01*
X584967Y540483D01*
X583680Y541016D01*
D02*
G37*
G36*
X573680D02*
X572288D01*
X571001Y540483D01*
X570017Y539499D01*
X569484Y538212D01*
Y536820D01*
X570017Y535533D01*
X571001Y534549D01*
X572288Y534016D01*
X573680D01*
X574967Y534549D01*
X575951Y535533D01*
X576484Y536820D01*
Y538212D01*
X575951Y539499D01*
X574967Y540483D01*
X573680Y541016D01*
D02*
G37*
G36*
X603680Y540984D02*
X602288D01*
X601001Y540451D01*
X600017Y539467D01*
X599484Y538180D01*
Y536788D01*
X600017Y535501D01*
X601001Y534517D01*
X602288Y533984D01*
X603680D01*
X604967Y534517D01*
X605951Y535501D01*
X606484Y536788D01*
Y538180D01*
X605951Y539467D01*
X604967Y540451D01*
X603680Y540984D01*
D02*
G37*
G36*
X694396Y534700D02*
X693004D01*
X691717Y534167D01*
X690950Y533400D01*
X690183Y534167D01*
X688896Y534700D01*
X687504D01*
X686217Y534167D01*
X685233Y533183D01*
X684700Y531896D01*
Y530504D01*
X685233Y529217D01*
X686217Y528233D01*
X687504Y527700D01*
X688896D01*
X690183Y528233D01*
X690950Y529000D01*
X691717Y528233D01*
X693004Y527700D01*
X694396D01*
X695683Y528233D01*
X696667Y529217D01*
X697200Y530504D01*
Y531896D01*
X696667Y533183D01*
X695683Y534167D01*
X694396Y534700D01*
D02*
G37*
G36*
X126952Y538995D02*
X125560D01*
X124274Y538462D01*
X123289Y537478D01*
X122756Y536191D01*
Y534799D01*
X123289Y533512D01*
X124274Y532528D01*
X125560Y531995D01*
X126952D01*
X128239Y532528D01*
X129223Y533512D01*
X129756Y534799D01*
Y536191D01*
X129223Y537478D01*
X128239Y538462D01*
X126952Y538995D01*
D02*
G37*
G36*
X113996Y535743D02*
X112604D01*
X111317Y535210D01*
X110333Y534226D01*
X109800Y532939D01*
Y531547D01*
X110333Y530260D01*
X111317Y529276D01*
X112604Y528743D01*
X113996D01*
X115283Y529276D01*
X116267Y530260D01*
X116800Y531547D01*
Y532939D01*
X116267Y534226D01*
X115283Y535210D01*
X113996Y535743D01*
D02*
G37*
G36*
X703396Y534700D02*
X702004D01*
X700717Y534167D01*
X699733Y533183D01*
X699200Y531896D01*
Y530504D01*
X699733Y529217D01*
X700717Y528233D01*
X702004Y527700D01*
X703396D01*
X704683Y528233D01*
X705667Y529217D01*
X706200Y530504D01*
Y531896D01*
X705667Y533183D01*
X704683Y534167D01*
X703396Y534700D01*
D02*
G37*
G36*
X603680Y530984D02*
X602288D01*
X601001Y530451D01*
X600017Y529467D01*
X599484Y528180D01*
Y526788D01*
X600017Y525501D01*
X601001Y524517D01*
X602288Y523984D01*
X603680D01*
X604967Y524517D01*
X605951Y525501D01*
X606484Y526788D01*
Y528180D01*
X605951Y529467D01*
X604967Y530451D01*
X603680Y530984D01*
D02*
G37*
G36*
X100981Y530842D02*
X99589D01*
X98302Y530309D01*
X97318Y529324D01*
X96785Y528038D01*
Y526646D01*
X97318Y525359D01*
X98302Y524375D01*
X99589Y523842D01*
X100981D01*
X102267Y524375D01*
X103252Y525359D01*
X103785Y526646D01*
Y528038D01*
X103252Y529324D01*
X102267Y530309D01*
X100981Y530842D01*
D02*
G37*
G36*
X68696Y517500D02*
X67304D01*
X66017Y516967D01*
X65033Y515983D01*
X64500Y514696D01*
Y513304D01*
X65033Y512017D01*
X66017Y511033D01*
X67304Y510500D01*
X68696D01*
X69983Y511033D01*
X70967Y512017D01*
X71500Y513304D01*
Y514696D01*
X70967Y515983D01*
X69983Y516967D01*
X68696Y517500D01*
D02*
G37*
G36*
X730696Y516500D02*
X729304D01*
X728017Y515967D01*
X727033Y514983D01*
X726500Y513696D01*
Y512304D01*
X727033Y511017D01*
X728017Y510033D01*
X729304Y509500D01*
X730696D01*
X731983Y510033D01*
X732967Y511017D01*
X733500Y512304D01*
Y513696D01*
X732967Y514983D01*
X731983Y515967D01*
X730696Y516500D01*
D02*
G37*
G36*
X746696Y512528D02*
X745304D01*
X744017Y511996D01*
X743033Y511011D01*
X742500Y509725D01*
Y508332D01*
X743033Y507046D01*
X744017Y506061D01*
X745304Y505528D01*
X746696D01*
X747983Y506061D01*
X748967Y507046D01*
X749500Y508332D01*
Y509725D01*
X748967Y511011D01*
X747983Y511996D01*
X746696Y512528D01*
D02*
G37*
G36*
X666396Y511700D02*
X665004D01*
X663717Y511167D01*
X662733Y510183D01*
X662200Y508896D01*
Y507504D01*
X662733Y506217D01*
X663717Y505233D01*
X665004Y504700D01*
X666396D01*
X667683Y505233D01*
X668667Y506217D01*
X669200Y507504D01*
Y508896D01*
X668667Y510183D01*
X667683Y511167D01*
X666396Y511700D01*
D02*
G37*
G36*
X583680Y511016D02*
X582288D01*
X581001Y510483D01*
X580017Y509499D01*
X579484Y508212D01*
Y506820D01*
X580017Y505533D01*
X581001Y504549D01*
X582288Y504016D01*
X583680D01*
X584967Y504549D01*
X585951Y505533D01*
X586484Y506820D01*
Y508212D01*
X585951Y509499D01*
X584967Y510483D01*
X583680Y511016D01*
D02*
G37*
G36*
X573680D02*
X572288D01*
X571001Y510483D01*
X570017Y509499D01*
X569484Y508212D01*
Y506820D01*
X570017Y505533D01*
X571001Y504549D01*
X572288Y504016D01*
X573680D01*
X574967Y504549D01*
X575951Y505533D01*
X576484Y506820D01*
Y508212D01*
X575951Y509499D01*
X574967Y510483D01*
X573680Y511016D01*
D02*
G37*
G36*
X614593Y510055D02*
X613201D01*
X611915Y509522D01*
X610930Y508537D01*
X610397Y507251D01*
Y505858D01*
X610930Y504572D01*
X611915Y503587D01*
X613201Y503055D01*
X614593D01*
X615880Y503587D01*
X616864Y504572D01*
X617397Y505858D01*
Y507251D01*
X616864Y508537D01*
X615880Y509522D01*
X614593Y510055D01*
D02*
G37*
G36*
X728696Y506500D02*
X727304D01*
X726017Y505967D01*
X725033Y504983D01*
X724500Y503696D01*
Y502304D01*
X725033Y501017D01*
X726017Y500033D01*
X727304Y499500D01*
X728696D01*
X729983Y500033D01*
X730967Y501017D01*
X731500Y502304D01*
Y503696D01*
X730967Y504983D01*
X729983Y505967D01*
X728696Y506500D01*
D02*
G37*
G36*
X564396Y500700D02*
X563004D01*
X561717Y500167D01*
X561127Y499577D01*
X560200Y499327D01*
X559273Y499577D01*
X558683Y500167D01*
X557396Y500700D01*
X556004D01*
X554717Y500167D01*
X553733Y499183D01*
X553200Y497896D01*
Y496504D01*
X553733Y495217D01*
X554717Y494233D01*
X556004Y493700D01*
X557396D01*
X558683Y494233D01*
X559273Y494823D01*
X560200Y495073D01*
X561127Y494823D01*
X561717Y494233D01*
X563004Y493700D01*
X564396D01*
X565683Y494233D01*
X566667Y495217D01*
X567200Y496504D01*
Y497896D01*
X566667Y499183D01*
X565683Y500167D01*
X564396Y500700D01*
D02*
G37*
G36*
X54696Y505500D02*
X53304D01*
X52017Y504967D01*
X51033Y503983D01*
X50500Y502696D01*
Y501304D01*
X51033Y500017D01*
X52017Y499033D01*
X53304Y498500D01*
X54696D01*
X55983Y499033D01*
X56967Y500017D01*
X57500Y501304D01*
Y502696D01*
X56967Y503983D01*
X55983Y504967D01*
X54696Y505500D01*
D02*
G37*
G36*
X719696Y505500D02*
X718304D01*
X717017Y504967D01*
X716033Y503983D01*
X715500Y502696D01*
Y501304D01*
X716033Y500017D01*
X717017Y499033D01*
X718304Y498500D01*
X719696D01*
X720983Y499033D01*
X721967Y500017D01*
X722500Y501304D01*
Y502696D01*
X721967Y503983D01*
X720983Y504967D01*
X719696Y505500D01*
D02*
G37*
G36*
X87696Y503500D02*
X86304D01*
X85017Y502967D01*
X84033Y501983D01*
X83500Y500696D01*
Y499304D01*
X84033Y498017D01*
X85017Y497033D01*
X86304Y496500D01*
X87696D01*
X88983Y497033D01*
X89967Y498017D01*
X90500Y499304D01*
Y500696D01*
X89967Y501983D01*
X88983Y502967D01*
X87696Y503500D01*
D02*
G37*
G36*
X594642Y501897D02*
X593249D01*
X591963Y501364D01*
X590978Y500380D01*
X590446Y499093D01*
Y497701D01*
X590978Y496415D01*
X591963Y495430D01*
X593249Y494897D01*
X594642D01*
X595928Y495430D01*
X596913Y496415D01*
X597445Y497701D01*
Y499093D01*
X596913Y500380D01*
X595928Y501364D01*
X594642Y501897D01*
D02*
G37*
G36*
X622751Y500103D02*
X621358D01*
X620072Y499570D01*
X619087Y498585D01*
X618554Y497299D01*
Y495907D01*
X619087Y494620D01*
X620072Y493636D01*
X621358Y493103D01*
X622751D01*
X624037Y493636D01*
X625022Y494620D01*
X625555Y495907D01*
Y497299D01*
X625022Y498585D01*
X624037Y499570D01*
X622751Y500103D01*
D02*
G37*
G36*
X604642Y501897D02*
X603249D01*
X601963Y501364D01*
X600978Y500380D01*
X600446Y499093D01*
Y497701D01*
X600978Y496415D01*
X601963Y495430D01*
X603249Y494897D01*
X604642D01*
X605928Y495430D01*
X606913Y496415D01*
X607054Y496757D01*
X608554Y496459D01*
Y495907D01*
X609087Y494620D01*
X610072Y493636D01*
X611358Y493103D01*
X612751D01*
X614037Y493636D01*
X615022Y494620D01*
X615555Y495907D01*
Y497299D01*
X615022Y498585D01*
X614037Y499570D01*
X612751Y500103D01*
X611358D01*
X610072Y499570D01*
X609087Y498585D01*
X608946Y498243D01*
X607445Y498541D01*
Y499093D01*
X606913Y500380D01*
X605928Y501364D01*
X604642Y501897D01*
D02*
G37*
G36*
X706396Y505700D02*
X705004D01*
X703717Y505167D01*
X702733Y504183D01*
X702200Y502896D01*
Y501504D01*
X702733Y500217D01*
X703323Y499627D01*
X703573Y498700D01*
X703323Y497773D01*
X702733Y497183D01*
X702200Y495896D01*
Y494504D01*
X702733Y493217D01*
X703717Y492233D01*
X705004Y491700D01*
X706396D01*
X707683Y492233D01*
X708667Y493217D01*
X709200Y494504D01*
Y495896D01*
X708667Y497183D01*
X708077Y497773D01*
X707827Y498700D01*
X708077Y499627D01*
X708667Y500217D01*
X709200Y501504D01*
Y502896D01*
X708667Y504183D01*
X707683Y505167D01*
X706396Y505700D01*
D02*
G37*
G36*
X697146Y496450D02*
X695754D01*
X694467Y495917D01*
X693483Y494933D01*
X692950Y493646D01*
Y492254D01*
X693483Y490967D01*
X694467Y489983D01*
X695754Y489450D01*
X697146D01*
X698433Y489983D01*
X699417Y490967D01*
X699950Y492254D01*
Y493646D01*
X699417Y494933D01*
X698433Y495917D01*
X697146Y496450D01*
D02*
G37*
G36*
X602799Y491945D02*
X601407D01*
X600120Y491413D01*
X599136Y490428D01*
X598603Y489142D01*
Y487749D01*
X599136Y486463D01*
X600120Y485478D01*
X601407Y484945D01*
X602799D01*
X604085Y485478D01*
X605070Y486463D01*
X605603Y487749D01*
Y489142D01*
X605070Y490428D01*
X604085Y491413D01*
X602799Y491945D01*
D02*
G37*
G36*
X713696Y488750D02*
X712304D01*
X711017Y488217D01*
X710033Y487233D01*
X709500Y485946D01*
Y484554D01*
X710033Y483267D01*
X711017Y482283D01*
X712304Y481750D01*
X713696D01*
X714983Y482283D01*
X715967Y483267D01*
X716500Y484554D01*
Y485946D01*
X715967Y487233D01*
X714983Y488217D01*
X713696Y488750D01*
D02*
G37*
G36*
X627396Y487700D02*
X626004D01*
X624717Y487167D01*
X623733Y486183D01*
X623200Y484896D01*
Y483504D01*
X623733Y482217D01*
X624717Y481233D01*
X626004Y480700D01*
X627396D01*
X628683Y481233D01*
X629667Y482217D01*
X630200Y483504D01*
Y484896D01*
X629667Y486183D01*
X628683Y487167D01*
X627396Y487700D01*
D02*
G37*
G36*
X637396Y485700D02*
X636004D01*
X634717Y485167D01*
X633733Y484183D01*
X633200Y482896D01*
Y481504D01*
X633733Y480217D01*
X634717Y479233D01*
X636004Y478700D01*
X637396D01*
X638683Y479233D01*
X639667Y480217D01*
X640200Y481504D01*
Y482896D01*
X639667Y484183D01*
X638683Y485167D01*
X637396Y485700D01*
D02*
G37*
G36*
X695396Y482700D02*
X694004D01*
X692717Y482167D01*
X691733Y481183D01*
X691200Y479896D01*
Y478504D01*
X691733Y477217D01*
X692717Y476233D01*
X694004Y475700D01*
X695396D01*
X696683Y476233D01*
X697667Y477217D01*
X698200Y478504D01*
Y479896D01*
X697667Y481183D01*
X696683Y482167D01*
X695396Y482700D01*
D02*
G37*
G36*
X686396Y480700D02*
X685004D01*
X683717Y480167D01*
X682733Y479183D01*
X682200Y477896D01*
Y476504D01*
X682733Y475217D01*
X683717Y474233D01*
X685004Y473700D01*
X686396D01*
X687683Y474233D01*
X688667Y475217D01*
X689200Y476504D01*
Y477896D01*
X688667Y479183D01*
X687683Y480167D01*
X686396Y480700D01*
D02*
G37*
G36*
X617396Y485700D02*
X616004D01*
X614717Y485167D01*
X613733Y484183D01*
X613200Y482896D01*
Y481504D01*
X613161Y480142D01*
X611875Y479610D01*
X610891Y478625D01*
X610358Y477339D01*
Y475946D01*
X610891Y474660D01*
X611875Y473675D01*
X613161Y473142D01*
X614554D01*
X615840Y473675D01*
X616825Y474660D01*
X617358Y475946D01*
Y477339D01*
X617396Y478700D01*
X618683Y479233D01*
X619667Y480217D01*
X620200Y481504D01*
Y482896D01*
X619667Y484183D01*
X618683Y485167D01*
X617396Y485700D01*
D02*
G37*
G36*
X678396Y475200D02*
X677004D01*
X675717Y474667D01*
X674733Y473683D01*
X674200Y472396D01*
Y471004D01*
X674733Y469717D01*
X675717Y468733D01*
X677004Y468200D01*
X678396D01*
X679683Y468733D01*
X680667Y469717D01*
X681200Y471004D01*
Y472396D01*
X680667Y473683D01*
X679683Y474667D01*
X678396Y475200D01*
D02*
G37*
G36*
X722696Y477500D02*
X721304D01*
X720017Y476967D01*
X719033Y475983D01*
X718500Y474696D01*
Y473304D01*
X719033Y472017D01*
X720017Y471033D01*
X721304Y470500D01*
X722389D01*
Y469415D01*
X722922Y468128D01*
X723906Y467144D01*
X725193Y466611D01*
X726585D01*
X727872Y467144D01*
X728856Y468128D01*
X729389Y469415D01*
Y470807D01*
X728856Y472094D01*
X727872Y473078D01*
X726585Y473611D01*
X725500D01*
Y474696D01*
X724967Y475983D01*
X723983Y476967D01*
X722696Y477500D01*
D02*
G37*
G36*
X603396Y470700D02*
X602004D01*
X600717Y470167D01*
X599733Y469183D01*
X599200Y467896D01*
Y466504D01*
X599733Y465217D01*
X600717Y464233D01*
X602004Y463700D01*
X603396D01*
X604683Y464233D01*
X605667Y465217D01*
X606200Y466504D01*
Y467896D01*
X605667Y469183D01*
X604683Y470167D01*
X603396Y470700D01*
D02*
G37*
G36*
X664652Y470672D02*
X663259D01*
X661973Y470139D01*
X660988Y469155D01*
X660455Y467868D01*
Y466476D01*
X660988Y465189D01*
X661973Y464205D01*
X663259Y463672D01*
X664652D01*
X665938Y464205D01*
X666923Y465189D01*
X667455Y466476D01*
Y467868D01*
X666923Y469155D01*
X665938Y470139D01*
X664652Y470672D01*
D02*
G37*
G36*
X529696Y458125D02*
X528304D01*
X527017Y457592D01*
X526980Y457555D01*
X526000Y456638D01*
X525020Y457555D01*
X524983Y457592D01*
X523696Y458125D01*
X522304D01*
X521017Y457592D01*
X520033Y456608D01*
X519500Y455321D01*
Y453929D01*
X520033Y452642D01*
X521017Y451658D01*
X522304Y451125D01*
X523696D01*
X524983Y451658D01*
X525020Y451695D01*
X526000Y452612D01*
X526980Y451695D01*
X527017Y451658D01*
X528304Y451125D01*
X529696D01*
X530983Y451658D01*
X531967Y452642D01*
X532500Y453929D01*
Y455321D01*
X531967Y456608D01*
X530983Y457592D01*
X529696Y458125D01*
D02*
G37*
G36*
X730696Y465500D02*
X729304D01*
X728017Y464967D01*
X727033Y463983D01*
X726500Y462696D01*
Y461304D01*
X727033Y460017D01*
X728017Y459033D01*
X729304Y458500D01*
X730389D01*
Y457415D01*
X730922Y456128D01*
X731907Y455144D01*
X733193Y454611D01*
X734585D01*
X735872Y455144D01*
X736856Y456128D01*
X737389Y457415D01*
Y458807D01*
X736856Y460093D01*
X735872Y461078D01*
X734585Y461611D01*
X733500D01*
Y462696D01*
X732967Y463983D01*
X731983Y464967D01*
X730696Y465500D01*
D02*
G37*
G36*
X603396Y460700D02*
X602004D01*
X600717Y460167D01*
X599733Y459183D01*
X599200Y457896D01*
Y456504D01*
X599733Y455217D01*
X600717Y454233D01*
X602004Y453700D01*
X603396D01*
X604683Y454233D01*
X605667Y455217D01*
X606200Y456504D01*
Y457896D01*
X605667Y459183D01*
X604683Y460167D01*
X603396Y460700D01*
D02*
G37*
G36*
X664202Y460257D02*
X662810D01*
X661524Y459725D01*
X660539Y458740D01*
X660006Y457454D01*
Y456061D01*
X660539Y454775D01*
X661524Y453790D01*
X662810Y453257D01*
X664202D01*
X665489Y453790D01*
X666473Y454775D01*
X667006Y456061D01*
Y457454D01*
X666473Y458740D01*
X665489Y459725D01*
X664202Y460257D01*
D02*
G37*
G36*
X788500Y469540D02*
X787583D01*
X782842Y468597D01*
X778376Y466747D01*
X774357Y464062D01*
X770938Y460643D01*
X768253Y456624D01*
X766403Y452158D01*
X765460Y447417D01*
Y446500D01*
X788500D01*
Y469540D01*
D02*
G37*
G36*
X32417D02*
X31500D01*
Y446500D01*
X54540D01*
Y447417D01*
X53597Y452158D01*
X51747Y456624D01*
X49061Y460643D01*
X45643Y464062D01*
X41624Y466747D01*
X37158Y468597D01*
X32417Y469540D01*
D02*
G37*
G36*
X139774Y451500D02*
X138381D01*
X137095Y450967D01*
X136110Y449983D01*
X135577Y448696D01*
Y447304D01*
X136110Y446017D01*
X137095Y445033D01*
X138381Y444500D01*
X139774D01*
X141060Y445033D01*
X142045Y446017D01*
X142577Y447304D01*
Y448696D01*
X142045Y449983D01*
X141060Y450967D01*
X139774Y451500D01*
D02*
G37*
G36*
X561696Y457500D02*
X560304D01*
X559017Y456967D01*
X558033Y455983D01*
X557500Y454696D01*
Y453500D01*
X557304D01*
X556017Y452967D01*
X555033Y451983D01*
X554500Y450696D01*
Y449304D01*
X555033Y448017D01*
X556017Y447033D01*
X555501Y445623D01*
X555200Y444896D01*
Y443504D01*
X555733Y442217D01*
X556717Y441233D01*
X558004Y440700D01*
X559396D01*
X560683Y441233D01*
X561667Y442217D01*
X562200Y443504D01*
Y444896D01*
X561667Y446183D01*
X560683Y447167D01*
X561199Y448577D01*
X561500Y449304D01*
Y450500D01*
X561696D01*
X562983Y451033D01*
X563967Y452017D01*
X564500Y453304D01*
Y454696D01*
X563967Y455983D01*
X562983Y456967D01*
X561696Y457500D01*
D02*
G37*
G36*
X623396Y446700D02*
X622004D01*
X620718Y446167D01*
X619733Y445183D01*
X619200Y443896D01*
Y442504D01*
X619733Y441217D01*
X620718Y440233D01*
X622004Y439700D01*
X623396D01*
X624683Y440233D01*
X625667Y441217D01*
X626200Y442504D01*
Y443896D01*
X625667Y445183D01*
X624683Y446167D01*
X623396Y446700D01*
D02*
G37*
G36*
X728585Y450389D02*
X727193D01*
X725907Y449856D01*
X724922Y448872D01*
X724389Y447585D01*
Y446500D01*
X723304D01*
X722017Y445967D01*
X721033Y444983D01*
X720500Y443696D01*
Y442304D01*
X721033Y441017D01*
X722017Y440033D01*
X723304Y439500D01*
X724696D01*
X725983Y440033D01*
X726967Y441017D01*
X727500Y442304D01*
Y443389D01*
X728585D01*
X729872Y443922D01*
X730856Y444907D01*
X731389Y446193D01*
Y447585D01*
X730856Y448872D01*
X729872Y449856D01*
X728585Y450389D01*
D02*
G37*
G36*
X634396Y445700D02*
X633004D01*
X631717Y445167D01*
X630733Y444183D01*
X630200Y442896D01*
Y441504D01*
X630733Y440217D01*
X631717Y439233D01*
X633004Y438700D01*
X634396D01*
X635683Y439233D01*
X636667Y440217D01*
X637200Y441504D01*
Y442896D01*
X636667Y444183D01*
X635683Y445167D01*
X634396Y445700D01*
D02*
G37*
G36*
X126886Y444447D02*
X125494D01*
X124207Y443914D01*
X123223Y442930D01*
X122690Y441643D01*
Y440251D01*
X123223Y438965D01*
X124207Y437980D01*
X125494Y437447D01*
X126886D01*
X128172Y437980D01*
X129157Y438965D01*
X129690Y440251D01*
Y441643D01*
X129157Y442930D01*
X128172Y443914D01*
X126886Y444447D01*
D02*
G37*
G36*
X680396Y442700D02*
X679004D01*
X677717Y442167D01*
X676733Y441183D01*
X676200Y439896D01*
Y438504D01*
X676733Y437217D01*
X677717Y436233D01*
X679004Y435700D01*
X680396D01*
X681683Y436233D01*
X682667Y437217D01*
X683200Y438504D01*
Y439896D01*
X682667Y441183D01*
X681683Y442167D01*
X680396Y442700D01*
D02*
G37*
G36*
X745696Y441500D02*
X744304D01*
X743017Y440967D01*
X742033Y439983D01*
X741500Y438696D01*
Y437304D01*
X742033Y436017D01*
X743017Y435033D01*
X744304Y434500D01*
X745696D01*
X746983Y435033D01*
X747967Y436017D01*
X748500Y437304D01*
Y438696D01*
X747967Y439983D01*
X746983Y440967D01*
X745696Y441500D01*
D02*
G37*
G36*
X643712Y441016D02*
X642320D01*
X641033Y440483D01*
X640049Y439499D01*
X639516Y438212D01*
Y436820D01*
X640049Y435533D01*
X641033Y434549D01*
X642320Y434016D01*
X643712D01*
X644999Y434549D01*
X645983Y435533D01*
X646516Y436820D01*
Y438212D01*
X645983Y439499D01*
X644999Y440483D01*
X643712Y441016D01*
D02*
G37*
G36*
X690396Y440450D02*
X689004D01*
X687717Y439917D01*
X686733Y438933D01*
X686200Y437646D01*
Y436254D01*
X686733Y434967D01*
X687717Y433983D01*
X689004Y433450D01*
X690396D01*
X691683Y433983D01*
X692667Y434967D01*
X693200Y436254D01*
Y437646D01*
X692667Y438933D01*
X691683Y439917D01*
X690396Y440450D01*
D02*
G37*
G36*
X602751Y440119D02*
X601358D01*
X600072Y439586D01*
X599087Y438601D01*
X598554Y437315D01*
Y435923D01*
X599087Y434636D01*
X600072Y433652D01*
X601358Y433119D01*
X602751D01*
X604037Y433652D01*
X605022Y434636D01*
X605555Y435923D01*
Y437315D01*
X605022Y438601D01*
X604037Y439586D01*
X602751Y440119D01*
D02*
G37*
G36*
X113757Y440065D02*
X112364D01*
X111078Y439532D01*
X110093Y438547D01*
X109560Y437261D01*
Y435869D01*
X110093Y434582D01*
X111078Y433598D01*
X112364Y433065D01*
X113757D01*
X115043Y433598D01*
X116028Y434582D01*
X116560Y435869D01*
Y437261D01*
X116028Y438547D01*
X115043Y439532D01*
X113757Y440065D01*
D02*
G37*
G36*
X524696Y436500D02*
X523304D01*
X522017Y435967D01*
X521033Y434983D01*
X520500Y433696D01*
Y432304D01*
X521033Y431017D01*
X522017Y430033D01*
X523304Y429500D01*
X524696D01*
X525983Y430033D01*
X526967Y431017D01*
X527500Y432304D01*
Y433696D01*
X526967Y434983D01*
X525983Y435967D01*
X524696Y436500D01*
D02*
G37*
G36*
X100742Y435164D02*
X99349D01*
X98063Y434631D01*
X97078Y433646D01*
X96545Y432360D01*
Y430968D01*
X97078Y429681D01*
X98063Y428697D01*
X99349Y428164D01*
X100742D01*
X102028Y428697D01*
X103012Y429681D01*
X103545Y430968D01*
Y432360D01*
X103012Y433646D01*
X102028Y434631D01*
X100742Y435164D01*
D02*
G37*
G36*
X705146Y432700D02*
X703754D01*
X702467Y432167D01*
X701483Y431183D01*
X700950Y429896D01*
Y428504D01*
X701483Y427217D01*
X702467Y426233D01*
X703754Y425700D01*
X705146D01*
X706433Y426233D01*
X707417Y427217D01*
X707950Y428504D01*
Y429896D01*
X707417Y431183D01*
X706433Y432167D01*
X705146Y432700D01*
D02*
G37*
G36*
X573680Y431016D02*
X572288D01*
X571001Y430483D01*
X570017Y429499D01*
X569484Y428212D01*
Y426820D01*
X570017Y425533D01*
X571001Y424549D01*
X572288Y424016D01*
X573680D01*
X574967Y424549D01*
X575951Y425533D01*
X576484Y426820D01*
Y428212D01*
X575951Y429499D01*
X574967Y430483D01*
X573680Y431016D01*
D02*
G37*
G36*
X603680Y430984D02*
X602288D01*
X601001Y430451D01*
X600017Y429467D01*
X599484Y428180D01*
Y426788D01*
X600017Y425501D01*
X601001Y424517D01*
X602288Y423984D01*
X603680D01*
X604967Y424517D01*
X605951Y425501D01*
X606484Y426788D01*
Y428180D01*
X605951Y429467D01*
X604967Y430451D01*
X603680Y430984D01*
D02*
G37*
G36*
X676396Y429700D02*
X675004D01*
X673717Y429167D01*
X672733Y428183D01*
X672200Y426896D01*
Y425504D01*
X672733Y424217D01*
X673717Y423233D01*
X675004Y422700D01*
X676396D01*
X677683Y423233D01*
X678667Y424217D01*
X679200Y425504D01*
Y426896D01*
X678667Y428183D01*
X677683Y429167D01*
X676396Y429700D01*
D02*
G37*
G36*
X560396D02*
X559004D01*
X557717Y429167D01*
X556733Y428183D01*
X556200Y426896D01*
Y425504D01*
X556733Y424217D01*
X557717Y423233D01*
X559004Y422700D01*
X560396D01*
X561683Y423233D01*
X562667Y424217D01*
X563200Y425504D01*
Y426896D01*
X562667Y428183D01*
X561683Y429167D01*
X560396Y429700D01*
D02*
G37*
G36*
X694396Y428700D02*
X693004D01*
X691717Y428167D01*
X690733Y427183D01*
X690200Y425896D01*
Y424504D01*
X690733Y423217D01*
X691717Y422233D01*
X693004Y421700D01*
X694396D01*
X695683Y422233D01*
X696667Y423217D01*
X697200Y424504D01*
Y425896D01*
X696667Y427183D01*
X695683Y428167D01*
X694396Y428700D01*
D02*
G37*
G36*
X685396D02*
X684004D01*
X682717Y428167D01*
X681733Y427183D01*
X681200Y425896D01*
Y424504D01*
X681733Y423217D01*
X682717Y422233D01*
X684004Y421700D01*
X685396D01*
X686683Y422233D01*
X687667Y423217D01*
X688200Y424504D01*
Y425896D01*
X687667Y427183D01*
X686683Y428167D01*
X685396Y428700D01*
D02*
G37*
G36*
X788500Y443500D02*
X765460D01*
Y442583D01*
X766403Y437842D01*
X768253Y433376D01*
X770938Y429357D01*
X774357Y425938D01*
X778376Y423253D01*
X782842Y421403D01*
X787583Y420460D01*
X788500D01*
Y443500D01*
D02*
G37*
G36*
X54540D02*
X31500D01*
Y420460D01*
X32417D01*
X37158Y421403D01*
X41624Y423253D01*
X45643Y425938D01*
X49061Y429357D01*
X51747Y433376D01*
X53597Y437842D01*
X54540Y442583D01*
Y443500D01*
D02*
G37*
G36*
X623396Y420700D02*
X622004D01*
X620717Y420167D01*
X619733Y419183D01*
X619200Y417896D01*
Y416504D01*
X619733Y415217D01*
X620717Y414233D01*
X622004Y413700D01*
X623396D01*
X624683Y414233D01*
X625667Y415217D01*
X626200Y416504D01*
Y417896D01*
X625667Y419183D01*
X624683Y420167D01*
X623396Y420700D01*
D02*
G37*
G36*
X648831Y420327D02*
X647438D01*
X646152Y419794D01*
X645167Y418810D01*
X644634Y417523D01*
Y416131D01*
X645167Y414845D01*
X646152Y413860D01*
X647438Y413327D01*
X648831D01*
X650117Y413860D01*
X651102Y414845D01*
X651634Y416131D01*
Y417523D01*
X651102Y418810D01*
X650117Y419794D01*
X648831Y420327D01*
D02*
G37*
G36*
X525696Y414500D02*
X524304D01*
X523017Y413967D01*
X522033Y412983D01*
X521500Y411696D01*
X521011Y411370D01*
X520696Y411500D01*
X519304D01*
X518017Y410967D01*
X517033Y409983D01*
X516500Y408696D01*
Y407304D01*
X517033Y406017D01*
X518017Y405033D01*
X519304Y404500D01*
X520696D01*
X521983Y405033D01*
X522967Y406017D01*
X523500Y407304D01*
X523989Y407631D01*
X524304Y407500D01*
X525696D01*
X526983Y408033D01*
X527967Y409017D01*
X528500Y410304D01*
Y411696D01*
X527967Y412983D01*
X526983Y413967D01*
X525696Y414500D01*
D02*
G37*
G36*
X94696Y412500D02*
X93304D01*
X92017Y411967D01*
X91033Y410983D01*
X90500Y409696D01*
Y408304D01*
X91033Y407017D01*
X92017Y406033D01*
X93304Y405500D01*
X94696D01*
X95983Y406033D01*
X96967Y407017D01*
X97500Y408304D01*
Y409696D01*
X96967Y410983D01*
X95983Y411967D01*
X94696Y412500D01*
D02*
G37*
G36*
X622396Y411700D02*
X621004D01*
X619717Y411167D01*
X618733Y410183D01*
X618200Y408896D01*
Y407504D01*
X618733Y406217D01*
X619717Y405233D01*
X621004Y404700D01*
X622396D01*
X623683Y405233D01*
X624667Y406217D01*
X625200Y407504D01*
Y408896D01*
X624667Y410183D01*
X623683Y411167D01*
X622396Y411700D01*
D02*
G37*
G36*
X605696Y410500D02*
X604304D01*
X603017Y409967D01*
X602033Y408983D01*
X601500Y407696D01*
Y406304D01*
X602033Y405017D01*
X603017Y404033D01*
X604304Y403500D01*
X605696D01*
X606983Y404033D01*
X607967Y405017D01*
X608500Y406304D01*
Y407696D01*
X607967Y408983D01*
X606983Y409967D01*
X605696Y410500D01*
D02*
G37*
G36*
X733396Y407700D02*
X732004D01*
X730717Y407167D01*
X729733Y406183D01*
X729200Y404896D01*
Y403504D01*
X729733Y402217D01*
X730717Y401233D01*
X732004Y400700D01*
X733396D01*
X734683Y401233D01*
X735667Y402217D01*
X736200Y403504D01*
Y404896D01*
X735667Y406183D01*
X734683Y407167D01*
X733396Y407700D01*
D02*
G37*
G36*
X721396D02*
X720004D01*
X718717Y407167D01*
X717733Y406183D01*
X717200Y404896D01*
Y403504D01*
X717733Y402217D01*
X718717Y401233D01*
X720004Y400700D01*
X721396D01*
X722683Y401233D01*
X723667Y402217D01*
X724200Y403504D01*
Y404896D01*
X723667Y406183D01*
X722683Y407167D01*
X721396Y407700D01*
D02*
G37*
G36*
X758696Y412500D02*
X757304D01*
X756017Y411967D01*
X755033Y410983D01*
X754500Y409696D01*
Y408304D01*
X755033Y407017D01*
X755070Y406980D01*
X755987Y406000D01*
X755070Y405020D01*
X755033Y404983D01*
X754500Y403696D01*
Y402304D01*
X755033Y401017D01*
X756017Y400033D01*
X757304Y399500D01*
X758696D01*
X759983Y400033D01*
X760967Y401017D01*
X761500Y402304D01*
Y403696D01*
X760967Y404983D01*
X760930Y405020D01*
X760013Y406000D01*
X760930Y406980D01*
X760967Y407017D01*
X761500Y408304D01*
Y409696D01*
X760967Y410983D01*
X759983Y411967D01*
X758696Y412500D01*
D02*
G37*
G36*
X573680Y401016D02*
X572288D01*
X571001Y400483D01*
X570017Y399499D01*
X569484Y398212D01*
Y396820D01*
X570017Y395533D01*
X571001Y394549D01*
X572288Y394016D01*
X573680D01*
X574967Y394549D01*
X575951Y395533D01*
X576484Y396820D01*
Y398212D01*
X575951Y399499D01*
X574967Y400483D01*
X573680Y401016D01*
D02*
G37*
G36*
X69696Y391500D02*
X68304D01*
X67017Y390967D01*
X66033Y389983D01*
X65500Y388696D01*
Y387304D01*
X66033Y386017D01*
X67017Y385033D01*
X68304Y384500D01*
X69696D01*
X70983Y385033D01*
X71967Y386017D01*
X72500Y387304D01*
Y388696D01*
X71967Y389983D01*
X70983Y390967D01*
X69696Y391500D01*
D02*
G37*
G36*
X653712Y391016D02*
X652320D01*
X651033Y390483D01*
X650049Y389499D01*
X649516Y388212D01*
Y386820D01*
X650049Y385533D01*
X651033Y384549D01*
X652320Y384016D01*
X653712D01*
X654999Y384549D01*
X655983Y385533D01*
X656516Y386820D01*
Y388212D01*
X655983Y389499D01*
X654999Y390483D01*
X653712Y391016D01*
D02*
G37*
G36*
X573680D02*
X572288D01*
X571001Y390483D01*
X570017Y389499D01*
X569484Y388212D01*
Y386820D01*
X570017Y385533D01*
X571001Y384549D01*
X572288Y384016D01*
X573680D01*
X574967Y384549D01*
X575951Y385533D01*
X576484Y386820D01*
Y388212D01*
X575951Y389499D01*
X574967Y390483D01*
X573680Y391016D01*
D02*
G37*
G36*
X563680D02*
X562288D01*
X561001Y390483D01*
X560017Y389499D01*
X559484Y388212D01*
Y386820D01*
X560017Y385533D01*
X561001Y384549D01*
X562288Y384016D01*
X563680D01*
X564967Y384549D01*
X565951Y385533D01*
X566484Y386820D01*
Y388212D01*
X565951Y389499D01*
X564967Y390483D01*
X563680Y391016D01*
D02*
G37*
G36*
X623712Y390984D02*
X622320D01*
X621034Y390451D01*
X620049Y389467D01*
X619516Y388180D01*
Y386788D01*
X620049Y385501D01*
X621034Y384517D01*
X622320Y383984D01*
X623712D01*
X624999Y384517D01*
X625983Y385501D01*
X626516Y386788D01*
Y388180D01*
X625983Y389467D01*
X624999Y390451D01*
X623712Y390984D01*
D02*
G37*
G36*
X613712D02*
X612320D01*
X611034Y390451D01*
X610049Y389467D01*
X609516Y388180D01*
Y386788D01*
X610049Y385501D01*
X611034Y384517D01*
X612320Y383984D01*
X613712D01*
X614999Y384517D01*
X615983Y385501D01*
X616516Y386788D01*
Y388180D01*
X615983Y389467D01*
X614999Y390451D01*
X613712Y390984D01*
D02*
G37*
G36*
X603712D02*
X602320D01*
X601034Y390451D01*
X600049Y389467D01*
X599516Y388180D01*
Y386788D01*
X600049Y385501D01*
X601034Y384517D01*
X602320Y383984D01*
X603712D01*
X604999Y384517D01*
X605983Y385501D01*
X606516Y386788D01*
Y388180D01*
X605983Y389467D01*
X604999Y390451D01*
X603712Y390984D01*
D02*
G37*
G36*
X583680D02*
X582288D01*
X581001Y390451D01*
X580017Y389467D01*
X579484Y388180D01*
Y386788D01*
X580017Y385501D01*
X581001Y384517D01*
X582288Y383984D01*
X583680D01*
X584967Y384517D01*
X585951Y385501D01*
X586484Y386788D01*
Y388180D01*
X585951Y389467D01*
X584967Y390451D01*
X583680Y390984D01*
D02*
G37*
G36*
X687021Y382950D02*
X685629D01*
X684342Y382417D01*
X683358Y381433D01*
X682825Y380146D01*
Y378754D01*
X683358Y377467D01*
X684342Y376483D01*
X685629Y375950D01*
X687021D01*
X688308Y376483D01*
X689292Y377467D01*
X689825Y378754D01*
Y380146D01*
X689292Y381433D01*
X688308Y382417D01*
X687021Y382950D01*
D02*
G37*
G36*
X31697Y376069D02*
X30305D01*
X29019Y375536D01*
X28981Y375498D01*
X28001Y374582D01*
X27021Y375498D01*
X26984Y375536D01*
X25697Y376069D01*
X24305D01*
X23019Y375536D01*
X22034Y374551D01*
X21501Y373265D01*
Y371872D01*
X22034Y370586D01*
X22071Y370549D01*
X22988Y369569D01*
X22071Y368589D01*
X22034Y368551D01*
X21501Y367265D01*
Y365872D01*
X22034Y364586D01*
X23019Y363601D01*
X24305Y363069D01*
X25697D01*
X26984Y363601D01*
X27021Y363639D01*
X28001Y364555D01*
X28981Y363639D01*
X29019Y363601D01*
X30305Y363069D01*
X31697D01*
X32984Y363601D01*
X33968Y364586D01*
X34501Y365872D01*
Y367265D01*
X33968Y368551D01*
X33931Y368589D01*
X33015Y369569D01*
X33931Y370549D01*
X33968Y370586D01*
X34501Y371872D01*
Y373265D01*
X33968Y374551D01*
X32984Y375536D01*
X31697Y376069D01*
D02*
G37*
G36*
X653680Y380984D02*
X652288D01*
X651001Y380451D01*
X650017Y379467D01*
X649484Y378180D01*
Y376788D01*
X650017Y375501D01*
X651001Y374517D01*
X652288Y373984D01*
X653680D01*
X654967Y374517D01*
X655951Y375501D01*
X656484Y376788D01*
Y378180D01*
X655951Y379467D01*
X654967Y380451D01*
X653680Y380984D01*
D02*
G37*
G36*
X623712D02*
X622320D01*
X621034Y380451D01*
X620049Y379467D01*
X619516Y378180D01*
Y376788D01*
X620049Y375501D01*
X621034Y374517D01*
X622320Y373984D01*
X623712D01*
X624999Y374517D01*
X625983Y375501D01*
X626516Y376788D01*
Y378180D01*
X625983Y379467D01*
X624999Y380451D01*
X623712Y380984D01*
D02*
G37*
G36*
X613712D02*
X612320D01*
X611034Y380451D01*
X610049Y379467D01*
X609516Y378180D01*
Y376788D01*
X610049Y375501D01*
X611034Y374517D01*
X612320Y373984D01*
X613712D01*
X614999Y374517D01*
X615983Y375501D01*
X616516Y376788D01*
Y378180D01*
X615983Y379467D01*
X614999Y380451D01*
X613712Y380984D01*
D02*
G37*
G36*
X603712D02*
X602320D01*
X601034Y380451D01*
X600049Y379467D01*
X599516Y378180D01*
Y376788D01*
X600049Y375501D01*
X601034Y374517D01*
X602320Y373984D01*
X603712D01*
X604999Y374517D01*
X605983Y375501D01*
X606516Y376788D01*
Y378180D01*
X605983Y379467D01*
X604999Y380451D01*
X603712Y380984D01*
D02*
G37*
G36*
X593712D02*
X592320D01*
X591034Y380451D01*
X590049Y379467D01*
X589516Y378180D01*
Y376788D01*
X590049Y375501D01*
X591034Y374517D01*
X592320Y373984D01*
X593712D01*
X594999Y374517D01*
X595983Y375501D01*
X596516Y376788D01*
Y378180D01*
X595983Y379467D01*
X594999Y380451D01*
X593712Y380984D01*
D02*
G37*
G36*
X87696Y377500D02*
X86304D01*
X85017Y376967D01*
X84033Y375983D01*
X83500Y374696D01*
Y373304D01*
X84033Y372017D01*
X85017Y371033D01*
X86304Y370500D01*
X87696D01*
X88983Y371033D01*
X89967Y372017D01*
X90500Y373304D01*
Y374696D01*
X89967Y375983D01*
X88983Y376967D01*
X87696Y377500D01*
D02*
G37*
G36*
X746896Y376200D02*
X745504D01*
X744217Y375667D01*
X743233Y374683D01*
X742700Y373396D01*
Y372004D01*
X743233Y370717D01*
X744217Y369733D01*
X745504Y369200D01*
X746896D01*
X748183Y369733D01*
X749167Y370717D01*
X749700Y372004D01*
Y373396D01*
X749167Y374683D01*
X748183Y375667D01*
X746896Y376200D01*
D02*
G37*
G36*
X718396Y373700D02*
X717004D01*
X715717Y373167D01*
X714733Y372183D01*
X714200Y370896D01*
Y369504D01*
X714733Y368217D01*
X715717Y367233D01*
X717004Y366700D01*
X718396D01*
X719683Y367233D01*
X720667Y368217D01*
X721200Y369504D01*
Y370896D01*
X720667Y372183D01*
X719683Y373167D01*
X718396Y373700D01*
D02*
G37*
G36*
X139696Y372500D02*
X138304D01*
X137017Y371967D01*
X136033Y370983D01*
X135500Y369696D01*
Y368304D01*
X136033Y367017D01*
X137017Y366033D01*
X138304Y365500D01*
X139696D01*
X140983Y366033D01*
X141967Y367017D01*
X142500Y368304D01*
Y369696D01*
X141967Y370983D01*
X140983Y371967D01*
X139696Y372500D01*
D02*
G37*
G36*
X126696Y365500D02*
X125304D01*
X124017Y364967D01*
X123033Y363983D01*
X122500Y362696D01*
Y361304D01*
X123033Y360017D01*
X124017Y359033D01*
X125304Y358500D01*
X126696D01*
X127983Y359033D01*
X128967Y360017D01*
X129500Y361304D01*
Y362696D01*
X128967Y363983D01*
X127983Y364967D01*
X126696Y365500D01*
D02*
G37*
G36*
X113696Y359500D02*
X112304D01*
X111017Y358967D01*
X110033Y357983D01*
X109500Y356696D01*
Y355304D01*
X110033Y354017D01*
X111017Y353033D01*
X112304Y352500D01*
X113696D01*
X114983Y353033D01*
X115967Y354017D01*
X116500Y355304D01*
Y356696D01*
X115967Y357983D01*
X114983Y358967D01*
X113696Y359500D01*
D02*
G37*
G36*
X528664Y360200D02*
X527272D01*
X525985Y359667D01*
X525001Y358682D01*
X524468Y357396D01*
Y356004D01*
X525001Y354717D01*
X525884Y353834D01*
X525033Y352983D01*
X524500Y351696D01*
Y350304D01*
X525033Y349017D01*
X526017Y348033D01*
X527304Y347500D01*
X528696D01*
X529983Y348033D01*
X530967Y349017D01*
X531500Y350304D01*
Y351696D01*
X530967Y352983D01*
X530084Y353866D01*
X530935Y354717D01*
X531468Y356004D01*
Y357396D01*
X530935Y358682D01*
X529951Y359667D01*
X528664Y360200D01*
D02*
G37*
G36*
X100696Y352500D02*
X99304D01*
X98017Y351967D01*
X97033Y350983D01*
X96500Y349696D01*
Y348304D01*
X97033Y347017D01*
X98017Y346033D01*
X99304Y345500D01*
X100696D01*
X101983Y346033D01*
X102967Y347017D01*
X103500Y348304D01*
Y349696D01*
X102967Y350983D01*
X101983Y351967D01*
X100696Y352500D01*
D02*
G37*
G36*
X559396Y345700D02*
X558004D01*
X556717Y345167D01*
X555733Y344183D01*
X555200Y342896D01*
Y341504D01*
X554997Y341200D01*
X554004D01*
X552717Y340667D01*
X551733Y339683D01*
X551200Y338396D01*
Y337004D01*
X551733Y335717D01*
X552717Y334733D01*
X554004Y334200D01*
X555396D01*
X556683Y334733D01*
X557667Y335717D01*
X558200Y337004D01*
Y338396D01*
X558403Y338700D01*
X559396D01*
X560683Y339233D01*
X561667Y340217D01*
X562200Y341504D01*
Y342896D01*
X561667Y344183D01*
X560683Y345167D01*
X559396Y345700D01*
D02*
G37*
G36*
X673712Y340984D02*
X672320D01*
X671033Y340451D01*
X670049Y339467D01*
X669516Y338180D01*
Y336788D01*
X670049Y335501D01*
X671033Y334517D01*
X672320Y333984D01*
X673712D01*
X674999Y334517D01*
X675983Y335501D01*
X676516Y336788D01*
Y338180D01*
X675983Y339467D01*
X674999Y340451D01*
X673712Y340984D01*
D02*
G37*
G36*
X588396Y339700D02*
X587004D01*
X585717Y339167D01*
X584733Y338183D01*
X584200Y336896D01*
Y335504D01*
X584733Y334217D01*
X585717Y333233D01*
X587004Y332700D01*
X588396D01*
X589683Y333233D01*
X590667Y334217D01*
X591200Y335504D01*
Y336896D01*
X590667Y338183D01*
X589683Y339167D01*
X588396Y339700D01*
D02*
G37*
G36*
X603396Y335700D02*
X602004D01*
X600717Y335167D01*
X599733Y334183D01*
X599200Y332896D01*
Y331504D01*
X599733Y330217D01*
X600717Y329233D01*
X602004Y328700D01*
X603396D01*
X604683Y329233D01*
X605667Y330217D01*
X606200Y331504D01*
Y332896D01*
X605667Y334183D01*
X604683Y335167D01*
X603396Y335700D01*
D02*
G37*
G36*
X68696Y335500D02*
X67304D01*
X66017Y334967D01*
X65033Y333983D01*
X64500Y332696D01*
Y331304D01*
X65033Y330017D01*
X66017Y329033D01*
X67304Y328500D01*
X68696D01*
X69983Y329033D01*
X70967Y330017D01*
X71500Y331304D01*
Y332696D01*
X70967Y333983D01*
X69983Y334967D01*
X68696Y335500D01*
D02*
G37*
G36*
X663680Y331016D02*
X662288D01*
X661001Y330483D01*
X660017Y329499D01*
X659484Y328212D01*
Y326820D01*
X660017Y325533D01*
X661001Y324549D01*
X662288Y324016D01*
X663680D01*
X664967Y324549D01*
X665951Y325533D01*
X666484Y326820D01*
Y328212D01*
X665951Y329499D01*
X664967Y330483D01*
X663680Y331016D01*
D02*
G37*
G36*
X633680D02*
X632288D01*
X631001Y330483D01*
X630017Y329499D01*
X629484Y328212D01*
Y326820D01*
X630017Y325533D01*
X631001Y324549D01*
X632288Y324016D01*
X633680D01*
X634967Y324549D01*
X635951Y325533D01*
X636484Y326820D01*
Y328212D01*
X635951Y329499D01*
X634967Y330483D01*
X633680Y331016D01*
D02*
G37*
G36*
X673712Y330984D02*
X672320D01*
X671033Y330451D01*
X670049Y329467D01*
X669516Y328180D01*
Y326788D01*
X670049Y325501D01*
X671033Y324517D01*
X672320Y323984D01*
X673712D01*
X674999Y324517D01*
X675983Y325501D01*
X676516Y326788D01*
Y328180D01*
X675983Y329467D01*
X674999Y330451D01*
X673712Y330984D01*
D02*
G37*
G36*
X54696Y323500D02*
X53304D01*
X52017Y322967D01*
X51033Y321983D01*
X50500Y320696D01*
Y319304D01*
X51033Y318017D01*
X52017Y317033D01*
X53304Y316500D01*
X54696D01*
X55983Y317033D01*
X56967Y318017D01*
X57500Y319304D01*
Y320696D01*
X56967Y321983D01*
X55983Y322967D01*
X54696Y323500D01*
D02*
G37*
G36*
X87696Y321500D02*
X86304D01*
X85017Y320967D01*
X84033Y319983D01*
X83500Y318696D01*
Y317304D01*
X84033Y316017D01*
X85017Y315033D01*
X86304Y314500D01*
X87696D01*
X88983Y315033D01*
X89967Y316017D01*
X90500Y317304D01*
Y318696D01*
X89967Y319983D01*
X88983Y320967D01*
X87696Y321500D01*
D02*
G37*
G36*
X603680Y320984D02*
X602288D01*
X601001Y320451D01*
X600017Y319466D01*
X599484Y318180D01*
Y316788D01*
X600017Y315501D01*
X601001Y314517D01*
X602288Y313984D01*
X603680D01*
X604967Y314517D01*
X605951Y315501D01*
X606484Y316788D01*
Y318180D01*
X605951Y319466D01*
X604967Y320451D01*
X603680Y320984D01*
D02*
G37*
G36*
X583680D02*
X582288D01*
X581001Y320451D01*
X580017Y319466D01*
X579484Y318180D01*
Y316788D01*
X580017Y315501D01*
X581001Y314517D01*
X582288Y313984D01*
X583680D01*
X584967Y314517D01*
X585951Y315501D01*
X586484Y316788D01*
Y318180D01*
X585951Y319466D01*
X584967Y320451D01*
X583680Y320984D01*
D02*
G37*
G36*
X563680D02*
X562288D01*
X561001Y320451D01*
X560017Y319466D01*
X559484Y318180D01*
Y316788D01*
X560017Y315501D01*
X561001Y314517D01*
X562288Y313984D01*
X563680D01*
X564967Y314517D01*
X565951Y315501D01*
X566484Y316788D01*
Y318180D01*
X565951Y319466D01*
X564967Y320451D01*
X563680Y320984D01*
D02*
G37*
G36*
X508000Y696057D02*
X152160D01*
X150990Y695824D01*
X149997Y695161D01*
X149334Y694168D01*
X149101Y692998D01*
Y317000D01*
X149334Y315830D01*
X149997Y314837D01*
X150990Y314174D01*
X152160Y313941D01*
X508000D01*
X509170Y314174D01*
X510163Y314837D01*
X510826Y315830D01*
X511059Y317000D01*
X511059Y692998D01*
X510826Y694168D01*
X510163Y695161D01*
X509170Y695824D01*
X508000Y696057D01*
D02*
G37*
G36*
X95696Y311500D02*
X94304D01*
X93017Y310967D01*
X92980Y310930D01*
X92000Y310013D01*
X91020Y310930D01*
X90983Y310967D01*
X89696Y311500D01*
X88304D01*
X87017Y310967D01*
X86033Y309983D01*
X85500Y308696D01*
Y307304D01*
X86033Y306017D01*
X86623Y305427D01*
X86873Y304500D01*
X86623Y303573D01*
X86033Y302983D01*
X85500Y301696D01*
Y300304D01*
X86033Y299017D01*
X86070Y298980D01*
X86987Y298000D01*
X86070Y297020D01*
X86033Y296983D01*
X85500Y295696D01*
Y294304D01*
X86033Y293017D01*
X87017Y292033D01*
X88304Y291500D01*
X89696D01*
X90983Y292033D01*
X91020Y292070D01*
X92000Y292987D01*
X92980Y292070D01*
X93017Y292033D01*
X94304Y291500D01*
X95696D01*
X96983Y292033D01*
X97967Y293017D01*
X98500Y294304D01*
Y295696D01*
X97967Y296983D01*
X97930Y297020D01*
X97013Y298000D01*
X97930Y298980D01*
X97967Y299017D01*
X98500Y300304D01*
Y301696D01*
X97967Y302983D01*
X97377Y303573D01*
X97127Y304500D01*
X97377Y305427D01*
X97967Y306017D01*
X98500Y307304D01*
Y308696D01*
X97967Y309983D01*
X96983Y310967D01*
X95696Y311500D01*
D02*
G37*
G36*
X36696Y309500D02*
X35304D01*
X34017Y308967D01*
X33427Y308377D01*
X32500Y308127D01*
X31573Y308377D01*
X30983Y308967D01*
X29696Y309500D01*
X28304D01*
X27017Y308967D01*
X26427Y308377D01*
X25500Y308127D01*
X24573Y308377D01*
X23983Y308967D01*
X22696Y309500D01*
X21304D01*
X20017Y308967D01*
X19033Y307983D01*
X18500Y306696D01*
Y305304D01*
X19033Y304017D01*
X19070Y303980D01*
X19987Y303000D01*
X19070Y302020D01*
X19033Y301983D01*
X18500Y300696D01*
Y299304D01*
X19033Y298017D01*
X20017Y297033D01*
X21304Y296500D01*
X22696D01*
X23983Y297033D01*
X24573Y297623D01*
X25500Y297873D01*
X26427Y297623D01*
X27017Y297033D01*
X28304Y296500D01*
X29696D01*
X30983Y297033D01*
X31573Y297623D01*
X32500Y297873D01*
X33427Y297623D01*
X34017Y297033D01*
X35304Y296500D01*
X36696D01*
X37983Y297033D01*
X38967Y298017D01*
X39500Y299304D01*
Y300696D01*
X38967Y301983D01*
X38930Y302020D01*
X38013Y303000D01*
X38930Y303980D01*
X38967Y304017D01*
X39500Y305304D01*
Y306696D01*
X38967Y307983D01*
X37983Y308967D01*
X36696Y309500D01*
D02*
G37*
G36*
X622396Y310700D02*
X621004D01*
X619717Y310167D01*
X618733Y309183D01*
X618200Y307896D01*
Y307419D01*
X616744Y306398D01*
X616367Y306554D01*
X614975D01*
X613689Y306021D01*
X612704Y305037D01*
X612171Y303750D01*
Y302358D01*
X612704Y301072D01*
X613689Y300087D01*
X614274Y299845D01*
X614729Y298195D01*
X614723Y298159D01*
X614200Y296896D01*
Y295504D01*
X614733Y294217D01*
X615717Y293233D01*
X617004Y292700D01*
X618396D01*
X619683Y293233D01*
X620667Y294217D01*
X621200Y295504D01*
Y296896D01*
X620667Y298183D01*
X619683Y299167D01*
X619098Y299410D01*
X618642Y301059D01*
X618648Y301096D01*
X619171Y302358D01*
Y302836D01*
X620628Y303856D01*
X621004Y303700D01*
X622396D01*
X623683Y304233D01*
X624667Y305217D01*
X625200Y306504D01*
Y307896D01*
X624667Y309183D01*
X623683Y310167D01*
X622396Y310700D01*
D02*
G37*
G36*
X653680Y310984D02*
X652288D01*
X651001Y310451D01*
X650017Y309466D01*
X649484Y308180D01*
Y306788D01*
X650017Y305501D01*
X651001Y304517D01*
X652288Y303984D01*
X653680D01*
X654967Y304517D01*
X655951Y305501D01*
X656484Y306788D01*
Y308180D01*
X655951Y309466D01*
X654967Y310451D01*
X653680Y310984D01*
D02*
G37*
G36*
X603680D02*
X602288D01*
X601001Y310451D01*
X600017Y309466D01*
X599484Y308180D01*
Y306788D01*
X600017Y305501D01*
X601001Y304517D01*
X602288Y303984D01*
X603680D01*
X604967Y304517D01*
X605951Y305501D01*
X606484Y306788D01*
Y308180D01*
X605951Y309466D01*
X604967Y310451D01*
X603680Y310984D01*
D02*
G37*
G36*
X583680D02*
X582288D01*
X581001Y310451D01*
X580017Y309466D01*
X579484Y308180D01*
Y306788D01*
X580017Y305501D01*
X581001Y304517D01*
X582288Y303984D01*
X583680D01*
X584967Y304517D01*
X585951Y305501D01*
X586484Y306788D01*
Y308180D01*
X585951Y309466D01*
X584967Y310451D01*
X583680Y310984D01*
D02*
G37*
G36*
X573680D02*
X572288D01*
X571001Y310451D01*
X570017Y309466D01*
X569484Y308180D01*
Y306788D01*
X570017Y305501D01*
X571001Y304517D01*
X572288Y303984D01*
X573680D01*
X574967Y304517D01*
X575951Y305501D01*
X576484Y306788D01*
Y308180D01*
X575951Y309466D01*
X574967Y310451D01*
X573680Y310984D01*
D02*
G37*
G36*
X518696Y309000D02*
X517304D01*
X516017Y308467D01*
X515033Y307483D01*
X514500Y306196D01*
Y304804D01*
X515033Y303517D01*
X516017Y302533D01*
X517304Y302000D01*
X518696D01*
X519983Y302533D01*
X520967Y303517D01*
X521500Y304804D01*
Y306196D01*
X520967Y307483D01*
X519983Y308467D01*
X518696Y309000D01*
D02*
G37*
G36*
X691696Y306500D02*
X690304D01*
X689017Y305967D01*
X688033Y304983D01*
X687500Y303696D01*
Y302304D01*
X688033Y301017D01*
X689017Y300033D01*
X689097Y300000D01*
X688798Y298500D01*
X688304D01*
X687017Y297967D01*
X686033Y296983D01*
X685500Y295696D01*
Y294304D01*
X686033Y293017D01*
X687017Y292033D01*
X688304Y291500D01*
X689696D01*
X690983Y292033D01*
X691967Y293017D01*
X692500Y294304D01*
Y295696D01*
X691967Y296983D01*
X690983Y297967D01*
X690903Y298000D01*
X691202Y299500D01*
X691696D01*
X692983Y300033D01*
X693967Y301017D01*
X694500Y302304D01*
Y303696D01*
X693967Y304983D01*
X692983Y305967D01*
X691696Y306500D01*
D02*
G37*
G36*
X733696Y282000D02*
X732304D01*
X731017Y281467D01*
X730033Y280483D01*
X729500Y279196D01*
Y277804D01*
X730033Y276517D01*
X731017Y275533D01*
X732304Y275000D01*
X733696D01*
X734983Y275533D01*
X735967Y276517D01*
X736500Y277804D01*
Y279196D01*
X735967Y280483D01*
X734983Y281467D01*
X733696Y282000D01*
D02*
G37*
G36*
X735696Y266000D02*
X734304D01*
X733017Y265467D01*
X732033Y264483D01*
X731500Y263196D01*
Y261804D01*
X732033Y260517D01*
X733017Y259533D01*
X734304Y259000D01*
X735696D01*
X736983Y259533D01*
X737967Y260517D01*
X738500Y261804D01*
Y263196D01*
X737967Y264483D01*
X736983Y265467D01*
X735696Y266000D01*
D02*
G37*
G36*
X360696Y253500D02*
X359304D01*
X358017Y252967D01*
X357980Y252930D01*
X357000Y252013D01*
X356020Y252930D01*
X355983Y252967D01*
X354696Y253500D01*
X353304D01*
X352017Y252967D01*
X351033Y251983D01*
X350500Y250696D01*
Y249304D01*
X351033Y248017D01*
X351070Y247980D01*
X351987Y247000D01*
X351070Y246020D01*
X351033Y245983D01*
X350500Y244696D01*
Y243304D01*
X351033Y242017D01*
X352017Y241033D01*
X353304Y240500D01*
X354696D01*
X355983Y241033D01*
X356020Y241070D01*
X357000Y241987D01*
X357980Y241070D01*
X358017Y241033D01*
X359304Y240500D01*
X360696D01*
X361983Y241033D01*
X362967Y242017D01*
X363500Y243304D01*
Y244696D01*
X362967Y245983D01*
X362930Y246020D01*
X362013Y247000D01*
X362930Y247980D01*
X362967Y248017D01*
X363500Y249304D01*
Y250696D01*
X362967Y251983D01*
X361983Y252967D01*
X360696Y253500D01*
D02*
G37*
G36*
X735696D02*
X734304D01*
X733017Y252967D01*
X732033Y251983D01*
X731500Y250696D01*
Y249304D01*
X732033Y248017D01*
X733017Y247033D01*
X734304Y246500D01*
X735696D01*
X736983Y247033D01*
X737967Y248017D01*
X738500Y249304D01*
Y250696D01*
X737967Y251983D01*
X736983Y252967D01*
X735696Y253500D01*
D02*
G37*
G36*
X116696Y248500D02*
X115304D01*
X114017Y247967D01*
X113033Y246983D01*
X112500Y245696D01*
Y244304D01*
X113033Y243017D01*
X114017Y242033D01*
X115304Y241500D01*
X116696D01*
X117983Y242033D01*
X118967Y243017D01*
X119500Y244304D01*
Y245696D01*
X118967Y246983D01*
X117983Y247967D01*
X116696Y248500D01*
D02*
G37*
G36*
X99696D02*
X98304D01*
X97017Y247967D01*
X96033Y246983D01*
X95500Y245696D01*
Y244304D01*
X96033Y243017D01*
X97017Y242033D01*
X98304Y241500D01*
X99696D01*
X100983Y242033D01*
X101967Y243017D01*
X102500Y244304D01*
Y245696D01*
X101967Y246983D01*
X100983Y247967D01*
X99696Y248500D01*
D02*
G37*
G36*
X60697Y248499D02*
X59304D01*
X58018Y247967D01*
X57033Y246982D01*
X56500Y245696D01*
Y244303D01*
X57033Y243017D01*
X58018Y242032D01*
X59304Y241499D01*
X60697D01*
X61983Y242032D01*
X62968Y243017D01*
X63500Y244303D01*
Y245696D01*
X62968Y246982D01*
X61983Y247967D01*
X60697Y248499D01*
D02*
G37*
G36*
X305696Y245500D02*
X304304D01*
X303017Y244967D01*
X302033Y243983D01*
X301500Y242696D01*
Y241304D01*
X302033Y240017D01*
X303017Y239033D01*
X304304Y238500D01*
X305696D01*
X306983Y239033D01*
X307967Y240017D01*
X308500Y241304D01*
Y242696D01*
X307967Y243983D01*
X306983Y244967D01*
X305696Y245500D01*
D02*
G37*
G36*
X735696Y241000D02*
X734304D01*
X733017Y240467D01*
X732033Y239483D01*
X731500Y238196D01*
Y236804D01*
X732033Y235517D01*
X733017Y234533D01*
X734304Y234000D01*
X735696D01*
X736983Y234533D01*
X737967Y235517D01*
X738500Y236804D01*
Y238196D01*
X737967Y239483D01*
X736983Y240467D01*
X735696Y241000D01*
D02*
G37*
G36*
X495264Y234500D02*
X493872D01*
X492585Y233967D01*
X492548Y233930D01*
X491568Y233013D01*
X490588Y233930D01*
X490550Y233967D01*
X489264Y234500D01*
X487872D01*
X486585Y233967D01*
X485601Y232983D01*
X485068Y231696D01*
Y230304D01*
X485601Y229017D01*
X485638Y228980D01*
X486555Y228000D01*
X485638Y227020D01*
X485601Y226983D01*
X485068Y225696D01*
Y224304D01*
X485601Y223017D01*
X486585Y222033D01*
X487872Y221500D01*
X489264D01*
X490550Y222033D01*
X490588Y222070D01*
X491568Y222987D01*
X492548Y222070D01*
X492585Y222033D01*
X493872Y221500D01*
X495264D01*
X496550Y222033D01*
X497535Y223017D01*
X498068Y224304D01*
Y225696D01*
X497535Y226983D01*
X497498Y227020D01*
X496581Y228000D01*
X497498Y228980D01*
X497535Y229017D01*
X498068Y230304D01*
Y231696D01*
X497535Y232983D01*
X496550Y233967D01*
X495264Y234500D01*
D02*
G37*
G36*
X617696Y225932D02*
X616304D01*
X615017Y225399D01*
X614980Y225362D01*
X614000Y224445D01*
X613020Y225362D01*
X612983Y225399D01*
X611696Y225932D01*
X610304D01*
X609017Y225399D01*
X608033Y224415D01*
X607500Y223128D01*
Y221736D01*
X608033Y220450D01*
X608070Y220412D01*
X608987Y219432D01*
X608070Y218452D01*
X608033Y218415D01*
X607500Y217128D01*
Y215736D01*
X608033Y214450D01*
X609017Y213465D01*
X610304Y212932D01*
X611696D01*
X612983Y213465D01*
X613020Y213502D01*
X614000Y214419D01*
X614980Y213502D01*
X615017Y213465D01*
X616304Y212932D01*
X617696D01*
X618983Y213465D01*
X619967Y214450D01*
X620500Y215736D01*
Y217128D01*
X619967Y218415D01*
X619930Y218452D01*
X619013Y219432D01*
X619930Y220412D01*
X619967Y220450D01*
X620500Y221736D01*
Y223128D01*
X619967Y224415D01*
X618983Y225399D01*
X617696Y225932D01*
D02*
G37*
G36*
X735696Y228500D02*
X734304D01*
X733017Y227967D01*
X732033Y226983D01*
X731500Y225696D01*
Y224304D01*
X732033Y223017D01*
X733017Y222033D01*
X734304Y221500D01*
X735696D01*
X736983Y222033D01*
X737967Y223017D01*
X738500Y224304D01*
Y225696D01*
X737967Y226983D01*
X736983Y227967D01*
X735696Y228500D01*
D02*
G37*
G36*
X156696Y223500D02*
X155304D01*
X154017Y222967D01*
X153033Y221983D01*
X152500Y220696D01*
Y219304D01*
X153033Y218017D01*
X154017Y217033D01*
X155304Y216500D01*
X156696D01*
X157983Y217033D01*
X158967Y218017D01*
X159500Y219304D01*
Y220696D01*
X158967Y221983D01*
X157983Y222967D01*
X156696Y223500D01*
D02*
G37*
G36*
X237696Y222500D02*
X236304D01*
X235017Y221967D01*
X234033Y220983D01*
X233500Y219696D01*
Y218304D01*
X234033Y217017D01*
X235017Y216033D01*
X236304Y215500D01*
X237696D01*
X238983Y216033D01*
X239967Y217017D01*
X240500Y218304D01*
Y219696D01*
X239967Y220983D01*
X238983Y221967D01*
X237696Y222500D01*
D02*
G37*
G36*
X309696Y214500D02*
X308304D01*
X307017Y213967D01*
X306033Y212983D01*
X305500Y211696D01*
Y210304D01*
X306033Y209017D01*
X307017Y208033D01*
X308304Y207500D01*
X309696D01*
X310983Y208033D01*
X311967Y209017D01*
X312500Y210304D01*
Y211696D01*
X311967Y212983D01*
X310983Y213967D01*
X309696Y214500D01*
D02*
G37*
G36*
X735571Y210625D02*
X734179D01*
X732892Y210092D01*
X731908Y209108D01*
X731375Y207821D01*
Y206429D01*
X731908Y205142D01*
X732892Y204158D01*
X734179Y203625D01*
X735571D01*
X736858Y204158D01*
X737842Y205142D01*
X738375Y206429D01*
Y207821D01*
X737842Y209108D01*
X736858Y210092D01*
X735571Y210625D01*
D02*
G37*
G36*
X343696Y202500D02*
X342304D01*
X341017Y201967D01*
X340980Y201930D01*
X340000Y201013D01*
X339020Y201930D01*
X338983Y201967D01*
X337696Y202500D01*
X336304D01*
X335017Y201967D01*
X334033Y200983D01*
X333500Y199696D01*
Y198304D01*
X334033Y197017D01*
X334550Y196500D01*
X334033Y195983D01*
X333500Y194696D01*
Y193304D01*
X334033Y192017D01*
X335017Y191033D01*
X336304Y190500D01*
X337696D01*
X338983Y191033D01*
X339020Y191070D01*
X340000Y191987D01*
X340980Y191070D01*
X341017Y191033D01*
X342304Y190500D01*
X343696D01*
X344983Y191033D01*
X345967Y192017D01*
X346500Y193304D01*
Y194696D01*
X345967Y195983D01*
X345450Y196500D01*
X345967Y197017D01*
X346500Y198304D01*
Y199696D01*
X345967Y200983D01*
X344983Y201967D01*
X343696Y202500D01*
D02*
G37*
G36*
X28696Y189500D02*
X27304D01*
X26017Y188967D01*
X25033Y187983D01*
X24500Y186696D01*
Y185304D01*
X25033Y184017D01*
X26017Y183033D01*
X27304Y182500D01*
X28696D01*
X29983Y183033D01*
X30967Y184017D01*
X31500Y185304D01*
Y186696D01*
X30967Y187983D01*
X29983Y188967D01*
X28696Y189500D01*
D02*
G37*
G36*
X281696Y174500D02*
X280304D01*
X279017Y173967D01*
X278033Y172983D01*
X277500Y171696D01*
Y170304D01*
X278033Y169017D01*
X279017Y168033D01*
X280304Y167500D01*
X281696D01*
X282983Y168033D01*
X283967Y169017D01*
X284500Y170304D01*
Y171696D01*
X283967Y172983D01*
X282983Y173967D01*
X281696Y174500D01*
D02*
G37*
G36*
X183696Y171500D02*
X182304D01*
X181017Y170967D01*
X180033Y169983D01*
X179500Y168696D01*
Y167304D01*
X180033Y166017D01*
X181017Y165033D01*
X182304Y164500D01*
X183696D01*
X184983Y165033D01*
X185967Y166017D01*
X186500Y167304D01*
Y168696D01*
X185967Y169983D01*
X184983Y170967D01*
X183696Y171500D01*
D02*
G37*
G36*
X305419Y175250D02*
X304026D01*
X302740Y174717D01*
X301755Y173732D01*
X301222Y172446D01*
Y171054D01*
X301755Y169767D01*
X302182Y169341D01*
X302690Y168657D01*
X302188Y167388D01*
X302033Y167232D01*
X301500Y165946D01*
Y164554D01*
X302033Y163267D01*
X303017Y162283D01*
X304304Y161750D01*
X305696D01*
X306983Y162283D01*
X307967Y163267D01*
X308500Y164554D01*
Y165946D01*
X307967Y167232D01*
X307541Y167659D01*
X307032Y168343D01*
X307534Y169612D01*
X307690Y169767D01*
X308223Y171054D01*
Y172446D01*
X307690Y173732D01*
X306705Y174717D01*
X305419Y175250D01*
D02*
G37*
G36*
X300696Y156500D02*
X299304D01*
X298017Y155967D01*
X297033Y154983D01*
X296500Y153696D01*
Y152304D01*
X297033Y151017D01*
X298017Y150033D01*
X299304Y149500D01*
X300696D01*
X301983Y150033D01*
X302967Y151017D01*
X303500Y152304D01*
Y153696D01*
X302967Y154983D01*
X301983Y155967D01*
X300696Y156500D01*
D02*
G37*
G36*
X78696Y154500D02*
X77304D01*
X76017Y153967D01*
X75033Y152983D01*
X74500Y151696D01*
Y150304D01*
X75033Y149017D01*
X76017Y148033D01*
X77304Y147500D01*
X78696D01*
X79983Y148033D01*
X80967Y149017D01*
X81500Y150304D01*
Y151696D01*
X80967Y152983D01*
X79983Y153967D01*
X78696Y154500D01*
D02*
G37*
G36*
X267696Y147500D02*
X266304D01*
X265017Y146967D01*
X264033Y145983D01*
X263500Y144696D01*
Y143304D01*
X264033Y142017D01*
X265017Y141033D01*
X266304Y140500D01*
X267696D01*
X268983Y141033D01*
X269967Y142017D01*
X270500Y143304D01*
Y144696D01*
X269967Y145983D01*
X268983Y146967D01*
X267696Y147500D01*
D02*
G37*
G36*
X87696Y143500D02*
X86304D01*
X85017Y142967D01*
X84033Y141983D01*
X83500Y140696D01*
Y139304D01*
X84033Y138017D01*
X85017Y137033D01*
X86304Y136500D01*
X87696D01*
X88983Y137033D01*
X89967Y138017D01*
X90500Y139304D01*
Y140696D01*
X89967Y141983D01*
X88983Y142967D01*
X87696Y143500D01*
D02*
G37*
G36*
X267696Y138500D02*
X266304D01*
X265017Y137967D01*
X264033Y136983D01*
X263500Y135696D01*
Y134304D01*
X264033Y133017D01*
X265017Y132033D01*
X266304Y131500D01*
X267696D01*
X268983Y132033D01*
X269967Y133017D01*
X270500Y134304D01*
Y135696D01*
X269967Y136983D01*
X268983Y137967D01*
X267696Y138500D01*
D02*
G37*
G36*
X55696Y136500D02*
X54304D01*
X53017Y135967D01*
X52033Y134983D01*
X51500Y133696D01*
Y132304D01*
X52033Y131017D01*
X53017Y130033D01*
X54304Y129500D01*
X55696D01*
X56983Y130033D01*
X57967Y131017D01*
X58500Y132304D01*
Y133696D01*
X57967Y134983D01*
X56983Y135967D01*
X55696Y136500D01*
D02*
G37*
G36*
X68696Y133500D02*
X67304D01*
X66017Y132967D01*
X65033Y131983D01*
X64500Y130696D01*
Y129304D01*
X65033Y128017D01*
X66017Y127033D01*
X67304Y126500D01*
X68696D01*
X69983Y127033D01*
X70967Y128017D01*
X71500Y129304D01*
Y130696D01*
X70967Y131983D01*
X69983Y132967D01*
X68696Y133500D01*
D02*
G37*
G36*
X260696Y131500D02*
X259304D01*
X258017Y130967D01*
X257033Y129983D01*
X256500Y128696D01*
Y127304D01*
X257033Y126017D01*
X258017Y125033D01*
X259304Y124500D01*
X260696D01*
X261983Y125033D01*
X262967Y126017D01*
X263500Y127304D01*
Y128696D01*
X262967Y129983D01*
X261983Y130967D01*
X260696Y131500D01*
D02*
G37*
G36*
X343696Y126500D02*
X342304D01*
X341017Y125967D01*
X340033Y124983D01*
X339500Y123696D01*
Y122304D01*
X340033Y121017D01*
X341017Y120033D01*
X342304Y119500D01*
X343696D01*
X344983Y120033D01*
X345967Y121017D01*
X346500Y122304D01*
Y123696D01*
X345967Y124983D01*
X344983Y125967D01*
X343696Y126500D01*
D02*
G37*
G36*
X493696Y120500D02*
X492304D01*
X491017Y119967D01*
X490980Y119930D01*
X490000Y119013D01*
X489020Y119930D01*
X488983Y119967D01*
X487696Y120500D01*
X486304D01*
X485017Y119967D01*
X484033Y118983D01*
X483500Y117696D01*
Y116304D01*
X484033Y115017D01*
X484070Y114980D01*
X484987Y114000D01*
X484070Y113020D01*
X484033Y112983D01*
X483500Y111696D01*
Y110304D01*
X484033Y109017D01*
X485017Y108033D01*
X486304Y107500D01*
X487696D01*
X488983Y108033D01*
X489020Y108070D01*
X490000Y108987D01*
X490980Y108070D01*
X491017Y108033D01*
X492304Y107500D01*
X493696D01*
X494983Y108033D01*
X495967Y109017D01*
X496500Y110304D01*
Y111696D01*
X495967Y112983D01*
X495930Y113020D01*
X495013Y114000D01*
X495930Y114980D01*
X495967Y115017D01*
X496500Y116304D01*
Y117696D01*
X495967Y118983D01*
X494983Y119967D01*
X493696Y120500D01*
D02*
G37*
G36*
X333696Y124500D02*
X332304D01*
X331017Y123967D01*
X330033Y122983D01*
X329500Y121696D01*
Y120304D01*
X330033Y119017D01*
X331017Y118033D01*
X332304Y117500D01*
X333696D01*
X334983Y118033D01*
X335967Y119017D01*
X336500Y120304D01*
Y121696D01*
X335967Y122983D01*
X334983Y123967D01*
X333696Y124500D01*
D02*
G37*
G36*
X243696Y120500D02*
X242304D01*
X241017Y119967D01*
X240033Y118983D01*
X239500Y117696D01*
Y116304D01*
X240033Y115017D01*
X241017Y114033D01*
X242304Y113500D01*
X243696D01*
X244983Y114033D01*
X245967Y115017D01*
X246500Y116304D01*
Y117696D01*
X245967Y118983D01*
X244983Y119967D01*
X243696Y120500D01*
D02*
G37*
G36*
X253696Y113500D02*
X252304D01*
X251017Y112967D01*
X250033Y111983D01*
X249500Y110696D01*
Y109304D01*
X250033Y108017D01*
X251017Y107033D01*
X252304Y106500D01*
X253696D01*
X254983Y107033D01*
X255967Y108017D01*
X256500Y109304D01*
Y110696D01*
X255967Y111983D01*
X254983Y112967D01*
X253696Y113500D01*
D02*
G37*
G36*
X729696Y106500D02*
X728304D01*
X727017Y105967D01*
X726427Y105377D01*
X725500Y105127D01*
X724573Y105377D01*
X723983Y105967D01*
X722696Y106500D01*
X721304D01*
X720017Y105967D01*
X719427Y105377D01*
X718500Y105127D01*
X717573Y105377D01*
X716983Y105967D01*
X715696Y106500D01*
X714304D01*
X713017Y105967D01*
X712427Y105377D01*
X711500Y105127D01*
X710573Y105377D01*
X709983Y105967D01*
X708696Y106500D01*
X707304D01*
X706017Y105967D01*
X705033Y104983D01*
X704500Y103696D01*
Y102304D01*
X705033Y101017D01*
X705070Y100980D01*
X705987Y100000D01*
X705070Y99020D01*
X705033Y98983D01*
X704500Y97696D01*
Y96304D01*
X705033Y95017D01*
X706017Y94033D01*
X707304Y93500D01*
X708696D01*
X709983Y94033D01*
X710573Y94623D01*
X711500Y94873D01*
X712427Y94623D01*
X713017Y94033D01*
X714304Y93500D01*
X715696D01*
X716983Y94033D01*
X717573Y94623D01*
X718500Y94873D01*
X719427Y94623D01*
X720017Y94033D01*
X721304Y93500D01*
X722696D01*
X723983Y94033D01*
X724573Y94623D01*
X725500Y94873D01*
X726427Y94623D01*
X727017Y94033D01*
X728304Y93500D01*
X729696D01*
X730983Y94033D01*
X731967Y95017D01*
X732500Y96304D01*
Y97696D01*
X731967Y98983D01*
X731930Y99020D01*
X731013Y100000D01*
X731930Y100980D01*
X731967Y101017D01*
X732500Y102304D01*
Y103696D01*
X731967Y104983D01*
X730983Y105967D01*
X729696Y106500D01*
D02*
G37*
G36*
X471128Y100068D02*
X469736D01*
X468450Y99535D01*
X468412Y99498D01*
X467432Y98581D01*
X466452Y99498D01*
X466415Y99535D01*
X465128Y100068D01*
X463736D01*
X462449Y99535D01*
X461465Y98551D01*
X460932Y97264D01*
Y95872D01*
X461465Y94585D01*
X461502Y94548D01*
X462419Y93568D01*
X461502Y92588D01*
X461465Y92550D01*
X460932Y91264D01*
Y89872D01*
X461465Y88585D01*
X462449Y87601D01*
X463736Y87068D01*
X465128D01*
X466415Y87601D01*
X466452Y87638D01*
X467432Y88555D01*
X468412Y87638D01*
X468450Y87601D01*
X469736Y87068D01*
X471128D01*
X472415Y87601D01*
X473399Y88585D01*
X473932Y89872D01*
Y91264D01*
X473399Y92550D01*
X473362Y92588D01*
X472445Y93568D01*
X473362Y94548D01*
X473399Y94585D01*
X473932Y95872D01*
Y97264D01*
X473399Y98551D01*
X472415Y99535D01*
X471128Y100068D01*
D02*
G37*
G36*
X292696Y94500D02*
X291304D01*
X290017Y93967D01*
X289033Y92983D01*
X288500Y91696D01*
Y90304D01*
X289033Y89017D01*
X290017Y88033D01*
X291304Y87500D01*
X292696D01*
X293983Y88033D01*
X294967Y89017D01*
X295500Y90304D01*
Y91696D01*
X294967Y92983D01*
X293983Y93967D01*
X292696Y94500D01*
D02*
G37*
G36*
X294696Y80500D02*
X293304D01*
X292017Y79967D01*
X291033Y78983D01*
X290500Y77696D01*
Y76304D01*
X291033Y75017D01*
X292017Y74033D01*
X293304Y73500D01*
X294696D01*
X295983Y74033D01*
X296967Y75017D01*
X297500Y76304D01*
Y77696D01*
X296967Y78983D01*
X295983Y79967D01*
X294696Y80500D01*
D02*
G37*
G36*
X586696Y68500D02*
X585304D01*
X584017Y67967D01*
X583427Y67377D01*
X582500Y67127D01*
X581573Y67377D01*
X580983Y67967D01*
X579696Y68500D01*
X578304D01*
X577017Y67967D01*
X576033Y66983D01*
X575500Y65696D01*
Y64304D01*
X576033Y63017D01*
X576623Y62427D01*
X576873Y61500D01*
X576623Y60573D01*
X576033Y59983D01*
X575500Y58696D01*
Y57304D01*
X576033Y56017D01*
X576623Y55427D01*
X576873Y54500D01*
X576623Y53573D01*
X576033Y52983D01*
X575500Y51696D01*
Y50304D01*
X576033Y49017D01*
X577017Y48033D01*
X578304Y47500D01*
X579696D01*
X580983Y48033D01*
X581573Y48623D01*
X582500Y48873D01*
X583427Y48623D01*
X584017Y48033D01*
X585304Y47500D01*
X586696D01*
X587983Y48033D01*
X588967Y49017D01*
X589500Y50304D01*
Y51696D01*
X588967Y52983D01*
X588377Y53573D01*
X588127Y54500D01*
X588377Y55427D01*
X588967Y56017D01*
X589500Y57304D01*
Y58696D01*
X588967Y59983D01*
X588377Y60573D01*
X588127Y61500D01*
X588377Y62427D01*
X588967Y63017D01*
X589500Y64304D01*
Y65696D01*
X588967Y66983D01*
X587983Y67967D01*
X586696Y68500D01*
D02*
G37*
G36*
X608696Y66500D02*
X607304D01*
X606017Y65967D01*
X605033Y64983D01*
X604500Y63696D01*
Y62304D01*
X605033Y61017D01*
X605070Y60980D01*
X605987Y60000D01*
X605070Y59020D01*
X605033Y58983D01*
X604500Y57696D01*
Y56304D01*
X605033Y55017D01*
X605070Y54980D01*
X605987Y54000D01*
X605070Y53020D01*
X605033Y52983D01*
X604500Y51696D01*
Y50304D01*
X605033Y49017D01*
X606017Y48033D01*
X607304Y47500D01*
X608696D01*
X609983Y48033D01*
X610573Y48623D01*
X611500Y48873D01*
X612427Y48623D01*
X613017Y48033D01*
X614304Y47500D01*
X615696D01*
X616983Y48033D01*
X617967Y49017D01*
X618500Y50304D01*
Y51696D01*
X617967Y52983D01*
X617930Y53020D01*
X617013Y54000D01*
X617930Y54980D01*
X617967Y55017D01*
X618500Y56304D01*
Y57696D01*
X617967Y58983D01*
X616983Y59967D01*
X615696Y60500D01*
X614304D01*
X613017Y59967D01*
X612719Y59668D01*
X611094Y59779D01*
X610747Y60785D01*
X610930Y60980D01*
X610967Y61017D01*
X611500Y62304D01*
Y63696D01*
X610967Y64983D01*
X609983Y65967D01*
X608696Y66500D01*
D02*
G37*
G36*
X788500Y54540D02*
X787583D01*
X782842Y53597D01*
X778376Y51747D01*
X774357Y49061D01*
X770938Y45643D01*
X768253Y41624D01*
X766403Y37158D01*
X765460Y32417D01*
Y31500D01*
X788500D01*
Y54540D01*
D02*
G37*
G36*
X432417D02*
X431500D01*
Y31500D01*
X454540D01*
Y32417D01*
X453597Y37158D01*
X451747Y41624D01*
X449062Y45643D01*
X445643Y49061D01*
X441624Y51747D01*
X437158Y53597D01*
X432417Y54540D01*
D02*
G37*
G36*
X428500D02*
X427583D01*
X422842Y53597D01*
X418376Y51747D01*
X414357Y49061D01*
X410938Y45643D01*
X408253Y41624D01*
X406403Y37158D01*
X405460Y32417D01*
Y31500D01*
X428500D01*
Y54540D01*
D02*
G37*
G36*
X32417D02*
X31500D01*
Y31500D01*
X54540D01*
Y32417D01*
X53597Y37158D01*
X51747Y41624D01*
X49061Y45643D01*
X45643Y49061D01*
X41624Y51747D01*
X37158Y53597D01*
X32417Y54540D01*
D02*
G37*
%LPD*%
G36*
X501941Y323059D02*
X158059D01*
X158059Y686941D01*
X501941D01*
X501941Y323059D01*
D02*
G37*
D16*
X476000Y685000D02*
Y698000D01*
X471000Y685000D02*
Y698000D01*
X383000Y685000D02*
Y698000D01*
X378000Y685000D02*
Y698000D01*
X290000Y685000D02*
Y698000D01*
X285000Y685000D02*
Y698000D01*
X196000Y684000D02*
Y697000D01*
X191000Y684000D02*
Y697000D01*
X147000Y611000D02*
X160000D01*
X147000Y616000D02*
X160000D01*
X147000Y621000D02*
X160000D01*
X147000Y626000D02*
X160000D01*
X147000Y631292D02*
X160000D01*
X147000Y636839D02*
X160000D01*
X147000Y642000D02*
X160000D01*
X147000Y647000D02*
X160000D01*
X147000Y485000D02*
X160000D01*
X147000Y490000D02*
X160000D01*
X147000Y495000D02*
X160000D01*
X147000Y500000D02*
X160000D01*
X147000Y505292D02*
X160000D01*
X147000Y510839D02*
X160000D01*
X147000Y516000D02*
X160000D01*
X147000Y521000D02*
X160000D01*
X146000Y420000D02*
X159000D01*
X146000Y425000D02*
X159000D01*
X146000Y430000D02*
X159000D01*
X146000Y435000D02*
X159000D01*
X146000Y440292D02*
X159000D01*
X146000Y445839D02*
X159000D01*
X146000Y451000D02*
X159000D01*
X146000Y456000D02*
X159000D01*
X147000Y385000D02*
X160000D01*
X147000Y380000D02*
X160000D01*
X147000Y374839D02*
X160000D01*
X147000Y369292D02*
X160000D01*
X147000Y364000D02*
X160000D01*
X147000Y359000D02*
X160000D01*
X147000Y354000D02*
X160000D01*
X147000Y349000D02*
X160000D01*
D108*
X442473Y148095D02*
D03*
X436473D02*
D03*
X494437Y156238D02*
D03*
X500437D02*
D03*
X585000Y90000D02*
D03*
Y96000D02*
D03*
X539000Y473000D02*
D03*
X260000Y61000D02*
D03*
X714750Y475500D02*
D03*
X774500Y556750D02*
D03*
X774250Y543500D02*
D03*
Y570000D02*
D03*
X763750Y585500D02*
D03*
X764000Y591500D02*
D03*
X733250Y470500D02*
D03*
X716500Y440250D02*
D03*
X733750Y450500D02*
D03*
X589668Y566232D02*
D03*
X653668Y577232D02*
D03*
X710668Y553232D02*
D03*
Y568232D02*
D03*
X684668Y643232D02*
D03*
X554668Y680232D02*
D03*
Y629232D02*
D03*
Y651232D02*
D03*
Y666232D02*
D03*
X601668Y514232D02*
D03*
X631668Y511232D02*
D03*
X559700Y370200D02*
D03*
X588668Y361232D02*
D03*
X589700Y445200D02*
D03*
X699700Y391200D02*
D03*
X555700Y305200D02*
D03*
X277568Y37568D02*
D03*
X283568Y31568D02*
D03*
X277568D02*
D03*
X283568Y37568D02*
D03*
X40432Y153999D02*
D03*
Y159999D02*
D03*
X203000Y180568D02*
D03*
X209000D02*
D03*
X291000Y135000D02*
D03*
X291000Y139568D02*
D03*
X312000Y92000D02*
D03*
Y97000D02*
D03*
X354000Y84000D02*
D03*
X360000D02*
D03*
X354000Y89000D02*
D03*
X360000D02*
D03*
X355432Y143000D02*
D03*
X360000Y143000D02*
D03*
X354432Y168000D02*
D03*
Y174000D02*
D03*
X360432D02*
D03*
Y168000D02*
D03*
X442432Y153897D02*
D03*
X436432D02*
D03*
X382382Y170377D02*
D03*
Y176377D02*
D03*
X388382D02*
D03*
Y170377D02*
D03*
X27000Y232568D02*
D03*
Y226568D02*
D03*
X92000Y204000D02*
D03*
X203000Y186568D02*
D03*
X209000D02*
D03*
X38432Y316000D02*
D03*
Y322000D02*
D03*
X44432Y316000D02*
D03*
Y322000D02*
D03*
X87000Y347000D02*
D03*
X219000Y209432D02*
D03*
X285000Y198000D02*
D03*
X213000Y209432D02*
D03*
Y215432D02*
D03*
X219000D02*
D03*
Y225432D02*
D03*
X213000D02*
D03*
X293500Y223432D02*
D03*
X299500Y229432D02*
D03*
X219000Y231432D02*
D03*
X213000D02*
D03*
X293500Y229432D02*
D03*
X299500Y223432D02*
D03*
X341000Y223432D02*
D03*
X347000D02*
D03*
X341000Y229432D02*
D03*
X347000D02*
D03*
X509000Y92000D02*
D03*
X503000D02*
D03*
X523432Y124432D02*
D03*
X451000Y132000D02*
D03*
X457000Y126000D02*
D03*
X451000D02*
D03*
X457000Y132000D02*
D03*
X500432Y151648D02*
D03*
X494432D02*
D03*
X523432Y130432D02*
D03*
Y154000D02*
D03*
Y160000D02*
D03*
X529000Y92700D02*
D03*
X535000D02*
D03*
X529432Y124432D02*
D03*
Y130432D02*
D03*
X557432Y129000D02*
D03*
Y123000D02*
D03*
X563432Y129000D02*
D03*
Y123000D02*
D03*
X529432Y154000D02*
D03*
Y160000D02*
D03*
X539000Y215568D02*
D03*
X545000D02*
D03*
X539000Y221568D02*
D03*
X545000D02*
D03*
X558700Y297200D02*
D03*
X577700Y296700D02*
D03*
X526000Y306000D02*
D03*
X535000Y380932D02*
D03*
Y386932D02*
D03*
X542000Y375000D02*
D03*
X521232Y487200D02*
D03*
Y481200D02*
D03*
X558700Y460200D02*
D03*
X545068Y473000D02*
D03*
X560700Y470200D02*
D03*
X562984Y397516D02*
D03*
X549000Y524000D02*
D03*
X560700Y506200D02*
D03*
X520368Y549200D02*
D03*
Y543200D02*
D03*
X521432Y602500D02*
D03*
Y596500D02*
D03*
X560700Y605200D02*
D03*
Y544200D02*
D03*
X542000Y707000D02*
D03*
Y713000D02*
D03*
X559726Y709492D02*
D03*
X577075Y520950D02*
D03*
X594700Y516200D02*
D03*
X598950Y476700D02*
D03*
X583700Y567200D02*
D03*
X586700Y586200D02*
D03*
X584700Y664200D02*
D03*
X596668Y622232D02*
D03*
X601700Y696200D02*
D03*
X622700Y316200D02*
D03*
X618072Y331670D02*
D03*
X627882Y336825D02*
D03*
X637700Y306200D02*
D03*
X649000Y86000D02*
D03*
Y97000D02*
D03*
Y76000D02*
D03*
X652700Y317200D02*
D03*
X632940Y357081D02*
D03*
X652984Y327484D02*
D03*
X648684Y331908D02*
D03*
X608118Y368175D02*
D03*
X615611Y449889D02*
D03*
X618118Y368175D02*
D03*
X622984Y427484D02*
D03*
X623016Y457516D02*
D03*
X628012Y367401D02*
D03*
X638192Y367323D02*
D03*
X632984Y457516D02*
D03*
X665000Y76000D02*
D03*
Y97000D02*
D03*
Y86000D02*
D03*
X716432Y22000D02*
D03*
Y28000D02*
D03*
X722432Y22000D02*
D03*
Y28000D02*
D03*
X719000Y160000D02*
D03*
X743298Y23285D02*
D03*
Y29285D02*
D03*
X749297Y23285D02*
D03*
Y29285D02*
D03*
X693000Y242000D02*
D03*
X701000Y318000D02*
D03*
X761000Y202000D02*
D03*
X766000Y197000D02*
D03*
X761000D02*
D03*
X766000Y202000D02*
D03*
X704000Y286000D02*
D03*
X662984Y427516D02*
D03*
X653016Y437516D02*
D03*
X675700Y443200D02*
D03*
X706700Y406200D02*
D03*
X730700Y392200D02*
D03*
X686000Y454000D02*
D03*
X693868Y454069D02*
D03*
X686000Y461000D02*
D03*
X694000D02*
D03*
X700238Y441436D02*
D03*
X622984Y467484D02*
D03*
X608700Y516200D02*
D03*
X612970Y547498D02*
D03*
X633016Y467484D02*
D03*
X640700Y552200D02*
D03*
X615611Y669889D02*
D03*
X623016Y677516D02*
D03*
Y687484D02*
D03*
X628825Y588700D02*
D03*
X632984Y677516D02*
D03*
Y687484D02*
D03*
X653700Y588200D02*
D03*
X673700Y492200D02*
D03*
X698700Y503200D02*
D03*
X673700Y528200D02*
D03*
X710700Y585200D02*
D03*
X762000Y654500D02*
D03*
Y660500D02*
D03*
X680672Y699000D02*
D03*
X87000Y529000D02*
D03*
Y637000D02*
D03*
X64000Y414568D02*
D03*
Y420568D02*
D03*
X31000Y510568D02*
D03*
Y516568D02*
D03*
Y618568D02*
D03*
Y624568D02*
D03*
X38000Y594568D02*
D03*
Y600568D02*
D03*
X66000Y706568D02*
D03*
Y712568D02*
D03*
X267000Y116000D02*
D03*
X20000Y72000D02*
D03*
Y132000D02*
D03*
X35000Y162000D02*
D03*
X20000Y252000D02*
D03*
X35000Y282000D02*
D03*
X20000Y312000D02*
D03*
X35000Y402000D02*
D03*
X20000Y492000D02*
D03*
X35000Y522000D02*
D03*
Y582000D02*
D03*
X20000Y612000D02*
D03*
Y672000D02*
D03*
X35000Y702000D02*
D03*
X20000Y732000D02*
D03*
X65000Y42000D02*
D03*
X50000Y72000D02*
D03*
Y312000D02*
D03*
Y492000D02*
D03*
X65000Y642000D02*
D03*
X50000Y732000D02*
D03*
X65000Y762000D02*
D03*
X95000Y42000D02*
D03*
X80000Y72000D02*
D03*
X95000Y222000D02*
D03*
Y282000D02*
D03*
Y462000D02*
D03*
X80000Y492000D02*
D03*
Y552000D02*
D03*
X95000Y642000D02*
D03*
Y762000D02*
D03*
X125000Y42000D02*
D03*
X110000Y72000D02*
D03*
X125000Y282000D02*
D03*
Y462000D02*
D03*
X110000Y732000D02*
D03*
X125000Y762000D02*
D03*
X155000Y42000D02*
D03*
X140000Y72000D02*
D03*
X155000Y282000D02*
D03*
X140000Y732000D02*
D03*
X155000Y762000D02*
D03*
X185000Y42000D02*
D03*
X170000Y72000D02*
D03*
X185000Y102000D02*
D03*
Y282000D02*
D03*
X170000Y732000D02*
D03*
X185000Y762000D02*
D03*
X215000Y42000D02*
D03*
X200000Y72000D02*
D03*
Y192000D02*
D03*
X215000Y282000D02*
D03*
Y342000D02*
D03*
X200000Y492000D02*
D03*
Y732000D02*
D03*
X215000Y762000D02*
D03*
X230000Y72000D02*
D03*
X245000Y102000D02*
D03*
Y222000D02*
D03*
Y282000D02*
D03*
Y342000D02*
D03*
Y402000D02*
D03*
Y462000D02*
D03*
X230000Y492000D02*
D03*
X245000Y522000D02*
D03*
X230000Y552000D02*
D03*
Y612000D02*
D03*
Y672000D02*
D03*
Y732000D02*
D03*
X245000Y762000D02*
D03*
X260000Y72000D02*
D03*
X275000Y102000D02*
D03*
Y222000D02*
D03*
Y282000D02*
D03*
X260000Y492000D02*
D03*
Y732000D02*
D03*
X275000Y762000D02*
D03*
X305000Y282000D02*
D03*
Y342000D02*
D03*
X290000Y432000D02*
D03*
X305000Y702000D02*
D03*
X290000Y732000D02*
D03*
X305000Y762000D02*
D03*
X335000Y282000D02*
D03*
Y342000D02*
D03*
Y402000D02*
D03*
X320000Y432000D02*
D03*
X335000Y462000D02*
D03*
X320000Y492000D02*
D03*
X335000Y522000D02*
D03*
X320000Y552000D02*
D03*
Y612000D02*
D03*
Y672000D02*
D03*
X335000Y702000D02*
D03*
X320000Y732000D02*
D03*
X335000Y762000D02*
D03*
X365000Y42000D02*
D03*
Y162000D02*
D03*
X350000Y192000D02*
D03*
X365000Y222000D02*
D03*
Y282000D02*
D03*
X350000Y432000D02*
D03*
Y492000D02*
D03*
X365000Y702000D02*
D03*
X350000Y732000D02*
D03*
X365000Y762000D02*
D03*
X395000Y42000D02*
D03*
Y162000D02*
D03*
X380000Y252000D02*
D03*
X395000Y282000D02*
D03*
Y342000D02*
D03*
X380000Y372000D02*
D03*
X395000Y702000D02*
D03*
X380000Y732000D02*
D03*
X395000Y762000D02*
D03*
X410000Y72000D02*
D03*
X425000Y102000D02*
D03*
X410000Y192000D02*
D03*
Y252000D02*
D03*
X425000Y282000D02*
D03*
Y342000D02*
D03*
X410000Y372000D02*
D03*
X425000Y402000D02*
D03*
X410000Y432000D02*
D03*
X425000Y462000D02*
D03*
X410000Y492000D02*
D03*
X425000Y522000D02*
D03*
X410000Y552000D02*
D03*
Y612000D02*
D03*
Y672000D02*
D03*
X425000Y702000D02*
D03*
X410000Y732000D02*
D03*
X425000Y762000D02*
D03*
X440000Y72000D02*
D03*
X455000Y102000D02*
D03*
X440000Y192000D02*
D03*
Y252000D02*
D03*
X455000Y282000D02*
D03*
X440000Y372000D02*
D03*
Y432000D02*
D03*
Y492000D02*
D03*
Y552000D02*
D03*
X455000Y702000D02*
D03*
X440000Y732000D02*
D03*
X485000Y42000D02*
D03*
X470000Y192000D02*
D03*
Y252000D02*
D03*
X485000Y282000D02*
D03*
Y582000D02*
D03*
Y642000D02*
D03*
Y702000D02*
D03*
X470000Y732000D02*
D03*
X485000Y762000D02*
D03*
X515000Y42000D02*
D03*
Y102000D02*
D03*
Y162000D02*
D03*
X500000Y192000D02*
D03*
Y252000D02*
D03*
X515000Y282000D02*
D03*
Y342000D02*
D03*
X500000Y732000D02*
D03*
X545000Y42000D02*
D03*
X530000Y72000D02*
D03*
X545000Y162000D02*
D03*
X530000Y252000D02*
D03*
X545000Y282000D02*
D03*
X575000Y42000D02*
D03*
X560000Y72000D02*
D03*
X575000Y162000D02*
D03*
X560000Y252000D02*
D03*
X575000Y282000D02*
D03*
X605000Y42000D02*
D03*
Y162000D02*
D03*
Y282000D02*
D03*
X635000Y42000D02*
D03*
Y282000D02*
D03*
X620000Y732000D02*
D03*
X665000Y42000D02*
D03*
Y282000D02*
D03*
X695000Y42000D02*
D03*
X710000Y72000D02*
D03*
Y132000D02*
D03*
X755000Y42000D02*
D03*
X740000Y312000D02*
D03*
X755000Y342000D02*
D03*
Y702000D02*
D03*
Y762000D02*
D03*
X770000Y72000D02*
D03*
X785000Y102000D02*
D03*
X770000Y132000D02*
D03*
Y192000D02*
D03*
X785000Y222000D02*
D03*
X770000Y252000D02*
D03*
X785000Y282000D02*
D03*
Y342000D02*
D03*
Y402000D02*
D03*
Y582000D02*
D03*
X800000Y72000D02*
D03*
Y132000D02*
D03*
Y192000D02*
D03*
Y252000D02*
D03*
Y312000D02*
D03*
Y372000D02*
D03*
Y492000D02*
D03*
Y612000D02*
D03*
Y672000D02*
D03*
Y732000D02*
D03*
X170000Y342001D02*
D03*
Y602001D02*
D03*
X200000Y362001D02*
D03*
X205000Y492001D02*
D03*
X200000Y622001D02*
D03*
X210000Y342001D02*
D03*
Y362001D02*
D03*
X215000Y472001D02*
D03*
Y492001D02*
D03*
X210000Y602001D02*
D03*
Y622001D02*
D03*
X225000Y332001D02*
D03*
X220000Y342001D02*
D03*
X225000Y352001D02*
D03*
X220000Y362001D02*
D03*
X225000Y392001D02*
D03*
X220000Y402001D02*
D03*
X225000Y412001D02*
D03*
X220000Y422001D02*
D03*
X225000Y472001D02*
D03*
Y492001D02*
D03*
Y532001D02*
D03*
Y552001D02*
D03*
Y592001D02*
D03*
X220000Y602001D02*
D03*
X225000Y612001D02*
D03*
X220000Y622001D02*
D03*
X225000Y652001D02*
D03*
X220000Y662001D02*
D03*
X225000Y672001D02*
D03*
X220000Y682001D02*
D03*
X235000Y332001D02*
D03*
X230000Y342001D02*
D03*
X235000Y352001D02*
D03*
X230000Y362001D02*
D03*
X235000Y392001D02*
D03*
X230000Y402001D02*
D03*
X235000Y412001D02*
D03*
X230000Y422001D02*
D03*
Y462001D02*
D03*
X235000Y472001D02*
D03*
X230000Y482001D02*
D03*
X235000Y492001D02*
D03*
X230000Y522001D02*
D03*
X235000Y532001D02*
D03*
X230000Y542001D02*
D03*
X235000Y552001D02*
D03*
Y592001D02*
D03*
X230000Y602001D02*
D03*
X235000Y612001D02*
D03*
X230000Y622001D02*
D03*
X235000Y652001D02*
D03*
X230000Y662001D02*
D03*
X235000Y672001D02*
D03*
X230000Y682001D02*
D03*
X245000Y332001D02*
D03*
X240000Y342001D02*
D03*
X245000Y352001D02*
D03*
X240000Y362001D02*
D03*
X245000Y392001D02*
D03*
X240000Y402001D02*
D03*
X245000Y412001D02*
D03*
X240000Y422001D02*
D03*
Y462001D02*
D03*
X245000Y472001D02*
D03*
X240000Y482001D02*
D03*
X245000Y492001D02*
D03*
X240000Y522001D02*
D03*
X245000Y532001D02*
D03*
X240000Y542001D02*
D03*
X245000Y552001D02*
D03*
Y592001D02*
D03*
X240000Y602001D02*
D03*
X245000Y612001D02*
D03*
X240000Y622001D02*
D03*
X245000Y652001D02*
D03*
X240000Y662001D02*
D03*
X245000Y672001D02*
D03*
X240000Y682001D02*
D03*
X250000Y342001D02*
D03*
Y362001D02*
D03*
Y402001D02*
D03*
Y422001D02*
D03*
Y462001D02*
D03*
X255000Y472001D02*
D03*
X250000Y482001D02*
D03*
X255000Y492001D02*
D03*
X250000Y522001D02*
D03*
Y542001D02*
D03*
Y602001D02*
D03*
Y622001D02*
D03*
Y662001D02*
D03*
Y682001D02*
D03*
X260000Y342001D02*
D03*
Y362001D02*
D03*
X265000Y472001D02*
D03*
Y492001D02*
D03*
X260000Y602001D02*
D03*
Y622001D02*
D03*
X270000Y362001D02*
D03*
X275000Y492001D02*
D03*
X270000Y622001D02*
D03*
X295000Y432001D02*
D03*
Y492001D02*
D03*
X290000Y562001D02*
D03*
X300000Y342001D02*
D03*
Y362001D02*
D03*
X305000Y432001D02*
D03*
Y472001D02*
D03*
Y492001D02*
D03*
X300000Y562001D02*
D03*
Y602001D02*
D03*
Y622001D02*
D03*
X310000Y342001D02*
D03*
Y362001D02*
D03*
X315000Y392001D02*
D03*
Y412001D02*
D03*
Y432001D02*
D03*
Y472001D02*
D03*
Y492001D02*
D03*
Y532001D02*
D03*
Y552001D02*
D03*
X310000Y562001D02*
D03*
Y602001D02*
D03*
Y622001D02*
D03*
X315000Y652001D02*
D03*
Y672001D02*
D03*
X325000Y332001D02*
D03*
X320000Y342001D02*
D03*
X325000Y352001D02*
D03*
X320000Y362001D02*
D03*
X325000Y392001D02*
D03*
X320000Y402001D02*
D03*
X325000Y412001D02*
D03*
X320000Y422001D02*
D03*
X325000Y432001D02*
D03*
X320000Y462001D02*
D03*
X325000Y472001D02*
D03*
X320000Y482001D02*
D03*
X325000Y492001D02*
D03*
X320000Y522001D02*
D03*
X325000Y532001D02*
D03*
X320000Y542001D02*
D03*
X325000Y552001D02*
D03*
X320000Y562001D02*
D03*
X325000Y592001D02*
D03*
X320000Y602001D02*
D03*
X325000Y612001D02*
D03*
X320000Y622001D02*
D03*
X325000Y652001D02*
D03*
X320000Y662001D02*
D03*
X325000Y672001D02*
D03*
X320000Y682001D02*
D03*
X335000Y332001D02*
D03*
X330000Y342001D02*
D03*
X335000Y352001D02*
D03*
X330000Y362001D02*
D03*
X335000Y392001D02*
D03*
X330000Y402001D02*
D03*
X335000Y412001D02*
D03*
X330000Y422001D02*
D03*
X335000Y432001D02*
D03*
X330000Y462001D02*
D03*
X335000Y472001D02*
D03*
X330000Y482001D02*
D03*
X335000Y492001D02*
D03*
X330000Y522001D02*
D03*
X335000Y532001D02*
D03*
X330000Y542001D02*
D03*
X335000Y552001D02*
D03*
X330000Y562001D02*
D03*
X335000Y592001D02*
D03*
X330000Y602001D02*
D03*
X335000Y612001D02*
D03*
X330000Y622001D02*
D03*
X335000Y652001D02*
D03*
X330000Y662001D02*
D03*
X335000Y672001D02*
D03*
X330000Y682001D02*
D03*
X345000Y332001D02*
D03*
X340000Y342001D02*
D03*
X345000Y352001D02*
D03*
X340000Y362001D02*
D03*
X345000Y392001D02*
D03*
X340000Y402001D02*
D03*
X345000Y412001D02*
D03*
X340000Y422001D02*
D03*
X345000Y432001D02*
D03*
X340000Y462001D02*
D03*
X345000Y472001D02*
D03*
X340000Y482001D02*
D03*
X345000Y492001D02*
D03*
X340000Y522001D02*
D03*
X345000Y532001D02*
D03*
X340000Y542001D02*
D03*
X345000Y552001D02*
D03*
X340000Y562001D02*
D03*
X345000Y592001D02*
D03*
X340000Y602001D02*
D03*
X345000Y612001D02*
D03*
X340000Y622001D02*
D03*
X345000Y652001D02*
D03*
X340000Y662001D02*
D03*
X345000Y672001D02*
D03*
X340000Y682001D02*
D03*
X350000Y342001D02*
D03*
Y362001D02*
D03*
X355000Y432001D02*
D03*
Y472001D02*
D03*
Y492001D02*
D03*
X350000Y562001D02*
D03*
Y602001D02*
D03*
Y622001D02*
D03*
X360000Y342001D02*
D03*
Y362001D02*
D03*
X365000Y432001D02*
D03*
Y492001D02*
D03*
X360000Y562001D02*
D03*
Y602001D02*
D03*
Y622001D02*
D03*
X370000Y362001D02*
D03*
X375000Y572001D02*
D03*
X370000Y622001D02*
D03*
X385000Y372001D02*
D03*
Y432001D02*
D03*
X380000Y442001D02*
D03*
Y502001D02*
D03*
X385000Y572001D02*
D03*
Y632001D02*
D03*
X390000Y362001D02*
D03*
X395000Y372001D02*
D03*
Y432001D02*
D03*
X390000Y442001D02*
D03*
X395000Y472001D02*
D03*
Y492001D02*
D03*
X390000Y502001D02*
D03*
Y562001D02*
D03*
X395000Y572001D02*
D03*
X390000Y622001D02*
D03*
X395000Y632001D02*
D03*
X400000Y342001D02*
D03*
Y362001D02*
D03*
X405000Y372001D02*
D03*
Y432001D02*
D03*
X400000Y442001D02*
D03*
X405000Y472001D02*
D03*
Y492001D02*
D03*
X400000Y502001D02*
D03*
Y562001D02*
D03*
X405000Y572001D02*
D03*
X400000Y602001D02*
D03*
Y622001D02*
D03*
X405000Y632001D02*
D03*
X415000Y332001D02*
D03*
X410001Y342001D02*
D03*
X415000Y352001D02*
D03*
X410001Y362001D02*
D03*
X415000Y372001D02*
D03*
Y392001D02*
D03*
X410001Y402001D02*
D03*
X415000Y412001D02*
D03*
X410001Y422001D02*
D03*
X415000Y432001D02*
D03*
X410001Y442001D02*
D03*
Y462001D02*
D03*
X415000Y472001D02*
D03*
X410001Y482001D02*
D03*
X415000Y492001D02*
D03*
X410001Y502001D02*
D03*
Y522001D02*
D03*
X415000Y532001D02*
D03*
X410001Y542001D02*
D03*
X415000Y552001D02*
D03*
X410001Y562001D02*
D03*
X415000Y572001D02*
D03*
Y592001D02*
D03*
X410001Y602001D02*
D03*
X415000Y612001D02*
D03*
X410001Y622001D02*
D03*
X415000Y632001D02*
D03*
Y652001D02*
D03*
X410001Y662001D02*
D03*
X415000Y672001D02*
D03*
X410001Y682001D02*
D03*
X425000Y332001D02*
D03*
X420001Y342001D02*
D03*
X425000Y352001D02*
D03*
X420001Y362001D02*
D03*
X425000Y372001D02*
D03*
Y392001D02*
D03*
X420001Y402001D02*
D03*
X425000Y412001D02*
D03*
X420001Y422001D02*
D03*
X425000Y432001D02*
D03*
X420001Y442001D02*
D03*
Y462001D02*
D03*
X425000Y472001D02*
D03*
X420001Y482001D02*
D03*
X425000Y492001D02*
D03*
X420001Y502001D02*
D03*
Y522001D02*
D03*
X425000Y532001D02*
D03*
X420001Y542001D02*
D03*
X425000Y552001D02*
D03*
X420001Y562001D02*
D03*
X425000Y572001D02*
D03*
Y592001D02*
D03*
X420001Y602001D02*
D03*
X425000Y612001D02*
D03*
X420001Y622001D02*
D03*
X425000Y632001D02*
D03*
Y652001D02*
D03*
X420001Y662001D02*
D03*
X425000Y672001D02*
D03*
X420001Y682001D02*
D03*
X435001Y332001D02*
D03*
X430001Y342001D02*
D03*
X435001Y352001D02*
D03*
X430001Y362001D02*
D03*
X435001Y372001D02*
D03*
Y392001D02*
D03*
X430001Y402001D02*
D03*
X435001Y412001D02*
D03*
X430001Y422001D02*
D03*
X435001Y432001D02*
D03*
X430001Y442001D02*
D03*
Y462001D02*
D03*
X435001Y472001D02*
D03*
X430001Y482001D02*
D03*
X435001Y492001D02*
D03*
X430001Y502001D02*
D03*
Y522001D02*
D03*
X435001Y532001D02*
D03*
X430001Y542001D02*
D03*
X435001Y552001D02*
D03*
X430001Y562001D02*
D03*
X435001Y572001D02*
D03*
Y592001D02*
D03*
X430001Y602001D02*
D03*
X435001Y612001D02*
D03*
X430001Y622001D02*
D03*
X435001Y632001D02*
D03*
Y652001D02*
D03*
X430001Y662001D02*
D03*
X435001Y672001D02*
D03*
X430001Y682001D02*
D03*
X440001Y342001D02*
D03*
Y362001D02*
D03*
X445001Y372001D02*
D03*
X440001Y402001D02*
D03*
Y422001D02*
D03*
X445001Y432001D02*
D03*
X440001Y442001D02*
D03*
X445001Y472001D02*
D03*
Y492001D02*
D03*
X440001Y502001D02*
D03*
Y562001D02*
D03*
X445001Y572001D02*
D03*
X440001Y602001D02*
D03*
Y622001D02*
D03*
X445001Y632001D02*
D03*
X440001Y662001D02*
D03*
Y682001D02*
D03*
X450001Y342001D02*
D03*
Y362001D02*
D03*
X455001Y372001D02*
D03*
Y432001D02*
D03*
X450001Y442001D02*
D03*
X455001Y492001D02*
D03*
X450001Y502001D02*
D03*
Y562001D02*
D03*
Y602001D02*
D03*
Y622001D02*
D03*
X455001Y632001D02*
D03*
X460001Y362001D02*
D03*
X465001Y492001D02*
D03*
Y512001D02*
D03*
X460001Y562001D02*
D03*
Y622001D02*
D03*
X475001Y372001D02*
D03*
X470001Y382001D02*
D03*
Y442001D02*
D03*
X475001Y512001D02*
D03*
Y572001D02*
D03*
Y632001D02*
D03*
X470001Y642001D02*
D03*
X480001Y362001D02*
D03*
X485001Y372001D02*
D03*
X480001Y382001D02*
D03*
X485001Y432001D02*
D03*
X480001Y442001D02*
D03*
X485001Y452001D02*
D03*
Y492001D02*
D03*
X480001Y502001D02*
D03*
X485001Y512001D02*
D03*
X480001Y562001D02*
D03*
X485001Y572001D02*
D03*
X480001Y622001D02*
D03*
X485001Y632001D02*
D03*
X480001Y642001D02*
D03*
X490001Y342001D02*
D03*
Y362001D02*
D03*
X495001Y372001D02*
D03*
X490001Y382001D02*
D03*
X495001Y432001D02*
D03*
X490001Y442001D02*
D03*
X495001Y452001D02*
D03*
Y472001D02*
D03*
Y492001D02*
D03*
X490001Y502001D02*
D03*
X495001Y512001D02*
D03*
X490001Y562001D02*
D03*
X495001Y572001D02*
D03*
X490001Y582001D02*
D03*
Y602001D02*
D03*
Y622001D02*
D03*
X495001Y632001D02*
D03*
X490001Y642001D02*
D03*
X162000Y471000D02*
D03*
X172000D02*
D03*
X162000Y536000D02*
D03*
X172000D02*
D03*
X162000Y602000D02*
D03*
X163000Y665000D02*
D03*
X172000D02*
D03*
X163000Y405000D02*
D03*
X171987Y405103D02*
D03*
X163000Y342000D02*
D03*
X731000Y634000D02*
D03*
X763000Y618000D02*
D03*
X762788Y622788D02*
D03*
X60000Y10000D02*
D03*
X80000D02*
D03*
X120000D02*
D03*
X100000D02*
D03*
X160000D02*
D03*
X140000D02*
D03*
X260000D02*
D03*
X280000D02*
D03*
X220000D02*
D03*
X240000D02*
D03*
X200000D02*
D03*
X180000D02*
D03*
X40000D02*
D03*
X10000Y30000D02*
D03*
Y290000D02*
D03*
Y310000D02*
D03*
Y330000D02*
D03*
Y160000D02*
D03*
Y180000D02*
D03*
Y220000D02*
D03*
Y200000D02*
D03*
Y260000D02*
D03*
Y240000D02*
D03*
Y120000D02*
D03*
Y140000D02*
D03*
Y80000D02*
D03*
Y100000D02*
D03*
Y60000D02*
D03*
Y40000D02*
D03*
Y470000D02*
D03*
Y490000D02*
D03*
Y530000D02*
D03*
Y510000D02*
D03*
Y570000D02*
D03*
Y550000D02*
D03*
Y430000D02*
D03*
Y450000D02*
D03*
Y390000D02*
D03*
Y410000D02*
D03*
Y370000D02*
D03*
Y350000D02*
D03*
Y590000D02*
D03*
Y630000D02*
D03*
Y610000D02*
D03*
X320000Y10000D02*
D03*
X580000D02*
D03*
X300000D02*
D03*
X740000D02*
D03*
X380000D02*
D03*
X340000D02*
D03*
X440000D02*
D03*
X680000D02*
D03*
X540000D02*
D03*
X640000D02*
D03*
X700000D02*
D03*
X620000D02*
D03*
X460000D02*
D03*
X600000D02*
D03*
X560000D02*
D03*
X660000D02*
D03*
X400000D02*
D03*
X420000D02*
D03*
X480000D02*
D03*
X760000D02*
D03*
X500000D02*
D03*
X520000D02*
D03*
X720000D02*
D03*
X360000D02*
D03*
X780000D02*
D03*
X10000Y690000D02*
D03*
Y710000D02*
D03*
Y670000D02*
D03*
Y650000D02*
D03*
Y770000D02*
D03*
Y750000D02*
D03*
Y730000D02*
D03*
X770000Y790000D02*
D03*
X780000D02*
D03*
X790000D02*
D03*
X360000D02*
D03*
X720000D02*
D03*
X520000D02*
D03*
X500000D02*
D03*
X760000D02*
D03*
X480000D02*
D03*
X420000D02*
D03*
X400000D02*
D03*
X660000D02*
D03*
X560000D02*
D03*
X600000D02*
D03*
X460000D02*
D03*
X620000D02*
D03*
X700000D02*
D03*
X640000D02*
D03*
X540000D02*
D03*
X680000D02*
D03*
X440000D02*
D03*
X340000D02*
D03*
X380000D02*
D03*
X740000D02*
D03*
X300000D02*
D03*
X580000D02*
D03*
X320000D02*
D03*
X30000D02*
D03*
X180000D02*
D03*
X200000D02*
D03*
X240000D02*
D03*
X220000D02*
D03*
X280000D02*
D03*
X260000D02*
D03*
X140000D02*
D03*
X160000D02*
D03*
X100000D02*
D03*
X120000D02*
D03*
X80000D02*
D03*
X60000D02*
D03*
X810000Y730000D02*
D03*
Y750000D02*
D03*
Y770000D02*
D03*
Y650000D02*
D03*
Y670000D02*
D03*
Y710000D02*
D03*
Y690000D02*
D03*
Y610000D02*
D03*
Y630000D02*
D03*
Y590000D02*
D03*
Y350000D02*
D03*
Y370000D02*
D03*
Y410000D02*
D03*
Y390000D02*
D03*
Y450000D02*
D03*
Y430000D02*
D03*
Y550000D02*
D03*
Y570000D02*
D03*
Y510000D02*
D03*
Y530000D02*
D03*
Y490000D02*
D03*
Y470000D02*
D03*
Y40000D02*
D03*
Y60000D02*
D03*
Y100000D02*
D03*
Y80000D02*
D03*
Y140000D02*
D03*
Y120000D02*
D03*
Y240000D02*
D03*
Y260000D02*
D03*
Y200000D02*
D03*
Y220000D02*
D03*
Y180000D02*
D03*
Y160000D02*
D03*
Y330000D02*
D03*
Y310000D02*
D03*
Y290000D02*
D03*
Y30000D02*
D03*
Y760000D02*
D03*
X40000Y790000D02*
D03*
X10000Y760000D02*
D03*
X50000Y790000D02*
D03*
X30000Y10000D02*
D03*
X50000D02*
D03*
X350000D02*
D03*
X510000D02*
D03*
X490000D02*
D03*
X470000D02*
D03*
X410000D02*
D03*
X390000D02*
D03*
X550000D02*
D03*
X450000D02*
D03*
X530000D02*
D03*
X430000D02*
D03*
X330000D02*
D03*
X370000D02*
D03*
X290000D02*
D03*
X310000D02*
D03*
X170000D02*
D03*
X190000D02*
D03*
X230000D02*
D03*
X210000D02*
D03*
X270000D02*
D03*
X250000D02*
D03*
X130000D02*
D03*
X150000D02*
D03*
X90000D02*
D03*
X110000D02*
D03*
X70000D02*
D03*
X710000D02*
D03*
X750000D02*
D03*
X650000D02*
D03*
X590000D02*
D03*
X610000D02*
D03*
X690000D02*
D03*
X630000D02*
D03*
X670000D02*
D03*
X730000D02*
D03*
X570000D02*
D03*
X710000Y790000D02*
D03*
X750000D02*
D03*
X650000D02*
D03*
X590000D02*
D03*
X610000D02*
D03*
X690000D02*
D03*
X630000D02*
D03*
X670000D02*
D03*
X730000D02*
D03*
X570000D02*
D03*
X510000D02*
D03*
X550000D02*
D03*
X450000D02*
D03*
X390000D02*
D03*
X410000D02*
D03*
X490000D02*
D03*
X430000D02*
D03*
X470000D02*
D03*
X530000D02*
D03*
X370000D02*
D03*
X310000D02*
D03*
X350000D02*
D03*
X250000D02*
D03*
X190000D02*
D03*
X210000D02*
D03*
X290000D02*
D03*
X230000D02*
D03*
X270000D02*
D03*
X330000D02*
D03*
X170000D02*
D03*
X150000D02*
D03*
X130000D02*
D03*
X110000D02*
D03*
X90000D02*
D03*
X70000D02*
D03*
X10000Y740000D02*
D03*
Y660000D02*
D03*
Y680000D02*
D03*
Y720000D02*
D03*
Y700000D02*
D03*
Y620000D02*
D03*
Y640000D02*
D03*
Y600000D02*
D03*
Y360000D02*
D03*
Y380000D02*
D03*
Y420000D02*
D03*
Y400000D02*
D03*
Y460000D02*
D03*
Y440000D02*
D03*
Y560000D02*
D03*
Y580000D02*
D03*
Y520000D02*
D03*
Y540000D02*
D03*
Y500000D02*
D03*
Y480000D02*
D03*
Y70000D02*
D03*
Y110000D02*
D03*
Y90000D02*
D03*
Y150000D02*
D03*
Y130000D02*
D03*
Y250000D02*
D03*
Y270000D02*
D03*
Y210000D02*
D03*
Y230000D02*
D03*
Y190000D02*
D03*
Y170000D02*
D03*
Y340000D02*
D03*
Y320000D02*
D03*
Y300000D02*
D03*
X810000Y740000D02*
D03*
Y660000D02*
D03*
Y680000D02*
D03*
Y720000D02*
D03*
Y700000D02*
D03*
Y620000D02*
D03*
Y640000D02*
D03*
Y600000D02*
D03*
Y360000D02*
D03*
Y380000D02*
D03*
Y420000D02*
D03*
Y400000D02*
D03*
Y460000D02*
D03*
Y440000D02*
D03*
Y560000D02*
D03*
Y580000D02*
D03*
Y520000D02*
D03*
Y540000D02*
D03*
Y500000D02*
D03*
Y480000D02*
D03*
Y70000D02*
D03*
Y110000D02*
D03*
Y90000D02*
D03*
Y150000D02*
D03*
Y130000D02*
D03*
Y250000D02*
D03*
Y270000D02*
D03*
Y210000D02*
D03*
Y230000D02*
D03*
Y190000D02*
D03*
Y170000D02*
D03*
Y340000D02*
D03*
Y320000D02*
D03*
Y300000D02*
D03*
X713000Y485250D02*
D03*
X764000Y553500D02*
D03*
X733889Y458111D02*
D03*
X754000Y748000D02*
D03*
X125939Y713817D02*
D03*
X112983Y710565D02*
D03*
X139000Y722000D02*
D03*
X99968Y705664D02*
D03*
X612000Y763000D02*
D03*
X646000Y748000D02*
D03*
X644000Y729000D02*
D03*
X558000Y450000D02*
D03*
X561000Y454000D02*
D03*
X525000Y411000D02*
D03*
X520000Y408000D02*
D03*
X518000Y305500D02*
D03*
X292000Y91000D02*
D03*
X294000Y77000D02*
D03*
X156000Y220000D02*
D03*
X237000Y219000D02*
D03*
X309000Y211000D02*
D03*
X343000Y194000D02*
D03*
X337000D02*
D03*
X343000Y199000D02*
D03*
X337000D02*
D03*
X25001Y662569D02*
D03*
X31001D02*
D03*
X25001Y656569D02*
D03*
X31001D02*
D03*
X25001Y554569D02*
D03*
X31001D02*
D03*
X25001Y548569D02*
D03*
X31001D02*
D03*
Y372569D02*
D03*
X25001D02*
D03*
Y366569D02*
D03*
X31001D02*
D03*
X29000Y300000D02*
D03*
X36000D02*
D03*
Y306000D02*
D03*
X29000D02*
D03*
X22000Y300000D02*
D03*
Y306000D02*
D03*
X89000Y295000D02*
D03*
Y301000D02*
D03*
Y308000D02*
D03*
X95000Y295000D02*
D03*
Y301000D02*
D03*
Y308000D02*
D03*
X54000Y611000D02*
D03*
Y502000D02*
D03*
Y320000D02*
D03*
X94000Y409000D02*
D03*
X92000Y701000D02*
D03*
X93000Y590000D02*
D03*
X487000Y111000D02*
D03*
Y117000D02*
D03*
X493000Y111000D02*
D03*
Y117000D02*
D03*
X579000Y51000D02*
D03*
X586000D02*
D03*
Y58000D02*
D03*
X579000D02*
D03*
Y65000D02*
D03*
X586000D02*
D03*
X605000Y407000D02*
D03*
X604000Y633000D02*
D03*
X777000Y641000D02*
D03*
X771000Y629000D02*
D03*
X762000Y673000D02*
D03*
Y667000D02*
D03*
X745000Y438000D02*
D03*
X183000Y168000D02*
D03*
X55000Y133000D02*
D03*
X267000Y144000D02*
D03*
Y135000D02*
D03*
X260000Y128000D02*
D03*
X253000Y110000D02*
D03*
X243000Y117000D02*
D03*
X281000Y171000D02*
D03*
X360000Y244000D02*
D03*
Y250000D02*
D03*
X354000Y244000D02*
D03*
Y250000D02*
D03*
X735000Y225000D02*
D03*
X527968Y356700D02*
D03*
X528000Y351000D02*
D03*
X522000Y707000D02*
D03*
Y713000D02*
D03*
X470432Y90568D02*
D03*
Y96568D02*
D03*
X464432D02*
D03*
Y90568D02*
D03*
X488568Y225000D02*
D03*
X494568D02*
D03*
X608000Y51000D02*
D03*
Y63000D02*
D03*
Y57000D02*
D03*
X611000Y216432D02*
D03*
Y222432D02*
D03*
X615000Y51000D02*
D03*
Y57000D02*
D03*
X617000Y222432D02*
D03*
Y216432D02*
D03*
X488568Y231000D02*
D03*
X494568D02*
D03*
X68000Y130000D02*
D03*
X78000Y151000D02*
D03*
X87000Y140000D02*
D03*
X300000Y153000D02*
D03*
X305000Y165250D02*
D03*
X333000Y121000D02*
D03*
X343000Y123000D02*
D03*
X28000Y186000D02*
D03*
X60000Y244999D02*
D03*
X99000Y245000D02*
D03*
X116000D02*
D03*
X304722Y171750D02*
D03*
X305000Y242000D02*
D03*
X708000Y97000D02*
D03*
Y103000D02*
D03*
X715000D02*
D03*
Y97000D02*
D03*
X722000D02*
D03*
Y103000D02*
D03*
X729000D02*
D03*
Y97000D02*
D03*
X724030Y762021D02*
D03*
X526143Y638959D02*
D03*
X520884Y638951D02*
D03*
X523000Y454625D02*
D03*
X529000D02*
D03*
X771863Y730803D02*
D03*
X772399Y739846D02*
D03*
X771000Y722000D02*
D03*
X764000Y548000D02*
D03*
Y573500D02*
D03*
Y579000D02*
D03*
Y598500D02*
D03*
Y604000D02*
D03*
X731000Y665000D02*
D03*
X705044Y767000D02*
D03*
X524000Y433000D02*
D03*
X538000Y566100D02*
D03*
X532000Y565000D02*
D03*
X730000Y462000D02*
D03*
X746000Y509028D02*
D03*
X572581Y727931D02*
D03*
X583000Y733000D02*
D03*
X548000Y746000D02*
D03*
X622700Y417200D02*
D03*
X691000Y710000D02*
D03*
X758000Y409000D02*
D03*
X621700Y408200D02*
D03*
X691000Y717000D02*
D03*
X758000Y403000D02*
D03*
X612984Y537516D02*
D03*
X726000Y717000D02*
D03*
X614700Y554200D02*
D03*
X726000Y710000D02*
D03*
X620700Y649200D02*
D03*
X723000Y731000D02*
D03*
X620664Y638736D02*
D03*
X722000Y741000D02*
D03*
X621700Y307200D02*
D03*
X691000Y303000D02*
D03*
X698000Y723000D02*
D03*
X615671Y303054D02*
D03*
X689000Y295000D02*
D03*
X704000Y742000D02*
D03*
X641700Y656200D02*
D03*
X614000Y697075D02*
D03*
X582984Y657516D02*
D03*
X672136Y648923D02*
D03*
X572984Y707484D02*
D03*
X663016Y717516D02*
D03*
X583016Y607516D02*
D03*
X632984Y327516D02*
D03*
X652984Y377484D02*
D03*
X696450Y492950D02*
D03*
X613858Y476642D02*
D03*
X677700Y471700D02*
D03*
X643016Y437516D02*
D03*
X675700Y426200D02*
D03*
X602054Y436619D02*
D03*
X572984Y387516D02*
D03*
X582984Y317484D02*
D03*
X662984Y327516D02*
D03*
X582984Y547516D02*
D03*
X632984D02*
D03*
X652984Y597484D02*
D03*
X688200Y531200D02*
D03*
X730700Y611200D02*
D03*
X563700Y497200D02*
D03*
X554700Y337700D02*
D03*
X553700Y727200D02*
D03*
X617700Y296200D02*
D03*
X704450Y429200D02*
D03*
X562148Y592749D02*
D03*
X735000Y250000D02*
D03*
X734875Y207125D02*
D03*
X735000Y237500D02*
D03*
Y262500D02*
D03*
X733000Y278500D02*
D03*
X705000Y668000D02*
D03*
X717700Y370200D02*
D03*
X591000Y746000D02*
D03*
X730000Y513000D02*
D03*
X728000Y503000D02*
D03*
X719000Y502000D02*
D03*
X558700Y444200D02*
D03*
X537368Y543200D02*
D03*
Y549200D02*
D03*
X543368D02*
D03*
Y543200D02*
D03*
X69000Y388000D02*
D03*
X68000Y332000D02*
D03*
X87000Y318000D02*
D03*
Y374000D02*
D03*
X69000Y570000D02*
D03*
X68000Y514000D02*
D03*
X87000Y500000D02*
D03*
Y556000D02*
D03*
Y608000D02*
D03*
X68000Y622000D02*
D03*
X69000Y678000D02*
D03*
X727889Y446889D02*
D03*
X724000Y443000D02*
D03*
X722000Y474000D02*
D03*
X725889Y470111D02*
D03*
X558700Y342200D02*
D03*
X711000Y546000D02*
D03*
X686325Y379450D02*
D03*
X704700Y635200D02*
D03*
X705700Y495200D02*
D03*
X636700Y482200D02*
D03*
Y706200D02*
D03*
X572984Y397516D02*
D03*
X705700Y502200D02*
D03*
X572984Y507516D02*
D03*
X573700Y608200D02*
D03*
X700700Y584200D02*
D03*
X697700Y593200D02*
D03*
X689700Y690200D02*
D03*
X558700Y581200D02*
D03*
X721870Y634522D02*
D03*
X715700Y634200D02*
D03*
X746200Y372700D02*
D03*
X732700Y404200D02*
D03*
X613897Y726554D02*
D03*
X602103Y708446D02*
D03*
X602700Y332200D02*
D03*
X684700Y425200D02*
D03*
X693700Y531200D02*
D03*
X652984Y637484D02*
D03*
X582984Y647516D02*
D03*
X673016Y657484D02*
D03*
X653016Y537516D02*
D03*
X602984Y527484D02*
D03*
X582984Y537516D02*
D03*
X648134Y416827D02*
D03*
X673016Y327484D02*
D03*
X652984Y307484D02*
D03*
X582984D02*
D03*
X602984D02*
D03*
X603946Y718397D02*
D03*
X622054Y716603D02*
D03*
X593946Y718397D02*
D03*
X612054Y716603D02*
D03*
X139000Y369000D02*
D03*
X126000Y362000D02*
D03*
X113000Y356000D02*
D03*
X100000Y349000D02*
D03*
X126190Y440947D02*
D03*
X100045Y431664D02*
D03*
X113061Y436565D02*
D03*
X139078Y448000D02*
D03*
X100285Y527342D02*
D03*
X113300Y532243D02*
D03*
X126256Y535495D02*
D03*
X139317Y543678D02*
D03*
X100285Y583730D02*
D03*
X113300Y588631D02*
D03*
X126256Y591883D02*
D03*
X139317Y600066D02*
D03*
X100285Y635342D02*
D03*
X113300Y640243D02*
D03*
X126256Y643495D02*
D03*
X139317Y651678D02*
D03*
X650700Y687200D02*
D03*
Y679200D02*
D03*
X646700Y667200D02*
D03*
X641700Y663200D02*
D03*
X646700Y699200D02*
D03*
X641700Y703200D02*
D03*
X602103Y488446D02*
D03*
X603946Y498397D02*
D03*
X612054Y496603D02*
D03*
X613897Y506554D02*
D03*
X622054Y496603D02*
D03*
X593946Y498397D02*
D03*
X663506Y456758D02*
D03*
X663955Y467172D02*
D03*
X694700Y479200D02*
D03*
X685700Y477200D02*
D03*
X689700Y436950D02*
D03*
X679700Y439200D02*
D03*
X572984Y307484D02*
D03*
X562984Y317484D02*
D03*
X602984Y427484D02*
D03*
X572984Y427516D02*
D03*
X562984Y387516D02*
D03*
X653016D02*
D03*
X602984Y317484D02*
D03*
X673016Y337484D02*
D03*
X582984Y387484D02*
D03*
X593016Y377484D02*
D03*
X582984Y507516D02*
D03*
X572984Y537516D02*
D03*
X602984Y537484D02*
D03*
X593016Y597484D02*
D03*
X652984Y607484D02*
D03*
X673016Y677516D02*
D03*
X653016Y717516D02*
D03*
X573016D02*
D03*
Y647484D02*
D03*
X602984D02*
D03*
X665700Y508200D02*
D03*
X556700Y619200D02*
D03*
X693700Y425200D02*
D03*
X702700Y531200D02*
D03*
X720700Y404200D02*
D03*
X587700Y336200D02*
D03*
X554700Y569200D02*
D03*
X559700Y426200D02*
D03*
X556700Y497200D02*
D03*
X603016Y377484D02*
D03*
X613016D02*
D03*
X623016D02*
D03*
X602700Y467200D02*
D03*
X626700Y484200D02*
D03*
X616700Y482200D02*
D03*
X602700Y457200D02*
D03*
X603016Y387484D02*
D03*
X613016D02*
D03*
X633700Y442200D02*
D03*
X623016Y387484D02*
D03*
X622700Y443200D02*
D03*
X559200Y699200D02*
D03*
X567700Y606200D02*
D03*
X622700Y663200D02*
D03*
X623016Y597484D02*
D03*
Y607484D02*
D03*
X633700Y662200D02*
D03*
X603016Y597484D02*
D03*
X602700Y687200D02*
D03*
X613016Y597484D02*
D03*
X626700Y704200D02*
D03*
X613016Y607484D02*
D03*
X616700Y702200D02*
D03*
X603016Y607484D02*
D03*
X602700Y677200D02*
D03*
D109*
X30000Y30000D02*
D03*
X430000D02*
D03*
X30000Y445000D02*
D03*
Y770000D02*
D03*
X455360D02*
D03*
X790000Y30000D02*
D03*
Y445000D02*
D03*
Y770000D02*
D03*
M02*
