G04*
G04 #@! TF.GenerationSoftware,Altium Limited,Altium Designer,26.4.1 (12)*
G04*
G04 Layer_Color=8388736*
%FSLAX44Y44*%
%MOMM*%
G71*
G04*
G04 #@! TF.SameCoordinates,591B39C8-AFFB-4739-8591-FA83B15D8AC8*
G04*
G04*
G04 #@! TF.FilePolarity,Negative*
G04*
G01*
G75*
%ADD32R,1.2696X1.3462*%
%ADD33R,1.0500X1.0500*%
%ADD37R,1.3462X1.2696*%
%ADD40R,0.9000X0.9500*%
%ADD41R,0.9500X0.9000*%
G04:AMPARAMS|DCode=45|XSize=1.1mm|YSize=0.6mm|CornerRadius=0.05mm|HoleSize=0mm|Usage=FLASHONLY|Rotation=90.000|XOffset=0mm|YOffset=0mm|HoleType=Round|Shape=RoundedRectangle|*
%AMROUNDEDRECTD45*
21,1,1.1000,0.5000,0,0,90.0*
21,1,1.0000,0.6000,0,0,90.0*
1,1,0.1000,0.2500,0.5000*
1,1,0.1000,0.2500,-0.5000*
1,1,0.1000,-0.2500,-0.5000*
1,1,0.1000,-0.2500,0.5000*
%
%ADD45ROUNDEDRECTD45*%
G04:AMPARAMS|DCode=47|XSize=0.975mm|YSize=1.7mm|CornerRadius=0.05mm|HoleSize=0mm|Usage=FLASHONLY|Rotation=90.000|XOffset=0mm|YOffset=0mm|HoleType=Round|Shape=RoundedRectangle|*
%AMROUNDEDRECTD47*
21,1,0.9750,1.6000,0,0,90.0*
21,1,0.8750,1.7000,0,0,90.0*
1,1,0.1000,0.8000,0.4375*
1,1,0.1000,0.8000,-0.4375*
1,1,0.1000,-0.8000,-0.4375*
1,1,0.1000,-0.8000,0.4375*
%
%ADD47ROUNDEDRECTD47*%
%ADD49R,0.6000X1.1000*%
%ADD51C,0.2000*%
%ADD53R,1.1000X0.6000*%
%ADD54R,0.6096X0.1778*%
%ADD55R,1.4478X1.4478*%
%ADD56R,0.1778X0.6096*%
G04:AMPARAMS|DCode=62|XSize=1.5mm|YSize=0.4mm|CornerRadius=0.1mm|HoleSize=0mm|Usage=FLASHONLY|Rotation=0.000|XOffset=0mm|YOffset=0mm|HoleType=Round|Shape=RoundedRectangle|*
%AMROUNDEDRECTD62*
21,1,1.5000,0.2000,0,0,0.0*
21,1,1.3000,0.4000,0,0,0.0*
1,1,0.2000,0.6500,-0.1000*
1,1,0.2000,-0.6500,-0.1000*
1,1,0.2000,-0.6500,0.1000*
1,1,0.2000,0.6500,0.1000*
%
%ADD62ROUNDEDRECTD62*%
%ADD65R,0.7325X2.4455*%
%ADD66R,3.2725X2.4455*%
%ADD67C,1.7032*%
%ADD68R,1.0032X0.9032*%
%ADD69R,1.0032X0.9032*%
%ADD70R,0.5100X1.6600*%
%ADD71R,0.9032X1.0032*%
%ADD72R,0.9032X1.0032*%
%ADD73R,1.9000X0.4500*%
%ADD74O,1.4000X0.4500*%
%ADD75R,0.8032X1.2032*%
%ADD76R,2.4622X1.9796*%
%ADD77R,1.9796X2.4622*%
%ADD78R,2.4892X2.5032*%
%ADD79O,2.0032X0.8032*%
%ADD80R,2.5032X3.0032*%
%ADD81R,1.1032X1.1532*%
%ADD82R,1.1532X1.1032*%
%ADD83C,0.8000*%
%ADD84R,0.8532X1.0532*%
G04:AMPARAMS|DCode=85|XSize=1.3032mm|YSize=1.2032mm|CornerRadius=0.3516mm|HoleSize=0mm|Usage=FLASHONLY|Rotation=0.000|XOffset=0mm|YOffset=0mm|HoleType=Round|Shape=RoundedRectangle|*
%AMROUNDEDRECTD85*
21,1,1.3032,0.5000,0,0,0.0*
21,1,0.6000,1.2032,0,0,0.0*
1,1,0.7032,0.3000,-0.2500*
1,1,0.7032,-0.3000,-0.2500*
1,1,0.7032,-0.3000,0.2500*
1,1,0.7032,0.3000,0.2500*
%
%ADD85ROUNDEDRECTD85*%
G04:AMPARAMS|DCode=86|XSize=0.75mm|YSize=0.7mm|CornerRadius=0.2mm|HoleSize=0mm|Usage=FLASHONLY|Rotation=90.000|XOffset=0mm|YOffset=0mm|HoleType=Round|Shape=RoundedRectangle|*
%AMROUNDEDRECTD86*
21,1,0.7500,0.3000,0,0,90.0*
21,1,0.3500,0.7000,0,0,90.0*
1,1,0.4000,0.1500,0.1750*
1,1,0.4000,0.1500,-0.1750*
1,1,0.4000,-0.1500,-0.1750*
1,1,0.4000,-0.1500,0.1750*
%
%ADD86ROUNDEDRECTD86*%
G04:AMPARAMS|DCode=87|XSize=1.3032mm|YSize=1.2032mm|CornerRadius=0.3516mm|HoleSize=0mm|Usage=FLASHONLY|Rotation=270.000|XOffset=0mm|YOffset=0mm|HoleType=Round|Shape=RoundedRectangle|*
%AMROUNDEDRECTD87*
21,1,1.3032,0.5000,0,0,270.0*
21,1,0.6000,1.2032,0,0,270.0*
1,1,0.7032,-0.2500,-0.3000*
1,1,0.7032,-0.2500,0.3000*
1,1,0.7032,0.2500,0.3000*
1,1,0.7032,0.2500,-0.3000*
%
%ADD87ROUNDEDRECTD87*%
G04:AMPARAMS|DCode=88|XSize=0.5032mm|YSize=0.8632mm|CornerRadius=0.1766mm|HoleSize=0mm|Usage=FLASHONLY|Rotation=90.000|XOffset=0mm|YOffset=0mm|HoleType=Round|Shape=RoundedRectangle|*
%AMROUNDEDRECTD88*
21,1,0.5032,0.5100,0,0,90.0*
21,1,0.1500,0.8632,0,0,90.0*
1,1,0.3532,0.2550,0.0750*
1,1,0.3532,0.2550,-0.0750*
1,1,0.3532,-0.2550,-0.0750*
1,1,0.3532,-0.2550,0.0750*
%
%ADD88ROUNDEDRECTD88*%
G04:AMPARAMS|DCode=89|XSize=0.75mm|YSize=0.7mm|CornerRadius=0.2mm|HoleSize=0mm|Usage=FLASHONLY|Rotation=0.000|XOffset=0mm|YOffset=0mm|HoleType=Round|Shape=RoundedRectangle|*
%AMROUNDEDRECTD89*
21,1,0.7500,0.3000,0,0,0.0*
21,1,0.3500,0.7000,0,0,0.0*
1,1,0.4000,0.1750,-0.1500*
1,1,0.4000,-0.1750,-0.1500*
1,1,0.4000,-0.1750,0.1500*
1,1,0.4000,0.1750,0.1500*
%
%ADD89ROUNDEDRECTD89*%
G04:AMPARAMS|DCode=90|XSize=0.5032mm|YSize=0.8632mm|CornerRadius=0.1766mm|HoleSize=0mm|Usage=FLASHONLY|Rotation=0.000|XOffset=0mm|YOffset=0mm|HoleType=Round|Shape=RoundedRectangle|*
%AMROUNDEDRECTD90*
21,1,0.5032,0.5100,0,0,0.0*
21,1,0.1500,0.8632,0,0,0.0*
1,1,0.3532,0.0750,-0.2550*
1,1,0.3532,-0.0750,-0.2550*
1,1,0.3532,-0.0750,0.2550*
1,1,0.3532,0.0750,0.2550*
%
%ADD90ROUNDEDRECTD90*%
%ADD91R,1.9050X1.0160*%
G04:AMPARAMS|DCode=92|XSize=1.1532mm|YSize=1.0532mm|CornerRadius=0.3141mm|HoleSize=0mm|Usage=FLASHONLY|Rotation=90.000|XOffset=0mm|YOffset=0mm|HoleType=Round|Shape=RoundedRectangle|*
%AMROUNDEDRECTD92*
21,1,1.1532,0.4250,0,0,90.0*
21,1,0.5250,1.0532,0,0,90.0*
1,1,0.6282,0.2125,0.2625*
1,1,0.6282,0.2125,-0.2625*
1,1,0.6282,-0.2125,-0.2625*
1,1,0.6282,-0.2125,0.2625*
%
%ADD92ROUNDEDRECTD92*%
G04:AMPARAMS|DCode=93|XSize=1.7032mm|YSize=0.6532mm|CornerRadius=0.2141mm|HoleSize=0mm|Usage=FLASHONLY|Rotation=0.000|XOffset=0mm|YOffset=0mm|HoleType=Round|Shape=RoundedRectangle|*
%AMROUNDEDRECTD93*
21,1,1.7032,0.2250,0,0,0.0*
21,1,1.2750,0.6532,0,0,0.0*
1,1,0.4282,0.6375,-0.1125*
1,1,0.4282,-0.6375,-0.1125*
1,1,0.4282,-0.6375,0.1125*
1,1,0.4282,0.6375,0.1125*
%
%ADD93ROUNDEDRECTD93*%
%ADD94R,3.1524X2.2524*%
%ADD95R,1.7524X0.9524*%
%ADD96R,3.3020X2.4130*%
%ADD97R,3.3532X3.5032*%
%ADD98R,34.4000X36.4000*%
%ADD99C,5.2032*%
G36*
X797009Y794024D02*
X801631Y792109D01*
X805792Y789330D01*
X809330Y785792D01*
X812109Y781631D01*
X814024Y777009D01*
X815000Y772102D01*
X815000Y769600D01*
X815000Y150000D01*
D01*
Y30400D01*
X815000Y30400D01*
Y27898D01*
X814024Y22991D01*
X812109Y18369D01*
X809329Y14208D01*
X805791Y10670D01*
X801631Y7891D01*
X797009Y5976D01*
X792102Y5000D01*
X789600Y5000D01*
X30000Y5000D01*
X30400D01*
X27924Y5000D01*
X23064Y5957D01*
X18480Y7834D01*
X14346Y10561D01*
X10816Y14036D01*
X8024Y18127D01*
X6075Y22680D01*
X5042Y27524D01*
X5003Y30000D01*
X5001Y120400D01*
X5000D01*
Y769600D01*
Y772102D01*
X5976Y777009D01*
X7891Y781631D01*
X10670Y785791D01*
X14208Y789329D01*
X18369Y792109D01*
X22991Y794024D01*
X27898Y795000D01*
X30400Y795000D01*
X789600Y795000D01*
X789600Y795000D01*
X792102Y795000D01*
X797009Y794024D01*
D02*
G37*
%LPC*%
G36*
X30000Y785000D02*
X30000Y785000D01*
X28602Y784743D01*
X25890Y783896D01*
X23349Y782625D01*
X21045Y780964D01*
X19036Y778955D01*
X17375Y776651D01*
X16104Y774110D01*
X15257Y771398D01*
X15000Y770000D01*
X15000Y140000D01*
D01*
Y30000D01*
X15000Y30000D01*
X15257Y28602D01*
X16104Y25890D01*
X17375Y23349D01*
X19036Y21045D01*
X21045Y19036D01*
X23349Y17375D01*
X25890Y16104D01*
X28602Y15257D01*
X30000Y15000D01*
X790000D01*
X791398Y15257D01*
X794110Y16104D01*
X796651Y17375D01*
X798956Y19036D01*
X800964Y21044D01*
X802625Y23349D01*
X803896Y25890D01*
X804743Y28602D01*
X805000Y30000D01*
X805000Y133628D01*
X805000Y133628D01*
X805000Y770000D01*
X805000Y770000D01*
X804743Y771398D01*
X803895Y774110D01*
X802625Y776651D01*
X800964Y778955D01*
X798955Y780964D01*
X796651Y782625D01*
X794110Y783895D01*
X791398Y784743D01*
X790000Y785000D01*
X30000Y785000D01*
D02*
G37*
%LPD*%
G36*
X401118Y105766D02*
X401151D01*
X401184Y105762D01*
X401217Y105759D01*
X401250Y105753D01*
X401283Y105749D01*
X401693Y105667D01*
X401726Y105658D01*
X401758Y105652D01*
X401790Y105641D01*
X401822Y105632D01*
X401853Y105620D01*
X401884Y105609D01*
X402271Y105449D01*
X402301Y105434D01*
X402332Y105421D01*
X402361Y105405D01*
X402391Y105390D01*
X402418Y105371D01*
X402447Y105355D01*
X402795Y105122D01*
X402822Y105102D01*
X402849Y105083D01*
X402874Y105062D01*
X402901Y105041D01*
X402925Y105017D01*
X402950Y104995D01*
X403246Y104700D01*
X403268Y104674D01*
X403291Y104651D01*
X403311Y104625D01*
X403333Y104599D01*
X403352Y104572D01*
X403372Y104545D01*
X403605Y104197D01*
X403621Y104168D01*
X403640Y104141D01*
X403655Y104111D01*
X403671Y104082D01*
X403684Y104051D01*
X403699Y104021D01*
X403859Y103635D01*
X403870Y103603D01*
X403882Y103572D01*
X403891Y103540D01*
X403902Y103508D01*
X403908Y103476D01*
X403917Y103443D01*
X403999Y103033D01*
X404003Y103000D01*
X404010Y102967D01*
X404012Y102934D01*
X404016Y102901D01*
Y102868D01*
X404018Y102834D01*
Y102625D01*
Y97375D01*
Y97166D01*
X404016Y97132D01*
Y97099D01*
X404012Y97066D01*
X404010Y97033D01*
X404003Y97000D01*
X403999Y96967D01*
X403917Y96557D01*
X403908Y96524D01*
X403902Y96492D01*
X403891Y96460D01*
X403882Y96428D01*
X403870Y96397D01*
X403859Y96366D01*
X403699Y95979D01*
X403684Y95949D01*
X403671Y95918D01*
X403655Y95889D01*
X403640Y95859D01*
X403621Y95832D01*
X403605Y95803D01*
X403372Y95455D01*
X403352Y95428D01*
X403333Y95401D01*
X403312Y95376D01*
X403291Y95349D01*
X403267Y95325D01*
X403246Y95300D01*
X402950Y95005D01*
X402924Y94982D01*
X402901Y94959D01*
X402875Y94939D01*
X402849Y94917D01*
X402822Y94898D01*
X402795Y94878D01*
X402447Y94645D01*
X402418Y94629D01*
X402391Y94610D01*
X402361Y94595D01*
X402332Y94579D01*
X402301Y94566D01*
X402271Y94551D01*
X401884Y94391D01*
X401853Y94380D01*
X401822Y94368D01*
X401790Y94359D01*
X401758Y94348D01*
X401726Y94342D01*
X401693Y94333D01*
X401283Y94251D01*
X401250Y94247D01*
X401217Y94241D01*
X401184Y94238D01*
X401151Y94234D01*
X401118D01*
X401084Y94232D01*
X394444D01*
X394442Y94232D01*
X394440Y94232D01*
X394374Y94236D01*
X394311Y94241D01*
X394309Y94241D01*
X394307Y94241D01*
X394243Y94254D01*
X394180Y94267D01*
X394179Y94267D01*
X394177Y94268D01*
X394115Y94289D01*
X394054Y94309D01*
X394053Y94310D01*
X394051Y94311D01*
X393991Y94341D01*
X393935Y94368D01*
X393933Y94369D01*
X393931Y94370D01*
X393876Y94407D01*
X393824Y94442D01*
X393823Y94444D01*
X393821Y94445D01*
X393771Y94488D01*
X393724Y94530D01*
X393723Y94531D01*
X393721Y94533D01*
X392967Y95292D01*
X392970Y95250D01*
X392961Y95117D01*
X392935Y94986D01*
X392893Y94860D01*
X392834Y94741D01*
X392760Y94630D01*
X392672Y94530D01*
X392572Y94442D01*
X392461Y94368D01*
X392342Y94309D01*
X392215Y94267D01*
X392085Y94241D01*
X391952Y94232D01*
X381255Y94232D01*
X381046D01*
X381012Y94234D01*
X380979D01*
X380946Y94238D01*
X380913Y94241D01*
X380880Y94247D01*
X380847Y94251D01*
X380437Y94333D01*
X380404Y94342D01*
X380372Y94348D01*
X380340Y94359D01*
X380308Y94368D01*
X380277Y94380D01*
X380246Y94391D01*
X379859Y94551D01*
X379829Y94566D01*
X379798Y94579D01*
X379769Y94595D01*
X379739Y94610D01*
X379712Y94629D01*
X379683Y94645D01*
X379335Y94878D01*
X379308Y94898D01*
X379281Y94917D01*
X379256Y94938D01*
X379229Y94959D01*
X379205Y94983D01*
X379180Y95005D01*
X378885Y95300D01*
X378862Y95326D01*
X378839Y95349D01*
X378819Y95375D01*
X378797Y95401D01*
X378778Y95428D01*
X378758Y95455D01*
X378525Y95803D01*
X378509Y95832D01*
X378490Y95859D01*
X378475Y95889D01*
X378459Y95918D01*
X378446Y95949D01*
X378431Y95979D01*
X378271Y96365D01*
X378260Y96397D01*
X378248Y96428D01*
X378239Y96460D01*
X378228Y96492D01*
X378222Y96524D01*
X378213Y96557D01*
X378131Y96967D01*
X378127Y97000D01*
X378120Y97033D01*
X378118Y97066D01*
X378114Y97099D01*
Y97132D01*
X378112Y97166D01*
Y97375D01*
Y97375D01*
Y102625D01*
Y102834D01*
X378114Y102868D01*
Y102901D01*
X378118Y102934D01*
X378120Y102967D01*
X378127Y103000D01*
X378131Y103033D01*
X378213Y103443D01*
X378222Y103476D01*
X378228Y103508D01*
X378239Y103540D01*
X378248Y103572D01*
X378260Y103603D01*
X378271Y103634D01*
X378431Y104021D01*
X378446Y104051D01*
X378459Y104082D01*
X378475Y104111D01*
X378490Y104141D01*
X378509Y104168D01*
X378525Y104197D01*
X378758Y104545D01*
X378778Y104572D01*
X378797Y104599D01*
X378819Y104624D01*
X378839Y104651D01*
X378863Y104675D01*
X378885Y104700D01*
X379180Y104995D01*
X379206Y105018D01*
X379229Y105041D01*
X379255Y105061D01*
X379281Y105083D01*
X379308Y105102D01*
X379335Y105122D01*
X379683Y105355D01*
X379712Y105371D01*
X379739Y105390D01*
X379769Y105405D01*
X379798Y105421D01*
X379829Y105434D01*
X379859Y105449D01*
X380246Y105609D01*
X380277Y105620D01*
X380308Y105632D01*
X380340Y105641D01*
X380372Y105652D01*
X380404Y105658D01*
X380437Y105667D01*
X380847Y105749D01*
X380880Y105753D01*
X380913Y105759D01*
X380946Y105762D01*
X380979Y105766D01*
X381012D01*
X381046Y105768D01*
X391998D01*
X392131Y105759D01*
X392261Y105733D01*
X392388Y105691D01*
X392507Y105632D01*
X392618Y105558D01*
X392718Y105470D01*
X392806Y105370D01*
X392880Y105259D01*
X392939Y105140D01*
X392981Y105014D01*
X393007Y104883D01*
X393016Y104756D01*
X393721Y105467D01*
X393722Y105468D01*
X393724Y105470D01*
X393773Y105513D01*
X393821Y105555D01*
X393823Y105556D01*
X393824Y105558D01*
X393878Y105594D01*
X393931Y105630D01*
X393933Y105631D01*
X393935Y105632D01*
X393992Y105660D01*
X394051Y105689D01*
X394053Y105690D01*
X394054Y105691D01*
X394115Y105711D01*
X394177Y105732D01*
X394179Y105733D01*
X394180Y105733D01*
X394246Y105747D01*
X394307Y105759D01*
X394309Y105759D01*
X394311Y105759D01*
X394380Y105764D01*
X394440Y105768D01*
X394442Y105768D01*
X394444Y105768D01*
X401084D01*
X401118Y105766D01*
D02*
G37*
G36*
X363118D02*
X363151D01*
X363184Y105762D01*
X363217Y105759D01*
X363250Y105753D01*
X363283Y105749D01*
X363694Y105667D01*
X363726Y105658D01*
X363758Y105652D01*
X363790Y105641D01*
X363822Y105632D01*
X363853Y105620D01*
X363884Y105609D01*
X364271Y105449D01*
X364301Y105434D01*
X364332Y105421D01*
X364361Y105405D01*
X364391Y105390D01*
X364418Y105371D01*
X364447Y105355D01*
X364795Y105122D01*
X364822Y105102D01*
X364849Y105083D01*
X364874Y105062D01*
X364901Y105041D01*
X364925Y105017D01*
X364950Y104995D01*
X365246Y104700D01*
X365268Y104674D01*
X365291Y104651D01*
X365311Y104625D01*
X365333Y104599D01*
X365352Y104572D01*
X365372Y104545D01*
X365605Y104197D01*
X365621Y104168D01*
X365640Y104141D01*
X365655Y104111D01*
X365671Y104082D01*
X365684Y104051D01*
X365699Y104021D01*
X365859Y103635D01*
X365870Y103603D01*
X365882Y103572D01*
X365891Y103540D01*
X365902Y103508D01*
X365908Y103476D01*
X365917Y103443D01*
X365999Y103033D01*
X366003Y103000D01*
X366009Y102967D01*
X366012Y102934D01*
X366016Y102901D01*
Y102868D01*
X366018Y102834D01*
Y102625D01*
Y97375D01*
Y97166D01*
X366016Y97132D01*
Y97099D01*
X366012Y97066D01*
X366009Y97033D01*
X366003Y97000D01*
X365999Y96967D01*
X365917Y96557D01*
X365908Y96524D01*
X365902Y96492D01*
X365891Y96460D01*
X365882Y96428D01*
X365870Y96397D01*
X365859Y96366D01*
X365699Y95979D01*
X365684Y95949D01*
X365671Y95918D01*
X365655Y95889D01*
X365640Y95859D01*
X365621Y95832D01*
X365605Y95803D01*
X365372Y95455D01*
X365352Y95428D01*
X365333Y95401D01*
X365312Y95376D01*
X365291Y95349D01*
X365267Y95325D01*
X365246Y95300D01*
X364950Y95005D01*
X364924Y94982D01*
X364901Y94959D01*
X364875Y94939D01*
X364849Y94917D01*
X364822Y94898D01*
X364795Y94878D01*
X364447Y94645D01*
X364418Y94629D01*
X364391Y94610D01*
X364361Y94595D01*
X364332Y94579D01*
X364301Y94566D01*
X364271Y94551D01*
X363885Y94391D01*
X363853Y94380D01*
X363822Y94368D01*
X363790Y94359D01*
X363758Y94348D01*
X363726Y94342D01*
X363694Y94333D01*
X363283Y94251D01*
X363250Y94247D01*
X363217Y94241D01*
X363184Y94238D01*
X363151Y94234D01*
X363118D01*
X363084Y94232D01*
X356444D01*
X356442Y94232D01*
X356440Y94232D01*
X356373Y94236D01*
X356311Y94241D01*
X356309Y94241D01*
X356307Y94241D01*
X356243Y94254D01*
X356180Y94267D01*
X356179Y94267D01*
X356177Y94268D01*
X356115Y94289D01*
X356054Y94309D01*
X356053Y94310D01*
X356051Y94311D01*
X355991Y94341D01*
X355935Y94368D01*
X355933Y94369D01*
X355931Y94370D01*
X355876Y94407D01*
X355824Y94442D01*
X355823Y94444D01*
X355821Y94445D01*
X355771Y94488D01*
X355724Y94530D01*
X355723Y94531D01*
X355721Y94533D01*
X354967Y95292D01*
X354970Y95250D01*
X354961Y95117D01*
X354935Y94986D01*
X354893Y94860D01*
X354834Y94741D01*
X354760Y94630D01*
X354672Y94530D01*
X354572Y94442D01*
X354461Y94368D01*
X354342Y94309D01*
X354215Y94267D01*
X354085Y94241D01*
X353952Y94232D01*
X343255Y94232D01*
X343046D01*
X343012Y94234D01*
X342979D01*
X342946Y94238D01*
X342913Y94241D01*
X342880Y94247D01*
X342847Y94251D01*
X342436Y94333D01*
X342404Y94342D01*
X342372Y94348D01*
X342340Y94359D01*
X342308Y94368D01*
X342277Y94380D01*
X342246Y94391D01*
X341859Y94551D01*
X341829Y94566D01*
X341798Y94579D01*
X341769Y94595D01*
X341739Y94610D01*
X341712Y94629D01*
X341683Y94645D01*
X341335Y94878D01*
X341308Y94898D01*
X341281Y94917D01*
X341256Y94938D01*
X341229Y94959D01*
X341205Y94983D01*
X341180Y95005D01*
X340885Y95300D01*
X340862Y95326D01*
X340839Y95349D01*
X340819Y95375D01*
X340797Y95401D01*
X340778Y95428D01*
X340758Y95455D01*
X340525Y95803D01*
X340509Y95832D01*
X340490Y95859D01*
X340475Y95889D01*
X340459Y95918D01*
X340446Y95949D01*
X340431Y95979D01*
X340271Y96365D01*
X340260Y96397D01*
X340248Y96428D01*
X340239Y96460D01*
X340228Y96492D01*
X340222Y96524D01*
X340213Y96557D01*
X340131Y96967D01*
X340127Y97000D01*
X340121Y97033D01*
X340118Y97066D01*
X340114Y97099D01*
Y97132D01*
X340112Y97166D01*
Y97375D01*
Y97375D01*
Y102625D01*
Y102834D01*
X340114Y102868D01*
Y102901D01*
X340118Y102934D01*
X340121Y102967D01*
X340127Y103000D01*
X340131Y103033D01*
X340213Y103443D01*
X340222Y103476D01*
X340228Y103508D01*
X340239Y103540D01*
X340248Y103572D01*
X340260Y103603D01*
X340271Y103634D01*
X340431Y104021D01*
X340446Y104051D01*
X340459Y104082D01*
X340475Y104111D01*
X340490Y104141D01*
X340509Y104168D01*
X340525Y104197D01*
X340758Y104545D01*
X340778Y104572D01*
X340797Y104599D01*
X340818Y104624D01*
X340839Y104651D01*
X340863Y104675D01*
X340885Y104700D01*
X341180Y104995D01*
X341206Y105018D01*
X341229Y105041D01*
X341255Y105061D01*
X341281Y105083D01*
X341308Y105102D01*
X341335Y105122D01*
X341683Y105355D01*
X341712Y105371D01*
X341739Y105390D01*
X341769Y105405D01*
X341798Y105421D01*
X341829Y105434D01*
X341859Y105449D01*
X342245Y105609D01*
X342277Y105620D01*
X342308Y105632D01*
X342340Y105641D01*
X342372Y105652D01*
X342404Y105658D01*
X342436Y105667D01*
X342847Y105749D01*
X342880Y105753D01*
X342913Y105759D01*
X342946Y105762D01*
X342979Y105766D01*
X343012D01*
X343046Y105768D01*
X353998D01*
X354131Y105759D01*
X354261Y105733D01*
X354388Y105691D01*
X354507Y105632D01*
X354618Y105558D01*
X354718Y105470D01*
X354806Y105370D01*
X354880Y105259D01*
X354939Y105140D01*
X354981Y105014D01*
X355007Y104883D01*
X355016Y104756D01*
X355721Y105467D01*
X355723Y105468D01*
X355724Y105470D01*
X355773Y105513D01*
X355821Y105555D01*
X355822Y105556D01*
X355824Y105558D01*
X355878Y105594D01*
X355931Y105630D01*
X355933Y105631D01*
X355935Y105632D01*
X355992Y105660D01*
X356051Y105689D01*
X356053Y105690D01*
X356054Y105691D01*
X356115Y105711D01*
X356177Y105732D01*
X356179Y105733D01*
X356180Y105733D01*
X356246Y105747D01*
X356307Y105759D01*
X356309Y105759D01*
X356311Y105759D01*
X356380Y105764D01*
X356440Y105768D01*
X356442Y105768D01*
X356444Y105768D01*
X363084D01*
X363118Y105766D01*
D02*
G37*
G36*
X598820Y65295D02*
X599817Y64971D01*
X600760Y64511D01*
X601629Y63924D01*
X602409Y63223D01*
X603083Y62419D01*
X603639Y61530D01*
X604066Y60571D01*
X604355Y59563D01*
X604501Y58524D01*
Y57476D01*
X604355Y56437D01*
X604066Y55429D01*
X603639Y54470D01*
X603083Y53581D01*
X602409Y52777D01*
X601629Y52076D01*
X600760Y51489D01*
X599817Y51029D01*
X598820Y50705D01*
X598303Y50614D01*
X598303D01*
X598303Y65386D01*
X598820Y65295D01*
D02*
G37*
G36*
X595701Y50614D02*
X595184Y50705D01*
X594187Y51029D01*
X593244Y51489D01*
X592374Y52076D01*
X591595Y52777D01*
X590921Y53581D01*
X590365Y54470D01*
X589938Y55429D01*
X589649Y56437D01*
X589503Y57476D01*
Y58524D01*
X589649Y59563D01*
X589938Y60571D01*
X590365Y61530D01*
X590921Y62419D01*
X591595Y63223D01*
X592374Y63924D01*
X593244Y64511D01*
X594187Y64971D01*
X595184Y65295D01*
X595701Y65386D01*
X595701D01*
X595701Y50614D01*
D02*
G37*
%LPC*%
G36*
X388713Y100026D02*
X388665Y99977D01*
X388717Y99925D01*
X388716Y99930D01*
X388712Y99996D01*
X388712Y100000D01*
X388712Y100004D01*
X388713Y100026D01*
D02*
G37*
G36*
X350713D02*
X350665Y99977D01*
X350717Y99925D01*
X350716Y99930D01*
X350712Y99996D01*
X350712Y100000D01*
X350712Y100004D01*
X350713Y100026D01*
D02*
G37*
%LPD*%
D32*
X316432Y35000D02*
D03*
X293568D02*
D03*
X490568Y127000D02*
D03*
X513432D02*
D03*
D33*
X382700Y75000D02*
D03*
X370000D02*
D03*
X357300D02*
D03*
D37*
X467000Y106568D02*
D03*
Y129432D02*
D03*
X572000Y82568D02*
D03*
Y105432D02*
D03*
D40*
X709500Y194500D02*
D03*
D41*
X726000Y251500D02*
D03*
X726000Y285500D02*
D03*
Y318500D02*
D03*
D45*
X532000Y320375D02*
D03*
X522500Y346375D02*
D03*
X541500Y320375D02*
D03*
Y346375D02*
D03*
X522500Y320375D02*
D03*
D47*
X532000Y334000D02*
D03*
D49*
X533000Y419000D02*
D03*
X534000Y649000D02*
D03*
X524500Y675000D02*
D03*
X523500Y445000D02*
D03*
X524500Y649000D02*
D03*
X523500Y419000D02*
D03*
X543500Y649000D02*
D03*
Y675000D02*
D03*
X542500Y419000D02*
D03*
Y445000D02*
D03*
D51*
X546000Y520000D02*
D03*
X542000D02*
D03*
Y512000D02*
D03*
X546000Y516000D02*
D03*
Y512000D02*
D03*
X542000Y516000D02*
D03*
D53*
X644700Y349200D02*
D03*
Y339700D02*
D03*
X618700D02*
D03*
Y358700D02*
D03*
X644700D02*
D03*
D54*
X615500Y452000D02*
D03*
X677200Y446700D02*
D03*
Y457200D02*
D03*
X702200D02*
D03*
X615500Y462500D02*
D03*
X640500D02*
D03*
X615500Y672000D02*
D03*
Y682500D02*
D03*
X640500D02*
D03*
X702200Y453700D02*
D03*
X615500Y693000D02*
D03*
Y473000D02*
D03*
X677200Y467700D02*
D03*
X615500Y689500D02*
D03*
Y679000D02*
D03*
X640500Y672000D02*
D03*
Y675500D02*
D03*
Y679000D02*
D03*
Y686000D02*
D03*
Y689500D02*
D03*
Y693000D02*
D03*
X615500Y686000D02*
D03*
Y675500D02*
D03*
X640500Y452000D02*
D03*
Y455500D02*
D03*
Y459000D02*
D03*
Y466000D02*
D03*
Y469500D02*
D03*
Y473000D02*
D03*
X615500Y469500D02*
D03*
Y466000D02*
D03*
Y459000D02*
D03*
Y455500D02*
D03*
X702200Y446700D02*
D03*
Y450200D02*
D03*
Y460700D02*
D03*
Y464200D02*
D03*
Y467700D02*
D03*
X677200Y464200D02*
D03*
Y460700D02*
D03*
Y453700D02*
D03*
Y450200D02*
D03*
D55*
X628000Y462500D02*
D03*
X689700Y457200D02*
D03*
X628000Y682500D02*
D03*
D56*
X635000Y450000D02*
D03*
X696700Y444700D02*
D03*
X635000Y670000D02*
D03*
X696700Y469700D02*
D03*
X635000Y475000D02*
D03*
Y695000D02*
D03*
X628000Y670000D02*
D03*
X624500Y695000D02*
D03*
X621000Y670000D02*
D03*
X631500Y695000D02*
D03*
X624500Y670000D02*
D03*
X631500D02*
D03*
X628000Y695000D02*
D03*
X621000D02*
D03*
Y450000D02*
D03*
X624500D02*
D03*
X628000D02*
D03*
X631500D02*
D03*
Y475000D02*
D03*
X628000D02*
D03*
X624500D02*
D03*
X621000D02*
D03*
X682700Y444700D02*
D03*
X686200D02*
D03*
X689700D02*
D03*
X693200D02*
D03*
Y469700D02*
D03*
X689700D02*
D03*
X686200D02*
D03*
X682700D02*
D03*
D62*
X679000Y703750D02*
D03*
Y749250D02*
D03*
Y762250D02*
D03*
Y755750D02*
D03*
X737000Y762250D02*
D03*
Y755750D02*
D03*
Y749250D02*
D03*
Y742750D02*
D03*
Y723250D02*
D03*
Y716750D02*
D03*
Y710250D02*
D03*
Y703750D02*
D03*
X679000Y710250D02*
D03*
Y716750D02*
D03*
Y723250D02*
D03*
Y729750D02*
D03*
Y736250D02*
D03*
Y742750D02*
D03*
X737000Y729750D02*
D03*
Y736250D02*
D03*
D65*
X451700Y230103D02*
D03*
X464400D02*
D03*
X413600D02*
D03*
X426300D02*
D03*
X439000D02*
D03*
D66*
Y169897D02*
D03*
D67*
X107000Y281000D02*
D03*
X87000Y474000D02*
D03*
X40000Y100000D02*
D03*
X70000D02*
D03*
X130000D02*
D03*
X160000D02*
D03*
X338000Y62000D02*
D03*
Y35000D02*
D03*
X630000Y250000D02*
D03*
X600000D02*
D03*
X660000D02*
D03*
X100000Y100000D02*
D03*
D68*
X54000Y638000D02*
D03*
Y622000D02*
D03*
X92000Y726000D02*
D03*
Y710000D02*
D03*
X76000Y726000D02*
D03*
Y710000D02*
D03*
X41000Y638000D02*
D03*
Y622000D02*
D03*
X54000Y530000D02*
D03*
Y514000D02*
D03*
X41000Y530000D02*
D03*
Y514000D02*
D03*
X90000Y418000D02*
D03*
Y434000D02*
D03*
X74000Y418000D02*
D03*
Y434000D02*
D03*
X54000Y348000D02*
D03*
Y332000D02*
D03*
X41000Y348000D02*
D03*
Y332000D02*
D03*
X37000Y185999D02*
D03*
Y169999D02*
D03*
X52000Y185999D02*
D03*
Y169999D02*
D03*
X156000Y173572D02*
D03*
Y189572D02*
D03*
X219000Y168000D02*
D03*
Y184000D02*
D03*
X332000Y145000D02*
D03*
Y129000D02*
D03*
X283000Y121000D02*
D03*
Y137000D02*
D03*
Y107000D02*
D03*
Y91000D02*
D03*
X267000Y91000D02*
D03*
Y107000D02*
D03*
X357000Y200000D02*
D03*
Y184000D02*
D03*
Y234000D02*
D03*
Y218000D02*
D03*
X526144Y216281D02*
D03*
Y200281D02*
D03*
X526000Y186000D02*
D03*
Y170000D02*
D03*
X745865Y55285D02*
D03*
Y39285D02*
D03*
X746001Y69585D02*
D03*
Y85585D02*
D03*
D69*
X54000Y676001D02*
D03*
X54001Y660001D02*
D03*
X41000Y676001D02*
D03*
X41001Y660001D02*
D03*
X54000Y568001D02*
D03*
X54001Y552001D02*
D03*
X41000Y568001D02*
D03*
X41001Y552001D02*
D03*
X41000Y386001D02*
D03*
X41001Y370001D02*
D03*
X54000Y386001D02*
D03*
X54001Y370001D02*
D03*
X171001Y173573D02*
D03*
X171000Y189573D02*
D03*
D70*
X87250Y621806D02*
D03*
X126250Y678194D02*
D03*
X126250Y621806D02*
D03*
X139250Y678194D02*
D03*
X113250D02*
D03*
X87250D02*
D03*
X74250Y621806D02*
D03*
X139250D02*
D03*
X80750Y678194D02*
D03*
X100250Y621806D02*
D03*
X100250Y678194D02*
D03*
X113250Y621806D02*
D03*
X74250Y678194D02*
D03*
X106750Y621806D02*
D03*
X106750Y678194D02*
D03*
X119750Y621806D02*
D03*
Y678194D02*
D03*
X132750Y621806D02*
D03*
Y678194D02*
D03*
X145750Y621806D02*
D03*
Y678194D02*
D03*
X80750Y621806D02*
D03*
X93750Y678194D02*
D03*
X93750Y621806D02*
D03*
X87250Y513806D02*
D03*
X126250Y570194D02*
D03*
X126250Y513806D02*
D03*
X139250Y570194D02*
D03*
X113250D02*
D03*
X139250Y513806D02*
D03*
X80750Y570194D02*
D03*
X100250Y513806D02*
D03*
X100250Y570194D02*
D03*
X113250Y513806D02*
D03*
X74250D02*
D03*
X87250Y570194D02*
D03*
X74250D02*
D03*
X106750Y513806D02*
D03*
X119750D02*
D03*
X106750Y570194D02*
D03*
X119750D02*
D03*
X132750Y513806D02*
D03*
X145750D02*
D03*
X132750Y570194D02*
D03*
X145750D02*
D03*
X80750Y513806D02*
D03*
X93750Y570194D02*
D03*
X93750Y513806D02*
D03*
X87250Y331806D02*
D03*
X126250Y388194D02*
D03*
X126250Y331806D02*
D03*
X139250Y388194D02*
D03*
X113250D02*
D03*
X87250D02*
D03*
X139250Y331806D02*
D03*
X100250D02*
D03*
X100250Y388194D02*
D03*
X113250Y331806D02*
D03*
X80750Y388194D02*
D03*
X80750Y331806D02*
D03*
X74250D02*
D03*
Y388194D02*
D03*
X106750Y331806D02*
D03*
X106750Y388194D02*
D03*
X119750Y331806D02*
D03*
Y388194D02*
D03*
X132750D02*
D03*
X145750Y331806D02*
D03*
X132750D02*
D03*
X145750Y388194D02*
D03*
X93750D02*
D03*
X93750Y331806D02*
D03*
D71*
X77000Y598000D02*
D03*
X93000D02*
D03*
X64000D02*
D03*
X48000D02*
D03*
X37000Y245000D02*
D03*
X53000D02*
D03*
X53000Y230000D02*
D03*
X37000D02*
D03*
X187000Y212000D02*
D03*
X203000D02*
D03*
X187000Y228000D02*
D03*
X203000D02*
D03*
X156000D02*
D03*
X172000D02*
D03*
X156000Y212000D02*
D03*
X172000D02*
D03*
X315000Y226000D02*
D03*
X331000D02*
D03*
X315000Y211000D02*
D03*
X331000D02*
D03*
X269000Y77000D02*
D03*
X285000D02*
D03*
X286000Y61000D02*
D03*
X270000D02*
D03*
X317000D02*
D03*
X301000D02*
D03*
X374000Y153000D02*
D03*
X358000D02*
D03*
X601000Y219000D02*
D03*
X585000D02*
D03*
X571000D02*
D03*
X555000D02*
D03*
X593000Y108000D02*
D03*
X609000D02*
D03*
X283500Y226000D02*
D03*
X267500D02*
D03*
X253500D02*
D03*
X237500D02*
D03*
D72*
X36999Y200000D02*
D03*
X52999Y200001D02*
D03*
X36999Y215000D02*
D03*
X52999Y215001D02*
D03*
X83001Y245000D02*
D03*
X67001Y244999D02*
D03*
Y167999D02*
D03*
X83001Y168000D02*
D03*
X154999Y160000D02*
D03*
X170999Y160001D02*
D03*
X331001Y242000D02*
D03*
X315001Y241999D02*
D03*
X330730Y196258D02*
D03*
X314730Y196257D02*
D03*
X330729Y182258D02*
D03*
X314729Y182257D02*
D03*
X330729Y168258D02*
D03*
X314729Y168257D02*
D03*
X316000Y144254D02*
D03*
X300000Y144253D02*
D03*
X316000Y128254D02*
D03*
X300000Y128253D02*
D03*
X357999Y120000D02*
D03*
X373999Y120001D02*
D03*
X374000Y135000D02*
D03*
X358000Y134999D02*
D03*
X608998Y93233D02*
D03*
X592999Y93232D02*
D03*
X593000Y78231D02*
D03*
X609000Y78232D02*
D03*
D73*
X78473Y184775D02*
D03*
Y191125D02*
D03*
Y197475D02*
D03*
Y210175D02*
D03*
Y216525D02*
D03*
Y222875D02*
D03*
Y229225D02*
D03*
X129527D02*
D03*
Y210175D02*
D03*
Y184775D02*
D03*
Y197475D02*
D03*
Y216525D02*
D03*
Y222875D02*
D03*
Y203825D02*
D03*
Y191125D02*
D03*
X78473Y203825D02*
D03*
D74*
X237500Y197750D02*
D03*
Y191250D02*
D03*
Y171750D02*
D03*
X294500Y165250D02*
D03*
Y171750D02*
D03*
Y178250D02*
D03*
Y191250D02*
D03*
X237500Y165250D02*
D03*
Y204250D02*
D03*
X294500Y184750D02*
D03*
X237500Y210750D02*
D03*
X294500D02*
D03*
Y204250D02*
D03*
X237500Y178250D02*
D03*
Y184750D02*
D03*
X294500Y197750D02*
D03*
D75*
X321500Y105750D02*
D03*
Y80250D02*
D03*
X302500Y105750D02*
D03*
Y80250D02*
D03*
X312000Y105750D02*
D03*
D76*
X384950Y231081D02*
D03*
Y186377D02*
D03*
X719001Y84937D02*
D03*
Y40233D02*
D03*
X497000Y167648D02*
D03*
Y212352D02*
D03*
D77*
X601000Y189000D02*
D03*
X556296D02*
D03*
D78*
X601000Y145000D02*
D03*
X561000D02*
D03*
D79*
X490750Y66950D02*
D03*
Y79650D02*
D03*
X547250Y105050D02*
D03*
Y79650D02*
D03*
Y66950D02*
D03*
X490750Y105050D02*
D03*
Y92350D02*
D03*
X547250D02*
D03*
X685250Y105050D02*
D03*
Y92350D02*
D03*
X628750Y105050D02*
D03*
Y92350D02*
D03*
Y79650D02*
D03*
X685250Y66950D02*
D03*
X628750D02*
D03*
X685250Y79650D02*
D03*
D80*
X657000Y86000D02*
D03*
D81*
X728500Y194500D02*
D03*
X719000Y169500D02*
D03*
D82*
X726000Y232500D02*
D03*
X701000Y242000D02*
D03*
X726000Y266500D02*
D03*
X701000Y276000D02*
D03*
Y309000D02*
D03*
X726000Y299500D02*
D03*
D83*
X590700Y394200D02*
D03*
X547000Y483000D02*
D03*
X622000Y766000D02*
D03*
X574700Y638200D02*
D03*
X558700Y549200D02*
D03*
X642700Y583200D02*
D03*
X701000Y363000D02*
D03*
X744000Y454000D02*
D03*
X735000Y347000D02*
D03*
X622000Y744000D02*
D03*
Y755000D02*
D03*
D84*
X707950Y394950D02*
D03*
X691450Y379450D02*
D03*
Y394950D02*
D03*
X707950Y379450D02*
D03*
D85*
X528500Y299000D02*
D03*
X543500Y365000D02*
D03*
X523800Y497200D02*
D03*
X542500Y463000D02*
D03*
X523800Y533200D02*
D03*
X540500Y697000D02*
D03*
X523500D02*
D03*
X525500Y463000D02*
D03*
X526500Y365000D02*
D03*
X540800Y533200D02*
D03*
X511500Y299000D02*
D03*
X540800Y497200D02*
D03*
D86*
X566700Y297200D02*
D03*
X555700Y321200D02*
D03*
X588700Y296200D02*
D03*
X578000Y327500D02*
D03*
X593700Y326200D02*
D03*
X597700Y296200D02*
D03*
X567700Y371200D02*
D03*
X577700D02*
D03*
X556700Y479200D02*
D03*
X563700Y689200D02*
D03*
X554700D02*
D03*
Y710200D02*
D03*
X565700Y460200D02*
D03*
Y479200D02*
D03*
X570700Y521200D02*
D03*
X583700D02*
D03*
X594700D02*
D03*
X608700D02*
D03*
X564700Y623200D02*
D03*
X573700D02*
D03*
X587700Y622172D02*
D03*
X567700Y664200D02*
D03*
X572700Y689200D02*
D03*
X564700Y710200D02*
D03*
X587700Y632200D02*
D03*
X576700Y664200D02*
D03*
X596700Y632200D02*
D03*
X640700Y323200D02*
D03*
X662700Y305200D02*
D03*
X671700D02*
D03*
X680700D02*
D03*
X657700Y420200D02*
D03*
X678700Y392200D02*
D03*
X666700Y420200D02*
D03*
X675700Y410200D02*
D03*
X693700D02*
D03*
X684700D02*
D03*
X639700Y632200D02*
D03*
X673700Y487200D02*
D03*
X645700Y546200D02*
D03*
X689700Y501200D02*
D03*
X684700Y512200D02*
D03*
X693700D02*
D03*
X702700D02*
D03*
X649700Y652200D02*
D03*
X658700D02*
D03*
X655700Y702200D02*
D03*
X664700D02*
D03*
X690700Y627200D02*
D03*
X667700Y642200D02*
D03*
X669700Y627200D02*
D03*
X730700D02*
D03*
X655700Y712200D02*
D03*
X664700D02*
D03*
X625700Y633200D02*
D03*
X616700D02*
D03*
X628700Y306200D02*
D03*
X609700D02*
D03*
X555700Y331200D02*
D03*
X662700Y315200D02*
D03*
X577700Y381200D02*
D03*
X578000Y317500D02*
D03*
X730700Y617200D02*
D03*
X565700Y450200D02*
D03*
X628700Y296200D02*
D03*
X737375Y485300D02*
D03*
X728200Y485300D02*
D03*
X587700Y612172D02*
D03*
X576700Y654200D02*
D03*
X572700Y699200D02*
D03*
X616700Y623200D02*
D03*
X684700Y522200D02*
D03*
X689700Y491200D02*
D03*
X675700Y420200D02*
D03*
X565700Y489200D02*
D03*
X667700Y652200D02*
D03*
X639700Y642200D02*
D03*
X625700Y623200D02*
D03*
X673700Y477200D02*
D03*
X554700Y720200D02*
D03*
X774000Y485300D02*
D03*
X719200D02*
D03*
X609700Y296200D02*
D03*
X564700Y720200D02*
D03*
X678700Y382200D02*
D03*
X722000Y653000D02*
D03*
X713000D02*
D03*
X690700Y617200D02*
D03*
X702700Y627200D02*
D03*
X678700D02*
D03*
X774000Y495300D02*
D03*
X764200D02*
D03*
X746538Y495300D02*
D03*
X737375D02*
D03*
X728200Y495300D02*
D03*
X719200D02*
D03*
X678700Y617200D02*
D03*
X702700D02*
D03*
X721700D02*
D03*
X712700D02*
D03*
X573700Y613200D02*
D03*
X746538Y485300D02*
D03*
X764200Y485300D02*
D03*
X722000Y643000D02*
D03*
X713000D02*
D03*
X721700Y627200D02*
D03*
X712700D02*
D03*
X542000Y296000D02*
D03*
Y306000D02*
D03*
X649700Y642200D02*
D03*
X588700Y306200D02*
D03*
X597700D02*
D03*
X640700Y313200D02*
D03*
X657700Y410200D02*
D03*
X666700D02*
D03*
X645700Y536200D02*
D03*
X658700Y642200D02*
D03*
X583700Y531200D02*
D03*
X608700D02*
D03*
X587700Y642200D02*
D03*
X693700Y522200D02*
D03*
X671700Y315200D02*
D03*
X684700Y420200D02*
D03*
X554700Y699200D02*
D03*
X563700D02*
D03*
X596700Y642200D02*
D03*
X594700Y531200D02*
D03*
X570700D02*
D03*
X593700Y316200D02*
D03*
X567700Y381200D02*
D03*
X720700Y386200D02*
D03*
Y396200D02*
D03*
X693700Y420200D02*
D03*
X669700Y617200D02*
D03*
X566700Y307200D02*
D03*
X680700Y315200D02*
D03*
X567700Y654200D02*
D03*
X556700Y489200D02*
D03*
X702700Y522200D02*
D03*
X564700Y613200D02*
D03*
D87*
X525000Y383500D02*
D03*
X602700Y356700D02*
D03*
X524000Y612500D02*
D03*
X660700Y356700D02*
D03*
X524000Y629500D02*
D03*
X525000Y400500D02*
D03*
X660700Y339700D02*
D03*
X602700D02*
D03*
D88*
X583900Y348200D02*
D03*
Y354700D02*
D03*
X557000Y739700D02*
D03*
Y733200D02*
D03*
X565500Y348200D02*
D03*
X575400Y739700D02*
D03*
X565500Y341700D02*
D03*
X575400Y746200D02*
D03*
X583900Y341700D02*
D03*
X565500Y354700D02*
D03*
X575400Y733200D02*
D03*
X557000Y746200D02*
D03*
D89*
X521300Y521200D02*
D03*
X561700Y404200D02*
D03*
X557700Y511200D02*
D03*
X559700Y599200D02*
D03*
X586700Y407200D02*
D03*
Y425200D02*
D03*
Y434200D02*
D03*
Y416200D02*
D03*
X599700Y481200D02*
D03*
X602700Y544200D02*
D03*
X608700Y589200D02*
D03*
X599700Y701200D02*
D03*
X619700Y321200D02*
D03*
X629700Y428200D02*
D03*
X667700Y381200D02*
D03*
X667700Y391200D02*
D03*
Y400200D02*
D03*
X635700Y538200D02*
D03*
X631700Y593200D02*
D03*
X674950Y513200D02*
D03*
Y522200D02*
D03*
X660700Y672200D02*
D03*
Y663200D02*
D03*
X728000Y774000D02*
D03*
X738000D02*
D03*
X629700Y417800D02*
D03*
X629700Y408200D02*
D03*
X622950Y553200D02*
D03*
X602700D02*
D03*
X782000Y720000D02*
D03*
X662000Y751000D02*
D03*
X756000Y722000D02*
D03*
Y740000D02*
D03*
Y731000D02*
D03*
X662000Y727000D02*
D03*
X782000Y729000D02*
D03*
X792000D02*
D03*
X657700Y381200D02*
D03*
X629700Y321200D02*
D03*
X639700Y417800D02*
D03*
X652000Y727000D02*
D03*
X596700Y434200D02*
D03*
X713300Y673800D02*
D03*
X569700Y599200D02*
D03*
X652000Y751000D02*
D03*
X639700Y408200D02*
D03*
X709450Y429200D02*
D03*
X609700Y481200D02*
D03*
X592700Y553200D02*
D03*
Y544200D02*
D03*
X609700Y701200D02*
D03*
X792000Y720000D02*
D03*
X639700Y428200D02*
D03*
X641700Y593200D02*
D03*
X625700Y538200D02*
D03*
X632950Y553200D02*
D03*
X713300Y682800D02*
D03*
X531300Y521200D02*
D03*
X521300Y511200D02*
D03*
X536000Y632000D02*
D03*
X766000Y722000D02*
D03*
X723300Y673800D02*
D03*
Y664800D02*
D03*
Y682800D02*
D03*
Y691800D02*
D03*
X571700Y404200D02*
D03*
X567700Y511200D02*
D03*
X713300Y664800D02*
D03*
Y691800D02*
D03*
X766000Y740000D02*
D03*
Y731000D02*
D03*
X739700Y404200D02*
D03*
X537000Y403000D02*
D03*
X660700Y369200D02*
D03*
X670700Y663200D02*
D03*
X596700Y407200D02*
D03*
X598700Y589200D02*
D03*
X670700Y672200D02*
D03*
X657700Y391200D02*
D03*
X596700Y425200D02*
D03*
Y416200D02*
D03*
X664950Y522200D02*
D03*
Y513200D02*
D03*
X657700Y400200D02*
D03*
X531300Y511200D02*
D03*
X650700Y369200D02*
D03*
X547000Y403000D02*
D03*
X546000Y632000D02*
D03*
X749700Y404200D02*
D03*
X719450Y429200D02*
D03*
X749700Y429200D02*
D03*
X739700D02*
D03*
D90*
X564700Y569000D02*
D03*
X565700Y419000D02*
D03*
X572200D02*
D03*
X571200Y569000D02*
D03*
X564700Y587400D02*
D03*
X565700Y437400D02*
D03*
X558200Y587400D02*
D03*
X559200Y437400D02*
D03*
X558200Y569000D02*
D03*
X571200Y587400D02*
D03*
X559200Y419000D02*
D03*
X572200Y437400D02*
D03*
D91*
X748955Y200000D02*
D03*
Y287500D02*
D03*
Y275000D02*
D03*
Y262500D02*
D03*
Y237500D02*
D03*
Y212500D02*
D03*
Y225000D02*
D03*
Y250000D02*
D03*
Y187500D02*
D03*
D92*
X736950Y392200D02*
D03*
X706950Y417200D02*
D03*
X752450D02*
D03*
Y392200D02*
D03*
X722450Y417200D02*
D03*
X736950D02*
D03*
D93*
X667700Y533450D02*
D03*
X725700Y585450D02*
D03*
Y604950D02*
D03*
X667700Y591950D02*
D03*
Y578950D02*
D03*
Y572450D02*
D03*
Y565950D02*
D03*
Y552950D02*
D03*
Y546450D02*
D03*
Y539950D02*
D03*
X725700Y533450D02*
D03*
Y539950D02*
D03*
Y546450D02*
D03*
Y552950D02*
D03*
Y559450D02*
D03*
Y565950D02*
D03*
Y572450D02*
D03*
Y578950D02*
D03*
Y591950D02*
D03*
Y598450D02*
D03*
X667700Y604950D02*
D03*
Y559450D02*
D03*
Y585450D02*
D03*
Y598450D02*
D03*
D94*
X780000Y519500D02*
D03*
Y695500D02*
D03*
D95*
X751000Y620000D02*
D03*
Y657500D02*
D03*
Y557500D02*
D03*
Y645000D02*
D03*
Y632500D02*
D03*
Y670000D02*
D03*
Y607500D02*
D03*
Y595000D02*
D03*
Y582500D02*
D03*
Y570000D02*
D03*
Y545000D02*
D03*
D96*
X777955Y162000D02*
D03*
Y313000D02*
D03*
D97*
X662000Y197500D02*
D03*
Y142500D02*
D03*
D98*
X330000Y505000D02*
D03*
D99*
X30000Y30000D02*
D03*
X430000D02*
D03*
X30000Y445000D02*
D03*
Y770000D02*
D03*
X455360D02*
D03*
X790000Y30000D02*
D03*
Y445000D02*
D03*
Y770000D02*
D03*
M02*
