G04*
G04 #@! TF.GenerationSoftware,Altium Limited,Altium Designer,26.4.1 (12)*
G04*
G04 Layer_Color=128*
%FSLAX44Y44*%
%MOMM*%
G71*
G04*
G04 #@! TF.SameCoordinates,081AD261-A054-4182-9D8D-9268D5C2E0D7*
G04*
G04*
G04 #@! TF.FilePolarity,Positive*
G04*
G01*
G75*
%ADD17C,0.1270*%
D17*
X14000Y30000D02*
X46000D01*
X30000Y14000D02*
Y46000D01*
X414000Y30000D02*
X446000D01*
X430000Y14000D02*
Y46000D01*
X14000Y445000D02*
X46000D01*
X30000Y429000D02*
Y461000D01*
X14000Y770000D02*
X46000D01*
X30000Y754000D02*
Y786000D01*
X439360Y770000D02*
X471360D01*
X455360Y754000D02*
Y786000D01*
X774000Y30000D02*
X806000D01*
X790000Y14000D02*
Y46000D01*
X774000Y445000D02*
X806000D01*
X790000Y429000D02*
Y461000D01*
X774000Y770000D02*
X806000D01*
X790000Y754000D02*
Y786000D01*
X538000Y473000D02*
X540000D01*
X539000Y472000D02*
Y474000D01*
X259000Y61000D02*
X261000D01*
X260000Y60000D02*
Y62000D01*
X713750Y475500D02*
X715750D01*
X714750Y474500D02*
Y476500D01*
X773500Y556750D02*
X775500D01*
X774500Y555750D02*
Y557750D01*
X773250Y543500D02*
X775250D01*
X774250Y542500D02*
Y544500D01*
X773250Y570000D02*
X775250D01*
X774250Y569000D02*
Y571000D01*
X762750Y585500D02*
X764750D01*
X763750Y584500D02*
Y586500D01*
X763000Y591500D02*
X765000D01*
X764000Y590500D02*
Y592500D01*
X732250Y470500D02*
X734250D01*
X733250Y469500D02*
Y471500D01*
X715500Y440250D02*
X717500D01*
X716500Y439250D02*
Y441250D01*
X732750Y450500D02*
X734750D01*
X733750Y449500D02*
Y451500D01*
X588668Y566232D02*
X590668D01*
X589668Y565232D02*
Y567232D01*
X652668Y577232D02*
X654668D01*
X653668Y576232D02*
Y578232D01*
X709668Y553232D02*
X711668D01*
X710668Y552232D02*
Y554232D01*
X709668Y568232D02*
X711668D01*
X710668Y567232D02*
Y569232D01*
X683668Y643232D02*
X685668D01*
X684668Y642232D02*
Y644232D01*
X553668Y680232D02*
X555668D01*
X554668Y679232D02*
Y681232D01*
X553668Y629232D02*
X555668D01*
X554668Y628232D02*
Y630232D01*
X553668Y651232D02*
X555668D01*
X554668Y650232D02*
Y652232D01*
X553668Y666232D02*
X555668D01*
X554668Y665232D02*
Y667232D01*
X600668Y514232D02*
X602668D01*
X601668Y513232D02*
Y515232D01*
X630668Y511232D02*
X632668D01*
X631668Y510232D02*
Y512232D01*
X558700Y370200D02*
X560700D01*
X559700Y369200D02*
Y371200D01*
X587668Y361232D02*
X589668D01*
X588668Y360232D02*
Y362232D01*
X588700Y445200D02*
X590700D01*
X589700Y444200D02*
Y446200D01*
X698700Y391200D02*
X700700D01*
X699700Y390200D02*
Y392200D01*
X554700Y305200D02*
X556700D01*
X555700Y304200D02*
Y306200D01*
X276568Y37568D02*
X278568D01*
X277568Y36568D02*
Y38568D01*
X282568Y31568D02*
X284568D01*
X283568Y30568D02*
Y32568D01*
X276568Y31568D02*
X278568D01*
X277568Y30568D02*
Y32568D01*
X282568Y37568D02*
X284568D01*
X283568Y36568D02*
Y38568D01*
X39432Y153999D02*
X41432D01*
X40432Y152999D02*
Y154999D01*
X39432Y159999D02*
X41432D01*
X40432Y158999D02*
Y160999D01*
X202000Y180568D02*
X204000D01*
X203000Y179568D02*
Y181568D01*
X208000Y180568D02*
X210000D01*
X209000Y179568D02*
Y181568D01*
X290000Y135000D02*
X292000D01*
X291000Y134000D02*
Y136000D01*
X290000Y139568D02*
X292000D01*
X291000Y138568D02*
Y140568D01*
X311000Y92000D02*
X313000D01*
X312000Y91000D02*
Y93000D01*
X311000Y97000D02*
X313000D01*
X312000Y96000D02*
Y98000D01*
X353000Y84000D02*
X355000D01*
X354000Y83000D02*
Y85000D01*
X359000Y84000D02*
X361000D01*
X360000Y83000D02*
Y85000D01*
X353000Y89000D02*
X355000D01*
X354000Y88000D02*
Y90000D01*
X359000Y89000D02*
X361000D01*
X360000Y88000D02*
Y90000D01*
X354432Y143000D02*
X356432D01*
X355432Y142000D02*
Y144000D01*
X359000Y143000D02*
X361000D01*
X360000Y142000D02*
Y144000D01*
X353432Y168000D02*
X355432D01*
X354432Y167000D02*
Y169000D01*
X353432Y174000D02*
X355432D01*
X354432Y173000D02*
Y175000D01*
X359432Y174000D02*
X361432D01*
X360432Y173000D02*
Y175000D01*
X359432Y168000D02*
X361432D01*
X360432Y167000D02*
Y169000D01*
X435432Y159897D02*
X437432D01*
X436432Y158897D02*
Y160897D01*
X441432Y153897D02*
X443432D01*
X442432Y152897D02*
Y154897D01*
X435432Y153897D02*
X437432D01*
X436432Y152897D02*
Y154897D01*
X441432Y159897D02*
X443432D01*
X442432Y158897D02*
Y160897D01*
X381382Y170377D02*
X383382D01*
X382382Y169377D02*
Y171377D01*
X381382Y176377D02*
X383382D01*
X382382Y175377D02*
Y177377D01*
X387382Y176377D02*
X389382D01*
X388382Y175377D02*
Y177377D01*
X387382Y170377D02*
X389382D01*
X388382Y169377D02*
Y171377D01*
X26000Y232568D02*
X28000D01*
X27000Y231568D02*
Y233568D01*
X26000Y226568D02*
X28000D01*
X27000Y225568D02*
Y227568D01*
X91000Y204000D02*
X93000D01*
X92000Y203000D02*
Y205000D01*
X202000Y186568D02*
X204000D01*
X203000Y185568D02*
Y187568D01*
X208000Y186568D02*
X210000D01*
X209000Y185568D02*
Y187568D01*
X37432Y316000D02*
X39432D01*
X38432Y315000D02*
Y317000D01*
X37432Y322000D02*
X39432D01*
X38432Y321000D02*
Y323000D01*
X43432Y316000D02*
X45432D01*
X44432Y315000D02*
Y317000D01*
X43432Y322000D02*
X45432D01*
X44432Y321000D02*
Y323000D01*
X86000Y347000D02*
X88000D01*
X87000Y346000D02*
Y348000D01*
X218000Y209432D02*
X220000D01*
X219000Y208432D02*
Y210432D01*
X284000Y198000D02*
X286000D01*
X285000Y197000D02*
Y199000D01*
X212000Y209432D02*
X214000D01*
X213000Y208432D02*
Y210432D01*
X212000Y215432D02*
X214000D01*
X213000Y214432D02*
Y216432D01*
X218000Y215432D02*
X220000D01*
X219000Y214432D02*
Y216432D01*
X218000Y225432D02*
X220000D01*
X219000Y224432D02*
Y226432D01*
X212000Y225432D02*
X214000D01*
X213000Y224432D02*
Y226432D01*
X292500Y223432D02*
X294500D01*
X293500Y222432D02*
Y224432D01*
X298500Y229432D02*
X300500D01*
X299500Y228432D02*
Y230432D01*
X218000Y231432D02*
X220000D01*
X219000Y230432D02*
Y232432D01*
X212000Y231432D02*
X214000D01*
X213000Y230432D02*
Y232432D01*
X292500Y229432D02*
X294500D01*
X293500Y228432D02*
Y230432D01*
X298500Y223432D02*
X300500D01*
X299500Y222432D02*
Y224432D01*
X340000Y223432D02*
X342000D01*
X341000Y222432D02*
Y224432D01*
X346000Y223432D02*
X348000D01*
X347000Y222432D02*
Y224432D01*
X340000Y229432D02*
X342000D01*
X341000Y228432D02*
Y230432D01*
X346000Y229432D02*
X348000D01*
X347000Y228432D02*
Y230432D01*
X508000Y92000D02*
X510000D01*
X509000Y91000D02*
Y93000D01*
X502000Y92000D02*
X504000D01*
X503000Y91000D02*
Y93000D01*
X522432Y124432D02*
X524432D01*
X523432Y123432D02*
Y125432D01*
X450000Y132000D02*
X452000D01*
X451000Y131000D02*
Y133000D01*
X456000Y126000D02*
X458000D01*
X457000Y125000D02*
Y127000D01*
X450000Y126000D02*
X452000D01*
X451000Y125000D02*
Y127000D01*
X456000Y132000D02*
X458000D01*
X457000Y131000D02*
Y133000D01*
X493432Y157648D02*
X495432D01*
X494432Y156648D02*
Y158648D01*
X499432Y151648D02*
X501432D01*
X500432Y150648D02*
Y152648D01*
X493432Y151648D02*
X495432D01*
X494432Y150648D02*
Y152648D01*
X522432Y130432D02*
X524432D01*
X523432Y129432D02*
Y131432D01*
X522432Y154000D02*
X524432D01*
X523432Y153000D02*
Y155000D01*
X499432Y157648D02*
X501432D01*
X500432Y156648D02*
Y158648D01*
X522432Y160000D02*
X524432D01*
X523432Y159000D02*
Y161000D01*
X528000Y92700D02*
X530000D01*
X529000Y91700D02*
Y93700D01*
X534000Y92700D02*
X536000D01*
X535000Y91700D02*
Y93700D01*
X528432Y124432D02*
X530432D01*
X529432Y123432D02*
Y125432D01*
X528432Y130432D02*
X530432D01*
X529432Y129432D02*
Y131432D01*
X556432Y129000D02*
X558432D01*
X557432Y128000D02*
Y130000D01*
X585000Y96000D02*
X587000D01*
X586000Y95000D02*
Y97000D01*
X585000Y90000D02*
X587000D01*
X586000Y89000D02*
Y91000D01*
X556432Y123000D02*
X558432D01*
X557432Y122000D02*
Y124000D01*
X562432Y129000D02*
X564432D01*
X563432Y128000D02*
Y130000D01*
X562432Y123000D02*
X564432D01*
X563432Y122000D02*
Y124000D01*
X528432Y154000D02*
X530432D01*
X529432Y153000D02*
Y155000D01*
X528432Y160000D02*
X530432D01*
X529432Y159000D02*
Y161000D01*
X538000Y215568D02*
X540000D01*
X539000Y214568D02*
Y216568D01*
X544000Y215568D02*
X546000D01*
X545000Y214568D02*
Y216568D01*
X538000Y221568D02*
X540000D01*
X539000Y220568D02*
Y222568D01*
X544000Y221568D02*
X546000D01*
X545000Y220568D02*
Y222568D01*
X557700Y297200D02*
X559700D01*
X558700Y296200D02*
Y298200D01*
X576700Y296700D02*
X578700D01*
X577700Y295700D02*
Y297700D01*
X525000Y306000D02*
X527000D01*
X526000Y305000D02*
Y307000D01*
X534000Y380932D02*
X536000D01*
X535000Y379932D02*
Y381932D01*
X534000Y386932D02*
X536000D01*
X535000Y385932D02*
Y387932D01*
X541000Y375000D02*
X543000D01*
X542000Y374000D02*
Y376000D01*
X520232Y487200D02*
X522232D01*
X521232Y486200D02*
Y488200D01*
X520232Y481200D02*
X522232D01*
X521232Y480200D02*
Y482200D01*
X557700Y460200D02*
X559700D01*
X558700Y459200D02*
Y461200D01*
X544068Y473000D02*
X546068D01*
X545068Y472000D02*
Y474000D01*
X559700Y470200D02*
X561700D01*
X560700Y469200D02*
Y471200D01*
X561984Y397516D02*
X563984D01*
X562984Y396516D02*
Y398516D01*
X548000Y524000D02*
X550000D01*
X549000Y523000D02*
Y525000D01*
X559700Y506200D02*
X561700D01*
X560700Y505200D02*
Y507200D01*
X519368Y549200D02*
X521368D01*
X520368Y548200D02*
Y550200D01*
X519368Y543200D02*
X521368D01*
X520368Y542200D02*
Y544200D01*
X520432Y602500D02*
X522432D01*
X521432Y601500D02*
Y603500D01*
X520432Y596500D02*
X522432D01*
X521432Y595500D02*
Y597500D01*
X559700Y605200D02*
X561700D01*
X560700Y604200D02*
Y606200D01*
X559700Y544200D02*
X561700D01*
X560700Y543200D02*
Y545200D01*
X541000Y707000D02*
X543000D01*
X542000Y706000D02*
Y708000D01*
X541000Y713000D02*
X543000D01*
X542000Y712000D02*
Y714000D01*
X558726Y709492D02*
X560726D01*
X559726Y708492D02*
Y710492D01*
X576075Y520950D02*
X578075D01*
X577075Y519950D02*
Y521950D01*
X593700Y516200D02*
X595700D01*
X594700Y515200D02*
Y517200D01*
X597950Y476700D02*
X599950D01*
X598950Y475700D02*
Y477700D01*
X582700Y567200D02*
X584700D01*
X583700Y566200D02*
Y568200D01*
X585700Y586200D02*
X587700D01*
X586700Y585200D02*
Y587200D01*
X583700Y664200D02*
X585700D01*
X584700Y663200D02*
Y665200D01*
X595668Y622232D02*
X597668D01*
X596668Y621232D02*
Y623232D01*
X600700Y696200D02*
X602700D01*
X601700Y695200D02*
Y697200D01*
X621700Y316200D02*
X623700D01*
X622700Y315200D02*
Y317200D01*
X617072Y331670D02*
X619072D01*
X618072Y330670D02*
Y332670D01*
X626882Y336825D02*
X628882D01*
X627882Y335825D02*
Y337825D01*
X636700Y306200D02*
X638700D01*
X637700Y305200D02*
Y307200D01*
X648000Y86000D02*
X650000D01*
X649000Y85000D02*
Y87000D01*
X648000Y97000D02*
X650000D01*
X649000Y96000D02*
Y98000D01*
X648000Y76000D02*
X650000D01*
X649000Y75000D02*
Y77000D01*
X651700Y317200D02*
X653700D01*
X652700Y316200D02*
Y318200D01*
X631940Y357081D02*
X633940D01*
X632940Y356081D02*
Y358081D01*
X651984Y327484D02*
X653984D01*
X652984Y326484D02*
Y328484D01*
X647684Y331908D02*
X649684D01*
X648684Y330908D02*
Y332908D01*
X607118Y368175D02*
X609118D01*
X608118Y367175D02*
Y369175D01*
X614611Y449889D02*
X616611D01*
X615611Y448889D02*
Y450889D01*
X617118Y368175D02*
X619118D01*
X618118Y367175D02*
Y369175D01*
X621984Y427484D02*
X623984D01*
X622984Y426484D02*
Y428484D01*
X622016Y457516D02*
X624016D01*
X623016Y456516D02*
Y458516D01*
X627012Y367401D02*
X629012D01*
X628012Y366401D02*
Y368401D01*
X637192Y367323D02*
X639192D01*
X638192Y366324D02*
Y368324D01*
X631984Y457516D02*
X633984D01*
X632984Y456516D02*
Y458516D01*
X664000Y76000D02*
X666000D01*
X665000Y75000D02*
Y77000D01*
X664000Y97000D02*
X666000D01*
X665000Y96000D02*
Y98000D01*
X664000Y86000D02*
X666000D01*
X665000Y85000D02*
Y87000D01*
X715432Y22000D02*
X717432D01*
X716432Y21000D02*
Y23000D01*
X715432Y28000D02*
X717432D01*
X716432Y27000D02*
Y29000D01*
X721432Y22000D02*
X723432D01*
X722432Y21000D02*
Y23000D01*
X721432Y28000D02*
X723432D01*
X722432Y27000D02*
Y29000D01*
X718000Y160000D02*
X720000D01*
X719000Y159000D02*
Y161000D01*
X742298Y23285D02*
X744297D01*
X743298Y22285D02*
Y24285D01*
X742298Y29285D02*
X744297D01*
X743298Y28285D02*
Y30285D01*
X748298Y23285D02*
X750297D01*
X749297Y22285D02*
Y24285D01*
X748298Y29285D02*
X750297D01*
X749297Y28285D02*
Y30285D01*
X692000Y242000D02*
X694000D01*
X693000Y241000D02*
Y243000D01*
X700000Y318000D02*
X702000D01*
X701000Y317000D02*
Y319000D01*
X760000Y202000D02*
X762000D01*
X761000Y201000D02*
Y203000D01*
X765000Y197000D02*
X767000D01*
X766000Y196000D02*
Y198000D01*
X760000Y197000D02*
X762000D01*
X761000Y196000D02*
Y198000D01*
X765000Y202000D02*
X767000D01*
X766000Y201000D02*
Y203000D01*
X703000Y286000D02*
X705000D01*
X704000Y285000D02*
Y287000D01*
X661984Y427516D02*
X663984D01*
X662984Y426516D02*
Y428516D01*
X652016Y437516D02*
X654016D01*
X653016Y436516D02*
Y438516D01*
X674700Y443200D02*
X676700D01*
X675700Y442200D02*
Y444200D01*
X705700Y406200D02*
X707700D01*
X706700Y405200D02*
Y407200D01*
X729700Y392200D02*
X731700D01*
X730700Y391200D02*
Y393200D01*
X685000Y454000D02*
X687000D01*
X686000Y453000D02*
Y455000D01*
X692868Y454069D02*
X694868D01*
X693868Y453069D02*
Y455069D01*
X685000Y461000D02*
X687000D01*
X686000Y460000D02*
Y462000D01*
X693000Y461000D02*
X695000D01*
X694000Y460000D02*
Y462000D01*
X699238Y441436D02*
X701237D01*
X700238Y440435D02*
Y442435D01*
X621984Y467484D02*
X623984D01*
X622984Y466484D02*
Y468484D01*
X607700Y516200D02*
X609700D01*
X608700Y515200D02*
Y517200D01*
X611970Y547498D02*
X613970D01*
X612970Y546498D02*
Y548498D01*
X632016Y467484D02*
X634016D01*
X633016Y466484D02*
Y468484D01*
X639700Y552200D02*
X641700D01*
X640700Y551200D02*
Y553200D01*
X614611Y669889D02*
X616611D01*
X615611Y668889D02*
Y670889D01*
X622016Y677516D02*
X624016D01*
X623016Y676516D02*
Y678516D01*
X622016Y687484D02*
X624016D01*
X623016Y686484D02*
Y688484D01*
X627825Y588700D02*
X629825D01*
X628825Y587700D02*
Y589700D01*
X631984Y677516D02*
X633984D01*
X632984Y676516D02*
Y678516D01*
X631984Y687484D02*
X633984D01*
X632984Y686484D02*
Y688484D01*
X652700Y588200D02*
X654700D01*
X653700Y587200D02*
Y589200D01*
X672700Y492200D02*
X674700D01*
X673700Y491200D02*
Y493200D01*
X697700Y503200D02*
X699700D01*
X698700Y502200D02*
Y504200D01*
X672700Y528200D02*
X674700D01*
X673700Y527200D02*
Y529200D01*
X709700Y585200D02*
X711700D01*
X710700Y584200D02*
Y586200D01*
X761000Y654500D02*
X763000D01*
X762000Y653500D02*
Y655500D01*
X761000Y660500D02*
X763000D01*
X762000Y659500D02*
Y661500D01*
X679672Y699000D02*
X681672D01*
X680672Y698000D02*
Y700000D01*
X86000Y529000D02*
X88000D01*
X87000Y528000D02*
Y530000D01*
X86000Y637000D02*
X88000D01*
X87000Y636000D02*
Y638000D01*
X63000Y414568D02*
X65000D01*
X64000Y413568D02*
Y415568D01*
X63000Y420568D02*
X65000D01*
X64000Y419568D02*
Y421568D01*
X30000Y510568D02*
X32000D01*
X31000Y509568D02*
Y511568D01*
X30000Y516568D02*
X32000D01*
X31000Y515568D02*
Y517568D01*
X30000Y618568D02*
X32000D01*
X31000Y617568D02*
Y619568D01*
X30000Y624568D02*
X32000D01*
X31000Y623568D02*
Y625568D01*
X37000Y594568D02*
X39000D01*
X38000Y593568D02*
Y595568D01*
X37000Y600568D02*
X39000D01*
X38000Y599568D02*
Y601568D01*
X65000Y706568D02*
X67000D01*
X66000Y705568D02*
Y707568D01*
X65000Y712568D02*
X67000D01*
X66000Y711568D02*
Y713568D01*
X266000Y116000D02*
X268000D01*
X267000Y115000D02*
Y117000D01*
X19000Y72000D02*
X21000D01*
X20000Y71000D02*
Y73000D01*
X19000Y132000D02*
X21000D01*
X20000Y131000D02*
Y133000D01*
X34000Y162000D02*
X36000D01*
X35000Y161000D02*
Y163000D01*
X19000Y252000D02*
X21000D01*
X20000Y251000D02*
Y253000D01*
X34000Y282000D02*
X36000D01*
X35000Y281000D02*
Y283000D01*
X19000Y312000D02*
X21000D01*
X20000Y311000D02*
Y313000D01*
X34000Y402000D02*
X36000D01*
X35000Y401000D02*
Y403000D01*
X19000Y492000D02*
X21000D01*
X20000Y491000D02*
Y493000D01*
X34000Y522000D02*
X36000D01*
X35000Y521000D02*
Y523000D01*
X34000Y582000D02*
X36000D01*
X35000Y581000D02*
Y583000D01*
X19000Y612000D02*
X21000D01*
X20000Y611000D02*
Y613000D01*
X19000Y672000D02*
X21000D01*
X20000Y671000D02*
Y673000D01*
X34000Y702000D02*
X36000D01*
X35000Y701000D02*
Y703000D01*
X19000Y732000D02*
X21000D01*
X20000Y731000D02*
Y732999D01*
X64000Y42000D02*
X66000D01*
X65000Y41000D02*
Y43000D01*
X49000Y72000D02*
X51000D01*
X50000Y71000D02*
Y73000D01*
X49000Y312000D02*
X51000D01*
X50000Y311000D02*
Y313000D01*
X49000Y492000D02*
X51000D01*
X50000Y491000D02*
Y493000D01*
X64000Y642000D02*
X66000D01*
X65000Y641000D02*
Y643000D01*
X49000Y732000D02*
X51000D01*
X50000Y731000D02*
Y732999D01*
X64000Y762000D02*
X66000D01*
X65000Y761000D02*
Y762999D01*
X94000Y42000D02*
X96000D01*
X95000Y41000D02*
Y43000D01*
X79000Y72000D02*
X81000D01*
X80000Y71000D02*
Y73000D01*
X94000Y222000D02*
X96000D01*
X95000Y221000D02*
Y223000D01*
X94000Y282000D02*
X96000D01*
X95000Y281000D02*
Y283000D01*
X94000Y462000D02*
X96000D01*
X95000Y461000D02*
Y463000D01*
X79000Y492000D02*
X81000D01*
X80000Y491000D02*
Y493000D01*
X79000Y552000D02*
X81000D01*
X80000Y551000D02*
Y553000D01*
X94000Y642000D02*
X96000D01*
X95000Y641000D02*
Y643000D01*
X94000Y762000D02*
X96000D01*
X95000Y761000D02*
Y762999D01*
X124000Y42000D02*
X126000D01*
X125000Y41000D02*
Y43000D01*
X109000Y72000D02*
X111000D01*
X110000Y71000D02*
Y73000D01*
X124000Y282000D02*
X126000D01*
X125000Y281000D02*
Y283000D01*
X124000Y462000D02*
X126000D01*
X125000Y461000D02*
Y463000D01*
X109000Y732000D02*
X111000D01*
X110000Y731000D02*
Y732999D01*
X124000Y762000D02*
X126000D01*
X125000Y761000D02*
Y762999D01*
X154000Y42000D02*
X156000D01*
X155000Y41000D02*
Y43000D01*
X139000Y72000D02*
X141000D01*
X140000Y71000D02*
Y73000D01*
X154000Y282000D02*
X156000D01*
X155000Y281000D02*
Y283000D01*
X139000Y732000D02*
X141000D01*
X140000Y731000D02*
Y732999D01*
X154000Y762000D02*
X156000D01*
X155000Y761000D02*
Y762999D01*
X184000Y42000D02*
X186000D01*
X185000Y41000D02*
Y43000D01*
X169000Y72000D02*
X171000D01*
X170000Y71000D02*
Y73000D01*
X184000Y102000D02*
X186000D01*
X185000Y101000D02*
Y103000D01*
X184000Y282000D02*
X186000D01*
X185000Y281000D02*
Y283000D01*
X169000Y732000D02*
X171000D01*
X170000Y731000D02*
Y732999D01*
X184000Y762000D02*
X186000D01*
X185000Y761000D02*
Y762999D01*
X214000Y42000D02*
X216000D01*
X215000Y41000D02*
Y43000D01*
X199000Y72000D02*
X201000D01*
X200000Y71000D02*
Y73000D01*
X199000Y192000D02*
X201000D01*
X200000Y191000D02*
Y193000D01*
X214000Y282000D02*
X216000D01*
X215000Y281000D02*
Y283000D01*
X214000Y342000D02*
X216000D01*
X215000Y341000D02*
Y343000D01*
X199000Y492000D02*
X201000D01*
X200000Y491000D02*
Y493000D01*
X199000Y732000D02*
X201000D01*
X200000Y731000D02*
Y732999D01*
X214000Y762000D02*
X216000D01*
X215000Y761000D02*
Y762999D01*
X229000Y72000D02*
X231000D01*
X230000Y71000D02*
Y73000D01*
X244000Y102000D02*
X246000D01*
X245000Y101000D02*
Y103000D01*
X244000Y222000D02*
X246000D01*
X245000Y221000D02*
Y223000D01*
X244000Y282000D02*
X246000D01*
X245000Y281000D02*
Y283000D01*
X244000Y342000D02*
X246000D01*
X245000Y341000D02*
Y343000D01*
X244000Y402000D02*
X246000D01*
X245000Y401000D02*
Y403000D01*
X244000Y462000D02*
X246000D01*
X245000Y461000D02*
Y463000D01*
X229000Y492000D02*
X231000D01*
X230000Y491000D02*
Y493000D01*
X244000Y522000D02*
X246000D01*
X245000Y521000D02*
Y523000D01*
X229000Y552000D02*
X231000D01*
X230000Y551000D02*
Y553000D01*
X229000Y612000D02*
X231000D01*
X230000Y611000D02*
Y613000D01*
X229000Y672000D02*
X231000D01*
X230000Y671000D02*
Y673000D01*
X229000Y732000D02*
X231000D01*
X230000Y731000D02*
Y732999D01*
X244000Y762000D02*
X246000D01*
X245000Y761000D02*
Y762999D01*
X259000Y72000D02*
X261000D01*
X260000Y71000D02*
Y73000D01*
X274000Y102000D02*
X276000D01*
X275000Y101000D02*
Y103000D01*
X274000Y222000D02*
X276000D01*
X275000Y221000D02*
Y223000D01*
X274000Y282000D02*
X276000D01*
X275000Y281000D02*
Y283000D01*
X259000Y492000D02*
X261000D01*
X260000Y491000D02*
Y493000D01*
X259000Y732000D02*
X261000D01*
X260000Y731000D02*
Y732999D01*
X274000Y762000D02*
X276000D01*
X275000Y761000D02*
Y762999D01*
X304000Y282000D02*
X306000D01*
X305000Y281000D02*
Y283000D01*
X304000Y342000D02*
X306000D01*
X305000Y341000D02*
Y343000D01*
X289000Y432000D02*
X291000D01*
X290000Y431000D02*
Y433000D01*
X304000Y702000D02*
X306000D01*
X305000Y701000D02*
Y703000D01*
X289000Y732000D02*
X291000D01*
X290000Y731000D02*
Y732999D01*
X304000Y762000D02*
X306000D01*
X305000Y761000D02*
Y762999D01*
X334000Y282000D02*
X336000D01*
X335000Y281000D02*
Y283000D01*
X334000Y342000D02*
X336000D01*
X335000Y341000D02*
Y343000D01*
X334000Y402000D02*
X336000D01*
X335000Y401000D02*
Y403000D01*
X319000Y432000D02*
X321000D01*
X320000Y431000D02*
Y433000D01*
X334000Y462000D02*
X336000D01*
X335000Y461000D02*
Y463000D01*
X319000Y492000D02*
X321000D01*
X320000Y491000D02*
Y493000D01*
X334000Y522000D02*
X336000D01*
X335000Y521000D02*
Y523000D01*
X319000Y552000D02*
X321000D01*
X320000Y551000D02*
Y553000D01*
X319000Y612000D02*
X321000D01*
X320000Y611000D02*
Y613000D01*
X319000Y672000D02*
X321000D01*
X320000Y671000D02*
Y673000D01*
X334000Y702000D02*
X336000D01*
X335000Y701000D02*
Y703000D01*
X319000Y732000D02*
X321000D01*
X320000Y731000D02*
Y732999D01*
X334000Y762000D02*
X336000D01*
X335000Y761000D02*
Y762999D01*
X364000Y42000D02*
X366000D01*
X365000Y41000D02*
Y43000D01*
X364000Y162000D02*
X366000D01*
X365000Y161000D02*
Y163000D01*
X349000Y192000D02*
X351000D01*
X350000Y191000D02*
Y193000D01*
X364000Y222000D02*
X366000D01*
X365000Y221000D02*
Y223000D01*
X364000Y282000D02*
X366000D01*
X365000Y281000D02*
Y283000D01*
X349000Y432000D02*
X351000D01*
X350000Y431000D02*
Y433000D01*
X349000Y492000D02*
X351000D01*
X350000Y491000D02*
Y493000D01*
X364000Y702000D02*
X366000D01*
X365000Y701000D02*
Y703000D01*
X349000Y732000D02*
X351000D01*
X350000Y731000D02*
Y732999D01*
X364000Y762000D02*
X366000D01*
X365000Y761000D02*
Y762999D01*
X394000Y42000D02*
X396000D01*
X395000Y41000D02*
Y43000D01*
X394000Y162000D02*
X396000D01*
X395000Y161000D02*
Y163000D01*
X379000Y252000D02*
X381000D01*
X380000Y251000D02*
Y253000D01*
X394000Y282000D02*
X396000D01*
X395000Y281000D02*
Y283000D01*
X394000Y342000D02*
X396000D01*
X395000Y341000D02*
Y343000D01*
X379000Y372000D02*
X381000D01*
X380000Y371000D02*
Y373000D01*
X394000Y702000D02*
X396000D01*
X395000Y701000D02*
Y703000D01*
X379000Y732000D02*
X381000D01*
X380000Y731000D02*
Y732999D01*
X394000Y762000D02*
X396000D01*
X395000Y761000D02*
Y762999D01*
X409000Y72000D02*
X411000D01*
X410000Y71000D02*
Y73000D01*
X424000Y102000D02*
X426000D01*
X425000Y101000D02*
Y103000D01*
X409000Y192000D02*
X411000D01*
X410000Y191000D02*
Y193000D01*
X409000Y252000D02*
X411000D01*
X410000Y251000D02*
Y253000D01*
X424000Y282000D02*
X426000D01*
X425000Y281000D02*
Y283000D01*
X424000Y342000D02*
X426000D01*
X425000Y341000D02*
Y343000D01*
X409000Y372000D02*
X411000D01*
X410000Y371000D02*
Y373000D01*
X424000Y402000D02*
X426000D01*
X425000Y401000D02*
Y403000D01*
X409000Y432000D02*
X411000D01*
X410000Y431000D02*
Y433000D01*
X424000Y462000D02*
X426000D01*
X425000Y461000D02*
Y463000D01*
X409000Y492000D02*
X411000D01*
X410000Y491000D02*
Y493000D01*
X424000Y522000D02*
X426000D01*
X425000Y521000D02*
Y523000D01*
X409000Y552000D02*
X411000D01*
X410000Y551000D02*
Y553000D01*
X409000Y612000D02*
X411000D01*
X410000Y611000D02*
Y613000D01*
X409000Y672000D02*
X411000D01*
X410000Y671000D02*
Y673000D01*
X424000Y702000D02*
X426000D01*
X425000Y701000D02*
Y703000D01*
X409000Y732000D02*
X411000D01*
X410000Y731000D02*
Y732999D01*
X424000Y762000D02*
X426000D01*
X425000Y761000D02*
Y762999D01*
X439000Y72000D02*
X441000D01*
X440000Y71000D02*
Y73000D01*
X454000Y102000D02*
X456000D01*
X455000Y101000D02*
Y103000D01*
X439000Y192000D02*
X441000D01*
X440000Y191000D02*
Y193000D01*
X439000Y252000D02*
X441000D01*
X440000Y251000D02*
Y253000D01*
X454000Y282000D02*
X456000D01*
X455000Y281000D02*
Y283000D01*
X439000Y372000D02*
X441000D01*
X440000Y371000D02*
Y373000D01*
X439000Y432000D02*
X441000D01*
X440000Y431000D02*
Y433000D01*
X439000Y492000D02*
X441000D01*
X440000Y491000D02*
Y493000D01*
X439000Y552000D02*
X441000D01*
X440000Y551000D02*
Y553000D01*
X454000Y702000D02*
X456000D01*
X455000Y701000D02*
Y703000D01*
X439000Y732000D02*
X441000D01*
X440000Y731000D02*
Y732999D01*
X484000Y42000D02*
X486000D01*
X485000Y41000D02*
Y43000D01*
X469000Y192000D02*
X471000D01*
X470000Y191000D02*
Y193000D01*
X469000Y252000D02*
X471000D01*
X470000Y251000D02*
Y253000D01*
X484000Y282000D02*
X486000D01*
X485000Y281000D02*
Y283000D01*
X484000Y582000D02*
X486000D01*
X485000Y581000D02*
Y583000D01*
X484000Y642000D02*
X486000D01*
X485000Y641000D02*
Y643000D01*
X484000Y702000D02*
X486000D01*
X485000Y701000D02*
Y703000D01*
X469000Y732000D02*
X471000D01*
X470000Y731000D02*
Y732999D01*
X484000Y762000D02*
X486000D01*
X485000Y761000D02*
Y762999D01*
X514000Y42000D02*
X516000D01*
X515000Y41000D02*
Y43000D01*
X514000Y102000D02*
X516000D01*
X515000Y101000D02*
Y103000D01*
X514000Y162000D02*
X516000D01*
X515000Y161000D02*
Y163000D01*
X499000Y192000D02*
X501000D01*
X500000Y191000D02*
Y193000D01*
X499000Y252000D02*
X501000D01*
X500000Y251000D02*
Y253000D01*
X514000Y282000D02*
X516000D01*
X515000Y281000D02*
Y283000D01*
X514000Y342000D02*
X516000D01*
X515000Y341000D02*
Y343000D01*
X499000Y732000D02*
X501000D01*
X500000Y731000D02*
Y732999D01*
X544000Y42000D02*
X546000D01*
X545000Y41000D02*
Y43000D01*
X529000Y72000D02*
X531000D01*
X530000Y71000D02*
Y73000D01*
X544000Y162000D02*
X546000D01*
X545000Y161000D02*
Y163000D01*
X529000Y252000D02*
X531000D01*
X530000Y251000D02*
Y253000D01*
X544000Y282000D02*
X546000D01*
X545000Y281000D02*
Y283000D01*
X574000Y42000D02*
X576000D01*
X575000Y41000D02*
Y43000D01*
X559000Y72000D02*
X561000D01*
X560000Y71000D02*
Y73000D01*
X574000Y162000D02*
X576000D01*
X575000Y161000D02*
Y163000D01*
X559000Y252000D02*
X561000D01*
X560000Y251000D02*
Y253000D01*
X574000Y282000D02*
X576000D01*
X575000Y281000D02*
Y283000D01*
X604000Y42000D02*
X606000D01*
X605000Y41000D02*
Y43000D01*
X604000Y162000D02*
X606000D01*
X605000Y161000D02*
Y163000D01*
X604000Y282000D02*
X606000D01*
X605000Y281000D02*
Y283000D01*
X634000Y42000D02*
X636000D01*
X635000Y41000D02*
Y43000D01*
X634000Y162000D02*
X636000D01*
X635000Y161000D02*
Y163000D01*
X634000Y282000D02*
X636000D01*
X635000Y281000D02*
Y283000D01*
X619000Y732000D02*
X621000D01*
X620000Y731000D02*
Y732999D01*
X664000Y42000D02*
X666000D01*
X665000Y41000D02*
Y43000D01*
X664000Y282000D02*
X666000D01*
X665000Y281000D02*
Y283000D01*
X694000Y42000D02*
X696000D01*
X695000Y41000D02*
Y43000D01*
X709000Y72000D02*
X711000D01*
X710000Y71000D02*
Y73000D01*
X709000Y132000D02*
X711000D01*
X710000Y131000D02*
Y133000D01*
X754000Y42000D02*
X756000D01*
X755000Y41000D02*
Y43000D01*
X739000Y312000D02*
X741000D01*
X740000Y311000D02*
Y313000D01*
X754000Y342000D02*
X756000D01*
X755000Y341000D02*
Y343000D01*
X754000Y702000D02*
X756000D01*
X755000Y701000D02*
Y703000D01*
X754000Y762000D02*
X756000D01*
X755000Y761000D02*
Y762999D01*
X769000Y72000D02*
X771000D01*
X770000Y71000D02*
Y73000D01*
X784000Y102000D02*
X786000D01*
X785000Y101000D02*
Y103000D01*
X769000Y132000D02*
X771000D01*
X770000Y131000D02*
Y133000D01*
X769000Y192000D02*
X771000D01*
X770000Y191000D02*
Y193000D01*
X784000Y222000D02*
X786000D01*
X785000Y221000D02*
Y223000D01*
X769000Y252000D02*
X771000D01*
X770000Y251000D02*
Y253000D01*
X784000Y282000D02*
X786000D01*
X785000Y281000D02*
Y283000D01*
X784000Y342000D02*
X786000D01*
X785000Y341000D02*
Y343000D01*
X784000Y402000D02*
X786000D01*
X785000Y401000D02*
Y403000D01*
X784000Y582000D02*
X786000D01*
X785000Y581000D02*
Y583000D01*
X799000Y72000D02*
X801000D01*
X800000Y71000D02*
Y73000D01*
X799000Y132000D02*
X801000D01*
X800000Y131000D02*
Y133000D01*
X799000Y192000D02*
X801000D01*
X800000Y191000D02*
Y193000D01*
X799000Y252000D02*
X801000D01*
X800000Y251000D02*
Y253000D01*
X799000Y312000D02*
X801000D01*
X800000Y311000D02*
Y313000D01*
X799000Y372000D02*
X801000D01*
X800000Y371000D02*
Y373000D01*
X799000Y492000D02*
X801000D01*
X800000Y491000D02*
Y493000D01*
X799000Y612000D02*
X801000D01*
X800000Y611000D02*
Y613000D01*
X799000Y672000D02*
X801000D01*
X800000Y671000D02*
Y673000D01*
X799000Y732000D02*
X801000D01*
X800000Y731000D02*
Y732999D01*
X169000Y342001D02*
X171000D01*
X170000Y341001D02*
Y343001D01*
X169000Y602001D02*
X171000D01*
X170000Y601001D02*
Y603001D01*
X199000Y362001D02*
X201000D01*
X200000Y361001D02*
Y363001D01*
X204000Y492001D02*
X206000D01*
X205000Y491001D02*
Y493001D01*
X199000Y622001D02*
X201000D01*
X200000Y621001D02*
Y623001D01*
X209000Y342001D02*
X211000D01*
X210000Y341001D02*
Y343001D01*
X209000Y362001D02*
X211000D01*
X210000Y361001D02*
Y363001D01*
X214000Y472001D02*
X216000D01*
X215000Y471001D02*
Y473001D01*
X214000Y492001D02*
X216000D01*
X215000Y491001D02*
Y493001D01*
X209000Y602001D02*
X211000D01*
X210000Y601001D02*
Y603001D01*
X209000Y622001D02*
X211000D01*
X210000Y621001D02*
Y623001D01*
X224000Y332001D02*
X226000D01*
X225000Y331001D02*
Y333001D01*
X219000Y342001D02*
X221000D01*
X220000Y341001D02*
Y343001D01*
X224000Y352001D02*
X226000D01*
X225000Y351001D02*
Y353001D01*
X219000Y362001D02*
X221000D01*
X220000Y361001D02*
Y363001D01*
X224000Y392001D02*
X226000D01*
X225000Y391001D02*
Y393001D01*
X219000Y402001D02*
X221000D01*
X220000Y401001D02*
Y403001D01*
X224000Y412001D02*
X226000D01*
X225000Y411001D02*
Y413001D01*
X219000Y422001D02*
X221000D01*
X220000Y421001D02*
Y423001D01*
X224000Y472001D02*
X226000D01*
X225000Y471001D02*
Y473001D01*
X224000Y492001D02*
X226000D01*
X225000Y491001D02*
Y493001D01*
X224000Y532001D02*
X226000D01*
X225000Y531001D02*
Y533001D01*
X224000Y552001D02*
X226000D01*
X225000Y551001D02*
Y553001D01*
X224000Y592001D02*
X226000D01*
X225000Y591001D02*
Y593001D01*
X219000Y602001D02*
X221000D01*
X220000Y601001D02*
Y603001D01*
X224000Y612001D02*
X226000D01*
X225000Y611001D02*
Y613001D01*
X219000Y622001D02*
X221000D01*
X220000Y621001D02*
Y623001D01*
X224000Y652001D02*
X226000D01*
X225000Y651001D02*
Y653001D01*
X219000Y662001D02*
X221000D01*
X220000Y661001D02*
Y663001D01*
X224000Y672001D02*
X226000D01*
X225000Y671001D02*
Y673001D01*
X219000Y682001D02*
X221000D01*
X220000Y681001D02*
Y683001D01*
X234000Y332001D02*
X236000D01*
X235000Y331001D02*
Y333001D01*
X229000Y342001D02*
X231000D01*
X230000Y341001D02*
Y343001D01*
X234000Y352001D02*
X236000D01*
X235000Y351001D02*
Y353001D01*
X229000Y362001D02*
X231000D01*
X230000Y361001D02*
Y363001D01*
X234000Y392001D02*
X236000D01*
X235000Y391001D02*
Y393001D01*
X229000Y402001D02*
X231000D01*
X230000Y401001D02*
Y403001D01*
X234000Y412001D02*
X236000D01*
X235000Y411001D02*
Y413001D01*
X229000Y422001D02*
X231000D01*
X230000Y421001D02*
Y423001D01*
X229000Y462001D02*
X231000D01*
X230000Y461001D02*
Y463001D01*
X234000Y472001D02*
X236000D01*
X235000Y471001D02*
Y473001D01*
X229000Y482001D02*
X231000D01*
X230000Y481001D02*
Y483001D01*
X234000Y492001D02*
X236000D01*
X235000Y491001D02*
Y493001D01*
X229000Y522001D02*
X231000D01*
X230000Y521001D02*
Y523001D01*
X234000Y532001D02*
X236000D01*
X235000Y531001D02*
Y533001D01*
X229000Y542001D02*
X231000D01*
X230000Y541001D02*
Y543001D01*
X234000Y552001D02*
X236000D01*
X235000Y551001D02*
Y553001D01*
X234000Y592001D02*
X236000D01*
X235000Y591001D02*
Y593001D01*
X229000Y602001D02*
X231000D01*
X230000Y601001D02*
Y603001D01*
X234000Y612001D02*
X236000D01*
X235000Y611001D02*
Y613001D01*
X229000Y622001D02*
X231000D01*
X230000Y621001D02*
Y623001D01*
X234000Y652001D02*
X236000D01*
X235000Y651001D02*
Y653001D01*
X229000Y662001D02*
X231000D01*
X230000Y661001D02*
Y663001D01*
X234000Y672001D02*
X236000D01*
X235000Y671001D02*
Y673001D01*
X229000Y682001D02*
X231000D01*
X230000Y681001D02*
Y683001D01*
X244000Y332001D02*
X246000D01*
X245000Y331001D02*
Y333001D01*
X239000Y342001D02*
X241000D01*
X240000Y341001D02*
Y343001D01*
X244000Y352001D02*
X246000D01*
X245000Y351001D02*
Y353001D01*
X239000Y362001D02*
X241000D01*
X240000Y361001D02*
Y363001D01*
X244000Y392001D02*
X246000D01*
X245000Y391001D02*
Y393001D01*
X239000Y402001D02*
X241000D01*
X240000Y401001D02*
Y403001D01*
X244000Y412001D02*
X246000D01*
X245000Y411001D02*
Y413001D01*
X239000Y422001D02*
X241000D01*
X240000Y421001D02*
Y423001D01*
X239000Y462001D02*
X241000D01*
X240000Y461001D02*
Y463001D01*
X244000Y472001D02*
X246000D01*
X245000Y471001D02*
Y473001D01*
X239000Y482001D02*
X241000D01*
X240000Y481001D02*
Y483001D01*
X244000Y492001D02*
X246000D01*
X245000Y491001D02*
Y493001D01*
X239000Y522001D02*
X241000D01*
X240000Y521001D02*
Y523001D01*
X244000Y532001D02*
X246000D01*
X245000Y531001D02*
Y533001D01*
X239000Y542001D02*
X241000D01*
X240000Y541001D02*
Y543001D01*
X244000Y552001D02*
X246000D01*
X245000Y551001D02*
Y553001D01*
X244000Y592001D02*
X246000D01*
X245000Y591001D02*
Y593001D01*
X239000Y602001D02*
X241000D01*
X240000Y601001D02*
Y603001D01*
X244000Y612001D02*
X246000D01*
X245000Y611001D02*
Y613001D01*
X239000Y622001D02*
X241000D01*
X240000Y621001D02*
Y623001D01*
X244000Y652001D02*
X246000D01*
X245000Y651001D02*
Y653001D01*
X239000Y662001D02*
X241000D01*
X240000Y661001D02*
Y663001D01*
X244000Y672001D02*
X246000D01*
X245000Y671001D02*
Y673001D01*
X239000Y682001D02*
X241000D01*
X240000Y681001D02*
Y683001D01*
X249000Y342001D02*
X251000D01*
X250000Y341001D02*
Y343001D01*
X249000Y362001D02*
X251000D01*
X250000Y361001D02*
Y363001D01*
X249000Y402001D02*
X251000D01*
X250000Y401001D02*
Y403001D01*
X249000Y422001D02*
X251000D01*
X250000Y421001D02*
Y423001D01*
X249000Y462001D02*
X251000D01*
X250000Y461001D02*
Y463001D01*
X254000Y472001D02*
X256000D01*
X255000Y471001D02*
Y473001D01*
X249000Y482001D02*
X251000D01*
X250000Y481001D02*
Y483001D01*
X254000Y492001D02*
X256000D01*
X255000Y491001D02*
Y493001D01*
X249000Y522001D02*
X251000D01*
X250000Y521001D02*
Y523001D01*
X249000Y542001D02*
X251000D01*
X250000Y541001D02*
Y543001D01*
X249000Y602001D02*
X251000D01*
X250000Y601001D02*
Y603001D01*
X249000Y622001D02*
X251000D01*
X250000Y621001D02*
Y623001D01*
X249000Y662001D02*
X251000D01*
X250000Y661001D02*
Y663001D01*
X249000Y682001D02*
X251000D01*
X250000Y681001D02*
Y683001D01*
X259000Y342001D02*
X261000D01*
X260000Y341001D02*
Y343001D01*
X259000Y362001D02*
X261000D01*
X260000Y361001D02*
Y363001D01*
X264000Y472001D02*
X266000D01*
X265000Y471001D02*
Y473001D01*
X264000Y492001D02*
X266000D01*
X265000Y491001D02*
Y493001D01*
X259000Y602001D02*
X261000D01*
X260000Y601001D02*
Y603001D01*
X259000Y622001D02*
X261000D01*
X260000Y621001D02*
Y623001D01*
X269000Y362001D02*
X271000D01*
X270000Y361001D02*
Y363001D01*
X274000Y492001D02*
X276000D01*
X275000Y491001D02*
Y493001D01*
X269000Y622001D02*
X271000D01*
X270000Y621001D02*
Y623001D01*
X294000Y432001D02*
X296000D01*
X295000Y431001D02*
Y433001D01*
X294000Y492001D02*
X296000D01*
X295000Y491001D02*
Y493001D01*
X289000Y562001D02*
X291000D01*
X290000Y561001D02*
Y563001D01*
X299000Y342001D02*
X301000D01*
X300000Y341001D02*
Y343001D01*
X299000Y362001D02*
X301000D01*
X300000Y361001D02*
Y363001D01*
X304000Y432001D02*
X306000D01*
X305000Y431001D02*
Y433001D01*
X304000Y472001D02*
X306000D01*
X305000Y471001D02*
Y473001D01*
X304000Y492001D02*
X306000D01*
X305000Y491001D02*
Y493001D01*
X299000Y562001D02*
X301000D01*
X300000Y561001D02*
Y563001D01*
X299000Y602001D02*
X301000D01*
X300000Y601001D02*
Y603001D01*
X299000Y622001D02*
X301000D01*
X300000Y621001D02*
Y623001D01*
X309000Y342001D02*
X311000D01*
X310000Y341001D02*
Y343001D01*
X309000Y362001D02*
X311000D01*
X310000Y361001D02*
Y363001D01*
X314000Y392001D02*
X316000D01*
X315000Y391001D02*
Y393001D01*
X314000Y412001D02*
X316000D01*
X315000Y411001D02*
Y413001D01*
X314000Y432001D02*
X316000D01*
X315000Y431001D02*
Y433001D01*
X314000Y472001D02*
X316000D01*
X315000Y471001D02*
Y473001D01*
X314000Y492001D02*
X316000D01*
X315000Y491001D02*
Y493001D01*
X314000Y532001D02*
X316000D01*
X315000Y531001D02*
Y533001D01*
X314000Y552001D02*
X316000D01*
X315000Y551001D02*
Y553001D01*
X309000Y562001D02*
X311000D01*
X310000Y561001D02*
Y563001D01*
X309000Y602001D02*
X311000D01*
X310000Y601001D02*
Y603001D01*
X309000Y622001D02*
X311000D01*
X310000Y621001D02*
Y623001D01*
X314000Y652001D02*
X316000D01*
X315000Y651001D02*
Y653001D01*
X314000Y672001D02*
X316000D01*
X315000Y671001D02*
Y673001D01*
X324001Y332001D02*
X326001D01*
X325000Y331001D02*
Y333001D01*
X319000Y342001D02*
X321001D01*
X320000Y341001D02*
Y343001D01*
X324001Y352001D02*
X326001D01*
X325000Y351001D02*
Y353001D01*
X319000Y362001D02*
X321001D01*
X320000Y361001D02*
Y363001D01*
X324001Y392001D02*
X326001D01*
X325000Y391001D02*
Y393001D01*
X319000Y402001D02*
X321001D01*
X320000Y401001D02*
Y403001D01*
X324001Y412001D02*
X326001D01*
X325000Y411001D02*
Y413001D01*
X319000Y422001D02*
X321001D01*
X320000Y421001D02*
Y423001D01*
X324001Y432001D02*
X326001D01*
X325000Y431001D02*
Y433001D01*
X319000Y462001D02*
X321001D01*
X320000Y461001D02*
Y463001D01*
X324001Y472001D02*
X326001D01*
X325000Y471001D02*
Y473001D01*
X319000Y482001D02*
X321001D01*
X320000Y481001D02*
Y483001D01*
X324001Y492001D02*
X326001D01*
X325000Y491001D02*
Y493001D01*
X319000Y522001D02*
X321001D01*
X320000Y521001D02*
Y523001D01*
X324001Y532001D02*
X326001D01*
X325000Y531001D02*
Y533001D01*
X319000Y542001D02*
X321001D01*
X320000Y541001D02*
Y543001D01*
X324001Y552001D02*
X326001D01*
X325000Y551001D02*
Y553001D01*
X319000Y562001D02*
X321001D01*
X320000Y561001D02*
Y563001D01*
X324001Y592001D02*
X326001D01*
X325000Y591001D02*
Y593001D01*
X319000Y602001D02*
X321001D01*
X320000Y601001D02*
Y603001D01*
X324001Y612001D02*
X326001D01*
X325000Y611001D02*
Y613001D01*
X319000Y622001D02*
X321001D01*
X320000Y621001D02*
Y623001D01*
X324001Y652001D02*
X326001D01*
X325000Y651001D02*
Y653001D01*
X319000Y662001D02*
X321001D01*
X320000Y661001D02*
Y663001D01*
X324001Y672001D02*
X326001D01*
X325000Y671001D02*
Y673001D01*
X319000Y682001D02*
X321001D01*
X320000Y681001D02*
Y683001D01*
X334001Y332001D02*
X336001D01*
X335000Y331001D02*
Y333001D01*
X329001Y342001D02*
X331001D01*
X330000Y341001D02*
Y343001D01*
X334001Y352001D02*
X336001D01*
X335000Y351001D02*
Y353001D01*
X329001Y362001D02*
X331001D01*
X330000Y361001D02*
Y363001D01*
X334001Y392001D02*
X336001D01*
X335000Y391001D02*
Y393001D01*
X329001Y402001D02*
X331001D01*
X330000Y401001D02*
Y403001D01*
X334001Y412001D02*
X336001D01*
X335000Y411001D02*
Y413001D01*
X329001Y422001D02*
X331001D01*
X330000Y421001D02*
Y423001D01*
X334001Y432001D02*
X336001D01*
X335000Y431001D02*
Y433001D01*
X329001Y462001D02*
X331001D01*
X330000Y461001D02*
Y463001D01*
X334001Y472001D02*
X336001D01*
X335000Y471001D02*
Y473001D01*
X329001Y482001D02*
X331001D01*
X330000Y481001D02*
Y483001D01*
X334001Y492001D02*
X336001D01*
X335000Y491001D02*
Y493001D01*
X329001Y522001D02*
X331001D01*
X330000Y521001D02*
Y523001D01*
X334001Y532001D02*
X336001D01*
X335000Y531001D02*
Y533001D01*
X329001Y542001D02*
X331001D01*
X330000Y541001D02*
Y543001D01*
X334001Y552001D02*
X336001D01*
X335000Y551001D02*
Y553001D01*
X329001Y562001D02*
X331001D01*
X330000Y561001D02*
Y563001D01*
X334001Y592001D02*
X336001D01*
X335000Y591001D02*
Y593001D01*
X329001Y602001D02*
X331001D01*
X330000Y601001D02*
Y603001D01*
X334001Y612001D02*
X336001D01*
X335000Y611001D02*
Y613001D01*
X329001Y622001D02*
X331001D01*
X330000Y621001D02*
Y623001D01*
X334001Y652001D02*
X336001D01*
X335000Y651001D02*
Y653001D01*
X329001Y662001D02*
X331001D01*
X330000Y661001D02*
Y663001D01*
X334001Y672001D02*
X336001D01*
X335000Y671001D02*
Y673001D01*
X329001Y682001D02*
X331001D01*
X330000Y681001D02*
Y683001D01*
X344001Y332001D02*
X346001D01*
X345000Y331001D02*
Y333001D01*
X339001Y342001D02*
X341001D01*
X340000Y341001D02*
Y343001D01*
X344001Y352001D02*
X346001D01*
X345000Y351001D02*
Y353001D01*
X339001Y362001D02*
X341001D01*
X340000Y361001D02*
Y363001D01*
X344001Y392001D02*
X346001D01*
X345000Y391001D02*
Y393001D01*
X339001Y402001D02*
X341001D01*
X340000Y401001D02*
Y403001D01*
X344001Y412001D02*
X346001D01*
X345000Y411001D02*
Y413001D01*
X339001Y422001D02*
X341001D01*
X340000Y421001D02*
Y423001D01*
X344001Y432001D02*
X346001D01*
X345000Y431001D02*
Y433001D01*
X339001Y462001D02*
X341001D01*
X340000Y461001D02*
Y463001D01*
X344001Y472001D02*
X346001D01*
X345000Y471001D02*
Y473001D01*
X339001Y482001D02*
X341001D01*
X340000Y481001D02*
Y483001D01*
X344001Y492001D02*
X346001D01*
X345000Y491001D02*
Y493001D01*
X339001Y522001D02*
X341001D01*
X340000Y521001D02*
Y523001D01*
X344001Y532001D02*
X346001D01*
X345000Y531001D02*
Y533001D01*
X339001Y542001D02*
X341001D01*
X340000Y541001D02*
Y543001D01*
X344001Y552001D02*
X346001D01*
X345000Y551001D02*
Y553001D01*
X339001Y562001D02*
X341001D01*
X340000Y561001D02*
Y563001D01*
X344001Y592001D02*
X346001D01*
X345000Y591001D02*
Y593001D01*
X339001Y602001D02*
X341001D01*
X340000Y601001D02*
Y603001D01*
X344001Y612001D02*
X346001D01*
X345000Y611001D02*
Y613001D01*
X339001Y622001D02*
X341001D01*
X340000Y621001D02*
Y623001D01*
X344001Y652001D02*
X346001D01*
X345000Y651001D02*
Y653001D01*
X339001Y662001D02*
X341001D01*
X340000Y661001D02*
Y663001D01*
X344001Y672001D02*
X346001D01*
X345000Y671001D02*
Y673001D01*
X339001Y682001D02*
X341001D01*
X340000Y681001D02*
Y683001D01*
X349001Y342001D02*
X351001D01*
X350000Y341001D02*
Y343001D01*
X349001Y362001D02*
X351001D01*
X350000Y361001D02*
Y363001D01*
X354001Y432001D02*
X356001D01*
X355000Y431001D02*
Y433001D01*
X354001Y472001D02*
X356001D01*
X355000Y471001D02*
Y473001D01*
X354001Y492001D02*
X356001D01*
X355000Y491001D02*
Y493001D01*
X349001Y562001D02*
X351001D01*
X350000Y561001D02*
Y563001D01*
X349001Y602001D02*
X351001D01*
X350000Y601001D02*
Y603001D01*
X349001Y622001D02*
X351001D01*
X350000Y621001D02*
Y623001D01*
X359001Y342001D02*
X361001D01*
X360000Y341001D02*
Y343001D01*
X359001Y362001D02*
X361001D01*
X360000Y361001D02*
Y363001D01*
X364001Y432001D02*
X366001D01*
X365000Y431001D02*
Y433001D01*
X364001Y492001D02*
X366001D01*
X365000Y491001D02*
Y493001D01*
X359001Y562001D02*
X361001D01*
X360000Y561001D02*
Y563001D01*
X359001Y602001D02*
X361001D01*
X360000Y601001D02*
Y603001D01*
X359001Y622001D02*
X361001D01*
X360000Y621001D02*
Y623001D01*
X369001Y362001D02*
X371001D01*
X370000Y361001D02*
Y363001D01*
X374001Y572001D02*
X376001D01*
X375000Y571001D02*
Y573001D01*
X369001Y622001D02*
X371001D01*
X370000Y621001D02*
Y623001D01*
X384001Y372001D02*
X386001D01*
X385000Y371001D02*
Y373001D01*
X384001Y432001D02*
X386001D01*
X385000Y431001D02*
Y433001D01*
X379001Y442001D02*
X381001D01*
X380000Y441001D02*
Y443001D01*
X379001Y502001D02*
X381001D01*
X380000Y501001D02*
Y503001D01*
X384001Y572001D02*
X386001D01*
X385000Y571001D02*
Y573001D01*
X384001Y632001D02*
X386001D01*
X385000Y631001D02*
Y633001D01*
X389001Y362001D02*
X391001D01*
X390000Y361001D02*
Y363001D01*
X394001Y372001D02*
X396001D01*
X395000Y371001D02*
Y373001D01*
X394001Y432001D02*
X396001D01*
X395000Y431001D02*
Y433001D01*
X389001Y442001D02*
X391001D01*
X390000Y441001D02*
Y443001D01*
X394001Y472001D02*
X396001D01*
X395000Y471001D02*
Y473001D01*
X394001Y492001D02*
X396001D01*
X395000Y491001D02*
Y493001D01*
X389001Y502001D02*
X391001D01*
X390000Y501001D02*
Y503001D01*
X389001Y562001D02*
X391001D01*
X390000Y561001D02*
Y563001D01*
X394001Y572001D02*
X396001D01*
X395000Y571001D02*
Y573001D01*
X389001Y622001D02*
X391001D01*
X390000Y621001D02*
Y623001D01*
X394001Y632001D02*
X396001D01*
X395000Y631001D02*
Y633001D01*
X399001Y342001D02*
X401001D01*
X400000Y341001D02*
Y343001D01*
X399001Y362001D02*
X401001D01*
X400000Y361001D02*
Y363001D01*
X404001Y372001D02*
X406001D01*
X405000Y371001D02*
Y373001D01*
X404001Y432001D02*
X406001D01*
X405000Y431001D02*
Y433001D01*
X399001Y442001D02*
X401001D01*
X400000Y441001D02*
Y443001D01*
X404001Y472001D02*
X406001D01*
X405000Y471001D02*
Y473001D01*
X404001Y492001D02*
X406001D01*
X405000Y491001D02*
Y493001D01*
X399001Y502001D02*
X401001D01*
X400000Y501001D02*
Y503001D01*
X399001Y562001D02*
X401001D01*
X400000Y561001D02*
Y563001D01*
X404001Y572001D02*
X406001D01*
X405000Y571001D02*
Y573001D01*
X399001Y602001D02*
X401001D01*
X400000Y601001D02*
Y603001D01*
X399001Y622001D02*
X401001D01*
X400000Y621001D02*
Y623001D01*
X404001Y632001D02*
X406001D01*
X405000Y631001D02*
Y633001D01*
X414001Y332001D02*
X416001D01*
X415000Y331001D02*
Y333001D01*
X409001Y342001D02*
X411001D01*
X410001Y341001D02*
Y343001D01*
X414001Y352001D02*
X416001D01*
X415000Y351001D02*
Y353001D01*
X409001Y362001D02*
X411001D01*
X410001Y361001D02*
Y363001D01*
X414001Y372001D02*
X416001D01*
X415000Y371001D02*
Y373001D01*
X414001Y392001D02*
X416001D01*
X415000Y391001D02*
Y393001D01*
X409001Y402001D02*
X411001D01*
X410001Y401001D02*
Y403001D01*
X414001Y412001D02*
X416001D01*
X415000Y411001D02*
Y413001D01*
X409001Y422001D02*
X411001D01*
X410001Y421001D02*
Y423001D01*
X414001Y432001D02*
X416001D01*
X415000Y431001D02*
Y433001D01*
X409001Y442001D02*
X411001D01*
X410001Y441001D02*
Y443001D01*
X409001Y462001D02*
X411001D01*
X410001Y461001D02*
Y463001D01*
X414001Y472001D02*
X416001D01*
X415000Y471001D02*
Y473001D01*
X409001Y482001D02*
X411001D01*
X410001Y481001D02*
Y483001D01*
X414001Y492001D02*
X416001D01*
X415000Y491001D02*
Y493001D01*
X409001Y502001D02*
X411001D01*
X410001Y501001D02*
Y503001D01*
X409001Y522001D02*
X411001D01*
X410001Y521001D02*
Y523001D01*
X414001Y532001D02*
X416001D01*
X415000Y531001D02*
Y533001D01*
X409001Y542001D02*
X411001D01*
X410001Y541001D02*
Y543001D01*
X414001Y552001D02*
X416001D01*
X415000Y551001D02*
Y553001D01*
X409001Y562001D02*
X411001D01*
X410001Y561001D02*
Y563001D01*
X414001Y572001D02*
X416001D01*
X415000Y571001D02*
Y573001D01*
X414001Y592001D02*
X416001D01*
X415000Y591001D02*
Y593001D01*
X409001Y602001D02*
X411001D01*
X410001Y601001D02*
Y603001D01*
X414001Y612001D02*
X416001D01*
X415000Y611001D02*
Y613001D01*
X409001Y622001D02*
X411001D01*
X410001Y621001D02*
Y623001D01*
X414001Y632001D02*
X416001D01*
X415000Y631001D02*
Y633001D01*
X414001Y652001D02*
X416001D01*
X415000Y651001D02*
Y653001D01*
X409001Y662001D02*
X411001D01*
X410001Y661001D02*
Y663001D01*
X414001Y672001D02*
X416001D01*
X415000Y671001D02*
Y673001D01*
X409001Y682001D02*
X411001D01*
X410001Y681001D02*
Y683001D01*
X424001Y332001D02*
X426001D01*
X425000Y331001D02*
Y333001D01*
X419001Y342001D02*
X421001D01*
X420001Y341001D02*
Y343001D01*
X424001Y352001D02*
X426001D01*
X425000Y351001D02*
Y353001D01*
X419001Y362001D02*
X421001D01*
X420001Y361001D02*
Y363001D01*
X424001Y372001D02*
X426001D01*
X425000Y371001D02*
Y373001D01*
X424001Y392001D02*
X426001D01*
X425000Y391001D02*
Y393001D01*
X419001Y402001D02*
X421001D01*
X420001Y401001D02*
Y403001D01*
X424001Y412001D02*
X426001D01*
X425000Y411001D02*
Y413001D01*
X419001Y422001D02*
X421001D01*
X420001Y421001D02*
Y423001D01*
X424001Y432001D02*
X426001D01*
X425000Y431001D02*
Y433001D01*
X419001Y442001D02*
X421001D01*
X420001Y441001D02*
Y443001D01*
X419001Y462001D02*
X421001D01*
X420001Y461001D02*
Y463001D01*
X424001Y472001D02*
X426001D01*
X425000Y471001D02*
Y473001D01*
X419001Y482001D02*
X421001D01*
X420001Y481001D02*
Y483001D01*
X424001Y492001D02*
X426001D01*
X425000Y491001D02*
Y493001D01*
X419001Y502001D02*
X421001D01*
X420001Y501001D02*
Y503001D01*
X419001Y522001D02*
X421001D01*
X420001Y521001D02*
Y523001D01*
X424001Y532001D02*
X426001D01*
X425000Y531001D02*
Y533001D01*
X419001Y542001D02*
X421001D01*
X420001Y541001D02*
Y543001D01*
X424001Y552001D02*
X426001D01*
X425000Y551001D02*
Y553001D01*
X419001Y562001D02*
X421001D01*
X420001Y561001D02*
Y563001D01*
X424001Y572001D02*
X426001D01*
X425000Y571001D02*
Y573001D01*
X424001Y592001D02*
X426001D01*
X425000Y591001D02*
Y593001D01*
X419001Y602001D02*
X421001D01*
X420001Y601001D02*
Y603001D01*
X424001Y612001D02*
X426001D01*
X425000Y611001D02*
Y613001D01*
X419001Y622001D02*
X421001D01*
X420001Y621001D02*
Y623001D01*
X424001Y632001D02*
X426001D01*
X425000Y631001D02*
Y633001D01*
X424001Y652001D02*
X426001D01*
X425000Y651001D02*
Y653001D01*
X419001Y662001D02*
X421001D01*
X420001Y661001D02*
Y663001D01*
X424001Y672001D02*
X426001D01*
X425000Y671001D02*
Y673001D01*
X419001Y682001D02*
X421001D01*
X420001Y681001D02*
Y683001D01*
X434001Y332001D02*
X436001D01*
X435001Y331001D02*
Y333001D01*
X429001Y342001D02*
X431001D01*
X430001Y341001D02*
Y343001D01*
X434001Y352001D02*
X436001D01*
X435001Y351001D02*
Y353001D01*
X429001Y362001D02*
X431001D01*
X430001Y361001D02*
Y363001D01*
X434001Y372001D02*
X436001D01*
X435001Y371001D02*
Y373001D01*
X434001Y392001D02*
X436001D01*
X435001Y391001D02*
Y393001D01*
X429001Y402001D02*
X431001D01*
X430001Y401001D02*
Y403001D01*
X434001Y412001D02*
X436001D01*
X435001Y411001D02*
Y413001D01*
X429001Y422001D02*
X431001D01*
X430001Y421001D02*
Y423001D01*
X434001Y432001D02*
X436001D01*
X435001Y431001D02*
Y433001D01*
X429001Y442001D02*
X431001D01*
X430001Y441001D02*
Y443001D01*
X429001Y462001D02*
X431001D01*
X430001Y461001D02*
Y463001D01*
X434001Y472001D02*
X436001D01*
X435001Y471001D02*
Y473001D01*
X429001Y482001D02*
X431001D01*
X430001Y481001D02*
Y483001D01*
X434001Y492001D02*
X436001D01*
X435001Y491001D02*
Y493001D01*
X429001Y502001D02*
X431001D01*
X430001Y501001D02*
Y503001D01*
X429001Y522001D02*
X431001D01*
X430001Y521001D02*
Y523001D01*
X434001Y532001D02*
X436001D01*
X435001Y531001D02*
Y533001D01*
X429001Y542001D02*
X431001D01*
X430001Y541001D02*
Y543001D01*
X434001Y552001D02*
X436001D01*
X435001Y551001D02*
Y553001D01*
X429001Y562001D02*
X431001D01*
X430001Y561001D02*
Y563001D01*
X434001Y572001D02*
X436001D01*
X435001Y571001D02*
Y573001D01*
X434001Y592001D02*
X436001D01*
X435001Y591001D02*
Y593001D01*
X429001Y602001D02*
X431001D01*
X430001Y601001D02*
Y603001D01*
X434001Y612001D02*
X436001D01*
X435001Y611001D02*
Y613001D01*
X429001Y622001D02*
X431001D01*
X430001Y621001D02*
Y623001D01*
X434001Y632001D02*
X436001D01*
X435001Y631001D02*
Y633001D01*
X434001Y652001D02*
X436001D01*
X435001Y651001D02*
Y653001D01*
X429001Y662001D02*
X431001D01*
X430001Y661001D02*
Y663001D01*
X434001Y672001D02*
X436001D01*
X435001Y671001D02*
Y673001D01*
X429001Y682001D02*
X431001D01*
X430001Y681001D02*
Y683001D01*
X439001Y342001D02*
X441001D01*
X440001Y341001D02*
Y343001D01*
X439001Y362001D02*
X441001D01*
X440001Y361001D02*
Y363001D01*
X444001Y372001D02*
X446001D01*
X445001Y371001D02*
Y373001D01*
X439001Y402001D02*
X441001D01*
X440001Y401001D02*
Y403001D01*
X439001Y422001D02*
X441001D01*
X440001Y421001D02*
Y423001D01*
X444001Y432001D02*
X446001D01*
X445001Y431001D02*
Y433001D01*
X439001Y442001D02*
X441001D01*
X440001Y441001D02*
Y443001D01*
X444001Y472001D02*
X446001D01*
X445001Y471001D02*
Y473001D01*
X444001Y492001D02*
X446001D01*
X445001Y491001D02*
Y493001D01*
X439001Y502001D02*
X441001D01*
X440001Y501001D02*
Y503001D01*
X439001Y562001D02*
X441001D01*
X440001Y561001D02*
Y563001D01*
X444001Y572001D02*
X446001D01*
X445001Y571001D02*
Y573001D01*
X439001Y602001D02*
X441001D01*
X440001Y601001D02*
Y603001D01*
X439001Y622001D02*
X441001D01*
X440001Y621001D02*
Y623001D01*
X444001Y632001D02*
X446001D01*
X445001Y631001D02*
Y633001D01*
X439001Y662001D02*
X441001D01*
X440001Y661001D02*
Y663001D01*
X439001Y682001D02*
X441001D01*
X440001Y681001D02*
Y683001D01*
X449001Y342001D02*
X451001D01*
X450001Y341001D02*
Y343001D01*
X449001Y362001D02*
X451001D01*
X450001Y361001D02*
Y363001D01*
X454001Y372001D02*
X456001D01*
X455001Y371001D02*
Y373001D01*
X454001Y432001D02*
X456001D01*
X455001Y431001D02*
Y433001D01*
X449001Y442001D02*
X451001D01*
X450001Y441001D02*
Y443001D01*
X454001Y492001D02*
X456001D01*
X455001Y491001D02*
Y493001D01*
X449001Y502001D02*
X451001D01*
X450001Y501001D02*
Y503001D01*
X449001Y562001D02*
X451001D01*
X450001Y561001D02*
Y563001D01*
X449001Y602001D02*
X451001D01*
X450001Y601001D02*
Y603001D01*
X449001Y622001D02*
X451001D01*
X450001Y621001D02*
Y623001D01*
X454001Y632001D02*
X456001D01*
X455001Y631001D02*
Y633001D01*
X459001Y362001D02*
X461001D01*
X460001Y361001D02*
Y363001D01*
X464001Y492001D02*
X466001D01*
X465001Y491001D02*
Y493001D01*
X464001Y512001D02*
X466001D01*
X465001Y511001D02*
Y513001D01*
X459001Y562001D02*
X461001D01*
X460001Y561001D02*
Y563001D01*
X459001Y622001D02*
X461001D01*
X460001Y621001D02*
Y623001D01*
X474001Y372001D02*
X476001D01*
X475001Y371001D02*
Y373001D01*
X469001Y382001D02*
X471001D01*
X470001Y381001D02*
Y383001D01*
X469001Y442001D02*
X471001D01*
X470001Y441001D02*
Y443001D01*
X474001Y512001D02*
X476001D01*
X475001Y511001D02*
Y513001D01*
X474001Y572001D02*
X476001D01*
X475001Y571001D02*
Y573001D01*
X474001Y632001D02*
X476001D01*
X475001Y631001D02*
Y633001D01*
X469001Y642001D02*
X471001D01*
X470001Y641001D02*
Y643001D01*
X479001Y362001D02*
X481001D01*
X480001Y361001D02*
Y363001D01*
X484001Y372001D02*
X486001D01*
X485001Y371001D02*
Y373001D01*
X479001Y382001D02*
X481001D01*
X480001Y381001D02*
Y383001D01*
X484001Y432001D02*
X486001D01*
X485001Y431001D02*
Y433001D01*
X479001Y442001D02*
X481001D01*
X480001Y441001D02*
Y443001D01*
X484001Y452001D02*
X486001D01*
X485001Y451001D02*
Y453001D01*
X484001Y492001D02*
X486001D01*
X485001Y491001D02*
Y493001D01*
X479001Y502001D02*
X481001D01*
X480001Y501001D02*
Y503001D01*
X484001Y512001D02*
X486001D01*
X485001Y511001D02*
Y513001D01*
X479001Y562001D02*
X481001D01*
X480001Y561001D02*
Y563001D01*
X484001Y572001D02*
X486001D01*
X485001Y571001D02*
Y573001D01*
X479001Y622001D02*
X481001D01*
X480001Y621001D02*
Y623001D01*
X484001Y632001D02*
X486001D01*
X485001Y631001D02*
Y633001D01*
X479001Y642001D02*
X481001D01*
X480001Y641001D02*
Y643001D01*
X489001Y342001D02*
X491001D01*
X490001Y341001D02*
Y343001D01*
X489001Y362001D02*
X491001D01*
X490001Y361001D02*
Y363001D01*
X494001Y372001D02*
X496001D01*
X495001Y371001D02*
Y373001D01*
X489001Y382001D02*
X491001D01*
X490001Y381001D02*
Y383001D01*
X494001Y432001D02*
X496001D01*
X495001Y431001D02*
Y433001D01*
X489001Y442001D02*
X491001D01*
X490001Y441001D02*
Y443001D01*
X494001Y452001D02*
X496001D01*
X495001Y451001D02*
Y453001D01*
X494001Y472001D02*
X496001D01*
X495001Y471001D02*
Y473001D01*
X494001Y492001D02*
X496001D01*
X495001Y491001D02*
Y493001D01*
X489001Y502001D02*
X491001D01*
X490001Y501001D02*
Y503001D01*
X494001Y512001D02*
X496001D01*
X495001Y511001D02*
Y513001D01*
X489001Y562001D02*
X491001D01*
X490001Y561001D02*
Y563001D01*
X494001Y572001D02*
X496001D01*
X495001Y571001D02*
Y573001D01*
X489001Y582001D02*
X491001D01*
X490001Y581001D02*
Y583001D01*
X489001Y602001D02*
X491001D01*
X490001Y601001D02*
Y603001D01*
X489001Y622001D02*
X491001D01*
X490001Y621001D02*
Y623001D01*
X494001Y632001D02*
X496001D01*
X495001Y631001D02*
Y633001D01*
X489001Y642001D02*
X491001D01*
X490001Y641001D02*
Y643001D01*
X161000Y471000D02*
X163000D01*
X162000Y470000D02*
Y472000D01*
X171000Y471000D02*
X173000D01*
X172000Y470000D02*
Y472000D01*
X161000Y536000D02*
X163000D01*
X162000Y535000D02*
Y537000D01*
X171000Y536000D02*
X173000D01*
X172000Y535000D02*
Y537000D01*
X161000Y602000D02*
X163000D01*
X162000Y601000D02*
Y603000D01*
Y665000D02*
X164000D01*
X163000Y664000D02*
Y666000D01*
X171000Y665000D02*
X173000D01*
X172000Y664000D02*
Y666000D01*
X162000Y405000D02*
X164000D01*
X163000Y404000D02*
Y406000D01*
X170987Y405103D02*
X172987D01*
X171987Y404103D02*
Y406103D01*
X162000Y342000D02*
X164000D01*
X163000Y341000D02*
Y343000D01*
X730000Y634000D02*
X732000D01*
X731000Y633000D02*
Y635000D01*
X762000Y618000D02*
X764000D01*
X763000Y617000D02*
Y619000D01*
X761788Y622788D02*
X763788D01*
X762788Y621788D02*
Y623788D01*
X59000Y10000D02*
X61000D01*
X60000Y9000D02*
Y11000D01*
X79000Y10000D02*
X81000D01*
X80000Y9000D02*
Y11000D01*
X119000Y10000D02*
X121000D01*
X120000Y9000D02*
Y11000D01*
X99000Y10000D02*
X101000D01*
X100000Y9000D02*
Y11000D01*
X159000Y10000D02*
X161000D01*
X160000Y9000D02*
Y11000D01*
X139000Y10000D02*
X141000D01*
X140000Y9000D02*
Y11000D01*
X259000Y10000D02*
X261000D01*
X260000Y9000D02*
Y11000D01*
X279000Y10000D02*
X281000D01*
X280000Y9000D02*
Y11000D01*
X219000Y10000D02*
X221000D01*
X220000Y9000D02*
Y11000D01*
X239000Y10000D02*
X241000D01*
X240000Y9000D02*
Y11000D01*
X199000Y10000D02*
X201000D01*
X200000Y9000D02*
Y11000D01*
X179000Y10000D02*
X181000D01*
X180000Y9000D02*
Y11000D01*
X39000Y10000D02*
X41000D01*
X40000Y9000D02*
Y11000D01*
X9000Y30000D02*
X11000D01*
X10000Y29000D02*
Y31000D01*
X9000Y290000D02*
X11000D01*
X10000Y289000D02*
Y291000D01*
X9000Y310000D02*
X11000D01*
X10000Y309000D02*
Y311000D01*
X9000Y330000D02*
X11000D01*
X10000Y329000D02*
Y331000D01*
X9000Y160000D02*
X11000D01*
X10000Y159000D02*
Y161000D01*
X9000Y180000D02*
X11000D01*
X10000Y179000D02*
Y181000D01*
X9000Y220000D02*
X11000D01*
X10000Y219000D02*
Y221000D01*
X9000Y200000D02*
X11000D01*
X10000Y199000D02*
Y201000D01*
X9000Y260000D02*
X11000D01*
X10000Y259000D02*
Y261000D01*
X9000Y240000D02*
X11000D01*
X10000Y239000D02*
Y241000D01*
X9000Y120000D02*
X11000D01*
X10000Y119000D02*
Y121000D01*
X9000Y140000D02*
X11000D01*
X10000Y139000D02*
Y141000D01*
X9000Y80000D02*
X11000D01*
X10000Y79000D02*
Y81000D01*
X9000Y100000D02*
X11000D01*
X10000Y99000D02*
Y101000D01*
X9000Y60000D02*
X11000D01*
X10000Y59000D02*
Y61000D01*
X9000Y40000D02*
X11000D01*
X10000Y39000D02*
Y41000D01*
X9000Y470000D02*
X11000D01*
X10000Y469000D02*
Y471000D01*
X9000Y490000D02*
X11000D01*
X10000Y489000D02*
Y491000D01*
X9000Y530000D02*
X11000D01*
X10000Y529000D02*
Y531000D01*
X9000Y510000D02*
X11000D01*
X10000Y509000D02*
Y511000D01*
X9000Y570000D02*
X11000D01*
X10000Y569000D02*
Y571000D01*
X9000Y550000D02*
X11000D01*
X10000Y549000D02*
Y551000D01*
X9000Y430000D02*
X11000D01*
X10000Y429000D02*
Y431000D01*
X9000Y450000D02*
X11000D01*
X10000Y449000D02*
Y451000D01*
X9000Y390000D02*
X11000D01*
X10000Y389000D02*
Y391000D01*
X9000Y410000D02*
X11000D01*
X10000Y409000D02*
Y411000D01*
X9000Y370000D02*
X11000D01*
X10000Y369000D02*
Y371000D01*
X9000Y350000D02*
X11000D01*
X10000Y349000D02*
Y351000D01*
X9000Y590000D02*
X11000D01*
X10000Y589000D02*
Y591000D01*
X9000Y630000D02*
X11000D01*
X10000Y629000D02*
Y631000D01*
X9000Y610000D02*
X11000D01*
X10000Y609000D02*
Y611000D01*
X319000Y10000D02*
X321000D01*
X320000Y9000D02*
Y11000D01*
X579000Y10000D02*
X581000D01*
X580000Y9000D02*
Y11000D01*
X299000Y10000D02*
X301000D01*
X300000Y9000D02*
Y11000D01*
X739000Y10000D02*
X741000D01*
X740000Y9000D02*
Y11000D01*
X379000Y10000D02*
X381000D01*
X380000Y9000D02*
Y11000D01*
X339000Y10000D02*
X341000D01*
X340000Y9000D02*
Y11000D01*
X439000Y10000D02*
X441000D01*
X440000Y9000D02*
Y11000D01*
X679000Y10000D02*
X681000D01*
X680000Y9000D02*
Y11000D01*
X539000Y10000D02*
X541000D01*
X540000Y9000D02*
Y11000D01*
X639000Y10000D02*
X641000D01*
X640000Y9000D02*
Y11000D01*
X699000Y10000D02*
X701000D01*
X700000Y9000D02*
Y11000D01*
X619000Y10000D02*
X621000D01*
X620000Y9000D02*
Y11000D01*
X459000Y10000D02*
X461000D01*
X460000Y9000D02*
Y11000D01*
X599000Y10000D02*
X601000D01*
X600000Y9000D02*
Y11000D01*
X559000Y10000D02*
X561000D01*
X560000Y9000D02*
Y11000D01*
X659000Y10000D02*
X661000D01*
X660000Y9000D02*
Y11000D01*
X399000Y10000D02*
X401000D01*
X400000Y9000D02*
Y11000D01*
X419000Y10000D02*
X421000D01*
X420000Y9000D02*
Y11000D01*
X479000Y10000D02*
X481000D01*
X480000Y9000D02*
Y11000D01*
X759000Y10000D02*
X761000D01*
X760000Y9000D02*
Y11000D01*
X499000Y10000D02*
X501000D01*
X500000Y9000D02*
Y11000D01*
X519000Y10000D02*
X521000D01*
X520000Y9000D02*
Y11000D01*
X719000Y10000D02*
X721000D01*
X720000Y9000D02*
Y11000D01*
X359000Y10000D02*
X361000D01*
X360000Y9000D02*
Y11000D01*
X779000Y10000D02*
X781000D01*
X780000Y9000D02*
Y11000D01*
X9000Y690000D02*
X11000D01*
X10000Y689000D02*
Y691000D01*
X9000Y710000D02*
X11000D01*
X10000Y709000D02*
Y711000D01*
X9000Y670000D02*
X11000D01*
X10000Y669000D02*
Y671000D01*
X9000Y650000D02*
X11000D01*
X10000Y649000D02*
Y651000D01*
X9000Y770000D02*
X11000D01*
X10000Y769000D02*
Y771000D01*
X9000Y750000D02*
X11000D01*
X10000Y749000D02*
Y751000D01*
X9000Y730000D02*
X11000D01*
X10000Y729000D02*
Y731000D01*
X769000Y790000D02*
X771000D01*
X770000Y789000D02*
Y791000D01*
X779000Y790000D02*
X781000D01*
X780000Y789000D02*
Y791000D01*
X789000Y790000D02*
X791000D01*
X790000Y789000D02*
Y791000D01*
X359000Y790000D02*
X361000D01*
X360000Y789000D02*
Y791000D01*
X719000Y790000D02*
X721000D01*
X720000Y789000D02*
Y791000D01*
X519000Y790000D02*
X521000D01*
X520000Y789000D02*
Y791000D01*
X499000Y790000D02*
X501000D01*
X500000Y789000D02*
Y791000D01*
X759000Y790000D02*
X761000D01*
X760000Y789000D02*
Y791000D01*
X479000Y790000D02*
X481000D01*
X480000Y789000D02*
Y791000D01*
X419000Y790000D02*
X421000D01*
X420000Y789000D02*
Y791000D01*
X399000Y790000D02*
X401000D01*
X400000Y789000D02*
Y791000D01*
X659000Y790000D02*
X661000D01*
X660000Y789000D02*
Y791000D01*
X559000Y790000D02*
X561000D01*
X560000Y789000D02*
Y791000D01*
X599000Y790000D02*
X601000D01*
X600000Y789000D02*
Y791000D01*
X459000Y790000D02*
X461000D01*
X460000Y789000D02*
Y791000D01*
X619000Y790000D02*
X621000D01*
X620000Y789000D02*
Y791000D01*
X699000Y790000D02*
X701000D01*
X700000Y789000D02*
Y791000D01*
X639000Y790000D02*
X641000D01*
X640000Y789000D02*
Y791000D01*
X539000Y790000D02*
X541000D01*
X540000Y789000D02*
Y791000D01*
X679000Y790000D02*
X681000D01*
X680000Y789000D02*
Y791000D01*
X439000Y790000D02*
X441000D01*
X440000Y789000D02*
Y791000D01*
X339000Y790000D02*
X341000D01*
X340000Y789000D02*
Y791000D01*
X379000Y790000D02*
X381000D01*
X380000Y789000D02*
Y791000D01*
X739000Y790000D02*
X741000D01*
X740000Y789000D02*
Y791000D01*
X299000Y790000D02*
X301000D01*
X300000Y789000D02*
Y791000D01*
X579000Y790000D02*
X581000D01*
X580000Y789000D02*
Y791000D01*
X319000Y790000D02*
X321000D01*
X320000Y789000D02*
Y791000D01*
X29000Y790000D02*
X31000D01*
X30000Y789000D02*
Y791000D01*
X179000Y790000D02*
X181000D01*
X180000Y789000D02*
Y791000D01*
X199000Y790000D02*
X201000D01*
X200000Y789000D02*
Y791000D01*
X239000Y790000D02*
X241000D01*
X240000Y789000D02*
Y791000D01*
X219000Y790000D02*
X221000D01*
X220000Y789000D02*
Y791000D01*
X279000Y790000D02*
X281000D01*
X280000Y789000D02*
Y791000D01*
X259000Y790000D02*
X261000D01*
X260000Y789000D02*
Y791000D01*
X139000Y790000D02*
X141000D01*
X140000Y789000D02*
Y791000D01*
X159000Y790000D02*
X161000D01*
X160000Y789000D02*
Y791000D01*
X99000Y790000D02*
X101000D01*
X100000Y789000D02*
Y791000D01*
X119000Y790000D02*
X121000D01*
X120000Y789000D02*
Y791000D01*
X79000Y790000D02*
X81000D01*
X80000Y789000D02*
Y791000D01*
X59000Y790000D02*
X61000D01*
X60000Y789000D02*
Y791000D01*
X809000Y730000D02*
X811000D01*
X810000Y729000D02*
Y731000D01*
X809000Y750000D02*
X811000D01*
X810000Y749000D02*
Y751000D01*
X809000Y770000D02*
X811000D01*
X810000Y769000D02*
Y771000D01*
X809000Y650000D02*
X811000D01*
X810000Y649000D02*
Y651000D01*
X809000Y670000D02*
X811000D01*
X810000Y669000D02*
Y671000D01*
X809000Y710000D02*
X811000D01*
X810000Y709000D02*
Y711000D01*
X809000Y690000D02*
X811000D01*
X810000Y689000D02*
Y691000D01*
X809000Y610000D02*
X811000D01*
X810000Y609000D02*
Y611000D01*
X809000Y630000D02*
X811000D01*
X810000Y629000D02*
Y631000D01*
X809000Y590000D02*
X811000D01*
X810000Y589000D02*
Y591000D01*
X809000Y350000D02*
X811000D01*
X810000Y349000D02*
Y351000D01*
X809000Y370000D02*
X811000D01*
X810000Y369000D02*
Y371000D01*
X809000Y410000D02*
X811000D01*
X810000Y409000D02*
Y411000D01*
X809000Y390000D02*
X811000D01*
X810000Y389000D02*
Y391000D01*
X809000Y450000D02*
X811000D01*
X810000Y449000D02*
Y451000D01*
X809000Y430000D02*
X811000D01*
X810000Y429000D02*
Y431000D01*
X809000Y550000D02*
X811000D01*
X810000Y549000D02*
Y551000D01*
X809000Y570000D02*
X811000D01*
X810000Y569000D02*
Y571000D01*
X809000Y510000D02*
X811000D01*
X810000Y509000D02*
Y511000D01*
X809000Y530000D02*
X811000D01*
X810000Y529000D02*
Y531000D01*
X809000Y490000D02*
X811000D01*
X810000Y489000D02*
Y491000D01*
X809000Y470000D02*
X811000D01*
X810000Y469000D02*
Y471000D01*
X809000Y40000D02*
X811000D01*
X810000Y39000D02*
Y41000D01*
X809000Y60000D02*
X811000D01*
X810000Y59000D02*
Y61000D01*
X809000Y100000D02*
X811000D01*
X810000Y99000D02*
Y101000D01*
X809000Y80000D02*
X811000D01*
X810000Y79000D02*
Y81000D01*
X809000Y140000D02*
X811000D01*
X810000Y139000D02*
Y141000D01*
X809000Y120000D02*
X811000D01*
X810000Y119000D02*
Y121000D01*
X809000Y240000D02*
X811000D01*
X810000Y239000D02*
Y241000D01*
X809000Y260000D02*
X811000D01*
X810000Y259000D02*
Y261000D01*
X809000Y200000D02*
X811000D01*
X810000Y199000D02*
Y201000D01*
X809000Y220000D02*
X811000D01*
X810000Y219000D02*
Y221000D01*
X809000Y180000D02*
X811000D01*
X810000Y179000D02*
Y181000D01*
X809000Y160000D02*
X811000D01*
X810000Y159000D02*
Y161000D01*
X809000Y330000D02*
X811000D01*
X810000Y329000D02*
Y331000D01*
X809000Y310000D02*
X811000D01*
X810000Y309000D02*
Y311000D01*
X809000Y290000D02*
X811000D01*
X810000Y289000D02*
Y291000D01*
X809000Y30000D02*
X811000D01*
X810000Y29000D02*
Y31000D01*
X809000Y760000D02*
X811000D01*
X810000Y759000D02*
Y761000D01*
X39000Y790000D02*
X41000D01*
X40000Y789000D02*
Y791000D01*
X9000Y760000D02*
X11000D01*
X10000Y759000D02*
Y761000D01*
X49000Y790000D02*
X51000D01*
X50000Y789000D02*
Y791000D01*
X29000Y10000D02*
X31000D01*
X30000Y9000D02*
Y11000D01*
X49000Y10000D02*
X51000D01*
X50000Y9000D02*
Y11000D01*
X349000Y10000D02*
X351000D01*
X350000Y9000D02*
Y11000D01*
X509000Y10000D02*
X511000D01*
X510000Y9000D02*
Y11000D01*
X489000Y10000D02*
X491000D01*
X490000Y9000D02*
Y11000D01*
X469000Y10000D02*
X471000D01*
X470000Y9000D02*
Y11000D01*
X409000Y10000D02*
X411000D01*
X410000Y9000D02*
Y11000D01*
X389000Y10000D02*
X391000D01*
X390000Y9000D02*
Y11000D01*
X549000Y10000D02*
X551000D01*
X550000Y9000D02*
Y11000D01*
X449000Y10000D02*
X451000D01*
X450000Y9000D02*
Y11000D01*
X529000Y10000D02*
X531000D01*
X530000Y9000D02*
Y11000D01*
X429000Y10000D02*
X431000D01*
X430000Y9000D02*
Y11000D01*
X329000Y10000D02*
X331000D01*
X330000Y9000D02*
Y11000D01*
X369000Y10000D02*
X371000D01*
X370000Y9000D02*
Y11000D01*
X289000Y10000D02*
X291000D01*
X290000Y9000D02*
Y11000D01*
X309000Y10000D02*
X311000D01*
X310000Y9000D02*
Y11000D01*
X169000Y10000D02*
X171000D01*
X170000Y9000D02*
Y11000D01*
X189000Y10000D02*
X191000D01*
X190000Y9000D02*
Y11000D01*
X229000Y10000D02*
X231000D01*
X230000Y9000D02*
Y11000D01*
X209000Y10000D02*
X211000D01*
X210000Y9000D02*
Y11000D01*
X269000Y10000D02*
X271000D01*
X270000Y9000D02*
Y11000D01*
X249000Y10000D02*
X251000D01*
X250000Y9000D02*
Y11000D01*
X129000Y10000D02*
X131000D01*
X130000Y9000D02*
Y11000D01*
X149000Y10000D02*
X151000D01*
X150000Y9000D02*
Y11000D01*
X89000Y10000D02*
X91000D01*
X90000Y9000D02*
Y11000D01*
X109000Y10000D02*
X111000D01*
X110000Y9000D02*
Y11000D01*
X69000Y10000D02*
X71000D01*
X70000Y9000D02*
Y11000D01*
X709000Y10000D02*
X711000D01*
X710000Y9000D02*
Y11000D01*
X749000Y10000D02*
X751000D01*
X750000Y9000D02*
Y11000D01*
X649000Y10000D02*
X651000D01*
X650000Y9000D02*
Y11000D01*
X589000Y10000D02*
X591000D01*
X590000Y9000D02*
Y11000D01*
X609000Y10000D02*
X611000D01*
X610000Y9000D02*
Y11000D01*
X689000Y10000D02*
X691000D01*
X690000Y9000D02*
Y11000D01*
X629000Y10000D02*
X631000D01*
X630000Y9000D02*
Y11000D01*
X669000Y10000D02*
X671000D01*
X670000Y9000D02*
Y11000D01*
X729000Y10000D02*
X731000D01*
X730000Y9000D02*
Y11000D01*
X569000Y10000D02*
X571000D01*
X570000Y9000D02*
Y11000D01*
X709000Y790000D02*
X711000D01*
X710000Y789000D02*
Y791000D01*
X749000Y790000D02*
X751000D01*
X750000Y789000D02*
Y791000D01*
X649000Y790000D02*
X651000D01*
X650000Y789000D02*
Y791000D01*
X589000Y790000D02*
X591000D01*
X590000Y789000D02*
Y791000D01*
X609000Y790000D02*
X611000D01*
X610000Y789000D02*
Y791000D01*
X689000Y790000D02*
X691000D01*
X690000Y789000D02*
Y791000D01*
X629000Y790000D02*
X631000D01*
X630000Y789000D02*
Y791000D01*
X669000Y790000D02*
X671000D01*
X670000Y789000D02*
Y791000D01*
X729000Y790000D02*
X731000D01*
X730000Y789000D02*
Y791000D01*
X569000Y790000D02*
X571000D01*
X570000Y789000D02*
Y791000D01*
X509000Y790000D02*
X511000D01*
X510000Y789000D02*
Y791000D01*
X549000Y790000D02*
X551000D01*
X550000Y789000D02*
Y791000D01*
X449000Y790000D02*
X451000D01*
X450000Y789000D02*
Y791000D01*
X389000Y790000D02*
X391000D01*
X390000Y789000D02*
Y791000D01*
X409000Y790000D02*
X411000D01*
X410000Y789000D02*
Y791000D01*
X489000Y790000D02*
X491000D01*
X490000Y789000D02*
Y791000D01*
X429000Y790000D02*
X431000D01*
X430000Y789000D02*
Y791000D01*
X469000Y790000D02*
X471000D01*
X470000Y789000D02*
Y791000D01*
X529000Y790000D02*
X531000D01*
X530000Y789000D02*
Y791000D01*
X369000Y790000D02*
X371000D01*
X370000Y789000D02*
Y791000D01*
X309000Y790000D02*
X311000D01*
X310000Y789000D02*
Y791000D01*
X349000Y790000D02*
X351000D01*
X350000Y789000D02*
Y791000D01*
X249000Y790000D02*
X251000D01*
X250000Y789000D02*
Y791000D01*
X189000Y790000D02*
X191000D01*
X190000Y789000D02*
Y791000D01*
X209000Y790000D02*
X211000D01*
X210000Y789000D02*
Y791000D01*
X289000Y790000D02*
X291000D01*
X290000Y789000D02*
Y791000D01*
X229000Y790000D02*
X231000D01*
X230000Y789000D02*
Y791000D01*
X269000Y790000D02*
X271000D01*
X270000Y789000D02*
Y791000D01*
X329000Y790000D02*
X331000D01*
X330000Y789000D02*
Y791000D01*
X169000Y790000D02*
X171000D01*
X170000Y789000D02*
Y791000D01*
X149000Y790000D02*
X151000D01*
X150000Y789000D02*
Y791000D01*
X129000Y790000D02*
X131000D01*
X130000Y789000D02*
Y791000D01*
X109000Y790000D02*
X111000D01*
X110000Y789000D02*
Y791000D01*
X89000Y790000D02*
X91000D01*
X90000Y789000D02*
Y791000D01*
X69000Y790000D02*
X71000D01*
X70000Y789000D02*
Y791000D01*
X9000Y740000D02*
X11000D01*
X10000Y739000D02*
Y741000D01*
X9000Y660000D02*
X11000D01*
X10000Y659000D02*
Y661000D01*
X9000Y680000D02*
X11000D01*
X10000Y679000D02*
Y681000D01*
X9000Y720000D02*
X11000D01*
X10000Y719000D02*
Y721000D01*
X9000Y700000D02*
X11000D01*
X10000Y699000D02*
Y701000D01*
X9000Y620000D02*
X11000D01*
X10000Y619000D02*
Y621000D01*
X9000Y640000D02*
X11000D01*
X10000Y639000D02*
Y641000D01*
X9000Y600000D02*
X11000D01*
X10000Y599000D02*
Y601000D01*
X9000Y360000D02*
X11000D01*
X10000Y359000D02*
Y361000D01*
X9000Y380000D02*
X11000D01*
X10000Y379000D02*
Y381000D01*
X9000Y420000D02*
X11000D01*
X10000Y419000D02*
Y421000D01*
X9000Y400000D02*
X11000D01*
X10000Y399000D02*
Y401000D01*
X9000Y460000D02*
X11000D01*
X10000Y459000D02*
Y461000D01*
X9000Y440000D02*
X11000D01*
X10000Y439000D02*
Y441000D01*
X9000Y560000D02*
X11000D01*
X10000Y559000D02*
Y561000D01*
X9000Y580000D02*
X11000D01*
X10000Y579000D02*
Y581000D01*
X9000Y520000D02*
X11000D01*
X10000Y519000D02*
Y521000D01*
X9000Y540000D02*
X11000D01*
X10000Y539000D02*
Y541000D01*
X9000Y500000D02*
X11000D01*
X10000Y499000D02*
Y501000D01*
X9000Y480000D02*
X11000D01*
X10000Y479000D02*
Y481000D01*
X9000Y70000D02*
X11000D01*
X10000Y69000D02*
Y71000D01*
X9000Y110000D02*
X11000D01*
X10000Y109000D02*
Y111000D01*
X9000Y90000D02*
X11000D01*
X10000Y89000D02*
Y91000D01*
X9000Y150000D02*
X11000D01*
X10000Y149000D02*
Y151000D01*
X9000Y130000D02*
X11000D01*
X10000Y129000D02*
Y131000D01*
X9000Y250000D02*
X11000D01*
X10000Y249000D02*
Y251000D01*
X9000Y270000D02*
X11000D01*
X10000Y269000D02*
Y271000D01*
X9000Y210000D02*
X11000D01*
X10000Y209000D02*
Y211000D01*
X9000Y230000D02*
X11000D01*
X10000Y229000D02*
Y231000D01*
X9000Y190000D02*
X11000D01*
X10000Y189000D02*
Y191000D01*
X9000Y170000D02*
X11000D01*
X10000Y169000D02*
Y171000D01*
X9000Y340000D02*
X11000D01*
X10000Y339000D02*
Y341000D01*
X9000Y320000D02*
X11000D01*
X10000Y319000D02*
Y321000D01*
X9000Y300000D02*
X11000D01*
X10000Y299000D02*
Y301000D01*
X809000Y740000D02*
X811000D01*
X810000Y739000D02*
Y741000D01*
X809000Y660000D02*
X811000D01*
X810000Y659000D02*
Y661000D01*
X809000Y680000D02*
X811000D01*
X810000Y679000D02*
Y681000D01*
X809000Y720000D02*
X811000D01*
X810000Y719000D02*
Y721000D01*
X809000Y700000D02*
X811000D01*
X810000Y699000D02*
Y701000D01*
X809000Y620000D02*
X811000D01*
X810000Y619000D02*
Y621000D01*
X809000Y640000D02*
X811000D01*
X810000Y639000D02*
Y641000D01*
X809000Y600000D02*
X811000D01*
X810000Y599000D02*
Y601000D01*
X809000Y360000D02*
X811000D01*
X810000Y359000D02*
Y361000D01*
X809000Y380000D02*
X811000D01*
X810000Y379000D02*
Y381000D01*
X809000Y420000D02*
X811000D01*
X810000Y419000D02*
Y421000D01*
X809000Y400000D02*
X811000D01*
X810000Y399000D02*
Y401000D01*
X809000Y460000D02*
X811000D01*
X810000Y459000D02*
Y461000D01*
X809000Y440000D02*
X811000D01*
X810000Y439000D02*
Y441000D01*
X809000Y560000D02*
X811000D01*
X810000Y559000D02*
Y561000D01*
X809000Y580000D02*
X811000D01*
X810000Y579000D02*
Y581000D01*
X809000Y520000D02*
X811000D01*
X810000Y519000D02*
Y521000D01*
X809000Y540000D02*
X811000D01*
X810000Y539000D02*
Y541000D01*
X809000Y500000D02*
X811000D01*
X810000Y499000D02*
Y501000D01*
X809000Y480000D02*
X811000D01*
X810000Y479000D02*
Y481000D01*
X809000Y70000D02*
X811000D01*
X810000Y69000D02*
Y71000D01*
X809000Y110000D02*
X811000D01*
X810000Y109000D02*
Y111000D01*
X809000Y90000D02*
X811000D01*
X810000Y89000D02*
Y91000D01*
X809000Y150000D02*
X811000D01*
X810000Y149000D02*
Y151000D01*
X809000Y130000D02*
X811000D01*
X810000Y129000D02*
Y131000D01*
X809000Y250000D02*
X811000D01*
X810000Y249000D02*
Y251000D01*
X809000Y270000D02*
X811000D01*
X810000Y269000D02*
Y271000D01*
X809000Y210000D02*
X811000D01*
X810000Y209000D02*
Y211000D01*
X809000Y230000D02*
X811000D01*
X810000Y229000D02*
Y231000D01*
X809000Y190000D02*
X811000D01*
X810000Y189000D02*
Y191000D01*
X809000Y170000D02*
X811000D01*
X810000Y169000D02*
Y171000D01*
X809000Y340000D02*
X811000D01*
X810000Y339000D02*
Y341000D01*
X809000Y320000D02*
X811000D01*
X810000Y319000D02*
Y321000D01*
X809000Y300000D02*
X811000D01*
X810000Y299000D02*
Y301000D01*
X712000Y485250D02*
X714000D01*
X713000Y484250D02*
Y486250D01*
X763000Y553500D02*
X765000D01*
X764000Y552500D02*
Y554500D01*
X732889Y458111D02*
X734889D01*
X733889Y457111D02*
Y459111D01*
X753000Y748000D02*
X755000D01*
X754000Y747000D02*
Y749000D01*
X124939Y713817D02*
X126939D01*
X125939Y712817D02*
Y714817D01*
X111983Y710565D02*
X113983D01*
X112983Y709565D02*
Y711565D01*
X138000Y722000D02*
X140000D01*
X139000Y721000D02*
Y723000D01*
X98968Y705664D02*
X100968D01*
X99968Y704664D02*
Y706664D01*
X611000Y763000D02*
X613000D01*
X612000Y762000D02*
Y764000D01*
X645000Y748000D02*
X647000D01*
X646000Y747000D02*
Y749000D01*
X643000Y729000D02*
X645000D01*
X644000Y728000D02*
Y730000D01*
X557000Y450000D02*
X559000D01*
X558000Y449000D02*
Y451000D01*
X560000Y454000D02*
X562000D01*
X561000Y453000D02*
Y455000D01*
X524000Y411000D02*
X526000D01*
X525000Y410000D02*
Y412000D01*
X519000Y408000D02*
X521000D01*
X520000Y407000D02*
Y409000D01*
X517000Y305500D02*
X519000D01*
X518000Y304500D02*
Y306500D01*
X291000Y91000D02*
X293000D01*
X292000Y90000D02*
Y92000D01*
X293000Y77000D02*
X295000D01*
X294000Y76000D02*
Y78000D01*
X155000Y220000D02*
X157000D01*
X156000Y219000D02*
Y221000D01*
X236000Y219000D02*
X238000D01*
X237000Y218000D02*
Y220000D01*
X308000Y211000D02*
X310000D01*
X309000Y210000D02*
Y212000D01*
X342000Y194000D02*
X344000D01*
X343000Y193000D02*
Y195000D01*
X336000Y194000D02*
X338000D01*
X337000Y193000D02*
Y195000D01*
X342000Y199000D02*
X344000D01*
X343000Y198000D02*
Y200000D01*
X336000Y199000D02*
X338000D01*
X337000Y198000D02*
Y200000D01*
X24001Y662569D02*
X26001D01*
X25001Y661569D02*
Y663569D01*
X30001Y662569D02*
X32001D01*
X31001Y661569D02*
Y663569D01*
X24001Y656569D02*
X26001D01*
X25001Y655569D02*
Y657569D01*
X30001Y656569D02*
X32001D01*
X31001Y655569D02*
Y657569D01*
X24001Y554569D02*
X26001D01*
X25001Y553569D02*
Y555569D01*
X30001Y554569D02*
X32001D01*
X31001Y553569D02*
Y555569D01*
X24001Y548569D02*
X26001D01*
X25001Y547569D02*
Y549569D01*
X30001Y548569D02*
X32001D01*
X31001Y547569D02*
Y549569D01*
X30001Y372569D02*
X32001D01*
X31001Y371569D02*
Y373569D01*
X24001Y372569D02*
X26001D01*
X25001Y371569D02*
Y373569D01*
X24001Y366569D02*
X26001D01*
X25001Y365569D02*
Y367569D01*
X30001Y366569D02*
X32001D01*
X31001Y365569D02*
Y367569D01*
X28000Y300000D02*
X30000D01*
X29000Y299000D02*
Y301000D01*
X35000Y300000D02*
X37000D01*
X36000Y299000D02*
Y301000D01*
X35000Y306000D02*
X37000D01*
X36000Y305000D02*
Y307000D01*
X28000Y306000D02*
X30000D01*
X29000Y305000D02*
Y307000D01*
X21000Y300000D02*
X23000D01*
X22000Y299000D02*
Y301000D01*
X21000Y306000D02*
X23000D01*
X22000Y305000D02*
Y307000D01*
X88000Y295000D02*
X90000D01*
X89000Y294000D02*
Y296000D01*
X88000Y301000D02*
X90000D01*
X89000Y300000D02*
Y302000D01*
X88000Y308000D02*
X90000D01*
X89000Y307000D02*
Y309000D01*
X94000Y295000D02*
X96000D01*
X95000Y294000D02*
Y296000D01*
X94000Y301000D02*
X96000D01*
X95000Y300000D02*
Y302000D01*
X94000Y308000D02*
X96000D01*
X95000Y307000D02*
Y309000D01*
X53000Y611000D02*
X55000D01*
X54000Y610000D02*
Y612000D01*
X53000Y502000D02*
X55000D01*
X54000Y501000D02*
Y503000D01*
X53000Y320000D02*
X55000D01*
X54000Y319000D02*
Y321000D01*
X93000Y409000D02*
X95000D01*
X94000Y408000D02*
Y410000D01*
X91000Y701000D02*
X93000D01*
X92000Y700000D02*
Y702000D01*
Y590000D02*
X94000D01*
X93000Y589000D02*
Y591000D01*
X486000Y111000D02*
X488000D01*
X487000Y110000D02*
Y112000D01*
X486000Y117000D02*
X488000D01*
X487000Y116000D02*
Y118000D01*
X492000Y111000D02*
X494000D01*
X493000Y110000D02*
Y112000D01*
X492000Y117000D02*
X494000D01*
X493000Y116000D02*
Y118000D01*
X578000Y51000D02*
X580000D01*
X579000Y50000D02*
Y52000D01*
X585000Y51000D02*
X587000D01*
X586000Y50000D02*
Y52000D01*
X585000Y58000D02*
X587000D01*
X586000Y57000D02*
Y59000D01*
X578000Y58000D02*
X580000D01*
X579000Y57000D02*
Y59000D01*
X578000Y65000D02*
X580000D01*
X579000Y64000D02*
Y66000D01*
X585000Y65000D02*
X587000D01*
X586000Y64000D02*
Y66000D01*
X604000Y407000D02*
X606000D01*
X605000Y406000D02*
Y408000D01*
X603000Y633000D02*
X605000D01*
X604000Y632000D02*
Y634000D01*
X776000Y641000D02*
X778000D01*
X777000Y640000D02*
Y642000D01*
X770000Y629000D02*
X772000D01*
X771000Y628000D02*
Y630000D01*
X761000Y673000D02*
X763000D01*
X762000Y672000D02*
Y674000D01*
X761000Y667000D02*
X763000D01*
X762000Y666000D02*
Y668000D01*
X744000Y438000D02*
X746000D01*
X745000Y437000D02*
Y439000D01*
X182000Y168000D02*
X184000D01*
X183000Y167000D02*
Y169000D01*
X54000Y133000D02*
X56000D01*
X55000Y132000D02*
Y134000D01*
X266000Y144000D02*
X268000D01*
X267000Y143000D02*
Y145000D01*
X266000Y135000D02*
X268000D01*
X267000Y134000D02*
Y136000D01*
X259000Y128000D02*
X261000D01*
X260000Y127000D02*
Y129000D01*
X252000Y110000D02*
X254000D01*
X253000Y109000D02*
Y111000D01*
X242000Y117000D02*
X244000D01*
X243000Y116000D02*
Y118000D01*
X280000Y171000D02*
X282000D01*
X281000Y170000D02*
Y172000D01*
X359000Y244000D02*
X361000D01*
X360000Y243000D02*
Y245000D01*
X359000Y250000D02*
X361000D01*
X360000Y249000D02*
Y251000D01*
X353000Y244000D02*
X355000D01*
X354000Y243000D02*
Y245000D01*
X353000Y250000D02*
X355000D01*
X354000Y249000D02*
Y251000D01*
X734000Y225000D02*
X736000D01*
X735000Y224000D02*
Y226000D01*
X526968Y356700D02*
X528968D01*
X527968Y355700D02*
Y357700D01*
X527000Y351000D02*
X529000D01*
X528000Y350000D02*
Y352000D01*
X521000Y707000D02*
X523000D01*
X522000Y706000D02*
Y708000D01*
X521000Y713000D02*
X523000D01*
X522000Y712000D02*
Y714000D01*
X469432Y90568D02*
X471432D01*
X470432Y89568D02*
Y91568D01*
X469432Y96568D02*
X471432D01*
X470432Y95568D02*
Y97568D01*
X463432Y96568D02*
X465432D01*
X464432Y95568D02*
Y97568D01*
X463432Y90568D02*
X465432D01*
X464432Y89568D02*
Y91568D01*
X487568Y225000D02*
X489568D01*
X488568Y224000D02*
Y226000D01*
X493568Y225000D02*
X495568D01*
X494568Y224000D02*
Y226000D01*
X607000Y51000D02*
X609000D01*
X608000Y50000D02*
Y52000D01*
X607000Y63000D02*
X609000D01*
X608000Y62000D02*
Y64000D01*
X607000Y57000D02*
X609000D01*
X608000Y56000D02*
Y58000D01*
X610000Y216432D02*
X612000D01*
X611000Y215432D02*
Y217432D01*
X610000Y222432D02*
X612000D01*
X611000Y221432D02*
Y223432D01*
X614000Y51000D02*
X616000D01*
X615000Y50000D02*
Y52000D01*
X614000Y57000D02*
X616000D01*
X615000Y56000D02*
Y58000D01*
X616000Y222432D02*
X618000D01*
X617000Y221432D02*
Y223432D01*
X616000Y216432D02*
X618000D01*
X617000Y215432D02*
Y217432D01*
X487568Y231000D02*
X489568D01*
X488568Y230000D02*
Y232000D01*
X493568Y231000D02*
X495568D01*
X494568Y230000D02*
Y232000D01*
X67000Y130000D02*
X69000D01*
X68000Y129000D02*
Y131000D01*
X77000Y151000D02*
X79000D01*
X78000Y150000D02*
Y152000D01*
X86000Y140000D02*
X88000D01*
X87000Y139000D02*
Y141000D01*
X299000Y153000D02*
X301000D01*
X300000Y152000D02*
Y154000D01*
X304000Y165250D02*
X306000D01*
X305000Y164250D02*
Y166250D01*
X332000Y121000D02*
X334000D01*
X333000Y120000D02*
Y122000D01*
X342000Y123000D02*
X344000D01*
X343000Y122000D02*
Y124000D01*
X27000Y186000D02*
X29000D01*
X28000Y185000D02*
Y187000D01*
X59000Y244999D02*
X61000D01*
X60000Y243999D02*
Y245999D01*
X98000Y245000D02*
X100000D01*
X99000Y244000D02*
Y246000D01*
X115000Y245000D02*
X117000D01*
X116000Y244000D02*
Y246000D01*
X303722Y171750D02*
X305723D01*
X304722Y170750D02*
Y172750D01*
X304000Y242000D02*
X306000D01*
X305000Y241000D02*
Y243000D01*
X707000Y97000D02*
X709000D01*
X708000Y96000D02*
Y98000D01*
X707000Y103000D02*
X709000D01*
X708000Y102000D02*
Y104000D01*
X714000Y103000D02*
X716000D01*
X715000Y102000D02*
Y104000D01*
X714000Y97000D02*
X716000D01*
X715000Y96000D02*
Y98000D01*
X721000Y97000D02*
X723000D01*
X722000Y96000D02*
Y98000D01*
X721000Y103000D02*
X723000D01*
X722000Y102000D02*
Y104000D01*
X728000Y103000D02*
X730000D01*
X729000Y102000D02*
Y104000D01*
X728000Y97000D02*
X730000D01*
X729000Y96000D02*
Y98000D01*
X723030Y762021D02*
X725030D01*
X724030Y761021D02*
Y763021D01*
X525143Y638959D02*
X527143D01*
X526143Y637959D02*
Y639959D01*
X519884Y638951D02*
X521884D01*
X520884Y637951D02*
Y639951D01*
X522000Y454625D02*
X524000D01*
X523000Y453625D02*
Y455625D01*
X528000Y454625D02*
X530000D01*
X529000Y453625D02*
Y455625D01*
X770863Y730803D02*
X772863D01*
X771863Y729803D02*
Y731803D01*
X771399Y739846D02*
X773399D01*
X772399Y738846D02*
Y740846D01*
X770000Y722000D02*
X772000D01*
X771000Y721000D02*
Y723000D01*
X763000Y548000D02*
X765000D01*
X764000Y547000D02*
Y549000D01*
X763000Y573500D02*
X765000D01*
X764000Y572500D02*
Y574500D01*
X763000Y579000D02*
X765000D01*
X764000Y578000D02*
Y580000D01*
X763000Y598500D02*
X765000D01*
X764000Y597500D02*
Y599500D01*
X763000Y604000D02*
X765000D01*
X764000Y603000D02*
Y605000D01*
X730000Y665000D02*
X732000D01*
X731000Y664000D02*
Y666000D01*
X704044Y767000D02*
X706044D01*
X705044Y766000D02*
Y768000D01*
X523000Y433000D02*
X525000D01*
X524000Y432000D02*
Y434000D01*
X537000Y566100D02*
X539000D01*
X538000Y565100D02*
Y567100D01*
X531000Y565000D02*
X533000D01*
X532000Y564000D02*
Y566000D01*
X729000Y462000D02*
X731000D01*
X730000Y461000D02*
Y463000D01*
X745000Y509028D02*
X747000D01*
X746000Y508028D02*
Y510028D01*
X571581Y727931D02*
X573581D01*
X572581Y726931D02*
Y728931D01*
X582000Y733000D02*
X584000D01*
X583000Y732000D02*
Y734000D01*
X547000Y746000D02*
X549000D01*
X548000Y745000D02*
Y747000D01*
X621700Y417200D02*
X623700D01*
X622700Y416200D02*
Y418200D01*
X690000Y710000D02*
X692000D01*
X691000Y709000D02*
Y711000D01*
X757000Y409000D02*
X759000D01*
X758000Y408000D02*
Y410000D01*
X620700Y408200D02*
X622700D01*
X621700Y407200D02*
Y409200D01*
X690000Y717000D02*
X692000D01*
X691000Y716000D02*
Y718000D01*
X757000Y403000D02*
X759000D01*
X758000Y402000D02*
Y404000D01*
X611984Y537516D02*
X613984D01*
X612984Y536516D02*
Y538516D01*
X725000Y717000D02*
X727000D01*
X726000Y716000D02*
Y718000D01*
X613700Y554200D02*
X615700D01*
X614700Y553200D02*
Y555200D01*
X725000Y710000D02*
X727000D01*
X726000Y709000D02*
Y711000D01*
X619700Y649200D02*
X621700D01*
X620700Y648200D02*
Y650200D01*
X722000Y731000D02*
X724000D01*
X723000Y730000D02*
Y732000D01*
X619664Y638736D02*
X621664D01*
X620664Y637735D02*
Y639735D01*
X721000Y741000D02*
X723000D01*
X722000Y740000D02*
Y742000D01*
X620700Y307200D02*
X622700D01*
X621700Y306200D02*
Y308200D01*
X690000Y303000D02*
X692000D01*
X691000Y302000D02*
Y304000D01*
X697000Y723000D02*
X699000D01*
X698000Y722000D02*
Y724000D01*
X614671Y303054D02*
X616671D01*
X615671Y302054D02*
Y304054D01*
X688000Y295000D02*
X690000D01*
X689000Y294000D02*
Y296000D01*
X703000Y742000D02*
X705000D01*
X704000Y741000D02*
Y743000D01*
X640700Y656200D02*
X642700D01*
X641700Y655200D02*
Y657200D01*
X613000Y697075D02*
X615000D01*
X614000Y696075D02*
Y698075D01*
X581984Y657516D02*
X583984D01*
X582984Y656516D02*
Y658516D01*
X671136Y648923D02*
X673136D01*
X672136Y647923D02*
Y649923D01*
X571984Y707484D02*
X573984D01*
X572984Y706484D02*
Y708484D01*
X662016Y717516D02*
X664016D01*
X663016Y716516D02*
Y718516D01*
X582016Y607516D02*
X584016D01*
X583016Y606516D02*
Y608516D01*
X631984Y327516D02*
X633984D01*
X632984Y326516D02*
Y328516D01*
X651984Y377484D02*
X653984D01*
X652984Y376484D02*
Y378484D01*
X695450Y492950D02*
X697450D01*
X696450Y491950D02*
Y493950D01*
X612858Y476642D02*
X614858D01*
X613858Y475642D02*
Y477642D01*
X676700Y471700D02*
X678700D01*
X677700Y470700D02*
Y472700D01*
X642016Y437516D02*
X644016D01*
X643016Y436516D02*
Y438516D01*
X674700Y426200D02*
X676700D01*
X675700Y425200D02*
Y427200D01*
X601054Y436619D02*
X603055D01*
X602054Y435619D02*
Y437619D01*
X571984Y387516D02*
X573984D01*
X572984Y386516D02*
Y388516D01*
X581984Y317484D02*
X583984D01*
X582984Y316484D02*
Y318484D01*
X661984Y327516D02*
X663984D01*
X662984Y326516D02*
Y328516D01*
X581984Y547516D02*
X583984D01*
X582984Y546516D02*
Y548516D01*
X631984Y547516D02*
X633984D01*
X632984Y546516D02*
Y548516D01*
X651984Y597484D02*
X653984D01*
X652984Y596484D02*
Y598484D01*
X687200Y531200D02*
X689200D01*
X688200Y530200D02*
Y532200D01*
X729700Y611200D02*
X731700D01*
X730700Y610200D02*
Y612200D01*
X562700Y497200D02*
X564700D01*
X563700Y496200D02*
Y498200D01*
X553700Y337700D02*
X555700D01*
X554700Y336700D02*
Y338700D01*
X552700Y727200D02*
X554700D01*
X553700Y726200D02*
Y728200D01*
X616700Y296200D02*
X618700D01*
X617700Y295200D02*
Y297200D01*
X703450Y429200D02*
X705450D01*
X704450Y428200D02*
Y430200D01*
X561148Y592749D02*
X563148D01*
X562148Y591749D02*
Y593749D01*
X734000Y250000D02*
X736000D01*
X735000Y249000D02*
Y251000D01*
X733875Y207125D02*
X735875D01*
X734875Y206125D02*
Y208125D01*
X734000Y237500D02*
X736000D01*
X735000Y236500D02*
Y238500D01*
X734000Y262500D02*
X736000D01*
X735000Y261500D02*
Y263500D01*
X732000Y278500D02*
X734000D01*
X733000Y277500D02*
Y279500D01*
X704000Y668000D02*
X706000D01*
X705000Y667000D02*
Y669000D01*
X716700Y370200D02*
X718700D01*
X717700Y369200D02*
Y371200D01*
X590000Y746000D02*
X592000D01*
X591000Y745000D02*
Y747000D01*
X729000Y513000D02*
X731000D01*
X730000Y512000D02*
Y514000D01*
X727000Y503000D02*
X729000D01*
X728000Y502000D02*
Y504000D01*
X718000Y502000D02*
X720000D01*
X719000Y501000D02*
Y503000D01*
X557700Y444200D02*
X559700D01*
X558700Y443200D02*
Y445200D01*
X536368Y543200D02*
X538368D01*
X537368Y542200D02*
Y544200D01*
X536368Y549200D02*
X538368D01*
X537368Y548200D02*
Y550200D01*
X542368Y549200D02*
X544368D01*
X543368Y548200D02*
Y550200D01*
X542368Y543200D02*
X544368D01*
X543368Y542200D02*
Y544200D01*
X68000Y388000D02*
X70000D01*
X69000Y387000D02*
Y389000D01*
X67000Y332000D02*
X69000D01*
X68000Y331000D02*
Y333000D01*
X86000Y318000D02*
X88000D01*
X87000Y317000D02*
Y319000D01*
X86000Y374000D02*
X88000D01*
X87000Y373000D02*
Y375000D01*
X68000Y570000D02*
X70000D01*
X69000Y569000D02*
Y571000D01*
X67000Y514000D02*
X69000D01*
X68000Y513000D02*
Y515000D01*
X86000Y500000D02*
X88000D01*
X87000Y499000D02*
Y501000D01*
X86000Y556000D02*
X88000D01*
X87000Y555000D02*
Y557000D01*
X86000Y608000D02*
X88000D01*
X87000Y607000D02*
Y609000D01*
X67000Y622000D02*
X69000D01*
X68000Y621000D02*
Y623000D01*
Y678000D02*
X70000D01*
X69000Y677000D02*
Y679000D01*
X726889Y446889D02*
X728889D01*
X727889Y445889D02*
Y447889D01*
X723000Y443000D02*
X725000D01*
X724000Y442000D02*
Y444000D01*
X721000Y474000D02*
X723000D01*
X722000Y473000D02*
Y475000D01*
X724889Y470111D02*
X726889D01*
X725889Y469111D02*
Y471111D01*
X557700Y342200D02*
X559700D01*
X558700Y341200D02*
Y343200D01*
X710000Y546000D02*
X712000D01*
X711000Y545000D02*
Y547000D01*
X685325Y379450D02*
X687325D01*
X686325Y378450D02*
Y380450D01*
X703700Y635200D02*
X705700D01*
X704700Y634200D02*
Y636200D01*
Y495200D02*
X706700D01*
X705700Y494200D02*
Y496200D01*
X635700Y482200D02*
X637700D01*
X636700Y481200D02*
Y483200D01*
X635700Y706200D02*
X637700D01*
X636700Y705200D02*
Y707200D01*
X571984Y397516D02*
X573984D01*
X572984Y396516D02*
Y398516D01*
X704700Y502200D02*
X706700D01*
X705700Y501200D02*
Y503200D01*
X571984Y507516D02*
X573984D01*
X572984Y506516D02*
Y508516D01*
X572700Y608200D02*
X574700D01*
X573700Y607200D02*
Y609200D01*
X699700Y584200D02*
X701700D01*
X700700Y583200D02*
Y585200D01*
X696700Y593200D02*
X698700D01*
X697700Y592200D02*
Y594200D01*
X688700Y690200D02*
X690700D01*
X689700Y689200D02*
Y691200D01*
X557700Y581200D02*
X559700D01*
X558700Y580200D02*
Y582200D01*
X720870Y634522D02*
X722870D01*
X721870Y633522D02*
Y635522D01*
X714700Y634200D02*
X716700D01*
X715700Y633200D02*
Y635200D01*
X745200Y372700D02*
X747200D01*
X746200Y371700D02*
Y373700D01*
X731700Y404200D02*
X733700D01*
X732700Y403200D02*
Y405200D01*
X612897Y726554D02*
X614897D01*
X613897Y725555D02*
Y727554D01*
X601103Y708446D02*
X603103D01*
X602103Y707446D02*
Y709445D01*
X601700Y332200D02*
X603700D01*
X602700Y331200D02*
Y333200D01*
X683700Y425200D02*
X685700D01*
X684700Y424200D02*
Y426200D01*
X692700Y531200D02*
X694700D01*
X693700Y530200D02*
Y532200D01*
X651984Y637484D02*
X653984D01*
X652984Y636484D02*
Y638484D01*
X581984Y647516D02*
X583984D01*
X582984Y646516D02*
Y648516D01*
X672016Y657484D02*
X674016D01*
X673016Y656484D02*
Y658484D01*
X652016Y537516D02*
X654016D01*
X653016Y536516D02*
Y538516D01*
X601984Y527484D02*
X603984D01*
X602984Y526484D02*
Y528484D01*
X581984Y537516D02*
X583984D01*
X582984Y536516D02*
Y538516D01*
X647134Y416827D02*
X649134D01*
X648134Y415827D02*
Y417827D01*
X672016Y327484D02*
X674016D01*
X673016Y326484D02*
Y328484D01*
X651984Y307484D02*
X653984D01*
X652984Y306484D02*
Y308484D01*
X581984Y307484D02*
X583984D01*
X582984Y306484D02*
Y308484D01*
X601984Y307484D02*
X603984D01*
X602984Y306484D02*
Y308484D01*
X602946Y718397D02*
X604945D01*
X603946Y717397D02*
Y719397D01*
X621054Y716603D02*
X623055D01*
X622054Y715603D02*
Y717603D01*
X592946Y718397D02*
X594945D01*
X593946Y717397D02*
Y719397D01*
X611054Y716603D02*
X613055D01*
X612054Y715603D02*
Y717603D01*
X138000Y369000D02*
X140000D01*
X139000Y368000D02*
Y370000D01*
X125000Y362000D02*
X127000D01*
X126000Y361000D02*
Y363000D01*
X112000Y356000D02*
X114000D01*
X113000Y355000D02*
Y357000D01*
X99000Y349000D02*
X101000D01*
X100000Y348000D02*
Y350000D01*
X125190Y440947D02*
X127190D01*
X126190Y439947D02*
Y441947D01*
X99045Y431664D02*
X101045D01*
X100045Y430664D02*
Y432664D01*
X112060Y436565D02*
X114060D01*
X113061Y435565D02*
Y437565D01*
X138077Y448000D02*
X140077D01*
X139078Y447000D02*
Y449000D01*
X99285Y527342D02*
X101285D01*
X100285Y526342D02*
Y528342D01*
X112300Y532243D02*
X114300D01*
X113300Y531243D02*
Y533243D01*
X125256Y535495D02*
X127256D01*
X126256Y534495D02*
Y536495D01*
X138317Y543678D02*
X140317D01*
X139317Y542678D02*
Y544678D01*
X99285Y583730D02*
X101285D01*
X100285Y582730D02*
Y584730D01*
X112300Y588631D02*
X114300D01*
X113300Y587631D02*
Y589631D01*
X125256Y591883D02*
X127256D01*
X126256Y590883D02*
Y592883D01*
X138317Y600066D02*
X140317D01*
X139317Y599066D02*
Y601066D01*
X99285Y635342D02*
X101285D01*
X100285Y634342D02*
Y636342D01*
X112300Y640243D02*
X114300D01*
X113300Y639243D02*
Y641243D01*
X125256Y643495D02*
X127256D01*
X126256Y642495D02*
Y644495D01*
X138317Y651678D02*
X140317D01*
X139317Y650678D02*
Y652678D01*
X649700Y687200D02*
X651700D01*
X650700Y686200D02*
Y688200D01*
X649700Y679200D02*
X651700D01*
X650700Y678200D02*
Y680200D01*
X645700Y667200D02*
X647700D01*
X646700Y666200D02*
Y668200D01*
X640700Y663200D02*
X642700D01*
X641700Y662200D02*
Y664200D01*
X645700Y699200D02*
X647700D01*
X646700Y698200D02*
Y700200D01*
X640700Y703200D02*
X642700D01*
X641700Y702200D02*
Y704200D01*
X601103Y488446D02*
X603103D01*
X602103Y487445D02*
Y489445D01*
X602946Y498397D02*
X604945D01*
X603946Y497397D02*
Y499397D01*
X611054Y496603D02*
X613055D01*
X612054Y495603D02*
Y497603D01*
X612897Y506554D02*
X614897D01*
X613897Y505555D02*
Y507555D01*
X621054Y496603D02*
X623055D01*
X622054Y495603D02*
Y497603D01*
X592946Y498397D02*
X594945D01*
X593946Y497397D02*
Y499397D01*
X662506Y456758D02*
X664506D01*
X663506Y455757D02*
Y457757D01*
X662955Y467172D02*
X664955D01*
X663955Y466172D02*
Y468172D01*
X693700Y479200D02*
X695700D01*
X694700Y478200D02*
Y480200D01*
X684700Y477200D02*
X686700D01*
X685700Y476200D02*
Y478200D01*
X688700Y436950D02*
X690700D01*
X689700Y435950D02*
Y437950D01*
X678700Y439200D02*
X680700D01*
X679700Y438200D02*
Y440200D01*
X571984Y307484D02*
X573984D01*
X572984Y306484D02*
Y308484D01*
X561984Y317484D02*
X563984D01*
X562984Y316484D02*
Y318484D01*
X601984Y427484D02*
X603984D01*
X602984Y426484D02*
Y428484D01*
X571984Y427516D02*
X573984D01*
X572984Y426516D02*
Y428516D01*
X561984Y387516D02*
X563984D01*
X562984Y386516D02*
Y388516D01*
X652016Y387516D02*
X654016D01*
X653016Y386516D02*
Y388516D01*
X601984Y317484D02*
X603984D01*
X602984Y316484D02*
Y318484D01*
X672016Y337484D02*
X674016D01*
X673016Y336484D02*
Y338484D01*
X581984Y387484D02*
X583984D01*
X582984Y386484D02*
Y388484D01*
X592016Y377484D02*
X594016D01*
X593016Y376484D02*
Y378484D01*
X581984Y507516D02*
X583984D01*
X582984Y506516D02*
Y508516D01*
X571984Y537516D02*
X573984D01*
X572984Y536516D02*
Y538516D01*
X601984Y537484D02*
X603984D01*
X602984Y536484D02*
Y538484D01*
X592016Y597484D02*
X594016D01*
X593016Y596484D02*
Y598484D01*
X651984Y607484D02*
X653984D01*
X652984Y606484D02*
Y608484D01*
X672016Y677516D02*
X674016D01*
X673016Y676516D02*
Y678516D01*
X652016Y717516D02*
X654016D01*
X653016Y716516D02*
Y718516D01*
X572016Y717516D02*
X574016D01*
X573016Y716516D02*
Y718516D01*
X572016Y647484D02*
X574016D01*
X573016Y646484D02*
Y648484D01*
X601984Y647484D02*
X603984D01*
X602984Y646484D02*
Y648484D01*
X664700Y508200D02*
X666700D01*
X665700Y507200D02*
Y509200D01*
X555700Y619200D02*
X557700D01*
X556700Y618200D02*
Y620200D01*
X692700Y425200D02*
X694700D01*
X693700Y424200D02*
Y426200D01*
X701700Y531200D02*
X703700D01*
X702700Y530200D02*
Y532200D01*
X719700Y404200D02*
X721700D01*
X720700Y403200D02*
Y405200D01*
X586700Y336200D02*
X588700D01*
X587700Y335200D02*
Y337200D01*
X553700Y569200D02*
X555700D01*
X554700Y568200D02*
Y570200D01*
X558700Y426200D02*
X560700D01*
X559700Y425200D02*
Y427200D01*
X555700Y497200D02*
X557700D01*
X556700Y496200D02*
Y498200D01*
X602016Y377484D02*
X604016D01*
X603016Y376484D02*
Y378484D01*
X612016Y377484D02*
X614016D01*
X613016Y376484D02*
Y378484D01*
X622016Y377484D02*
X624016D01*
X623016Y376484D02*
Y378484D01*
X601700Y467200D02*
X603700D01*
X602700Y466200D02*
Y468200D01*
X625700Y484200D02*
X627700D01*
X626700Y483200D02*
Y485200D01*
X615700Y482200D02*
X617700D01*
X616700Y481200D02*
Y483200D01*
X601700Y457200D02*
X603700D01*
X602700Y456200D02*
Y458200D01*
X602016Y387484D02*
X604016D01*
X603016Y386484D02*
Y388484D01*
X612016Y387484D02*
X614016D01*
X613016Y386484D02*
Y388484D01*
X632700Y442200D02*
X634700D01*
X633700Y441200D02*
Y443200D01*
X622016Y387484D02*
X624016D01*
X623016Y386484D02*
Y388484D01*
X621700Y443200D02*
X623700D01*
X622700Y442200D02*
Y444200D01*
X558200Y699200D02*
X560200D01*
X559200Y698200D02*
Y700200D01*
X566700Y606200D02*
X568700D01*
X567700Y605200D02*
Y607200D01*
X621700Y663200D02*
X623700D01*
X622700Y662200D02*
Y664200D01*
X622016Y597484D02*
X624016D01*
X623016Y596484D02*
Y598484D01*
X622016Y607484D02*
X624016D01*
X623016Y606484D02*
Y608484D01*
X632700Y662200D02*
X634700D01*
X633700Y661200D02*
Y663200D01*
X602016Y597484D02*
X604016D01*
X603016Y596484D02*
Y598484D01*
X601700Y687200D02*
X603700D01*
X602700Y686200D02*
Y688200D01*
X612016Y597484D02*
X614016D01*
X613016Y596484D02*
Y598484D01*
X625700Y704200D02*
X627700D01*
X626700Y703200D02*
Y705200D01*
X612016Y607484D02*
X614016D01*
X613016Y606484D02*
Y608484D01*
X615700Y702200D02*
X617700D01*
X616700Y701200D02*
Y703200D01*
X602016Y607484D02*
X604016D01*
X603016Y606484D02*
Y608484D01*
X601700Y677200D02*
X603700D01*
X602700Y676200D02*
Y678200D01*
M02*
