G04*
G04 #@! TF.GenerationSoftware,Altium Limited,Altium Designer,26.4.1 (12)*
G04*
G04 Layer_Color=255*
%FSLAX44Y44*%
%MOMM*%
G71*
G04*
G04 #@! TF.SameCoordinates,591B39C8-AFFB-4739-8591-FA83B15D8AC8*
G04*
G04*
G04 #@! TF.FilePolarity,Positive*
G04*
G01*
G75*
%ADD21R,0.6325X2.3455*%
%ADD22R,3.1725X2.3455*%
%ADD23C,1.5000*%
%ADD24R,0.8000X0.7000*%
%ADD25R,0.8000X0.7000*%
%ADD26R,0.3500X1.5000*%
%ADD27R,0.7000X0.8000*%
%ADD28R,0.7000X0.8000*%
%ADD29R,1.8000X0.3500*%
%ADD30O,1.3000X0.3500*%
%ADD31R,0.6000X1.0000*%
%ADD32R,1.2696X1.3462*%
%ADD33R,1.0500X1.0500*%
%ADD34R,2.3622X1.8796*%
%ADD35R,1.8796X2.3622*%
%ADD36R,2.2860X2.3000*%
%ADD37R,1.3462X1.2696*%
%ADD38O,1.8000X0.6000*%
%ADD39R,2.3000X2.8000*%
%ADD40R,0.9000X0.9500*%
%ADD41R,0.9500X0.9000*%
%ADD42R,0.6500X0.8500*%
G04:AMPARAMS|DCode=43|XSize=1.1mm|YSize=1mm|CornerRadius=0.25mm|HoleSize=0mm|Usage=FLASHONLY|Rotation=0.000|XOffset=0mm|YOffset=0mm|HoleType=Round|Shape=RoundedRectangle|*
%AMROUNDEDRECTD43*
21,1,1.1000,0.5000,0,0,0.0*
21,1,0.6000,1.0000,0,0,0.0*
1,1,0.5000,0.3000,-0.2500*
1,1,0.5000,-0.3000,-0.2500*
1,1,0.5000,-0.3000,0.2500*
1,1,0.5000,0.3000,0.2500*
%
%ADD43ROUNDEDRECTD43*%
G04:AMPARAMS|DCode=44|XSize=0.65mm|YSize=0.6mm|CornerRadius=0.15mm|HoleSize=0mm|Usage=FLASHONLY|Rotation=90.000|XOffset=0mm|YOffset=0mm|HoleType=Round|Shape=RoundedRectangle|*
%AMROUNDEDRECTD44*
21,1,0.6500,0.3000,0,0,90.0*
21,1,0.3500,0.6000,0,0,90.0*
1,1,0.3000,0.1500,0.1750*
1,1,0.3000,0.1500,-0.1750*
1,1,0.3000,-0.1500,-0.1750*
1,1,0.3000,-0.1500,0.1750*
%
%ADD44ROUNDEDRECTD44*%
G04:AMPARAMS|DCode=45|XSize=1.1mm|YSize=0.6mm|CornerRadius=0.05mm|HoleSize=0mm|Usage=FLASHONLY|Rotation=90.000|XOffset=0mm|YOffset=0mm|HoleType=Round|Shape=RoundedRectangle|*
%AMROUNDEDRECTD45*
21,1,1.1000,0.5000,0,0,90.0*
21,1,1.0000,0.6000,0,0,90.0*
1,1,0.1000,0.2500,0.5000*
1,1,0.1000,0.2500,-0.5000*
1,1,0.1000,-0.2500,-0.5000*
1,1,0.1000,-0.2500,0.5000*
%
%ADD45ROUNDEDRECTD45*%
G04:AMPARAMS|DCode=46|XSize=1.1mm|YSize=1mm|CornerRadius=0.25mm|HoleSize=0mm|Usage=FLASHONLY|Rotation=270.000|XOffset=0mm|YOffset=0mm|HoleType=Round|Shape=RoundedRectangle|*
%AMROUNDEDRECTD46*
21,1,1.1000,0.5000,0,0,270.0*
21,1,0.6000,1.0000,0,0,270.0*
1,1,0.5000,-0.2500,-0.3000*
1,1,0.5000,-0.2500,0.3000*
1,1,0.5000,0.2500,0.3000*
1,1,0.5000,0.2500,-0.3000*
%
%ADD46ROUNDEDRECTD46*%
G04:AMPARAMS|DCode=47|XSize=0.975mm|YSize=1.7mm|CornerRadius=0.05mm|HoleSize=0mm|Usage=FLASHONLY|Rotation=90.000|XOffset=0mm|YOffset=0mm|HoleType=Round|Shape=RoundedRectangle|*
%AMROUNDEDRECTD47*
21,1,0.9750,1.6000,0,0,90.0*
21,1,0.8750,1.7000,0,0,90.0*
1,1,0.1000,0.8000,0.4375*
1,1,0.1000,0.8000,-0.4375*
1,1,0.1000,-0.8000,-0.4375*
1,1,0.1000,-0.8000,0.4375*
%
%ADD47ROUNDEDRECTD47*%
G04:AMPARAMS|DCode=48|XSize=0.3mm|YSize=0.66mm|CornerRadius=0.075mm|HoleSize=0mm|Usage=FLASHONLY|Rotation=90.000|XOffset=0mm|YOffset=0mm|HoleType=Round|Shape=RoundedRectangle|*
%AMROUNDEDRECTD48*
21,1,0.3000,0.5100,0,0,90.0*
21,1,0.1500,0.6600,0,0,90.0*
1,1,0.1500,0.2550,0.0750*
1,1,0.1500,0.2550,-0.0750*
1,1,0.1500,-0.2550,-0.0750*
1,1,0.1500,-0.2550,0.0750*
%
%ADD48ROUNDEDRECTD48*%
%ADD49R,0.6000X1.1000*%
G04:AMPARAMS|DCode=50|XSize=0.65mm|YSize=0.6mm|CornerRadius=0.15mm|HoleSize=0mm|Usage=FLASHONLY|Rotation=0.000|XOffset=0mm|YOffset=0mm|HoleType=Round|Shape=RoundedRectangle|*
%AMROUNDEDRECTD50*
21,1,0.6500,0.3000,0,0,0.0*
21,1,0.3500,0.6000,0,0,0.0*
1,1,0.3000,0.1750,-0.1500*
1,1,0.3000,-0.1750,-0.1500*
1,1,0.3000,-0.1750,0.1500*
1,1,0.3000,0.1750,0.1500*
%
%ADD50ROUNDEDRECTD50*%
%ADD51C,0.2000*%
G04:AMPARAMS|DCode=52|XSize=0.3mm|YSize=0.66mm|CornerRadius=0.075mm|HoleSize=0mm|Usage=FLASHONLY|Rotation=0.000|XOffset=0mm|YOffset=0mm|HoleType=Round|Shape=RoundedRectangle|*
%AMROUNDEDRECTD52*
21,1,0.3000,0.5100,0,0,0.0*
21,1,0.1500,0.6600,0,0,0.0*
1,1,0.1500,0.0750,-0.2550*
1,1,0.1500,-0.0750,-0.2550*
1,1,0.1500,-0.0750,0.2550*
1,1,0.1500,0.0750,0.2550*
%
%ADD52ROUNDEDRECTD52*%
%ADD53R,1.1000X0.6000*%
%ADD54R,0.6096X0.1778*%
%ADD55R,1.4478X1.4478*%
%ADD56R,0.1778X0.6096*%
%ADD57R,1.7018X0.8128*%
G04:AMPARAMS|DCode=58|XSize=0.95mm|YSize=0.85mm|CornerRadius=0.2125mm|HoleSize=0mm|Usage=FLASHONLY|Rotation=90.000|XOffset=0mm|YOffset=0mm|HoleType=Round|Shape=RoundedRectangle|*
%AMROUNDEDRECTD58*
21,1,0.9500,0.4250,0,0,90.0*
21,1,0.5250,0.8500,0,0,90.0*
1,1,0.4250,0.2125,0.2625*
1,1,0.4250,0.2125,-0.2625*
1,1,0.4250,-0.2125,-0.2625*
1,1,0.4250,-0.2125,0.2625*
%
%ADD58ROUNDEDRECTD58*%
G04:AMPARAMS|DCode=59|XSize=1.5mm|YSize=0.45mm|CornerRadius=0.1125mm|HoleSize=0mm|Usage=FLASHONLY|Rotation=0.000|XOffset=0mm|YOffset=0mm|HoleType=Round|Shape=RoundedRectangle|*
%AMROUNDEDRECTD59*
21,1,1.5000,0.2250,0,0,0.0*
21,1,1.2750,0.4500,0,0,0.0*
1,1,0.2250,0.6375,-0.1125*
1,1,0.2250,-0.6375,-0.1125*
1,1,0.2250,-0.6375,0.1125*
1,1,0.2250,0.6375,0.1125*
%
%ADD59ROUNDEDRECTD59*%
%ADD60R,3.0000X2.1000*%
%ADD61R,1.6000X0.8000*%
G04:AMPARAMS|DCode=62|XSize=1.5mm|YSize=0.4mm|CornerRadius=0.1mm|HoleSize=0mm|Usage=FLASHONLY|Rotation=0.000|XOffset=0mm|YOffset=0mm|HoleType=Round|Shape=RoundedRectangle|*
%AMROUNDEDRECTD62*
21,1,1.5000,0.2000,0,0,0.0*
21,1,1.3000,0.4000,0,0,0.0*
1,1,0.2000,0.6500,-0.1000*
1,1,0.2000,-0.6500,-0.1000*
1,1,0.2000,-0.6500,0.1000*
1,1,0.2000,0.6500,0.1000*
%
%ADD62ROUNDEDRECTD62*%
%ADD63R,3.0988X2.2098*%
%ADD64R,3.1500X3.3000*%
%ADD83C,0.8000*%
%ADD107C,5.0000*%
G36*
G01X387225Y99977D02*
G01X391952Y95250D01*
G01X381255Y95250D01*
G02X379130Y97375I0J2125D01*
G01Y102625D01*
G02X381255Y104750I2125J0D01*
G01X391998D01*
G01X387225Y99977D01*
D02*
G37*
G36*
G01X400875Y95250D02*
G01X394444D01*
G01X389730Y100000D01*
G01X394444Y104750D01*
G01X400875D01*
G02X403000Y102625I0J-2125D01*
G01Y97375D01*
G02X400875Y95250I-2125J0D01*
D02*
G37*
G36*
G01X362875D02*
G01X356444D01*
G01X351730Y100000D01*
G01X356444Y104750D01*
G01X362875D01*
G02X365000Y102625I0J-2125D01*
G01Y97375D01*
G02X362875Y95250I-2125J0D01*
D02*
G37*
G36*
G01X349225Y99977D02*
G01X353952Y95250D01*
G01X343255Y95250D01*
G02X341130Y97375I0J2125D01*
G01Y102625D01*
G02X343255Y104750I2125J0D01*
G01X353998D01*
G01X349225Y99977D01*
D02*
G37*
G36*
G01X595701Y50614D02*
G02Y65386I1302J7386D01*
G01Y50614D01*
D02*
G37*
G36*
G01X598303Y65386D02*
G02Y50614I-1302J-7386D01*
G01Y65386D01*
D02*
G37*
D21*
X451700Y230103D02*
D03*
X464400D02*
D03*
X413600D02*
D03*
X426300D02*
D03*
X439000D02*
D03*
D22*
Y169897D02*
D03*
D23*
X107000Y281000D02*
D03*
X87000Y474000D02*
D03*
X40000Y100000D02*
D03*
X70000D02*
D03*
X130000D02*
D03*
X160000D02*
D03*
X338000Y62000D02*
D03*
Y35000D02*
D03*
X630000Y250000D02*
D03*
X600000D02*
D03*
X660000D02*
D03*
X100000Y100000D02*
D03*
D24*
X54000Y638000D02*
D03*
Y622000D02*
D03*
X92000Y726000D02*
D03*
Y710000D02*
D03*
X76000Y726000D02*
D03*
Y710000D02*
D03*
X41000Y638000D02*
D03*
Y622000D02*
D03*
X54000Y530000D02*
D03*
Y514000D02*
D03*
X41000Y530000D02*
D03*
Y514000D02*
D03*
X90000Y418000D02*
D03*
Y434000D02*
D03*
X74000Y418000D02*
D03*
Y434000D02*
D03*
X54000Y348000D02*
D03*
Y332000D02*
D03*
X41000Y348000D02*
D03*
Y332000D02*
D03*
X37000Y185999D02*
D03*
Y169999D02*
D03*
X52000Y185999D02*
D03*
Y169999D02*
D03*
X156000Y173572D02*
D03*
Y189572D02*
D03*
X219000Y168000D02*
D03*
Y184000D02*
D03*
X332000Y145000D02*
D03*
Y129000D02*
D03*
X283000Y121000D02*
D03*
Y137000D02*
D03*
Y107000D02*
D03*
Y91000D02*
D03*
X267000Y91000D02*
D03*
Y107000D02*
D03*
X357000Y200000D02*
D03*
Y184000D02*
D03*
Y234000D02*
D03*
Y218000D02*
D03*
X526144Y216281D02*
D03*
Y200281D02*
D03*
X526000Y186000D02*
D03*
Y170000D02*
D03*
X745865Y55285D02*
D03*
Y39285D02*
D03*
X746001Y69585D02*
D03*
Y85585D02*
D03*
D25*
X54000Y676001D02*
D03*
X54001Y660001D02*
D03*
X41000Y676001D02*
D03*
X41001Y660001D02*
D03*
X54000Y568001D02*
D03*
X54001Y552001D02*
D03*
X41000Y568001D02*
D03*
X41001Y552001D02*
D03*
X41000Y386001D02*
D03*
X41001Y370001D02*
D03*
X54000Y386001D02*
D03*
X54001Y370001D02*
D03*
X171001Y173573D02*
D03*
X171000Y189573D02*
D03*
D26*
X87250Y621806D02*
D03*
X126250Y678194D02*
D03*
X126250Y621806D02*
D03*
X139250Y678194D02*
D03*
X113250D02*
D03*
X87250D02*
D03*
X74250Y621806D02*
D03*
X139250D02*
D03*
X80750Y678194D02*
D03*
X100250Y621806D02*
D03*
X100250Y678194D02*
D03*
X113250Y621806D02*
D03*
X74250Y678194D02*
D03*
X106750Y621806D02*
D03*
X106750Y678194D02*
D03*
X119750Y621806D02*
D03*
Y678194D02*
D03*
X132750Y621806D02*
D03*
Y678194D02*
D03*
X145750Y621806D02*
D03*
Y678194D02*
D03*
X80750Y621806D02*
D03*
X93750Y678194D02*
D03*
X93750Y621806D02*
D03*
X87250Y513806D02*
D03*
X126250Y570194D02*
D03*
X126250Y513806D02*
D03*
X139250Y570194D02*
D03*
X113250D02*
D03*
X139250Y513806D02*
D03*
X80750Y570194D02*
D03*
X100250Y513806D02*
D03*
X100250Y570194D02*
D03*
X113250Y513806D02*
D03*
X74250D02*
D03*
X87250Y570194D02*
D03*
X74250D02*
D03*
X106750Y513806D02*
D03*
X119750D02*
D03*
X106750Y570194D02*
D03*
X119750D02*
D03*
X132750Y513806D02*
D03*
X145750D02*
D03*
X132750Y570194D02*
D03*
X145750D02*
D03*
X80750Y513806D02*
D03*
X93750Y570194D02*
D03*
X93750Y513806D02*
D03*
X87250Y331806D02*
D03*
X126250Y388194D02*
D03*
X126250Y331806D02*
D03*
X139250Y388194D02*
D03*
X113250D02*
D03*
X87250D02*
D03*
X139250Y331806D02*
D03*
X100250D02*
D03*
X100250Y388194D02*
D03*
X113250Y331806D02*
D03*
X80750Y388194D02*
D03*
X80750Y331806D02*
D03*
X74250D02*
D03*
Y388194D02*
D03*
X106750Y331806D02*
D03*
X106750Y388194D02*
D03*
X119750Y331806D02*
D03*
Y388194D02*
D03*
X132750D02*
D03*
X145750Y331806D02*
D03*
X132750D02*
D03*
X145750Y388194D02*
D03*
X93750D02*
D03*
X93750Y331806D02*
D03*
D27*
X77000Y598000D02*
D03*
X93000D02*
D03*
X64000D02*
D03*
X48000D02*
D03*
X37000Y245000D02*
D03*
X53000D02*
D03*
X53000Y230000D02*
D03*
X37000D02*
D03*
X187000Y212000D02*
D03*
X203000D02*
D03*
X187000Y228000D02*
D03*
X203000D02*
D03*
X156000D02*
D03*
X172000D02*
D03*
X156000Y212000D02*
D03*
X172000D02*
D03*
X315000Y226000D02*
D03*
X331000D02*
D03*
X315000Y211000D02*
D03*
X331000D02*
D03*
X269000Y77000D02*
D03*
X285000D02*
D03*
X286000Y61000D02*
D03*
X270000D02*
D03*
X317000D02*
D03*
X301000D02*
D03*
X374000Y153000D02*
D03*
X358000D02*
D03*
X601000Y219000D02*
D03*
X585000D02*
D03*
X571000D02*
D03*
X555000D02*
D03*
X593000Y108000D02*
D03*
X609000D02*
D03*
X283500Y226000D02*
D03*
X267500D02*
D03*
X253500D02*
D03*
X237500D02*
D03*
D28*
X36999Y200000D02*
D03*
X52999Y200001D02*
D03*
X36999Y215000D02*
D03*
X52999Y215001D02*
D03*
X83001Y245000D02*
D03*
X67001Y244999D02*
D03*
Y167999D02*
D03*
X83001Y168000D02*
D03*
X154999Y160000D02*
D03*
X170999Y160001D02*
D03*
X331001Y242000D02*
D03*
X315001Y241999D02*
D03*
X330730Y196258D02*
D03*
X314730Y196257D02*
D03*
X330729Y182258D02*
D03*
X314729Y182257D02*
D03*
X330729Y168258D02*
D03*
X314729Y168257D02*
D03*
X316000Y144254D02*
D03*
X300000Y144253D02*
D03*
X316000Y128254D02*
D03*
X300000Y128253D02*
D03*
X357999Y120000D02*
D03*
X373999Y120001D02*
D03*
X374000Y135000D02*
D03*
X358000Y134999D02*
D03*
X608998Y93233D02*
D03*
X592999Y93232D02*
D03*
X593000Y78231D02*
D03*
X609000Y78232D02*
D03*
D29*
X78473Y184775D02*
D03*
Y191125D02*
D03*
Y197475D02*
D03*
Y210175D02*
D03*
Y216525D02*
D03*
Y222875D02*
D03*
Y229225D02*
D03*
X129527D02*
D03*
Y210175D02*
D03*
Y184775D02*
D03*
Y197475D02*
D03*
Y216525D02*
D03*
Y222875D02*
D03*
Y203825D02*
D03*
Y191125D02*
D03*
X78473Y203825D02*
D03*
D30*
X237500Y197750D02*
D03*
Y191250D02*
D03*
Y171750D02*
D03*
X294500Y165250D02*
D03*
Y171750D02*
D03*
Y178250D02*
D03*
Y191250D02*
D03*
X237500Y165250D02*
D03*
Y204250D02*
D03*
X294500Y184750D02*
D03*
X237500Y210750D02*
D03*
X294500D02*
D03*
Y204250D02*
D03*
X237500Y178250D02*
D03*
Y184750D02*
D03*
X294500Y197750D02*
D03*
D31*
X321500Y105750D02*
D03*
Y80250D02*
D03*
X302500Y105750D02*
D03*
Y80250D02*
D03*
X312000Y105750D02*
D03*
D32*
X316432Y35000D02*
D03*
X293568D02*
D03*
X490568Y127000D02*
D03*
X513432D02*
D03*
D33*
X382700Y75000D02*
D03*
X370000D02*
D03*
X357300D02*
D03*
D34*
X384950Y231081D02*
D03*
Y186377D02*
D03*
X719001Y84937D02*
D03*
Y40233D02*
D03*
X497000Y167648D02*
D03*
Y212352D02*
D03*
D35*
X601000Y189000D02*
D03*
X556296D02*
D03*
D36*
X601000Y145000D02*
D03*
X561000D02*
D03*
D37*
X467000Y106568D02*
D03*
Y129432D02*
D03*
X572000Y82568D02*
D03*
Y105432D02*
D03*
D38*
X490750Y66950D02*
D03*
Y79650D02*
D03*
X547250Y105050D02*
D03*
Y79650D02*
D03*
Y66950D02*
D03*
X490750Y105050D02*
D03*
Y92350D02*
D03*
X547250D02*
D03*
X685250Y105050D02*
D03*
Y92350D02*
D03*
X628750Y105050D02*
D03*
Y92350D02*
D03*
Y79650D02*
D03*
X685250Y66950D02*
D03*
X628750D02*
D03*
X685250Y79650D02*
D03*
D39*
X657000Y86000D02*
D03*
D40*
X728500Y194500D02*
D03*
X709500D02*
D03*
X719000Y169500D02*
D03*
D41*
X726000Y232500D02*
D03*
Y251500D02*
D03*
X701000Y242000D02*
D03*
X726000Y266500D02*
D03*
Y285500D02*
D03*
X701000Y276000D02*
D03*
Y309000D02*
D03*
X726000Y299500D02*
D03*
Y318500D02*
D03*
D42*
X707950Y394950D02*
D03*
X691450Y379450D02*
D03*
Y394950D02*
D03*
X707950Y379450D02*
D03*
D43*
X528500Y299000D02*
D03*
X543500Y365000D02*
D03*
X523800Y497200D02*
D03*
X542500Y463000D02*
D03*
X523800Y533200D02*
D03*
X540500Y697000D02*
D03*
X523500D02*
D03*
X525500Y463000D02*
D03*
X526500Y365000D02*
D03*
X540800Y533200D02*
D03*
X511500Y299000D02*
D03*
X540800Y497200D02*
D03*
D44*
X566700Y297200D02*
D03*
X555700Y321200D02*
D03*
X588700Y296200D02*
D03*
X578000Y327500D02*
D03*
X593700Y326200D02*
D03*
X597700Y296200D02*
D03*
X567700Y371200D02*
D03*
X577700D02*
D03*
X556700Y479200D02*
D03*
X563700Y689200D02*
D03*
X554700D02*
D03*
Y710200D02*
D03*
X565700Y460200D02*
D03*
Y479200D02*
D03*
X570700Y521200D02*
D03*
X583700D02*
D03*
X594700D02*
D03*
X608700D02*
D03*
X564700Y623200D02*
D03*
X573700D02*
D03*
X587700Y622172D02*
D03*
X567700Y664200D02*
D03*
X572700Y689200D02*
D03*
X564700Y710200D02*
D03*
X587700Y632200D02*
D03*
X576700Y664200D02*
D03*
X596700Y632200D02*
D03*
X640700Y323200D02*
D03*
X662700Y305200D02*
D03*
X671700D02*
D03*
X680700D02*
D03*
X657700Y420200D02*
D03*
X678700Y392200D02*
D03*
X666700Y420200D02*
D03*
X675700Y410200D02*
D03*
X693700D02*
D03*
X684700D02*
D03*
X639700Y632200D02*
D03*
X673700Y487200D02*
D03*
X645700Y546200D02*
D03*
X689700Y501200D02*
D03*
X684700Y512200D02*
D03*
X693700D02*
D03*
X702700D02*
D03*
X649700Y652200D02*
D03*
X658700D02*
D03*
X655700Y702200D02*
D03*
X664700D02*
D03*
X690700Y627200D02*
D03*
X667700Y642200D02*
D03*
X669700Y627200D02*
D03*
X730700D02*
D03*
X655700Y712200D02*
D03*
X664700D02*
D03*
X625700Y633200D02*
D03*
X616700D02*
D03*
X628700Y306200D02*
D03*
X609700D02*
D03*
X555700Y331200D02*
D03*
X662700Y315200D02*
D03*
X577700Y381200D02*
D03*
X578000Y317500D02*
D03*
X730700Y617200D02*
D03*
X565700Y450200D02*
D03*
X628700Y296200D02*
D03*
X737375Y485300D02*
D03*
X728200Y485300D02*
D03*
X587700Y612172D02*
D03*
X576700Y654200D02*
D03*
X572700Y699200D02*
D03*
X616700Y623200D02*
D03*
X684700Y522200D02*
D03*
X689700Y491200D02*
D03*
X675700Y420200D02*
D03*
X565700Y489200D02*
D03*
X667700Y652200D02*
D03*
X639700Y642200D02*
D03*
X625700Y623200D02*
D03*
X673700Y477200D02*
D03*
X554700Y720200D02*
D03*
X774000Y485300D02*
D03*
X719200D02*
D03*
X609700Y296200D02*
D03*
X564700Y720200D02*
D03*
X678700Y382200D02*
D03*
X722000Y653000D02*
D03*
X713000D02*
D03*
X690700Y617200D02*
D03*
X702700Y627200D02*
D03*
X678700D02*
D03*
X774000Y495300D02*
D03*
X764200D02*
D03*
X746538Y495300D02*
D03*
X737375D02*
D03*
X728200Y495300D02*
D03*
X719200D02*
D03*
X678700Y617200D02*
D03*
X702700D02*
D03*
X721700D02*
D03*
X712700D02*
D03*
X573700Y613200D02*
D03*
X746538Y485300D02*
D03*
X764200Y485300D02*
D03*
X722000Y643000D02*
D03*
X713000D02*
D03*
X721700Y627200D02*
D03*
X712700D02*
D03*
X542000Y296000D02*
D03*
Y306000D02*
D03*
X649700Y642200D02*
D03*
X588700Y306200D02*
D03*
X597700D02*
D03*
X640700Y313200D02*
D03*
X657700Y410200D02*
D03*
X666700D02*
D03*
X645700Y536200D02*
D03*
X658700Y642200D02*
D03*
X583700Y531200D02*
D03*
X608700D02*
D03*
X587700Y642200D02*
D03*
X693700Y522200D02*
D03*
X671700Y315200D02*
D03*
X684700Y420200D02*
D03*
X554700Y699200D02*
D03*
X563700D02*
D03*
X596700Y642200D02*
D03*
X594700Y531200D02*
D03*
X570700D02*
D03*
X593700Y316200D02*
D03*
X567700Y381200D02*
D03*
X720700Y386200D02*
D03*
Y396200D02*
D03*
X693700Y420200D02*
D03*
X669700Y617200D02*
D03*
X566700Y307200D02*
D03*
X680700Y315200D02*
D03*
X567700Y654200D02*
D03*
X556700Y489200D02*
D03*
X702700Y522200D02*
D03*
X564700Y613200D02*
D03*
D45*
X532000Y320375D02*
D03*
X522500Y346375D02*
D03*
X541500Y320375D02*
D03*
Y346375D02*
D03*
X522500Y320375D02*
D03*
D46*
X525000Y383500D02*
D03*
X602700Y356700D02*
D03*
X524000Y612500D02*
D03*
X660700Y356700D02*
D03*
X524000Y629500D02*
D03*
X525000Y400500D02*
D03*
X660700Y339700D02*
D03*
X602700D02*
D03*
D47*
X532000Y334000D02*
D03*
D48*
X583900Y348200D02*
D03*
Y354700D02*
D03*
X557000Y739700D02*
D03*
Y733200D02*
D03*
X565500Y348200D02*
D03*
X575400Y739700D02*
D03*
X565500Y341700D02*
D03*
X575400Y746200D02*
D03*
X583900Y341700D02*
D03*
X565500Y354700D02*
D03*
X575400Y733200D02*
D03*
X557000Y746200D02*
D03*
D49*
X533000Y419000D02*
D03*
X534000Y649000D02*
D03*
X524500Y675000D02*
D03*
X523500Y445000D02*
D03*
X524500Y649000D02*
D03*
X523500Y419000D02*
D03*
X543500Y649000D02*
D03*
Y675000D02*
D03*
X542500Y419000D02*
D03*
Y445000D02*
D03*
D50*
X521300Y521200D02*
D03*
X561700Y404200D02*
D03*
X557700Y511200D02*
D03*
X559700Y599200D02*
D03*
X586700Y407200D02*
D03*
Y425200D02*
D03*
Y434200D02*
D03*
Y416200D02*
D03*
X599700Y481200D02*
D03*
X602700Y544200D02*
D03*
X608700Y589200D02*
D03*
X599700Y701200D02*
D03*
X619700Y321200D02*
D03*
X629700Y428200D02*
D03*
X667700Y381200D02*
D03*
X667700Y391200D02*
D03*
Y400200D02*
D03*
X635700Y538200D02*
D03*
X631700Y593200D02*
D03*
X674950Y513200D02*
D03*
Y522200D02*
D03*
X660700Y672200D02*
D03*
Y663200D02*
D03*
X728000Y774000D02*
D03*
X738000D02*
D03*
X629700Y417800D02*
D03*
X629700Y408200D02*
D03*
X622950Y553200D02*
D03*
X602700D02*
D03*
X782000Y720000D02*
D03*
X662000Y751000D02*
D03*
X756000Y722000D02*
D03*
Y740000D02*
D03*
Y731000D02*
D03*
X662000Y727000D02*
D03*
X782000Y729000D02*
D03*
X792000D02*
D03*
X657700Y381200D02*
D03*
X629700Y321200D02*
D03*
X639700Y417800D02*
D03*
X652000Y727000D02*
D03*
X596700Y434200D02*
D03*
X713300Y673800D02*
D03*
X569700Y599200D02*
D03*
X652000Y751000D02*
D03*
X639700Y408200D02*
D03*
X709450Y429200D02*
D03*
X609700Y481200D02*
D03*
X592700Y553200D02*
D03*
Y544200D02*
D03*
X609700Y701200D02*
D03*
X792000Y720000D02*
D03*
X639700Y428200D02*
D03*
X641700Y593200D02*
D03*
X625700Y538200D02*
D03*
X632950Y553200D02*
D03*
X713300Y682800D02*
D03*
X531300Y521200D02*
D03*
X521300Y511200D02*
D03*
X536000Y632000D02*
D03*
X766000Y722000D02*
D03*
X723300Y673800D02*
D03*
Y664800D02*
D03*
Y682800D02*
D03*
Y691800D02*
D03*
X571700Y404200D02*
D03*
X567700Y511200D02*
D03*
X713300Y664800D02*
D03*
Y691800D02*
D03*
X766000Y740000D02*
D03*
Y731000D02*
D03*
X739700Y404200D02*
D03*
X537000Y403000D02*
D03*
X660700Y369200D02*
D03*
X670700Y663200D02*
D03*
X596700Y407200D02*
D03*
X598700Y589200D02*
D03*
X670700Y672200D02*
D03*
X657700Y391200D02*
D03*
X596700Y425200D02*
D03*
Y416200D02*
D03*
X664950Y522200D02*
D03*
Y513200D02*
D03*
X657700Y400200D02*
D03*
X531300Y511200D02*
D03*
X650700Y369200D02*
D03*
X547000Y403000D02*
D03*
X546000Y632000D02*
D03*
X749700Y404200D02*
D03*
X719450Y429200D02*
D03*
X749700Y429200D02*
D03*
X739700D02*
D03*
D51*
X546000Y520000D02*
D03*
X542000D02*
D03*
Y512000D02*
D03*
X546000Y516000D02*
D03*
Y512000D02*
D03*
X542000Y516000D02*
D03*
D52*
X564700Y569000D02*
D03*
X565700Y419000D02*
D03*
X572200D02*
D03*
X571200Y569000D02*
D03*
X564700Y587400D02*
D03*
X565700Y437400D02*
D03*
X558200Y587400D02*
D03*
X559200Y437400D02*
D03*
X558200Y569000D02*
D03*
X571200Y587400D02*
D03*
X559200Y419000D02*
D03*
X572200Y437400D02*
D03*
D53*
X644700Y349200D02*
D03*
Y339700D02*
D03*
X618700D02*
D03*
Y358700D02*
D03*
X644700D02*
D03*
D54*
X615500Y452000D02*
D03*
X677200Y446700D02*
D03*
Y457200D02*
D03*
X702200D02*
D03*
X615500Y462500D02*
D03*
X640500D02*
D03*
X615500Y672000D02*
D03*
Y682500D02*
D03*
X640500D02*
D03*
X702200Y453700D02*
D03*
X615500Y693000D02*
D03*
Y473000D02*
D03*
X677200Y467700D02*
D03*
X615500Y689500D02*
D03*
Y679000D02*
D03*
X640500Y672000D02*
D03*
Y675500D02*
D03*
Y679000D02*
D03*
Y686000D02*
D03*
Y689500D02*
D03*
Y693000D02*
D03*
X615500Y686000D02*
D03*
Y675500D02*
D03*
X640500Y452000D02*
D03*
Y455500D02*
D03*
Y459000D02*
D03*
Y466000D02*
D03*
Y469500D02*
D03*
Y473000D02*
D03*
X615500Y469500D02*
D03*
Y466000D02*
D03*
Y459000D02*
D03*
Y455500D02*
D03*
X702200Y446700D02*
D03*
Y450200D02*
D03*
Y460700D02*
D03*
Y464200D02*
D03*
Y467700D02*
D03*
X677200Y464200D02*
D03*
Y460700D02*
D03*
Y453700D02*
D03*
Y450200D02*
D03*
D55*
X628000Y462500D02*
D03*
X689700Y457200D02*
D03*
X628000Y682500D02*
D03*
D56*
X635000Y450000D02*
D03*
X696700Y444700D02*
D03*
X635000Y670000D02*
D03*
X696700Y469700D02*
D03*
X635000Y475000D02*
D03*
Y695000D02*
D03*
X628000Y670000D02*
D03*
X624500Y695000D02*
D03*
X621000Y670000D02*
D03*
X631500Y695000D02*
D03*
X624500Y670000D02*
D03*
X631500D02*
D03*
X628000Y695000D02*
D03*
X621000D02*
D03*
Y450000D02*
D03*
X624500D02*
D03*
X628000D02*
D03*
X631500D02*
D03*
Y475000D02*
D03*
X628000D02*
D03*
X624500D02*
D03*
X621000D02*
D03*
X682700Y444700D02*
D03*
X686200D02*
D03*
X689700D02*
D03*
X693200D02*
D03*
Y469700D02*
D03*
X689700D02*
D03*
X686200D02*
D03*
X682700D02*
D03*
D57*
X748955Y200000D02*
D03*
Y287500D02*
D03*
Y275000D02*
D03*
Y262500D02*
D03*
Y237500D02*
D03*
Y212500D02*
D03*
Y225000D02*
D03*
Y250000D02*
D03*
Y187500D02*
D03*
D58*
X736950Y392200D02*
D03*
X706950Y417200D02*
D03*
X752450D02*
D03*
Y392200D02*
D03*
X722450Y417200D02*
D03*
X736950D02*
D03*
D59*
X667700Y533450D02*
D03*
X725700Y585450D02*
D03*
Y604950D02*
D03*
X667700Y591950D02*
D03*
Y578950D02*
D03*
Y572450D02*
D03*
Y565950D02*
D03*
Y552950D02*
D03*
Y546450D02*
D03*
Y539950D02*
D03*
X725700Y533450D02*
D03*
Y539950D02*
D03*
Y546450D02*
D03*
Y552950D02*
D03*
Y559450D02*
D03*
Y565950D02*
D03*
Y572450D02*
D03*
Y578950D02*
D03*
Y591950D02*
D03*
Y598450D02*
D03*
X667700Y604950D02*
D03*
Y559450D02*
D03*
Y585450D02*
D03*
Y598450D02*
D03*
D60*
X780000Y519500D02*
D03*
Y695500D02*
D03*
D61*
X751000Y620000D02*
D03*
Y657500D02*
D03*
Y557500D02*
D03*
Y645000D02*
D03*
Y632500D02*
D03*
Y670000D02*
D03*
Y607500D02*
D03*
Y595000D02*
D03*
Y582500D02*
D03*
Y570000D02*
D03*
Y545000D02*
D03*
D62*
X679000Y703750D02*
D03*
Y749250D02*
D03*
Y762250D02*
D03*
Y755750D02*
D03*
X737000Y762250D02*
D03*
Y755750D02*
D03*
Y749250D02*
D03*
Y742750D02*
D03*
Y723250D02*
D03*
Y716750D02*
D03*
Y710250D02*
D03*
Y703750D02*
D03*
X679000Y710250D02*
D03*
Y716750D02*
D03*
Y723250D02*
D03*
Y729750D02*
D03*
Y736250D02*
D03*
Y742750D02*
D03*
X737000Y729750D02*
D03*
Y736250D02*
D03*
D63*
X777955Y162000D02*
D03*
Y313000D02*
D03*
D64*
X662000Y197500D02*
D03*
Y142500D02*
D03*
D83*
X590700Y394200D02*
D03*
X547000Y483000D02*
D03*
X622000Y766000D02*
D03*
X574700Y638200D02*
D03*
X558700Y549200D02*
D03*
X642700Y583200D02*
D03*
X701000Y363000D02*
D03*
X744000Y454000D02*
D03*
X735000Y347000D02*
D03*
X622000Y744000D02*
D03*
Y755000D02*
D03*
D107*
X30000Y30000D02*
D03*
X430000D02*
D03*
X30000Y445000D02*
D03*
Y770000D02*
D03*
X455360D02*
D03*
X790000Y30000D02*
D03*
Y445000D02*
D03*
Y770000D02*
D03*
M02*
