M48
;Layer_Color=9474304
;FILE_FORMAT=4:3
METRIC,TZ
;TYPE=PLATED
T01F00S00C0.200
T02F00S00C3.200
%
T01
X59000Y1000
X60000
X61000
X62000
X63000
X64000
X65000
X66000
X67000
X68000
X69000
X70000
X71000
X72000
X73000
X74000
X75000
X76000
X78000
X74930Y2328
X74330
Y2928
X74930
X75500Y4200
X72243Y2800
X71643
Y2200
X72243
X69500Y4200
X66500
X63500
X61500Y5100
X60800
X60500Y4200
X58600Y5100
X81000Y4000
Y3000
X57500Y4200
X57900Y5100
X58000Y1000
X57000
X56000
X55000
X54000
X53000
X52000
X51000
X50000
X49000
X48000
X47000
X46000
X45000
X44000
X43000
X42000
X41000
X40000
X39000
X38000
X37000
X36000
X35000
X34000
X33000
X32000
X31000
X30000
X29000
X28000
X27000
X26000
X25000
X24000
X23000
X22000
X21000
X20000
X19000
X18500Y4200
X21500
X27757Y3757
Y3157
X28357
Y3757
X36500Y4200
X39500
X48500
X51500
X54500
X15500
X12500
X9500
X6500
X6000Y1000
X5000
X4000
X3000
X1000Y3000
Y4000
X7000Y1000
X8000
X9000
X10000
X11000
X12000
X13000
X14000
X15000
X16000
X17000
X18000
X17000Y7200
X14000
X11000
X8000
X5000
X2000
X1000Y7000
Y8000
Y9000
Y10000
Y11000
Y12000
Y13000
Y14000
Y15000
Y16000
Y17000
Y18000
Y19000
Y20000
Y21000
Y22000
Y23000
Y24000
Y25000
Y26000
Y27000
Y29000
Y30000
Y31000
Y32000
Y33000
Y34000
Y35000
Y36000
Y37000
Y38000
Y39000
Y40000
Y41000
Y42000
Y43000
Y44000
Y45000
X3500Y40200
X3100Y37257
X2500
Y36657
X3100
X3843Y32200
Y31600
X4443
Y32200
X5400Y32000
X5000Y31200
X3600Y30600
Y30000
X2900
Y30600
X2200
Y30000
X2000Y31200
X3500Y28200
X2000Y25200
X2700Y23257
Y22657
X2800Y18600
X3500Y16200
X4043Y16000
Y15400
X5500Y13300
X6800Y13000
X8700Y14000
X7800Y15100
X9200Y20400
X9500Y22200
X9900Y24500
X11600
X12500Y28200
X9500
X9500Y29500
X8900
Y30100
X9500
Y30800
X8900
X8700Y31800
Y34700
X10000Y34900
X11300Y35600
X12600Y36200
X13900Y36900
X16300Y34200
X17000Y34200
X17199Y40510
X16300Y40500
X13908Y44800
X12619Y44095
X11306Y43656
X10005Y43166
X9400Y40900
X6400Y41457
Y42057
X6900Y38800
X8700Y37400
X6800Y33200
X6000Y24500
X15600Y22000
X15500Y28200
X18300Y16800
X2000Y13200
X1000Y6000
X20000Y7200
X23000
X26000
X26000Y6100
X29400Y7700
X29200Y9100
X31200Y9200
Y9700
X27500Y10200
X26700Y11600
Y13500
Y14400
X26000Y12800
X25300Y11000
X24500Y10200
X24300Y11700
X29100Y13500
X29100Y13957
X30000Y15300
X30500Y16525
X30472Y17175
X28100Y17100
X28500Y19800
X29350Y22343
Y22943
X29950
Y22343
X30900Y21100
X30500Y24200
X30500Y28200
X27500
X24500
X21500
X18500
X21300Y23143
Y22543
X21900
Y23143
Y21543
Y20943
X21300
Y21543
X23700Y21900
X24500Y22200
X27500
X34100Y22343
X34700
Y22943
X34100
X35400Y24400
X36000
Y25000
X35400
X38000Y25200
X41000
X44000
X47000
X50000
X49457Y23100
Y22500
X48857
Y23100
X50000Y19200
X47000
X44000
X41000
X38838Y17638
X38238
Y17038
X38838
X39500Y16200
X36500
X36043Y16800
X35443
Y17400
X36043
X35000Y19200
X34300Y19400
Y19900
X33700
Y19400
X36500Y22200
Y28200
X33500
X33500Y33200
X33500Y34200
X33000Y34200
X32000
X31000
X30500Y34200
X30000Y34200
Y36200
X31000
X32000
X33000
X34000
X35000
X36000
X37000
X38000Y37200
X38500Y37200
X39500
X40500
X41000Y37200
X41500Y37200
X42500
X43500
X44000Y37200
X44500Y37200
X45500
X45000Y36200
X44000
X43000
X42000
X41000
X40000
X39000
X39500Y34200
X40000Y34200
X41000
X42000
X42500Y34200
X43000Y34200
X44000
X45000
X43500Y33200
X42500
X41500
Y35200
X42500
X43500
X46000Y36200
X48000
X49000
X49500Y37200
X48500
X47500
X47000Y38200
X48000
X49000
Y34200
X51500Y34200
X52800Y35100
X52797Y35670
X53500Y38093
Y38693
X54200Y37500
X55970Y37020
X56298Y38752
Y39752
X57298
Y38752
Y42752
X55970Y42620
X55870Y44420
X55800Y45000
X52400Y43300
X52500Y41100
X52000Y40800
X49500Y43200
X48500
X48000Y44200
X47000
X45000
X44000
X43000
X42000
X41000
X40000
X39000
X38000
X38500Y43200
X39500
X40500
X41000Y43200
X41500Y43200
X42500
X43500
X44000Y43200
X44500Y43200
X45500
X44000Y42200
X43000
X42000
X41000
X41500Y41200
X42500
X43500
X43000Y40200
X42500Y40200
X42000Y40200
X41000
X41500Y39200
X42500
X43500
X44000Y40200
X49000Y44200
X49500Y45200
X48500
X36500Y43200
X35500
X35000Y43200
X34500Y43200
X33500
X32500
X32000Y43200
X31500Y43200
X30500
X29500
X29000Y43200
X32000Y42200
X33000
X34000
X34500Y41200
X33500
X32500
X31500
X32000Y40200
X33000
X33500Y40200
X34000Y40200
X34500Y39200
X33500
X32500
X31500
X32500Y35200
X33500
X34500
X34000Y34200
X35000
X36000
X34500Y33200
X32500
X26000Y34200
X25000
X24500Y34200
X24000Y34200
X23000
X22000
X21500Y34200
X21000Y34200
Y36200
X20000
X22000
X23000
X24000
X25000
X26000
X27000
X24500Y35200
X23500
X22500
Y33200
X23500
X24500
Y39200
X24500Y40200
X24000Y40200
X23000
X22000
X22500Y39200
X23500
Y41200
X22500
X22000Y42200
X23000
X24000
X25000
X24500Y41200
X25000Y40200
X20900Y18657
Y18057
X20300
Y18657
X20000Y19200
X18500Y10200
X33300Y12100
X34300Y12300
X35543Y14300
X36000Y14300
Y8900
Y8400
X35400
Y8900
X41000Y7200
X44000
X46443Y9057
X47043
Y9657
X46443
X45500Y10200
X45700Y12600
X45100
Y13200
X45700
X44243Y15390
X43643
Y15990
X44243
X49443Y15765
Y15165
X50043
Y15765
X51500Y16200
X52343Y16000
Y15400
X52943
Y16000
X54500Y16200
X57500
X56343Y12900
X55743
Y12300
X56343
X52943Y12443
X52343
Y13043
X52943
X52900Y9270
X53500
X53000Y7200
X56000
X57900Y6500
Y5800
X50900Y9200
X50300
X51500Y10200
X49300Y11100
X48700
Y11700
X49300
X42500Y10200
Y28200
X39500
X45500
X48500
X51500
X51800Y30550
X52600Y30600
X55570Y30520
X55870Y29720
X57770Y29670
X57298Y30748
X56298Y31748
X55470Y33770
X55870Y34220
X54500Y28200
X57500
X56000Y25200
X53000
X53900Y22157
Y21557
X54500
Y22157
X61100Y22243
Y21643
X61700
Y22243
X60500Y28200
X61770Y29620
X61567Y30305
X62170Y30720
X62270Y31620
X61807Y33167
X62788Y33682
X63298Y32752
X65298Y32748
X64868Y33191
X66298Y32752
X67302Y32748
Y33748
X65270Y31720
X65298Y30748
X63770Y30620
X63500Y28200
X66500
X68900Y29500
X69100Y30300
X70100Y31800
X70400Y28600
X73300Y27850
X73500Y26250
X73500Y25000
X73500Y23750
Y22500
X73488Y20712
X76100Y20200
Y19700
X76600
Y20200
X77000Y19200
X80000
X81000Y19000
Y20000
Y21000
Y22000
Y23000
Y24000
Y25000
Y26000
Y27000
Y29000
Y30000
Y31000
Y32000
Y33000
Y34000
Y35000
Y36000
Y37000
Y38000
Y39000
Y40000
Y41000
Y42000
Y43000
Y44000
Y45000
X78500Y40200
X75800Y40300
Y40900
X73270Y40420
X72070
X70670Y40620
X69970Y39120
X68632Y37945
X65298Y37748
X65302Y38752
X62302Y38748
Y37748
X61302
X60302
X59302
X60302Y38748
X61302
X60812Y36818
X61812
X62801Y36740
X63819Y36732
X63294Y35708
X58867Y36123
X58770Y33620
X60270Y33220
X60298Y31748
Y30748
X58298
Y31748
Y38748
X60500Y40700
X62170Y40820
X62270Y41720
X62298Y42748
X62270Y44320
X63370Y44220
X64302Y43752
X65302
X66298Y42752
X67570Y42620
X68470Y42520
X69370
X70445Y42920
X70024Y44144
X68970Y43695
X67970Y43920
X67570Y44320
X71650Y44025
X72400Y44300
X72789Y44689
X73375Y45050
X74500Y43800
X73070Y39220
X74620Y37270
X71770Y37020
X75500Y34200
X78500
X80000Y31200
X78500Y28200
X77000Y25200
X80000
X78500Y22200
X81000Y18000
Y17000
Y16000
Y15000
Y14000
Y13000
Y12000
Y11000
Y10000
Y9000
Y8000
Y7000
Y6000
X80000Y7200
X77000
X78500Y10200
X77000Y13200
X80000
X71000
X70800Y10300
Y9700
X71500
Y10300
X72200
Y9700
X72900
Y10300
X71000Y7200
X66500Y7600
Y8600
Y9700
X64900
Y8600
Y7600
X61500Y5700
X60800
Y6300
X58600Y6500
Y5800
Y9000
Y9600
X60500Y16200
X71900Y16000
X69300Y24200
X74000Y31200
X80000Y37200
X64813Y41683
X60298Y42748
X60205Y43662
X58970Y44520
X61561Y44989
X62302Y45752
X63298
X63302Y46748
X62298
X61386Y47664
X61670Y48220
X62670Y48420
X63670Y48220
X62205Y49660
X61205
X60395Y49840
X59395
X60210Y48845
X59895Y47670
X60270Y46720
Y45720
X60167Y51423
X59470Y51620
X60870
X61390Y50655
X63167Y51123
X66570Y50820
X67370Y49220
X69645Y49295
X70570Y49520
Y50220
X69870Y50320
X71900Y50200
X72800Y50300
X73000Y51300
X74600Y50903
X73325Y47050
X72589Y47011
X72200Y47400
X71475Y47550
X71300Y48525
X69470Y47920
X68570Y47720
X67770Y47170
X66396Y46717
X66351Y45676
X68600Y45400
Y46100
X69400
X69387Y45407
X73389Y45811
X73000Y46200
X81000Y46000
Y47000
Y48000
Y49000
Y50000
Y51000
Y52000
Y53000
Y54000
Y55000
Y56000
Y57000
Y58000
Y59000
Y60000
Y61000
Y62000
Y63000
Y64000
Y65000
Y66000
Y67000
Y68000
Y69000
Y70000
Y71000
Y72000
Y73000
Y74000
Y75000
Y76000
Y77000
X79000Y79000
X78000
X77000
X76000
X75000
X74000
X73000
X72000
X71000
X70000
X69000
X68000
X67000
X66000
X65000
X64000
X63000
X62000
X61000
X60000
X59000
X59100Y74600
X58300Y73300
X59395Y71840
X60395
X61205Y71660
X62205
X62670Y70420
X63670Y70620
X64170Y70320
X64670Y69920
X65070Y68720
Y67920
X64670Y66720
X64170Y66320
Y65620
X63370Y66220
X62270Y66320
X61561Y66989
X62302Y67752
Y68748
X63298
Y67752
X60270Y67720
Y68720
X60170Y69620
X60210Y70845
X61670Y70220
X61400Y69708
X61390Y72655
X62000Y73200
X64400Y72900
X65302Y71752
X66302
X69100Y71700
Y71000
X69800Y72300
X70400Y74200
X72200Y74100
X72300Y73100
X72600Y71700
Y71000
X75500Y70200
X76200Y67300
Y66700
Y66050
Y65450
X77700Y64100
X77100Y62900
X76279Y62279
X76300Y61800
X76400Y60400
Y59850
Y59150
X76375Y58550
X76400Y57900
Y57350
X77425Y57000
X77450Y55675
X77425Y54350
X76400Y54800
Y55350
X78500Y58200
X80000Y61200
Y67200
Y73200
X77186Y73080
X77240Y73985
X77100Y72200
X75400Y74800
X75500Y76200
X72403Y76202
X70504Y76700
X64600Y74800
X61200Y76300
X62070Y64920
X62066Y63874
X60400Y63300
X60298Y64748
X58298Y64752
Y65752
X58470Y66420
X59667Y62223
X60302Y60748
Y59748
X59302Y59748
X58670Y58620
X58370Y56720
X58967Y56623
X58298Y54752
Y53752
X60298Y53748
Y52748
X61298Y53752
X61297Y54750
X61470Y55420
X63298Y54752
X64070Y55220
X65302Y53752
X67370Y52820
X68820Y53120
X69370
X70270
X71100Y54600
X71067Y55323
Y56823
X71070Y58520
X70070Y58420
X69770Y59320
X65298Y59748
X65370Y58820
X65367Y57723
X65298Y60748
X62302Y60748
Y59748
X61302
Y60748
X58302Y60752
X62882Y58870
X65298Y63748
X67214Y64892
X67302Y65748
Y67752
X68067Y69900
X68970Y69020
X70500Y66800
X73100Y66500
Y63400
X72187Y63452
X71570Y63420
X70470Y63520
X68467Y64323
X73070Y61120
X80000Y49200
X58298Y50752
X57298
X56070Y50620
X56370Y49720
X55670
X56070Y47020
X55870Y46020
X56100Y45400
X52900Y45463
X52300
X52123Y48120
Y48720
X49500Y49200
X48500
X48000Y50200
X49000
X49500Y51200
X48500
X47500
X46500
Y49200
X45500
X44500
X44000Y49200
X43500Y49200
X42500
X41500
X41000Y49200
X40500Y49200
X39500
X39000Y50200
X38000
X40000
X41000
X42000
X43000
X44000
X45000
X44500Y47200
X43500
X42500
X41500
X40500
X39500
X41000Y46200
X42000
X42500Y46200
X43000Y46200
Y48200
X42000
X41000
Y52200
X42000
X42500Y52200
X43000Y52200
X43500Y53200
X42500
X41500
X41000Y54200
X41000Y55200
X41500Y55200
X42500
X43500
X44000Y55200
X44000Y56200
X43000
X42000
X41000
X40000
X39000
X39500Y57200
X38500
X37500
X36000Y56200
X35000
X34000
X33000
X32000
X31000
X30000
X29000
X31500Y55200
X32000Y55200
X32500Y55200
X33500
X34500
X34000Y54200
X33000
X32000
X32500Y53200
X31500
X32000Y52200
X33000
X33500Y52200
X34000Y52200
X34500Y53200
X33500
Y49200
X32500
X32000Y49200
X31500Y49200
X30500
X29500
X27500
X26500
X26000Y49200
X25500Y49200
X24500
X23500
X23000Y49200
X22500Y49200
X21500
X20500
X20000Y49200
X21500Y47200
X22500
X23500
X24500
X25500
X26500
X25000Y46200
X24500Y46200
X24000Y46200
X23000
Y48200
X24000
X25000
Y52200
X24500Y52200
X24000Y52200
X23000
X23500Y53200
X22500
X23000Y54200
X23000Y55200
X22500Y55200
X23500
X24500
X24000Y54200
X25000
X24500Y53200
Y59200
X23500
X22500
X22000Y60200
X21000
Y62200
X20000
X22000
X23000
X24000
X25000
X26000
X27000
X26000Y60200
X25000
X24000
X23000
X23000Y61200
X22500Y61200
X23500
X24500
Y65200
X23500
X22500
X22000Y66200
X23000
X23000Y67200
X22500Y67200
X23500
X24500
X24000Y66200
X25000
Y68200
X24000
X23000
X22000
X23000Y73200
X20000
X18500Y76200
X21500
X24500
X27500
X30500
X33500
X36500
X39500
X42500
X42000Y79000
X43000
X44000
X45000
X46000
X47000
X48000
X49000
X50000
X51000
X52000
X53000
X54000
X55000
X56000
X57000
X58000
X57258Y72793
X57302Y71752
X57298Y70748
X55973Y70949
X55920Y69920
X55467Y68023
Y66623
Y65123
Y62923
X55670Y61920
X56070Y60520
X56770Y60620
X57370Y60820
X56215Y59275
X55870Y58120
X55470Y56920
X53800Y56610
X53200Y56500
X53737Y54920
Y54320
X54337
Y54920
X56070Y54420
X57298Y53752
X57708Y52095
X54900Y52400
X52037Y54320
Y54920
X49000Y56200
X48000
X48500Y57200
X48500Y58200
X49000Y58200
X49500Y57200
X47500
X46000Y56200
X45000
X44500Y57200
X43500
X42500
X41500
X40500
X41500Y59200
X42500
X43500
X43000Y60200
X42000
X41000
X41000Y61200
X41500Y61200
X42500
X43500
X43000Y62200
X42000
X41000
X40000
X39000
X39500Y63200
X38500
X40500
X41500
X42500
X43500
X44500
X45500
X45000Y62200
X44000
Y60200
X45000
X46000Y62200
X48000
X49000
X49500Y63200
X48500
X48500Y64200
X48000Y64200
X47000
X47500Y63200
X49000Y64200
X52088Y63895
X52614Y63896
X52143Y60250
Y59650
X49000Y60200
X40000
X36000
X35000
X34000
X33000
X32000
X32000Y61200
X32500Y61200
X33500
X34500
X34000Y62200
X33000
X32000
X31000
X30000
Y60200
X31000
X32500Y59200
X33500
X34500
X35000Y62200
X36000
X37000
X34500Y65200
X33500
X32500
X31500
X32000Y66200
X32000Y67200
X31500Y67200
X32500
X33500
X34500
X34000Y66200
X33000
Y68200
X32000
X34000
X33500Y70200
X30500
X29000Y73200
X26000
X26000Y79000
X27000
X28000
X29000
X30000
X31000
X32000
X33000
X34000
X35000
X36000
X37000
X38000
X39000
X40000
X41000
X41000Y73200
X38000
X35000
X32000
X36500Y70200
X39500
X42500
X42000Y68200
X41000
X41000Y67200
X41500Y67200
X42500
X43500
X43000Y66200
X42000
X41000
X41500Y65200
X42500
X43500
X44000Y66200
Y68200
X43000
X45500Y70200
X48500
X52200Y70700
Y71300
X54200
Y70700
X55370Y72720
X54800Y74600
X50000Y73200
X47000
X44000
X48500Y76200
X57302Y64748
X54507Y47300
X53900
X49500Y47200
X43000Y54200
X42000
X36500Y49200
X35500
X35000Y49200
X34500Y49200
X34000Y48200
X33000
X32000
X32500Y47200
X31500
X30500
X32000Y46200
X33000
X33500Y46200
X34000Y46200
X34500Y47200
X33500
X35500
X25000Y79000
X24000
X23000
X22000
X21000
X20000
X19000
X18000
X17000
X16000
X15000
X14000
X13000
X12000
X11000
X10000
X9000
X8000
X7000
X6000
X5000
X4000
X3000
X1000Y77000
Y76000
Y75000
Y74000
Y73000
Y72000
Y71000
Y70000
Y69000
Y68000
Y67000
Y66000
Y65000
Y64000
Y63000
Y62000
Y61000
Y60000
Y59000
Y58000
Y57000
Y56000
Y55000
Y54000
Y53000
Y52000
Y51000
Y50000
Y49000
Y48000
Y47000
Y46000
X2000Y49200
X3100Y51057
Y51657
X3500Y52200
X3100Y54857
Y55457
X2500
Y54857
X3500Y58200
X3800Y59457
Y60057
X3100Y61857
Y62457
X2000Y61200
X5400Y61100
X6800Y62200
X6500Y64200
X8700Y63700
X9500Y64200
X10028Y63534
X11330Y64024
X12626Y64350
X13932Y65168
X16300Y66500
X17200
X17000Y60200
X16200Y60200
X13932Y60007
X12626Y59188
X11330Y58863
X10028Y58373
X9300Y59000
X8700Y60800
Y55600
X8000Y55200
X6900Y57000
X6800Y51400
X5400Y50200
X5000Y49200
X8000
X8700Y50000
Y52900
X10028Y52734
X11330Y53224
X12626Y53550
X13932Y54368
X16200Y53600
X17200
Y47100
X16200
X12500Y46200
X9500
X9200Y70100
X9997Y70566
X11298Y71056
X12594Y71382
X13900Y72200
X14000Y73200
X11000
X9500Y76200
X6500
X5000Y73200
X2000
X3500Y70200
X6600Y70657
Y71257
X6900Y67800
X3100Y66257
X2500
Y65657
X3100
X2000Y67200
X12500Y76200
X15500
X17000Y73200
T02
X79000Y3000
X43000
X3000
Y44500
X79000
Y77000
X45536
X3000
M30
