G04*
G04 #@! TF.GenerationSoftware,Altium Limited,Altium Designer,26.4.1 (12)*
G04*
G04 Layer_Color=128*
%FSLAX44Y44*%
%MOMM*%
G71*
G04*
G04 #@! TF.SameCoordinates,591B39C8-AFFB-4739-8591-FA83B15D8AC8*
G04*
G04*
G04 #@! TF.FilePolarity,Positive*
G04*
G01*
G75*
%ADD113R,1.1938X0.7620*%
%ADD114R,2.4892X3.0988*%
%ADD115C,0.4500*%
G36*
X178654Y339000D02*
X201546D01*
Y325506D01*
X178654D01*
Y339000D01*
D02*
G37*
G36*
Y354494D02*
X201546D01*
Y341000D01*
X178654D01*
Y354494D01*
D02*
G37*
G36*
Y404000D02*
X201546D01*
Y390506D01*
X178654D01*
Y404000D01*
D02*
G37*
G36*
X271954Y339000D02*
X294846D01*
Y325506D01*
X271954D01*
Y339000D01*
D02*
G37*
G36*
Y354494D02*
X294846D01*
Y341000D01*
X271954D01*
Y354494D01*
D02*
G37*
G36*
Y404000D02*
X294846D01*
Y390506D01*
X271954D01*
Y404000D01*
D02*
G37*
G36*
X178654Y419494D02*
X201546D01*
Y406000D01*
X178654D01*
Y419494D01*
D02*
G37*
G36*
Y469000D02*
X201546D01*
Y455506D01*
X178654D01*
Y469000D01*
D02*
G37*
G36*
Y484494D02*
X201546D01*
Y471000D01*
X178654D01*
Y484494D01*
D02*
G37*
G36*
X271954Y419494D02*
X294846D01*
Y406000D01*
X271954D01*
Y419494D01*
D02*
G37*
G36*
Y469000D02*
X294846D01*
Y455506D01*
X271954D01*
Y469000D01*
D02*
G37*
G36*
Y484494D02*
X294846D01*
Y471000D01*
X271954D01*
Y484494D01*
D02*
G37*
G36*
X365254Y339000D02*
X388146D01*
Y325506D01*
X365254D01*
Y339000D01*
D02*
G37*
G36*
Y354494D02*
X388146D01*
Y341000D01*
X365254D01*
Y354494D01*
D02*
G37*
G36*
Y404000D02*
X388146D01*
Y390506D01*
X365254D01*
Y404000D01*
D02*
G37*
G36*
X458554Y339000D02*
X481446D01*
Y325506D01*
X458554D01*
Y339000D01*
D02*
G37*
G36*
Y354494D02*
X481446D01*
Y341000D01*
X458554D01*
Y354494D01*
D02*
G37*
G36*
Y404000D02*
X481446D01*
Y390506D01*
X458554D01*
Y404000D01*
D02*
G37*
G36*
X365254Y419494D02*
X388146D01*
Y406000D01*
X365254D01*
Y419494D01*
D02*
G37*
G36*
Y469000D02*
X388146D01*
Y455506D01*
X365254D01*
Y469000D01*
D02*
G37*
G36*
Y484494D02*
X388146D01*
Y471000D01*
X365254D01*
Y484494D01*
D02*
G37*
G36*
X458554Y419494D02*
X481446D01*
Y406000D01*
X458554D01*
Y419494D01*
D02*
G37*
G36*
Y469000D02*
X481446D01*
Y455506D01*
X458554D01*
Y469000D01*
D02*
G37*
G36*
Y484494D02*
X481446D01*
Y471000D01*
X458554D01*
Y484494D01*
D02*
G37*
G36*
X178654Y534000D02*
X201546D01*
Y520506D01*
X178654D01*
Y534000D01*
D02*
G37*
G36*
Y549494D02*
X201546D01*
Y536000D01*
X178654D01*
Y549494D01*
D02*
G37*
G36*
Y599000D02*
X201546D01*
Y585506D01*
X178654D01*
Y599000D01*
D02*
G37*
G36*
X271954Y534000D02*
X294846D01*
Y520506D01*
X271954D01*
Y534000D01*
D02*
G37*
G36*
Y549494D02*
X294846D01*
Y536000D01*
X271954D01*
Y549494D01*
D02*
G37*
G36*
Y599000D02*
X294846D01*
Y585506D01*
X271954D01*
Y599000D01*
D02*
G37*
G36*
X178654Y614494D02*
X201546D01*
Y601000D01*
X178654D01*
Y614494D01*
D02*
G37*
G36*
Y664000D02*
X201546D01*
Y650506D01*
X178654D01*
Y664000D01*
D02*
G37*
G36*
Y679494D02*
X201546D01*
Y666000D01*
X178654D01*
Y679494D01*
D02*
G37*
G36*
X271954Y614494D02*
X294846D01*
Y601000D01*
X271954D01*
Y614494D01*
D02*
G37*
G36*
Y664000D02*
X294846D01*
Y650506D01*
X271954D01*
Y664000D01*
D02*
G37*
G36*
Y679494D02*
X294846D01*
Y666000D01*
X271954D01*
Y679494D01*
D02*
G37*
G36*
X365254Y534000D02*
X388146D01*
Y520506D01*
X365254D01*
Y534000D01*
D02*
G37*
G36*
Y549494D02*
X388146D01*
Y536000D01*
X365254D01*
Y549494D01*
D02*
G37*
G36*
Y599000D02*
X388146D01*
Y585506D01*
X365254D01*
Y599000D01*
D02*
G37*
G36*
X458554Y534000D02*
X481446D01*
Y520506D01*
X458554D01*
Y534000D01*
D02*
G37*
G36*
Y549494D02*
X481446D01*
Y536000D01*
X458554D01*
Y549494D01*
D02*
G37*
G36*
Y599000D02*
X481446D01*
Y585506D01*
X458554D01*
Y599000D01*
D02*
G37*
G36*
X365254Y614494D02*
X388146D01*
Y601000D01*
X365254D01*
Y614494D01*
D02*
G37*
G36*
Y664000D02*
X388146D01*
Y650506D01*
X365254D01*
Y664000D01*
D02*
G37*
G36*
Y679494D02*
X388146D01*
Y666000D01*
X365254D01*
Y679494D01*
D02*
G37*
G36*
X458554Y614494D02*
X481446D01*
Y601000D01*
X458554D01*
Y614494D01*
D02*
G37*
G36*
Y664000D02*
X481446D01*
Y650506D01*
X458554D01*
Y664000D01*
D02*
G37*
G36*
Y679494D02*
X481446D01*
Y666000D01*
X458554D01*
Y679494D01*
D02*
G37*
D113*
X447902Y675000D02*
D03*
X492098Y655000D02*
D03*
Y675000D02*
D03*
X447902Y655000D02*
D03*
X168002Y675000D02*
D03*
X212198Y655000D02*
D03*
Y675000D02*
D03*
X168002Y655000D02*
D03*
X261302Y675000D02*
D03*
X305498Y655000D02*
D03*
Y675000D02*
D03*
X261302Y655000D02*
D03*
X354602Y675000D02*
D03*
X398798Y655000D02*
D03*
Y675000D02*
D03*
X354602Y655000D02*
D03*
X447902Y610000D02*
D03*
X492098Y590000D02*
D03*
Y610000D02*
D03*
X447902Y590000D02*
D03*
X354602Y610000D02*
D03*
X398798Y590000D02*
D03*
Y610000D02*
D03*
X354602Y590000D02*
D03*
X261302Y610000D02*
D03*
X305498Y590000D02*
D03*
Y610000D02*
D03*
X261302Y590000D02*
D03*
X168002Y610000D02*
D03*
X212198Y590000D02*
D03*
Y610000D02*
D03*
X168002Y590000D02*
D03*
Y545000D02*
D03*
X212198Y525000D02*
D03*
Y545000D02*
D03*
X168002Y525000D02*
D03*
X261302Y545000D02*
D03*
X305498Y525000D02*
D03*
Y545000D02*
D03*
X261302Y525000D02*
D03*
X447902Y545000D02*
D03*
X492098Y525000D02*
D03*
Y545000D02*
D03*
X447902Y525000D02*
D03*
X354602Y545000D02*
D03*
X398798Y525000D02*
D03*
Y545000D02*
D03*
X354602Y525000D02*
D03*
X447902Y480000D02*
D03*
X492098Y460000D02*
D03*
Y480000D02*
D03*
X447902Y460000D02*
D03*
X354602Y480000D02*
D03*
X398798Y460000D02*
D03*
Y480000D02*
D03*
X354602Y460000D02*
D03*
X261302Y480000D02*
D03*
X305498Y460000D02*
D03*
Y480000D02*
D03*
X261302Y460000D02*
D03*
X168002Y480000D02*
D03*
X212198Y460000D02*
D03*
Y480000D02*
D03*
X168002Y460000D02*
D03*
Y415000D02*
D03*
X212198Y395000D02*
D03*
Y415000D02*
D03*
X168002Y395000D02*
D03*
X261302Y415000D02*
D03*
X305498Y395000D02*
D03*
Y415000D02*
D03*
X261302Y395000D02*
D03*
X354602Y415000D02*
D03*
X398798Y395000D02*
D03*
Y415000D02*
D03*
X354602Y395000D02*
D03*
X447902Y415000D02*
D03*
X492098Y395000D02*
D03*
Y415000D02*
D03*
X447902Y395000D02*
D03*
Y350000D02*
D03*
X492098Y330000D02*
D03*
Y350000D02*
D03*
X447902Y330000D02*
D03*
X354602Y350000D02*
D03*
X398798Y330000D02*
D03*
Y350000D02*
D03*
X354602Y330000D02*
D03*
X261302Y350000D02*
D03*
X305498Y330000D02*
D03*
Y350000D02*
D03*
X261302Y330000D02*
D03*
X168002Y350000D02*
D03*
X212198Y330000D02*
D03*
Y350000D02*
D03*
X168002Y330000D02*
D03*
D114*
X470000Y665000D02*
D03*
X190100D02*
D03*
X283400D02*
D03*
X376700D02*
D03*
X470000Y600000D02*
D03*
X376700D02*
D03*
X283400D02*
D03*
X190100D02*
D03*
Y535000D02*
D03*
X283400D02*
D03*
X470000D02*
D03*
X376700D02*
D03*
X470000Y470000D02*
D03*
X376700D02*
D03*
X283400D02*
D03*
X190100D02*
D03*
Y405000D02*
D03*
X283400D02*
D03*
X376700D02*
D03*
X470000D02*
D03*
Y340000D02*
D03*
X376700D02*
D03*
X283400D02*
D03*
X190100D02*
D03*
D115*
X568000Y312500D02*
D03*
X598000Y342500D02*
D03*
X608000D02*
D03*
X598000Y362500D02*
D03*
X568000Y392500D02*
D03*
X598000Y352500D02*
D03*
X608000D02*
D03*
Y362500D02*
D03*
X568000Y422500D02*
D03*
Y502500D02*
D03*
X598000Y462500D02*
D03*
X608000Y452500D02*
D03*
X598000D02*
D03*
X608000Y462500D02*
D03*
X598000Y472500D02*
D03*
X608000D02*
D03*
X568000Y532500D02*
D03*
Y612500D02*
D03*
Y642500D02*
D03*
Y722500D02*
D03*
X598000Y562500D02*
D03*
Y572500D02*
D03*
Y582500D02*
D03*
X608000Y562500D02*
D03*
Y572500D02*
D03*
Y582500D02*
D03*
X598000Y672500D02*
D03*
Y682500D02*
D03*
Y692500D02*
D03*
X608000Y672500D02*
D03*
Y692500D02*
D03*
Y682500D02*
D03*
X628000Y312500D02*
D03*
Y322500D02*
D03*
Y342500D02*
D03*
X618000D02*
D03*
Y352500D02*
D03*
X628000D02*
D03*
X638000Y312500D02*
D03*
X648000Y322500D02*
D03*
X638000Y342500D02*
D03*
Y352500D02*
D03*
X618000Y362500D02*
D03*
X628000Y422500D02*
D03*
X618000Y452500D02*
D03*
X628000Y362500D02*
D03*
Y432500D02*
D03*
X638000Y362500D02*
D03*
Y422500D02*
D03*
X648000Y432500D02*
D03*
X628000Y452500D02*
D03*
X638000D02*
D03*
Y462500D02*
D03*
X668000Y312500D02*
D03*
X658000Y372500D02*
D03*
Y342500D02*
D03*
Y332500D02*
D03*
Y322500D02*
D03*
X668000Y382500D02*
D03*
Y422500D02*
D03*
X658000Y432500D02*
D03*
Y442500D02*
D03*
Y452500D02*
D03*
X618000Y462500D02*
D03*
Y472500D02*
D03*
Y562500D02*
D03*
Y572500D02*
D03*
X628000Y462500D02*
D03*
Y472500D02*
D03*
Y532500D02*
D03*
X638000Y472500D02*
D03*
Y532500D02*
D03*
X628000Y542500D02*
D03*
Y562500D02*
D03*
Y572500D02*
D03*
X638000D02*
D03*
Y562500D02*
D03*
X618000Y672500D02*
D03*
Y582500D02*
D03*
X628000Y672500D02*
D03*
X618000Y682500D02*
D03*
Y692500D02*
D03*
X628000D02*
D03*
Y582500D02*
D03*
Y642500D02*
D03*
Y652500D02*
D03*
X638000Y582500D02*
D03*
Y642500D02*
D03*
X628000Y682500D02*
D03*
X638000Y672500D02*
D03*
Y682500D02*
D03*
Y692500D02*
D03*
X658000Y482500D02*
D03*
X648000Y542500D02*
D03*
X658000D02*
D03*
X668000Y492500D02*
D03*
Y532500D02*
D03*
X658000Y552500D02*
D03*
Y562500D02*
D03*
X648000Y652500D02*
D03*
X658000Y592500D02*
D03*
Y652500D02*
D03*
Y662500D02*
D03*
Y702500D02*
D03*
Y672500D02*
D03*
X668000Y602500D02*
D03*
Y642500D02*
D03*
Y712500D02*
D03*
X618000Y422500D02*
D03*
Y432500D02*
D03*
Y532500D02*
D03*
Y542500D02*
D03*
Y652500D02*
D03*
Y642500D02*
D03*
Y312500D02*
D03*
Y322500D02*
D03*
X658000Y712500D02*
D03*
X578000D02*
D03*
X668000Y652500D02*
D03*
X638000D02*
D03*
X598000D02*
D03*
X588000D02*
D03*
Y542500D02*
D03*
X598000D02*
D03*
X638000D02*
D03*
X668000D02*
D03*
X578000Y602500D02*
D03*
X658000D02*
D03*
X588000Y432500D02*
D03*
X598000D02*
D03*
X638000D02*
D03*
X668000D02*
D03*
X578000Y492500D02*
D03*
X658000D02*
D03*
X588000Y322500D02*
D03*
X598000D02*
D03*
X638000D02*
D03*
X668000D02*
D03*
X578000Y382500D02*
D03*
X658000D02*
D03*
X578000Y722500D02*
D03*
Y392500D02*
D03*
X668000Y362500D02*
D03*
Y472500D02*
D03*
X578000Y502500D02*
D03*
Y612500D02*
D03*
X668000Y582500D02*
D03*
Y692500D02*
D03*
X588000Y642500D02*
D03*
X598000D02*
D03*
X608000D02*
D03*
X648000D02*
D03*
X658000D02*
D03*
X578000Y652500D02*
D03*
X568000Y662500D02*
D03*
X578000D02*
D03*
X668000D02*
D03*
X568000Y672500D02*
D03*
X578000D02*
D03*
X568000Y682500D02*
D03*
X578000D02*
D03*
X658000D02*
D03*
X668000D02*
D03*
X568000Y692500D02*
D03*
X578000D02*
D03*
X658000D02*
D03*
X568000Y702500D02*
D03*
X578000D02*
D03*
X668000D02*
D03*
X628000Y712500D02*
D03*
X638000D02*
D03*
X588000Y722500D02*
D03*
X628000D02*
D03*
X638000D02*
D03*
X648000D02*
D03*
X658000D02*
D03*
X648000Y712500D02*
D03*
X588000D02*
D03*
X568000D02*
D03*
X668000Y672500D02*
D03*
X608000Y652500D02*
D03*
X568000D02*
D03*
X578000Y642500D02*
D03*
X608000Y722500D02*
D03*
Y712500D02*
D03*
X598000D02*
D03*
Y722500D02*
D03*
X618000Y712500D02*
D03*
Y722500D02*
D03*
X588000Y312500D02*
D03*
X608000D02*
D03*
X648000D02*
D03*
X658000D02*
D03*
X668000Y332500D02*
D03*
X588000Y422500D02*
D03*
X608000D02*
D03*
X648000D02*
D03*
X658000D02*
D03*
X668000Y442500D02*
D03*
X588000Y532500D02*
D03*
X608000D02*
D03*
X648000D02*
D03*
X658000D02*
D03*
X668000Y552500D02*
D03*
X598000Y612500D02*
D03*
X608000D02*
D03*
Y602500D02*
D03*
X598000D02*
D03*
X618000Y612500D02*
D03*
Y602500D02*
D03*
X648000Y612500D02*
D03*
X638000D02*
D03*
X628000D02*
D03*
X588000D02*
D03*
X638000Y602500D02*
D03*
X628000D02*
D03*
X668000Y592500D02*
D03*
X578000D02*
D03*
X568000D02*
D03*
X658000Y582500D02*
D03*
X578000D02*
D03*
X568000D02*
D03*
X668000Y572500D02*
D03*
X658000D02*
D03*
X578000D02*
D03*
X568000D02*
D03*
X578000Y562500D02*
D03*
X568000D02*
D03*
X578000Y552500D02*
D03*
X568000D02*
D03*
X578000Y542500D02*
D03*
X598000Y532500D02*
D03*
X578000D02*
D03*
X568000Y542500D02*
D03*
X608000D02*
D03*
X668000Y562500D02*
D03*
X568000Y602500D02*
D03*
X588000D02*
D03*
X648000D02*
D03*
X658000Y612500D02*
D03*
X648000Y502500D02*
D03*
X638000D02*
D03*
X628000D02*
D03*
X618000D02*
D03*
X608000D02*
D03*
X598000D02*
D03*
X588000D02*
D03*
X638000Y492500D02*
D03*
X628000D02*
D03*
X618000D02*
D03*
X608000D02*
D03*
X598000D02*
D03*
X668000Y482500D02*
D03*
X578000D02*
D03*
X568000D02*
D03*
X658000Y472500D02*
D03*
X578000D02*
D03*
X568000D02*
D03*
X668000Y462500D02*
D03*
X658000D02*
D03*
X578000D02*
D03*
X568000D02*
D03*
X578000Y452500D02*
D03*
X568000D02*
D03*
X578000Y442500D02*
D03*
X568000D02*
D03*
X578000Y432500D02*
D03*
X598000Y422500D02*
D03*
X578000D02*
D03*
X568000Y432500D02*
D03*
X608000D02*
D03*
X668000Y452500D02*
D03*
X568000Y492500D02*
D03*
X588000D02*
D03*
X648000D02*
D03*
X658000Y502500D02*
D03*
X578000Y312500D02*
D03*
X568000Y322500D02*
D03*
X608000D02*
D03*
X668000Y342500D02*
D03*
X568000Y382500D02*
D03*
X588000D02*
D03*
X648000D02*
D03*
X658000Y392500D02*
D03*
X648000D02*
D03*
X638000D02*
D03*
X628000D02*
D03*
X618000D02*
D03*
X608000D02*
D03*
X598000D02*
D03*
X588000D02*
D03*
X638000Y382500D02*
D03*
X628000D02*
D03*
X618000D02*
D03*
X608000D02*
D03*
X598000D02*
D03*
X668000Y372500D02*
D03*
X578000D02*
D03*
X568000D02*
D03*
X658000Y362500D02*
D03*
X578000D02*
D03*
X568000D02*
D03*
X668000Y352500D02*
D03*
X658000D02*
D03*
X578000D02*
D03*
X568000D02*
D03*
X578000Y342500D02*
D03*
X568000D02*
D03*
X578000Y332500D02*
D03*
X568000D02*
D03*
X578000Y322500D02*
D03*
X598000Y312500D02*
D03*
M02*
