G04*
G04 #@! TF.GenerationSoftware,Altium Limited,Altium Designer,26.4.1 (12)*
G04*
G04 Layer_Color=255*
%FSLAX44Y44*%
%MOMM*%
G71*
G04*
G04 #@! TF.SameCoordinates,C1CB827C-30EA-48D1-8105-98592C5B5D01*
G04*
G04*
G04 #@! TF.FilePolarity,Positive*
G04*
G01*
G75*
%ADD107C,5.0000*%
%ADD113R,1.1938X0.7620*%
%ADD114R,2.4892X3.0988*%
%ADD115C,0.4500*%
D107*
X30000Y30000D02*
D03*
X430000D02*
D03*
X30000Y445000D02*
D03*
Y770000D02*
D03*
X455360D02*
D03*
X790000Y30000D02*
D03*
Y445000D02*
D03*
Y770000D02*
D03*
D113*
X212198Y610000D02*
D03*
Y590000D02*
D03*
X168002Y610000D02*
D03*
Y590000D02*
D03*
X261302D02*
D03*
Y610000D02*
D03*
X305498Y590000D02*
D03*
Y610000D02*
D03*
X398798D02*
D03*
Y590000D02*
D03*
X354602Y610000D02*
D03*
Y590000D02*
D03*
X447902D02*
D03*
Y610000D02*
D03*
X492098Y590000D02*
D03*
Y610000D02*
D03*
X212198Y675000D02*
D03*
Y655000D02*
D03*
X168002Y675000D02*
D03*
Y655000D02*
D03*
X447902D02*
D03*
Y675000D02*
D03*
X492098Y655000D02*
D03*
Y675000D02*
D03*
X305498D02*
D03*
Y655000D02*
D03*
X261302Y675000D02*
D03*
Y655000D02*
D03*
X354602D02*
D03*
Y675000D02*
D03*
X398798Y655000D02*
D03*
Y675000D02*
D03*
X212198Y480000D02*
D03*
Y460000D02*
D03*
X168002Y480000D02*
D03*
Y460000D02*
D03*
X261302D02*
D03*
Y480000D02*
D03*
X305498Y460000D02*
D03*
Y480000D02*
D03*
X398798D02*
D03*
Y460000D02*
D03*
X354602Y480000D02*
D03*
Y460000D02*
D03*
X447902D02*
D03*
Y480000D02*
D03*
X492098Y460000D02*
D03*
Y480000D02*
D03*
X212198Y545000D02*
D03*
Y525000D02*
D03*
X168002Y545000D02*
D03*
Y525000D02*
D03*
X447902D02*
D03*
Y545000D02*
D03*
X492098Y525000D02*
D03*
Y545000D02*
D03*
X305498D02*
D03*
Y525000D02*
D03*
X261302Y545000D02*
D03*
Y525000D02*
D03*
X354602D02*
D03*
Y545000D02*
D03*
X398798Y525000D02*
D03*
Y545000D02*
D03*
X212198Y350000D02*
D03*
Y330000D02*
D03*
X168002Y350000D02*
D03*
Y330000D02*
D03*
X261302D02*
D03*
Y350000D02*
D03*
X305498Y330000D02*
D03*
Y350000D02*
D03*
X398798D02*
D03*
Y330000D02*
D03*
X354602Y350000D02*
D03*
Y330000D02*
D03*
X447902D02*
D03*
Y350000D02*
D03*
X492098Y330000D02*
D03*
Y350000D02*
D03*
X212198Y415000D02*
D03*
Y395000D02*
D03*
X168002Y415000D02*
D03*
Y395000D02*
D03*
X447902D02*
D03*
Y415000D02*
D03*
X492098Y395000D02*
D03*
Y415000D02*
D03*
X305498D02*
D03*
Y395000D02*
D03*
X261302Y415000D02*
D03*
Y395000D02*
D03*
X354602D02*
D03*
Y415000D02*
D03*
X398798Y395000D02*
D03*
Y415000D02*
D03*
D114*
X190100Y600000D02*
D03*
X283400D02*
D03*
X376700D02*
D03*
X470000D02*
D03*
X190100Y665000D02*
D03*
X470000D02*
D03*
X283400D02*
D03*
X376700D02*
D03*
X190100Y470000D02*
D03*
X283400D02*
D03*
X376700D02*
D03*
X470000D02*
D03*
X190100Y535000D02*
D03*
X470000D02*
D03*
X283400D02*
D03*
X376700D02*
D03*
X190100Y340000D02*
D03*
X283400D02*
D03*
X376700D02*
D03*
X470000D02*
D03*
X190100Y405000D02*
D03*
X470000D02*
D03*
X283400D02*
D03*
X376700D02*
D03*
D115*
X568000Y312500D02*
D03*
X598000Y342500D02*
D03*
X608000D02*
D03*
X598000Y362500D02*
D03*
X568000Y392500D02*
D03*
X598000Y352500D02*
D03*
X608000D02*
D03*
Y362500D02*
D03*
X568000Y422500D02*
D03*
Y502500D02*
D03*
X598000Y462500D02*
D03*
X608000Y452500D02*
D03*
X598000D02*
D03*
X608000Y462500D02*
D03*
X598000Y472500D02*
D03*
X608000D02*
D03*
X568000Y532500D02*
D03*
Y612500D02*
D03*
Y642500D02*
D03*
Y722500D02*
D03*
X598000Y562500D02*
D03*
Y572500D02*
D03*
Y582500D02*
D03*
X608000Y562500D02*
D03*
Y572500D02*
D03*
Y582500D02*
D03*
X598000Y672500D02*
D03*
Y682500D02*
D03*
Y692500D02*
D03*
X608000Y672500D02*
D03*
Y692500D02*
D03*
Y682500D02*
D03*
X628000Y312500D02*
D03*
Y322500D02*
D03*
Y342500D02*
D03*
X618000D02*
D03*
Y352500D02*
D03*
X628000D02*
D03*
X638000Y312500D02*
D03*
X648000Y322500D02*
D03*
X638000Y342500D02*
D03*
Y352500D02*
D03*
X618000Y362500D02*
D03*
X628000Y422500D02*
D03*
X618000Y452500D02*
D03*
X628000Y362500D02*
D03*
Y432500D02*
D03*
X638000Y362500D02*
D03*
Y422500D02*
D03*
X648000Y432500D02*
D03*
X628000Y452500D02*
D03*
X638000D02*
D03*
Y462500D02*
D03*
X668000Y312500D02*
D03*
X658000Y372500D02*
D03*
Y342500D02*
D03*
Y332500D02*
D03*
Y322500D02*
D03*
X668000Y382500D02*
D03*
Y422500D02*
D03*
X658000Y432500D02*
D03*
Y442500D02*
D03*
Y452500D02*
D03*
X618000Y462500D02*
D03*
Y472500D02*
D03*
Y562500D02*
D03*
Y572500D02*
D03*
X628000Y462500D02*
D03*
Y472500D02*
D03*
Y532500D02*
D03*
X638000Y472500D02*
D03*
Y532500D02*
D03*
X628000Y542500D02*
D03*
Y562500D02*
D03*
Y572500D02*
D03*
X638000D02*
D03*
Y562500D02*
D03*
X618000Y672500D02*
D03*
Y582500D02*
D03*
X628000Y672500D02*
D03*
X618000Y682500D02*
D03*
Y692500D02*
D03*
X628000D02*
D03*
Y582500D02*
D03*
Y642500D02*
D03*
Y652500D02*
D03*
X638000Y582500D02*
D03*
Y642500D02*
D03*
X628000Y682500D02*
D03*
X638000Y672500D02*
D03*
Y682500D02*
D03*
Y692500D02*
D03*
X658000Y482500D02*
D03*
X648000Y542500D02*
D03*
X658000D02*
D03*
X668000Y492500D02*
D03*
Y532500D02*
D03*
X658000Y552500D02*
D03*
Y562500D02*
D03*
X648000Y652500D02*
D03*
X658000Y592500D02*
D03*
Y652500D02*
D03*
Y662500D02*
D03*
Y702500D02*
D03*
Y672500D02*
D03*
X668000Y602500D02*
D03*
Y642500D02*
D03*
Y712500D02*
D03*
X618000Y422500D02*
D03*
Y432500D02*
D03*
Y532500D02*
D03*
Y542500D02*
D03*
Y652500D02*
D03*
Y642500D02*
D03*
Y312500D02*
D03*
Y322500D02*
D03*
X658000Y712500D02*
D03*
X578000D02*
D03*
X668000Y652500D02*
D03*
X638000D02*
D03*
X598000D02*
D03*
X588000D02*
D03*
Y542500D02*
D03*
X598000D02*
D03*
X638000D02*
D03*
X668000D02*
D03*
X578000Y602500D02*
D03*
X658000D02*
D03*
X588000Y432500D02*
D03*
X598000D02*
D03*
X638000D02*
D03*
X668000D02*
D03*
X578000Y492500D02*
D03*
X658000D02*
D03*
X588000Y322500D02*
D03*
X598000D02*
D03*
X638000D02*
D03*
X668000D02*
D03*
X578000Y382500D02*
D03*
X658000D02*
D03*
X578000Y722500D02*
D03*
Y392500D02*
D03*
X668000Y362500D02*
D03*
Y472500D02*
D03*
X578000Y502500D02*
D03*
Y612500D02*
D03*
X668000Y582500D02*
D03*
Y692500D02*
D03*
X588000Y642500D02*
D03*
X598000D02*
D03*
X608000D02*
D03*
X648000D02*
D03*
X658000D02*
D03*
X578000Y652500D02*
D03*
X568000Y662500D02*
D03*
X578000D02*
D03*
X668000D02*
D03*
X568000Y672500D02*
D03*
X578000D02*
D03*
X568000Y682500D02*
D03*
X578000D02*
D03*
X658000D02*
D03*
X668000D02*
D03*
X568000Y692500D02*
D03*
X578000D02*
D03*
X658000D02*
D03*
X568000Y702500D02*
D03*
X578000D02*
D03*
X668000D02*
D03*
X628000Y712500D02*
D03*
X638000D02*
D03*
X588000Y722500D02*
D03*
X628000D02*
D03*
X638000D02*
D03*
X648000D02*
D03*
X658000D02*
D03*
X648000Y712500D02*
D03*
X588000D02*
D03*
X568000D02*
D03*
X668000Y672500D02*
D03*
X608000Y652500D02*
D03*
X568000D02*
D03*
X578000Y642500D02*
D03*
X608000Y722500D02*
D03*
Y712500D02*
D03*
X598000D02*
D03*
Y722500D02*
D03*
X618000Y712500D02*
D03*
Y722500D02*
D03*
X588000Y312500D02*
D03*
X608000D02*
D03*
X648000D02*
D03*
X658000D02*
D03*
X668000Y332500D02*
D03*
X588000Y422500D02*
D03*
X608000D02*
D03*
X648000D02*
D03*
X658000D02*
D03*
X668000Y442500D02*
D03*
X588000Y532500D02*
D03*
X608000D02*
D03*
X648000D02*
D03*
X658000D02*
D03*
X668000Y552500D02*
D03*
X598000Y612500D02*
D03*
X608000D02*
D03*
Y602500D02*
D03*
X598000D02*
D03*
X618000Y612500D02*
D03*
Y602500D02*
D03*
X648000Y612500D02*
D03*
X638000D02*
D03*
X628000D02*
D03*
X588000D02*
D03*
X638000Y602500D02*
D03*
X628000D02*
D03*
X668000Y592500D02*
D03*
X578000D02*
D03*
X568000D02*
D03*
X658000Y582500D02*
D03*
X578000D02*
D03*
X568000D02*
D03*
X668000Y572500D02*
D03*
X658000D02*
D03*
X578000D02*
D03*
X568000D02*
D03*
X578000Y562500D02*
D03*
X568000D02*
D03*
X578000Y552500D02*
D03*
X568000D02*
D03*
X578000Y542500D02*
D03*
X598000Y532500D02*
D03*
X578000D02*
D03*
X568000Y542500D02*
D03*
X608000D02*
D03*
X668000Y562500D02*
D03*
X568000Y602500D02*
D03*
X588000D02*
D03*
X648000D02*
D03*
X658000Y612500D02*
D03*
X648000Y502500D02*
D03*
X638000D02*
D03*
X628000D02*
D03*
X618000D02*
D03*
X608000D02*
D03*
X598000D02*
D03*
X588000D02*
D03*
X638000Y492500D02*
D03*
X628000D02*
D03*
X618000D02*
D03*
X608000D02*
D03*
X598000D02*
D03*
X668000Y482500D02*
D03*
X578000D02*
D03*
X568000D02*
D03*
X658000Y472500D02*
D03*
X578000D02*
D03*
X568000D02*
D03*
X668000Y462500D02*
D03*
X658000D02*
D03*
X578000D02*
D03*
X568000D02*
D03*
X578000Y452500D02*
D03*
X568000D02*
D03*
X578000Y442500D02*
D03*
X568000D02*
D03*
X578000Y432500D02*
D03*
X598000Y422500D02*
D03*
X578000D02*
D03*
X568000Y432500D02*
D03*
X608000D02*
D03*
X668000Y452500D02*
D03*
X568000Y492500D02*
D03*
X588000D02*
D03*
X648000D02*
D03*
X658000Y502500D02*
D03*
X578000Y312500D02*
D03*
X568000Y322500D02*
D03*
X608000D02*
D03*
X668000Y342500D02*
D03*
X568000Y382500D02*
D03*
X588000D02*
D03*
X648000D02*
D03*
X658000Y392500D02*
D03*
X648000D02*
D03*
X638000D02*
D03*
X628000D02*
D03*
X618000D02*
D03*
X608000D02*
D03*
X598000D02*
D03*
X588000D02*
D03*
X638000Y382500D02*
D03*
X628000D02*
D03*
X618000D02*
D03*
X608000D02*
D03*
X598000D02*
D03*
X668000Y372500D02*
D03*
X578000D02*
D03*
X568000D02*
D03*
X658000Y362500D02*
D03*
X578000D02*
D03*
X568000D02*
D03*
X668000Y352500D02*
D03*
X658000D02*
D03*
X578000D02*
D03*
X568000D02*
D03*
X578000Y342500D02*
D03*
X568000D02*
D03*
X578000Y332500D02*
D03*
X568000D02*
D03*
X578000Y322500D02*
D03*
X598000Y312500D02*
D03*
M02*
